<?xml version="1.0" encoding="utf-8"?>
<svg xmlns="http://www.w3.org/2000/svg" xmlns:xlink="http://www.w3.org/1999/xlink" width="600" height="400" viewBox="0 0 2400 1600">
<defs>
  <clipPath id="clip480">
    <rect x="0" y="0" width="2400" height="1600"/>
  </clipPath>
</defs>
<path clip-path="url(#clip480)" d="M0 1600 L2400 1600 L2400 0 L0 0  Z" fill="#ffffff" fill-rule="evenodd" fill-opacity="1"/>
<defs>
  <clipPath id="clip481">
    <rect x="480" y="0" width="1681" height="1600"/>
  </clipPath>
</defs>
<path clip-path="url(#clip480)" d="M205.121 1486.45 L2352.76 1486.45 L2352.76 123.472 L205.121 123.472  Z" fill="#ffffff" fill-rule="evenodd" fill-opacity="1"/>
<defs>
  <clipPath id="clip482">
    <rect x="205" y="123" width="2149" height="1364"/>
  </clipPath>
</defs>
<polyline clip-path="url(#clip482)" style="stroke:#000000; stroke-linecap:round; stroke-linejoin:round; stroke-width:2; stroke-opacity:0.1; fill:none" points="265.903,1486.45 265.903,123.472 "/>
<polyline clip-path="url(#clip482)" style="stroke:#000000; stroke-linecap:round; stroke-linejoin:round; stroke-width:2; stroke-opacity:0.1; fill:none" points="671.117,1486.45 671.117,123.472 "/>
<polyline clip-path="url(#clip482)" style="stroke:#000000; stroke-linecap:round; stroke-linejoin:round; stroke-width:2; stroke-opacity:0.1; fill:none" points="1076.33,1486.45 1076.33,123.472 "/>
<polyline clip-path="url(#clip482)" style="stroke:#000000; stroke-linecap:round; stroke-linejoin:round; stroke-width:2; stroke-opacity:0.1; fill:none" points="1481.55,1486.45 1481.55,123.472 "/>
<polyline clip-path="url(#clip482)" style="stroke:#000000; stroke-linecap:round; stroke-linejoin:round; stroke-width:2; stroke-opacity:0.1; fill:none" points="1886.76,1486.45 1886.76,123.472 "/>
<polyline clip-path="url(#clip482)" style="stroke:#000000; stroke-linecap:round; stroke-linejoin:round; stroke-width:2; stroke-opacity:0.1; fill:none" points="2291.97,1486.45 2291.97,123.472 "/>
<polyline clip-path="url(#clip482)" style="stroke:#000000; stroke-linecap:round; stroke-linejoin:round; stroke-width:2; stroke-opacity:0.1; fill:none" points="205.121,1486.45 2352.76,1486.45 "/>
<polyline clip-path="url(#clip482)" style="stroke:#000000; stroke-linecap:round; stroke-linejoin:round; stroke-width:2; stroke-opacity:0.1; fill:none" points="205.121,1145.7 2352.76,1145.7 "/>
<polyline clip-path="url(#clip482)" style="stroke:#000000; stroke-linecap:round; stroke-linejoin:round; stroke-width:2; stroke-opacity:0.1; fill:none" points="205.121,804.96 2352.76,804.96 "/>
<polyline clip-path="url(#clip482)" style="stroke:#000000; stroke-linecap:round; stroke-linejoin:round; stroke-width:2; stroke-opacity:0.1; fill:none" points="205.121,464.216 2352.76,464.216 "/>
<polyline clip-path="url(#clip482)" style="stroke:#000000; stroke-linecap:round; stroke-linejoin:round; stroke-width:2; stroke-opacity:0.1; fill:none" points="205.121,123.472 2352.76,123.472 "/>
<polyline clip-path="url(#clip480)" style="stroke:#000000; stroke-linecap:round; stroke-linejoin:round; stroke-width:4; stroke-opacity:1; fill:none" points="205.121,1486.45 2352.76,1486.45 "/>
<polyline clip-path="url(#clip480)" style="stroke:#000000; stroke-linecap:round; stroke-linejoin:round; stroke-width:4; stroke-opacity:1; fill:none" points="265.903,1486.45 265.903,1467.55 "/>
<polyline clip-path="url(#clip480)" style="stroke:#000000; stroke-linecap:round; stroke-linejoin:round; stroke-width:4; stroke-opacity:1; fill:none" points="671.117,1486.45 671.117,1467.55 "/>
<polyline clip-path="url(#clip480)" style="stroke:#000000; stroke-linecap:round; stroke-linejoin:round; stroke-width:4; stroke-opacity:1; fill:none" points="1076.33,1486.45 1076.33,1467.55 "/>
<polyline clip-path="url(#clip480)" style="stroke:#000000; stroke-linecap:round; stroke-linejoin:round; stroke-width:4; stroke-opacity:1; fill:none" points="1481.55,1486.45 1481.55,1467.55 "/>
<polyline clip-path="url(#clip480)" style="stroke:#000000; stroke-linecap:round; stroke-linejoin:round; stroke-width:4; stroke-opacity:1; fill:none" points="1886.76,1486.45 1886.76,1467.55 "/>
<polyline clip-path="url(#clip480)" style="stroke:#000000; stroke-linecap:round; stroke-linejoin:round; stroke-width:4; stroke-opacity:1; fill:none" points="2291.97,1486.45 2291.97,1467.55 "/>
<path clip-path="url(#clip480)" d="M214.514 1544.91 L230.834 1544.91 L230.834 1548.85 L208.89 1548.85 L208.89 1544.91 Q211.552 1542.16 216.135 1537.53 Q220.741 1532.88 221.922 1531.53 Q224.167 1529.01 225.047 1527.27 Q225.95 1525.51 225.95 1523.82 Q225.95 1521.07 224.005 1519.33 Q222.084 1517.6 218.982 1517.6 Q216.783 1517.6 214.329 1518.36 Q211.899 1519.13 209.121 1520.68 L209.121 1515.95 Q211.945 1514.82 214.399 1514.24 Q216.852 1513.66 218.889 1513.66 Q224.26 1513.66 227.454 1516.35 Q230.649 1519.03 230.649 1523.52 Q230.649 1525.65 229.838 1527.57 Q229.051 1529.47 226.945 1532.07 Q226.366 1532.74 223.264 1535.95 Q220.163 1539.15 214.514 1544.91 Z" fill="#000000" fill-rule="nonzero" fill-opacity="1" /><path clip-path="url(#clip480)" d="M250.649 1517.37 Q247.037 1517.37 245.209 1520.93 Q243.403 1524.47 243.403 1531.6 Q243.403 1538.71 245.209 1542.27 Q247.037 1545.82 250.649 1545.82 Q254.283 1545.82 256.088 1542.27 Q257.917 1538.71 257.917 1531.6 Q257.917 1524.47 256.088 1520.93 Q254.283 1517.37 250.649 1517.37 M250.649 1513.66 Q256.459 1513.66 259.514 1518.27 Q262.593 1522.85 262.593 1531.6 Q262.593 1540.33 259.514 1544.94 Q256.459 1549.52 250.649 1549.52 Q244.838 1549.52 241.76 1544.94 Q238.704 1540.33 238.704 1531.6 Q238.704 1522.85 241.76 1518.27 Q244.838 1513.66 250.649 1513.66 Z" fill="#000000" fill-rule="nonzero" fill-opacity="1" /><path clip-path="url(#clip480)" d="M274.838 1544.91 L291.158 1544.91 L291.158 1548.85 L269.213 1548.85 L269.213 1544.91 Q271.875 1542.16 276.459 1537.53 Q281.065 1532.88 282.246 1531.53 Q284.491 1529.01 285.371 1527.27 Q286.273 1525.51 286.273 1523.82 Q286.273 1521.07 284.329 1519.33 Q282.408 1517.6 279.306 1517.6 Q277.107 1517.6 274.653 1518.36 Q272.223 1519.13 269.445 1520.68 L269.445 1515.95 Q272.269 1514.82 274.722 1514.24 Q277.176 1513.66 279.213 1513.66 Q284.584 1513.66 287.778 1516.35 Q290.972 1519.03 290.972 1523.52 Q290.972 1525.65 290.162 1527.57 Q289.375 1529.47 287.269 1532.07 Q286.69 1532.74 283.588 1535.95 Q280.486 1539.15 274.838 1544.91 Z" fill="#000000" fill-rule="nonzero" fill-opacity="1" /><path clip-path="url(#clip480)" d="M310.972 1517.37 Q307.361 1517.37 305.533 1520.93 Q303.727 1524.47 303.727 1531.6 Q303.727 1538.71 305.533 1542.27 Q307.361 1545.82 310.972 1545.82 Q314.607 1545.82 316.412 1542.27 Q318.241 1538.71 318.241 1531.6 Q318.241 1524.47 316.412 1520.93 Q314.607 1517.37 310.972 1517.37 M310.972 1513.66 Q316.782 1513.66 319.838 1518.27 Q322.917 1522.85 322.917 1531.6 Q322.917 1540.33 319.838 1544.94 Q316.782 1549.52 310.972 1549.52 Q305.162 1549.52 302.083 1544.94 Q299.028 1540.33 299.028 1531.6 Q299.028 1522.85 302.083 1518.27 Q305.162 1513.66 310.972 1513.66 Z" fill="#000000" fill-rule="nonzero" fill-opacity="1" /><path clip-path="url(#clip480)" d="M619.729 1544.91 L636.048 1544.91 L636.048 1548.85 L614.104 1548.85 L614.104 1544.91 Q616.766 1542.16 621.349 1537.53 Q625.955 1532.88 627.136 1531.53 Q629.381 1529.01 630.261 1527.27 Q631.164 1525.51 631.164 1523.82 Q631.164 1521.07 629.219 1519.33 Q627.298 1517.6 624.196 1517.6 Q621.997 1517.6 619.543 1518.36 Q617.113 1519.13 614.335 1520.68 L614.335 1515.95 Q617.159 1514.82 619.613 1514.24 Q622.067 1513.66 624.104 1513.66 Q629.474 1513.66 632.668 1516.35 Q635.863 1519.03 635.863 1523.52 Q635.863 1525.65 635.053 1527.57 Q634.266 1529.47 632.159 1532.07 Q631.58 1532.74 628.479 1535.95 Q625.377 1539.15 619.729 1544.91 Z" fill="#000000" fill-rule="nonzero" fill-opacity="1" /><path clip-path="url(#clip480)" d="M655.863 1517.37 Q652.252 1517.37 650.423 1520.93 Q648.617 1524.47 648.617 1531.6 Q648.617 1538.71 650.423 1542.27 Q652.252 1545.82 655.863 1545.82 Q659.497 1545.82 661.302 1542.27 Q663.131 1538.71 663.131 1531.6 Q663.131 1524.47 661.302 1520.93 Q659.497 1517.37 655.863 1517.37 M655.863 1513.66 Q661.673 1513.66 664.728 1518.27 Q667.807 1522.85 667.807 1531.6 Q667.807 1540.33 664.728 1544.94 Q661.673 1549.52 655.863 1549.52 Q650.053 1549.52 646.974 1544.94 Q643.918 1540.33 643.918 1531.6 Q643.918 1522.85 646.974 1518.27 Q650.053 1513.66 655.863 1513.66 Z" fill="#000000" fill-rule="nonzero" fill-opacity="1" /><path clip-path="url(#clip480)" d="M690.191 1530.21 Q693.548 1530.93 695.423 1533.2 Q697.321 1535.47 697.321 1538.8 Q697.321 1543.92 693.802 1546.72 Q690.284 1549.52 683.802 1549.52 Q681.626 1549.52 679.312 1549.08 Q677.02 1548.66 674.566 1547.81 L674.566 1543.29 Q676.511 1544.43 678.826 1545.01 Q681.14 1545.58 683.663 1545.58 Q688.062 1545.58 690.353 1543.85 Q692.668 1542.11 692.668 1538.8 Q692.668 1535.75 690.515 1534.03 Q688.386 1532.3 684.566 1532.3 L680.538 1532.3 L680.538 1528.45 L684.751 1528.45 Q688.2 1528.45 690.029 1527.09 Q691.858 1525.7 691.858 1523.11 Q691.858 1520.45 689.96 1519.03 Q688.085 1517.6 684.566 1517.6 Q682.645 1517.6 680.446 1518.01 Q678.247 1518.43 675.608 1519.31 L675.608 1515.14 Q678.27 1514.4 680.585 1514.03 Q682.923 1513.66 684.983 1513.66 Q690.307 1513.66 693.409 1516.09 Q696.511 1518.5 696.511 1522.62 Q696.511 1525.49 694.867 1527.48 Q693.224 1529.45 690.191 1530.21 Z" fill="#000000" fill-rule="nonzero" fill-opacity="1" /><path clip-path="url(#clip480)" d="M716.186 1517.37 Q712.575 1517.37 710.747 1520.93 Q708.941 1524.47 708.941 1531.6 Q708.941 1538.71 710.747 1542.27 Q712.575 1545.82 716.186 1545.82 Q719.821 1545.82 721.626 1542.27 Q723.455 1538.71 723.455 1531.6 Q723.455 1524.47 721.626 1520.93 Q719.821 1517.37 716.186 1517.37 M716.186 1513.66 Q721.997 1513.66 725.052 1518.27 Q728.131 1522.85 728.131 1531.6 Q728.131 1540.33 725.052 1544.94 Q721.997 1549.52 716.186 1549.52 Q710.376 1549.52 707.298 1544.94 Q704.242 1540.33 704.242 1531.6 Q704.242 1522.85 707.298 1518.27 Q710.376 1513.66 716.186 1513.66 Z" fill="#000000" fill-rule="nonzero" fill-opacity="1" /><path clip-path="url(#clip480)" d="M1024.94 1544.91 L1041.26 1544.91 L1041.26 1548.85 L1019.32 1548.85 L1019.32 1544.91 Q1021.98 1542.16 1026.56 1537.53 Q1031.17 1532.88 1032.35 1531.53 Q1034.6 1529.01 1035.48 1527.27 Q1036.38 1525.51 1036.38 1523.82 Q1036.38 1521.07 1034.43 1519.33 Q1032.51 1517.6 1029.41 1517.6 Q1027.21 1517.6 1024.76 1518.36 Q1022.33 1519.13 1019.55 1520.68 L1019.55 1515.95 Q1022.37 1514.82 1024.83 1514.24 Q1027.28 1513.66 1029.32 1513.66 Q1034.69 1513.66 1037.88 1516.35 Q1041.08 1519.03 1041.08 1523.52 Q1041.08 1525.65 1040.27 1527.57 Q1039.48 1529.47 1037.37 1532.07 Q1036.79 1532.74 1033.69 1535.95 Q1030.59 1539.15 1024.94 1544.91 Z" fill="#000000" fill-rule="nonzero" fill-opacity="1" /><path clip-path="url(#clip480)" d="M1061.08 1517.37 Q1057.47 1517.37 1055.64 1520.93 Q1053.83 1524.47 1053.83 1531.6 Q1053.83 1538.71 1055.64 1542.27 Q1057.47 1545.82 1061.08 1545.82 Q1064.71 1545.82 1066.52 1542.27 Q1068.35 1538.71 1068.35 1531.6 Q1068.35 1524.47 1066.52 1520.93 Q1064.71 1517.37 1061.08 1517.37 M1061.08 1513.66 Q1066.89 1513.66 1069.94 1518.27 Q1073.02 1522.85 1073.02 1531.6 Q1073.02 1540.33 1069.94 1544.94 Q1066.89 1549.52 1061.08 1549.52 Q1055.27 1549.52 1052.19 1544.94 Q1049.13 1540.33 1049.13 1531.6 Q1049.13 1522.85 1052.19 1518.27 Q1055.27 1513.66 1061.08 1513.66 Z" fill="#000000" fill-rule="nonzero" fill-opacity="1" /><path clip-path="url(#clip480)" d="M1094.09 1518.36 L1082.28 1536.81 L1094.09 1536.81 L1094.09 1518.36 M1092.86 1514.29 L1098.74 1514.29 L1098.74 1536.81 L1103.67 1536.81 L1103.67 1540.7 L1098.74 1540.7 L1098.74 1548.85 L1094.09 1548.85 L1094.09 1540.7 L1078.48 1540.7 L1078.48 1536.19 L1092.86 1514.29 Z" fill="#000000" fill-rule="nonzero" fill-opacity="1" /><path clip-path="url(#clip480)" d="M1121.4 1517.37 Q1117.79 1517.37 1115.96 1520.93 Q1114.16 1524.47 1114.16 1531.6 Q1114.16 1538.71 1115.96 1542.27 Q1117.79 1545.82 1121.4 1545.82 Q1125.03 1545.82 1126.84 1542.27 Q1128.67 1538.71 1128.67 1531.6 Q1128.67 1524.47 1126.84 1520.93 Q1125.03 1517.37 1121.4 1517.37 M1121.4 1513.66 Q1127.21 1513.66 1130.27 1518.27 Q1133.34 1522.85 1133.34 1531.6 Q1133.34 1540.33 1130.27 1544.94 Q1127.21 1549.52 1121.4 1549.52 Q1115.59 1549.52 1112.51 1544.94 Q1109.46 1540.33 1109.46 1531.6 Q1109.46 1522.85 1112.51 1518.27 Q1115.59 1513.66 1121.4 1513.66 Z" fill="#000000" fill-rule="nonzero" fill-opacity="1" /><path clip-path="url(#clip480)" d="M1430.16 1544.91 L1446.48 1544.91 L1446.48 1548.85 L1424.53 1548.85 L1424.53 1544.91 Q1427.19 1542.16 1431.78 1537.53 Q1436.38 1532.88 1437.56 1531.53 Q1439.81 1529.01 1440.69 1527.27 Q1441.59 1525.51 1441.59 1523.82 Q1441.59 1521.07 1439.65 1519.33 Q1437.73 1517.6 1434.62 1517.6 Q1432.43 1517.6 1429.97 1518.36 Q1427.54 1519.13 1424.76 1520.68 L1424.76 1515.95 Q1427.59 1514.82 1430.04 1514.24 Q1432.49 1513.66 1434.53 1513.66 Q1439.9 1513.66 1443.1 1516.35 Q1446.29 1519.03 1446.29 1523.52 Q1446.29 1525.65 1445.48 1527.57 Q1444.69 1529.47 1442.59 1532.07 Q1442.01 1532.74 1438.91 1535.95 Q1435.81 1539.15 1430.16 1544.91 Z" fill="#000000" fill-rule="nonzero" fill-opacity="1" /><path clip-path="url(#clip480)" d="M1466.29 1517.37 Q1462.68 1517.37 1460.85 1520.93 Q1459.05 1524.47 1459.05 1531.6 Q1459.05 1538.71 1460.85 1542.27 Q1462.68 1545.82 1466.29 1545.82 Q1469.93 1545.82 1471.73 1542.27 Q1473.56 1538.71 1473.56 1531.6 Q1473.56 1524.47 1471.73 1520.93 Q1469.93 1517.37 1466.29 1517.37 M1466.29 1513.66 Q1472.1 1513.66 1475.16 1518.27 Q1478.24 1522.85 1478.24 1531.6 Q1478.24 1540.33 1475.16 1544.94 Q1472.1 1549.52 1466.29 1549.52 Q1460.48 1549.52 1457.4 1544.94 Q1454.35 1540.33 1454.35 1531.6 Q1454.35 1522.85 1457.4 1518.27 Q1460.48 1513.66 1466.29 1513.66 Z" fill="#000000" fill-rule="nonzero" fill-opacity="1" /><path clip-path="url(#clip480)" d="M1486.5 1514.29 L1504.86 1514.29 L1504.86 1518.22 L1490.78 1518.22 L1490.78 1526.7 Q1491.8 1526.35 1492.82 1526.19 Q1493.84 1526 1494.86 1526 Q1500.64 1526 1504.02 1529.17 Q1507.4 1532.34 1507.4 1537.76 Q1507.4 1543.34 1503.93 1546.44 Q1500.46 1549.52 1494.14 1549.52 Q1491.96 1549.52 1489.69 1549.15 Q1487.45 1548.78 1485.04 1548.04 L1485.04 1543.34 Q1487.12 1544.47 1489.35 1545.03 Q1491.57 1545.58 1494.05 1545.58 Q1498.05 1545.58 1500.39 1543.48 Q1502.73 1541.37 1502.73 1537.76 Q1502.73 1534.15 1500.39 1532.04 Q1498.05 1529.94 1494.05 1529.94 Q1492.17 1529.94 1490.3 1530.35 Q1488.44 1530.77 1486.5 1531.65 L1486.5 1514.29 Z" fill="#000000" fill-rule="nonzero" fill-opacity="1" /><path clip-path="url(#clip480)" d="M1526.61 1517.37 Q1523 1517.37 1521.17 1520.93 Q1519.37 1524.47 1519.37 1531.6 Q1519.37 1538.71 1521.17 1542.27 Q1523 1545.82 1526.61 1545.82 Q1530.25 1545.82 1532.05 1542.27 Q1533.88 1538.71 1533.88 1531.6 Q1533.88 1524.47 1532.05 1520.93 Q1530.25 1517.37 1526.61 1517.37 M1526.61 1513.66 Q1532.42 1513.66 1535.48 1518.27 Q1538.56 1522.85 1538.56 1531.6 Q1538.56 1540.33 1535.48 1544.94 Q1532.42 1549.52 1526.61 1549.52 Q1520.8 1549.52 1517.73 1544.94 Q1514.67 1540.33 1514.67 1531.6 Q1514.67 1522.85 1517.73 1518.27 Q1520.8 1513.66 1526.61 1513.66 Z" fill="#000000" fill-rule="nonzero" fill-opacity="1" /><path clip-path="url(#clip480)" d="M1835.37 1544.91 L1851.69 1544.91 L1851.69 1548.85 L1829.75 1548.85 L1829.75 1544.91 Q1832.41 1542.16 1836.99 1537.53 Q1841.6 1532.88 1842.78 1531.53 Q1845.02 1529.01 1845.9 1527.27 Q1846.81 1525.51 1846.81 1523.82 Q1846.81 1521.07 1844.86 1519.33 Q1842.94 1517.6 1839.84 1517.6 Q1837.64 1517.6 1835.19 1518.36 Q1832.76 1519.13 1829.98 1520.68 L1829.98 1515.95 Q1832.8 1514.82 1835.26 1514.24 Q1837.71 1513.66 1839.75 1513.66 Q1845.12 1513.66 1848.31 1516.35 Q1851.51 1519.03 1851.51 1523.52 Q1851.51 1525.65 1850.7 1527.57 Q1849.91 1529.47 1847.8 1532.07 Q1847.22 1532.74 1844.12 1535.95 Q1841.02 1539.15 1835.37 1544.91 Z" fill="#000000" fill-rule="nonzero" fill-opacity="1" /><path clip-path="url(#clip480)" d="M1871.51 1517.37 Q1867.89 1517.37 1866.07 1520.93 Q1864.26 1524.47 1864.26 1531.6 Q1864.26 1538.71 1866.07 1542.27 Q1867.89 1545.82 1871.51 1545.82 Q1875.14 1545.82 1876.94 1542.27 Q1878.77 1538.71 1878.77 1531.6 Q1878.77 1524.47 1876.94 1520.93 Q1875.14 1517.37 1871.51 1517.37 M1871.51 1513.66 Q1877.32 1513.66 1880.37 1518.27 Q1883.45 1522.85 1883.45 1531.6 Q1883.45 1540.33 1880.37 1544.94 Q1877.32 1549.52 1871.51 1549.52 Q1865.69 1549.52 1862.62 1544.94 Q1859.56 1540.33 1859.56 1531.6 Q1859.56 1522.85 1862.62 1518.27 Q1865.69 1513.66 1871.51 1513.66 Z" fill="#000000" fill-rule="nonzero" fill-opacity="1" /><path clip-path="url(#clip480)" d="M1902.25 1529.7 Q1899.1 1529.7 1897.25 1531.86 Q1895.42 1534.01 1895.42 1537.76 Q1895.42 1541.49 1897.25 1543.66 Q1899.1 1545.82 1902.25 1545.82 Q1905.39 1545.82 1907.22 1543.66 Q1909.07 1541.49 1909.07 1537.76 Q1909.07 1534.01 1907.22 1531.86 Q1905.39 1529.7 1902.25 1529.7 M1911.53 1515.05 L1911.53 1519.31 Q1909.77 1518.48 1907.96 1518.04 Q1906.18 1517.6 1904.42 1517.6 Q1899.79 1517.6 1897.34 1520.72 Q1894.91 1523.85 1894.56 1530.17 Q1895.93 1528.15 1897.99 1527.09 Q1900.05 1526 1902.52 1526 Q1907.73 1526 1910.74 1529.17 Q1913.77 1532.32 1913.77 1537.76 Q1913.77 1543.08 1910.63 1546.3 Q1907.48 1549.52 1902.25 1549.52 Q1896.25 1549.52 1893.08 1544.94 Q1889.91 1540.33 1889.91 1531.6 Q1889.91 1523.41 1893.8 1518.55 Q1897.69 1513.66 1904.24 1513.66 Q1906 1513.66 1907.78 1514.01 Q1909.58 1514.36 1911.53 1515.05 Z" fill="#000000" fill-rule="nonzero" fill-opacity="1" /><path clip-path="url(#clip480)" d="M1931.83 1517.37 Q1928.22 1517.37 1926.39 1520.93 Q1924.58 1524.47 1924.58 1531.6 Q1924.58 1538.71 1926.39 1542.27 Q1928.22 1545.82 1931.83 1545.82 Q1935.46 1545.82 1937.27 1542.27 Q1939.1 1538.71 1939.1 1531.6 Q1939.1 1524.47 1937.27 1520.93 Q1935.46 1517.37 1931.83 1517.37 M1931.83 1513.66 Q1937.64 1513.66 1940.69 1518.27 Q1943.77 1522.85 1943.77 1531.6 Q1943.77 1540.33 1940.69 1544.94 Q1937.64 1549.52 1931.83 1549.52 Q1926.02 1549.52 1922.94 1544.94 Q1919.88 1540.33 1919.88 1531.6 Q1919.88 1522.85 1922.94 1518.27 Q1926.02 1513.66 1931.83 1513.66 Z" fill="#000000" fill-rule="nonzero" fill-opacity="1" /><path clip-path="url(#clip480)" d="M2240.59 1544.91 L2256.9 1544.91 L2256.9 1548.85 L2234.96 1548.85 L2234.96 1544.91 Q2237.62 1542.16 2242.21 1537.53 Q2246.81 1532.88 2247.99 1531.53 Q2250.24 1529.01 2251.12 1527.27 Q2252.02 1525.51 2252.02 1523.82 Q2252.02 1521.07 2250.08 1519.33 Q2248.15 1517.6 2245.05 1517.6 Q2242.85 1517.6 2240.4 1518.36 Q2237.97 1519.13 2235.19 1520.68 L2235.19 1515.95 Q2238.02 1514.82 2240.47 1514.24 Q2242.92 1513.66 2244.96 1513.66 Q2250.33 1513.66 2253.52 1516.35 Q2256.72 1519.03 2256.72 1523.52 Q2256.72 1525.65 2255.91 1527.57 Q2255.12 1529.47 2253.02 1532.07 Q2252.44 1532.74 2249.34 1535.95 Q2246.23 1539.15 2240.59 1544.91 Z" fill="#000000" fill-rule="nonzero" fill-opacity="1" /><path clip-path="url(#clip480)" d="M2276.72 1517.37 Q2273.11 1517.37 2271.28 1520.93 Q2269.47 1524.47 2269.47 1531.6 Q2269.47 1538.71 2271.28 1542.27 Q2273.11 1545.82 2276.72 1545.82 Q2280.35 1545.82 2282.16 1542.27 Q2283.99 1538.71 2283.99 1531.6 Q2283.99 1524.47 2282.16 1520.93 Q2280.35 1517.37 2276.72 1517.37 M2276.72 1513.66 Q2282.53 1513.66 2285.58 1518.27 Q2288.66 1522.85 2288.66 1531.6 Q2288.66 1540.33 2285.58 1544.94 Q2282.53 1549.52 2276.72 1549.52 Q2270.91 1549.52 2267.83 1544.94 Q2264.77 1540.33 2264.77 1531.6 Q2264.77 1522.85 2267.83 1518.27 Q2270.91 1513.66 2276.72 1513.66 Z" fill="#000000" fill-rule="nonzero" fill-opacity="1" /><path clip-path="url(#clip480)" d="M2295.7 1514.29 L2317.92 1514.29 L2317.92 1516.28 L2305.38 1548.85 L2300.49 1548.85 L2312.3 1518.22 L2295.7 1518.22 L2295.7 1514.29 Z" fill="#000000" fill-rule="nonzero" fill-opacity="1" /><path clip-path="url(#clip480)" d="M2337.04 1517.37 Q2333.43 1517.37 2331.6 1520.93 Q2329.8 1524.47 2329.8 1531.6 Q2329.8 1538.71 2331.6 1542.27 Q2333.43 1545.82 2337.04 1545.82 Q2340.68 1545.82 2342.48 1542.27 Q2344.31 1538.71 2344.31 1531.6 Q2344.31 1524.47 2342.48 1520.93 Q2340.68 1517.37 2337.04 1517.37 M2337.04 1513.66 Q2342.85 1513.66 2345.91 1518.27 Q2348.99 1522.85 2348.99 1531.6 Q2348.99 1540.33 2345.91 1544.94 Q2342.85 1549.52 2337.04 1549.52 Q2331.23 1549.52 2328.15 1544.94 Q2325.1 1540.33 2325.1 1531.6 Q2325.1 1522.85 2328.15 1518.27 Q2331.23 1513.66 2337.04 1513.66 Z" fill="#000000" fill-rule="nonzero" fill-opacity="1" /><polyline clip-path="url(#clip480)" style="stroke:#000000; stroke-linecap:round; stroke-linejoin:round; stroke-width:4; stroke-opacity:1; fill:none" points="205.121,1486.45 205.121,123.472 "/>
<polyline clip-path="url(#clip480)" style="stroke:#000000; stroke-linecap:round; stroke-linejoin:round; stroke-width:4; stroke-opacity:1; fill:none" points="205.121,1486.45 224.019,1486.45 "/>
<polyline clip-path="url(#clip480)" style="stroke:#000000; stroke-linecap:round; stroke-linejoin:round; stroke-width:4; stroke-opacity:1; fill:none" points="205.121,1145.7 224.019,1145.7 "/>
<polyline clip-path="url(#clip480)" style="stroke:#000000; stroke-linecap:round; stroke-linejoin:round; stroke-width:4; stroke-opacity:1; fill:none" points="205.121,804.96 224.019,804.96 "/>
<polyline clip-path="url(#clip480)" style="stroke:#000000; stroke-linecap:round; stroke-linejoin:round; stroke-width:4; stroke-opacity:1; fill:none" points="205.121,464.216 224.019,464.216 "/>
<polyline clip-path="url(#clip480)" style="stroke:#000000; stroke-linecap:round; stroke-linejoin:round; stroke-width:4; stroke-opacity:1; fill:none" points="205.121,123.472 224.019,123.472 "/>
<path clip-path="url(#clip480)" d="M157.177 1472.25 Q153.566 1472.25 151.737 1475.81 Q149.931 1479.35 149.931 1486.48 Q149.931 1493.59 151.737 1497.15 Q153.566 1500.7 157.177 1500.7 Q160.811 1500.7 162.616 1497.15 Q164.445 1493.59 164.445 1486.48 Q164.445 1479.35 162.616 1475.81 Q160.811 1472.25 157.177 1472.25 M157.177 1468.54 Q162.987 1468.54 166.042 1473.15 Q169.121 1477.73 169.121 1486.48 Q169.121 1495.21 166.042 1499.82 Q162.987 1504.4 157.177 1504.4 Q151.366 1504.4 148.288 1499.82 Q145.232 1495.21 145.232 1486.48 Q145.232 1477.73 148.288 1473.15 Q151.366 1468.54 157.177 1468.54 Z" fill="#000000" fill-rule="nonzero" fill-opacity="1" /><path clip-path="url(#clip480)" d="M117.825 1159.05 L125.464 1159.05 L125.464 1132.68 L117.154 1134.35 L117.154 1130.09 L125.418 1128.42 L130.093 1128.42 L130.093 1159.05 L137.732 1159.05 L137.732 1162.98 L117.825 1162.98 L117.825 1159.05 Z" fill="#000000" fill-rule="nonzero" fill-opacity="1" /><path clip-path="url(#clip480)" d="M157.177 1131.5 Q153.566 1131.5 151.737 1135.07 Q149.931 1138.61 149.931 1145.74 Q149.931 1152.85 151.737 1156.41 Q153.566 1159.95 157.177 1159.95 Q160.811 1159.95 162.616 1156.41 Q164.445 1152.85 164.445 1145.74 Q164.445 1138.61 162.616 1135.07 Q160.811 1131.5 157.177 1131.5 M157.177 1127.8 Q162.987 1127.8 166.042 1132.41 Q169.121 1136.99 169.121 1145.74 Q169.121 1154.47 166.042 1159.07 Q162.987 1163.66 157.177 1163.66 Q151.366 1163.66 148.288 1159.07 Q145.232 1154.47 145.232 1145.74 Q145.232 1136.99 148.288 1132.41 Q151.366 1127.8 157.177 1127.8 Z" fill="#000000" fill-rule="nonzero" fill-opacity="1" /><path clip-path="url(#clip480)" d="M121.043 818.305 L137.362 818.305 L137.362 822.24 L115.418 822.24 L115.418 818.305 Q118.08 815.55 122.663 810.921 Q127.269 806.268 128.45 804.925 Q130.695 802.402 131.575 800.666 Q132.478 798.907 132.478 797.217 Q132.478 794.462 130.533 792.726 Q128.612 790.99 125.51 790.99 Q123.311 790.99 120.857 791.754 Q118.427 792.518 115.649 794.069 L115.649 789.347 Q118.473 788.212 120.927 787.634 Q123.38 787.055 125.418 787.055 Q130.788 787.055 133.982 789.74 Q137.177 792.425 137.177 796.916 Q137.177 799.046 136.367 800.967 Q135.579 802.865 133.473 805.458 Q132.894 806.129 129.792 809.347 Q126.691 812.541 121.043 818.305 Z" fill="#000000" fill-rule="nonzero" fill-opacity="1" /><path clip-path="url(#clip480)" d="M157.177 790.759 Q153.566 790.759 151.737 794.323 Q149.931 797.865 149.931 804.995 Q149.931 812.101 151.737 815.666 Q153.566 819.208 157.177 819.208 Q160.811 819.208 162.616 815.666 Q164.445 812.101 164.445 804.995 Q164.445 797.865 162.616 794.323 Q160.811 790.759 157.177 790.759 M157.177 787.055 Q162.987 787.055 166.042 791.661 Q169.121 796.245 169.121 804.995 Q169.121 813.722 166.042 818.328 Q162.987 822.911 157.177 822.911 Q151.366 822.911 148.288 818.328 Q145.232 813.722 145.232 804.995 Q145.232 796.245 148.288 791.661 Q151.366 787.055 157.177 787.055 Z" fill="#000000" fill-rule="nonzero" fill-opacity="1" /><path clip-path="url(#clip480)" d="M131.181 462.862 Q134.538 463.579 136.413 465.848 Q138.311 468.117 138.311 471.45 Q138.311 476.566 134.792 479.366 Q131.274 482.167 124.793 482.167 Q122.617 482.167 120.302 481.728 Q118.01 481.311 115.556 480.454 L115.556 475.941 Q117.501 477.075 119.816 477.653 Q122.13 478.232 124.654 478.232 Q129.052 478.232 131.343 476.496 Q133.658 474.76 133.658 471.45 Q133.658 468.394 131.505 466.681 Q129.376 464.945 125.556 464.945 L121.529 464.945 L121.529 461.103 L125.742 461.103 Q129.191 461.103 131.019 459.737 Q132.848 458.348 132.848 455.755 Q132.848 453.093 130.95 451.681 Q129.075 450.246 125.556 450.246 Q123.635 450.246 121.436 450.663 Q119.237 451.08 116.598 451.959 L116.598 447.793 Q119.26 447.052 121.575 446.681 Q123.913 446.311 125.973 446.311 Q131.297 446.311 134.399 448.742 Q137.501 451.149 137.501 455.269 Q137.501 458.14 135.857 460.13 Q134.214 462.098 131.181 462.862 Z" fill="#000000" fill-rule="nonzero" fill-opacity="1" /><path clip-path="url(#clip480)" d="M157.177 450.015 Q153.566 450.015 151.737 453.58 Q149.931 457.121 149.931 464.251 Q149.931 471.357 151.737 474.922 Q153.566 478.464 157.177 478.464 Q160.811 478.464 162.616 474.922 Q164.445 471.357 164.445 464.251 Q164.445 457.121 162.616 453.58 Q160.811 450.015 157.177 450.015 M157.177 446.311 Q162.987 446.311 166.042 450.918 Q169.121 455.501 169.121 464.251 Q169.121 472.978 166.042 477.584 Q162.987 482.167 157.177 482.167 Q151.366 482.167 148.288 477.584 Q145.232 472.978 145.232 464.251 Q145.232 455.501 148.288 450.918 Q151.366 446.311 157.177 446.311 Z" fill="#000000" fill-rule="nonzero" fill-opacity="1" /><path clip-path="url(#clip480)" d="M129.862 110.266 L118.056 128.715 L129.862 128.715 L129.862 110.266 M128.635 106.192 L134.515 106.192 L134.515 128.715 L139.445 128.715 L139.445 132.604 L134.515 132.604 L134.515 140.752 L129.862 140.752 L129.862 132.604 L114.26 132.604 L114.26 128.09 L128.635 106.192 Z" fill="#000000" fill-rule="nonzero" fill-opacity="1" /><path clip-path="url(#clip480)" d="M157.177 109.271 Q153.566 109.271 151.737 112.836 Q149.931 116.377 149.931 123.507 Q149.931 130.613 151.737 134.178 Q153.566 137.72 157.177 137.72 Q160.811 137.72 162.616 134.178 Q164.445 130.613 164.445 123.507 Q164.445 116.377 162.616 112.836 Q160.811 109.271 157.177 109.271 M157.177 105.567 Q162.987 105.567 166.042 110.174 Q169.121 114.757 169.121 123.507 Q169.121 132.234 166.042 136.84 Q162.987 141.423 157.177 141.423 Q151.366 141.423 148.288 136.84 Q145.232 132.234 145.232 123.507 Q145.232 114.757 148.288 110.174 Q151.366 105.567 157.177 105.567 Z" fill="#000000" fill-rule="nonzero" fill-opacity="1" /><path clip-path="url(#clip480)" d="M57.2247 911.172 L44.4614 911.172 L44.4614 921.675 L39.1779 921.675 L39.1779 904.806 L59.58 904.806 Q62.2218 908.53 63.5904 913.018 Q64.9272 917.506 64.9272 922.598 Q64.9272 933.738 58.4342 940.04 Q51.9093 946.311 40.2919 946.311 Q28.6427 946.311 22.1496 940.04 Q15.6248 933.738 15.6248 922.598 Q15.6248 917.951 16.7706 913.782 Q17.9164 909.58 20.1444 906.047 L26.9876 906.047 Q23.9639 909.612 22.4361 913.623 Q20.9083 917.633 20.9083 922.057 Q20.9083 930.778 25.7781 935.171 Q30.6479 939.531 40.2919 939.531 Q49.9041 939.531 54.7739 935.171 Q59.6436 930.778 59.6436 922.057 Q59.6436 918.652 59.0707 915.978 Q58.466 913.304 57.2247 911.172 Z" fill="#000000" fill-rule="nonzero" fill-opacity="1" /><path clip-path="url(#clip480)" d="M18.2347 887.523 L28.3562 887.523 L28.3562 875.46 L32.9077 875.46 L32.9077 887.523 L52.2594 887.523 Q56.6199 887.523 57.8613 886.346 Q59.1026 885.136 59.1026 881.476 L59.1026 875.46 L64.0042 875.46 L64.0042 881.476 Q64.0042 888.255 61.4897 890.833 Q58.9434 893.411 52.2594 893.411 L32.9077 893.411 L32.9077 897.708 L28.3562 897.708 L28.3562 893.411 L18.2347 893.411 L18.2347 887.523 Z" fill="#000000" fill-rule="nonzero" fill-opacity="1" /><path clip-path="url(#clip480)" d="M20.1444 831.919 L26.9239 831.919 Q23.9002 835.165 22.4043 838.857 Q20.9083 842.518 20.9083 846.655 Q20.9083 854.803 25.9054 859.132 Q30.8707 863.461 40.2919 863.461 Q49.6813 863.461 54.6784 859.132 Q59.6436 854.803 59.6436 846.655 Q59.6436 842.518 58.1477 838.857 Q56.6518 835.165 53.6281 831.919 L60.3439 831.919 Q62.6355 835.293 63.7814 839.08 Q64.9272 842.836 64.9272 847.037 Q64.9272 857.827 58.3387 864.034 Q51.7183 870.24 40.2919 870.24 Q28.8336 870.24 22.2451 864.034 Q15.6248 857.827 15.6248 847.037 Q15.6248 842.772 16.7706 839.017 Q17.8846 835.229 20.1444 831.919 Z" fill="#000000" fill-rule="nonzero" fill-opacity="1" /><path clip-path="url(#clip480)" d="M20.8447 802.7 Q20.8447 809.702 26.0645 813.84 Q31.2844 817.946 40.2919 817.946 Q49.2675 817.946 54.4874 813.84 Q59.7073 809.702 59.7073 802.7 Q59.7073 795.698 54.4874 791.624 Q49.2675 787.518 40.2919 787.518 Q31.2844 787.518 26.0645 791.624 Q20.8447 795.698 20.8447 802.7 M15.6248 802.7 Q15.6248 792.706 22.3406 786.722 Q29.0246 780.738 40.2919 780.738 Q51.5274 780.738 58.2432 786.722 Q64.9272 792.706 64.9272 802.7 Q64.9272 812.726 58.2432 818.742 Q51.5592 824.726 40.2919 824.726 Q29.0246 824.726 22.3406 818.742 Q15.6248 812.726 15.6248 802.7 Z" fill="#000000" fill-rule="nonzero" fill-opacity="1" /><path clip-path="url(#clip480)" d="M60.3757 768.548 L60.3757 755.053 L64.0042 755.053 L64.0042 774.086 L60.503 774.086 Q59.5163 773.004 57.7339 770.999 Q48.0262 760.05 45.0344 760.05 Q42.9337 760.05 41.6605 761.705 Q40.3556 763.36 40.3556 766.066 Q40.3556 767.721 40.9285 769.662 Q41.4696 771.604 42.5836 773.895 L38.6686 773.895 Q37.7774 771.445 37.3318 769.344 Q36.8862 767.211 36.8862 765.397 Q36.8862 760.782 38.9869 758.013 Q41.0876 755.244 44.5251 755.244 Q48.9493 755.244 57.9886 765.779 Q59.5163 767.561 60.3757 768.548 Z" fill="#000000" fill-rule="nonzero" fill-opacity="1" /><path clip-path="url(#clip480)" d="M16.4842 734.396 L16.4842 728.985 L70.0516 745.536 L70.0516 750.947 L16.4842 734.396 Z" fill="#000000" fill-rule="nonzero" fill-opacity="1" /><path clip-path="url(#clip480)" d="M67.3143 708.01 Q73.68 710.493 75.6216 712.848 Q77.5631 715.204 77.5631 719.15 L77.5631 723.829 L72.6615 723.829 L72.6615 720.392 Q72.6615 717.973 71.5157 716.636 Q70.3699 715.299 66.1048 713.676 L63.4312 712.625 L28.3562 727.044 L28.3562 720.837 L56.238 709.697 L28.3562 698.557 L28.3562 692.351 L67.3143 708.01 Z" fill="#000000" fill-rule="nonzero" fill-opacity="1" /><path clip-path="url(#clip480)" d="M33.8307 663.609 Q33.2578 664.596 33.0032 665.774 Q32.7167 666.92 32.7167 668.32 Q32.7167 673.285 35.9632 675.959 Q39.1779 678.601 45.2253 678.601 L64.0042 678.601 L64.0042 684.489 L28.3562 684.489 L28.3562 678.601 L33.8944 678.601 Q30.6479 676.755 29.0883 673.795 Q27.4968 670.835 27.4968 666.601 Q27.4968 665.997 27.5923 665.265 Q27.656 664.533 27.8151 663.641 L33.8307 663.609 Z" fill="#000000" fill-rule="nonzero" fill-opacity="1" /><path clip-path="url(#clip480)" d="M1035.16 16.7545 L1035.16 25.383 Q1031.02 21.5346 1026.32 19.6307 Q1021.67 17.7268 1016.4 17.7268 Q1006.03 17.7268 1000.52 24.0867 Q995.011 30.4061 995.011 42.3968 Q995.011 54.3469 1000.52 60.7069 Q1006.03 67.0263 1016.4 67.0263 Q1021.67 67.0263 1026.32 65.1223 Q1031.02 63.2184 1035.16 59.3701 L1035.16 67.9175 Q1030.86 70.8341 1026.04 72.2924 Q1021.26 73.7508 1015.91 73.7508 Q1002.18 73.7508 994.281 65.3654 Q986.382 56.9395 986.382 42.3968 Q986.382 27.8135 994.281 19.4281 Q1002.18 11.0023 1015.91 11.0023 Q1021.34 11.0023 1026.12 12.4606 Q1030.94 13.8784 1035.16 16.7545 Z" fill="#000000" fill-rule="nonzero" fill-opacity="1" /><path clip-path="url(#clip480)" d="M1072.34 17.6457 Q1063.43 17.6457 1058.16 24.2892 Q1052.94 30.9327 1052.94 42.3968 Q1052.94 53.8203 1058.16 60.4638 Q1063.43 67.1073 1072.34 67.1073 Q1081.25 67.1073 1086.44 60.4638 Q1091.67 53.8203 1091.67 42.3968 Q1091.67 30.9327 1086.44 24.2892 Q1081.25 17.6457 1072.34 17.6457 M1072.34 11.0023 Q1085.06 11.0023 1092.68 19.5497 Q1100.29 28.0566 1100.29 42.3968 Q1100.29 56.6965 1092.68 65.2439 Q1085.06 73.7508 1072.34 73.7508 Q1059.58 73.7508 1051.93 65.2439 Q1044.31 56.737 1044.31 42.3968 Q1044.31 28.0566 1051.93 19.5497 Q1059.58 11.0023 1072.34 11.0023 Z" fill="#000000" fill-rule="nonzero" fill-opacity="1" /><path clip-path="url(#clip480)" d="M1115.81 67.958 L1132.98 67.958 L1132.98 72.576 L1108.76 72.576 L1108.76 68.12 Q1110.14 66.8642 1112.69 64.5957 Q1126.62 52.2405 1126.62 48.4326 Q1126.62 45.759 1124.52 44.1387 Q1122.41 42.4778 1118.97 42.4778 Q1116.86 42.4778 1114.39 43.2069 Q1111.92 43.8956 1109 45.3134 L1109 40.3308 Q1112.12 39.1965 1114.8 38.6294 Q1117.51 38.0623 1119.82 38.0623 Q1125.69 38.0623 1129.22 40.7359 Q1132.74 43.4095 1132.74 47.7845 Q1132.74 53.4152 1119.33 64.9198 Q1117.06 66.8642 1115.81 67.958 Z" fill="#000000" fill-rule="nonzero" fill-opacity="1" /><path clip-path="url(#clip480)" d="M1211.21 48.0275 L1211.21 51.6733 L1176.94 51.6733 Q1177.42 59.3701 1181.55 63.421 Q1185.73 67.4314 1193.14 67.4314 Q1197.43 67.4314 1201.44 66.3781 Q1205.5 65.3249 1209.47 63.2184 L1209.47 70.267 Q1205.46 71.9684 1201.24 72.8596 Q1197.03 73.7508 1192.69 73.7508 Q1181.84 73.7508 1175.48 67.4314 Q1169.16 61.1119 1169.16 50.3365 Q1169.16 39.1965 1175.15 32.6746 Q1181.19 26.1121 1191.4 26.1121 Q1200.55 26.1121 1205.86 32.0264 Q1211.21 37.9003 1211.21 48.0275 M1203.75 45.84 Q1203.67 39.7232 1200.31 36.0774 Q1196.99 32.4315 1191.48 32.4315 Q1185.24 32.4315 1181.47 35.9558 Q1177.75 39.4801 1177.18 45.8805 L1203.75 45.84 Z" fill="#000000" fill-rule="nonzero" fill-opacity="1" /><path clip-path="url(#clip480)" d="M1258.76 35.9153 Q1261.56 30.8922 1265.45 28.5022 Q1269.34 26.1121 1274.6 26.1121 Q1281.69 26.1121 1285.54 31.0947 Q1289.39 36.0368 1289.39 45.1919 L1289.39 72.576 L1281.9 72.576 L1281.9 45.4349 Q1281.9 38.913 1279.59 35.7533 Q1277.28 32.5936 1272.54 32.5936 Q1266.75 32.5936 1263.38 36.4419 Q1260.02 40.2903 1260.02 46.9338 L1260.02 72.576 L1252.53 72.576 L1252.53 45.4349 Q1252.53 38.8725 1250.22 35.7533 Q1247.91 32.5936 1243.09 32.5936 Q1237.38 32.5936 1234.01 36.4824 Q1230.65 40.3308 1230.65 46.9338 L1230.65 72.576 L1223.16 72.576 L1223.16 27.2059 L1230.65 27.2059 L1230.65 34.2544 Q1233.2 30.082 1236.77 28.0971 Q1240.33 26.1121 1245.23 26.1121 Q1250.18 26.1121 1253.62 28.6237 Q1257.1 31.1352 1258.76 35.9153 Z" fill="#000000" fill-rule="nonzero" fill-opacity="1" /><path clip-path="url(#clip480)" d="M1304.26 27.2059 L1311.71 27.2059 L1311.71 72.576 L1304.26 72.576 L1304.26 27.2059 M1304.26 9.54393 L1311.71 9.54393 L1311.71 18.9825 L1304.26 18.9825 L1304.26 9.54393 Z" fill="#000000" fill-rule="nonzero" fill-opacity="1" /><path clip-path="url(#clip480)" d="M1356.23 28.5427 L1356.23 35.5912 Q1353.07 33.9709 1349.67 33.1607 Q1346.26 32.3505 1342.62 32.3505 Q1337.07 32.3505 1334.27 34.0519 Q1331.52 35.7533 1331.52 39.156 Q1331.52 41.7486 1333.5 43.2475 Q1335.49 44.7058 1341.48 46.0426 L1344.04 46.6097 Q1351.98 48.3111 1355.3 51.4303 Q1358.66 54.509 1358.66 60.0587 Q1358.66 66.3781 1353.64 70.0644 Q1348.65 73.7508 1339.9 73.7508 Q1336.26 73.7508 1332.29 73.0216 Q1328.36 72.3329 1323.98 70.9151 L1323.98 63.2184 Q1328.12 65.3654 1332.13 66.4591 Q1336.14 67.5124 1340.07 67.5124 Q1345.33 67.5124 1348.17 65.73 Q1351 63.9071 1351 60.6258 Q1351 57.5877 1348.94 55.9673 Q1346.91 54.3469 1339.99 52.8481 L1337.39 52.2405 Q1330.47 50.7821 1327.39 47.7845 Q1324.31 44.7463 1324.31 39.4801 Q1324.31 33.0797 1328.85 29.5959 Q1333.38 26.1121 1341.73 26.1121 Q1345.86 26.1121 1349.51 26.7198 Q1353.15 27.3274 1356.23 28.5427 Z" fill="#000000" fill-rule="nonzero" fill-opacity="1" /><path clip-path="url(#clip480)" d="M1399.45 28.5427 L1399.45 35.5912 Q1396.29 33.9709 1392.89 33.1607 Q1389.49 32.3505 1385.84 32.3505 Q1380.29 32.3505 1377.5 34.0519 Q1374.74 35.7533 1374.74 39.156 Q1374.74 41.7486 1376.73 43.2475 Q1378.71 44.7058 1384.71 46.0426 L1387.26 46.6097 Q1395.2 48.3111 1398.52 51.4303 Q1401.88 54.509 1401.88 60.0587 Q1401.88 66.3781 1396.86 70.0644 Q1391.88 73.7508 1383.13 73.7508 Q1379.48 73.7508 1375.51 73.0216 Q1371.58 72.3329 1367.21 70.9151 L1367.21 63.2184 Q1371.34 65.3654 1375.35 66.4591 Q1379.36 67.5124 1383.29 67.5124 Q1388.56 67.5124 1391.39 65.73 Q1394.23 63.9071 1394.23 60.6258 Q1394.23 57.5877 1392.16 55.9673 Q1390.14 54.3469 1383.21 52.8481 L1380.62 52.2405 Q1373.69 50.7821 1370.61 47.7845 Q1367.53 44.7463 1367.53 39.4801 Q1367.53 33.0797 1372.07 29.5959 Q1376.61 26.1121 1384.95 26.1121 Q1389.08 26.1121 1392.73 26.7198 Q1396.37 27.3274 1399.45 28.5427 Z" fill="#000000" fill-rule="nonzero" fill-opacity="1" /><path clip-path="url(#clip480)" d="M1413.75 27.2059 L1421.21 27.2059 L1421.21 72.576 L1413.75 72.576 L1413.75 27.2059 M1413.75 9.54393 L1421.21 9.54393 L1421.21 18.9825 L1413.75 18.9825 L1413.75 9.54393 Z" fill="#000000" fill-rule="nonzero" fill-opacity="1" /><path clip-path="url(#clip480)" d="M1454.38 32.4315 Q1448.39 32.4315 1444.9 37.1306 Q1441.42 41.7891 1441.42 49.9314 Q1441.42 58.0738 1444.86 62.7728 Q1448.35 67.4314 1454.38 67.4314 Q1460.34 67.4314 1463.82 62.7323 Q1467.31 58.0333 1467.31 49.9314 Q1467.31 41.8701 1463.82 37.1711 Q1460.34 32.4315 1454.38 32.4315 M1454.38 26.1121 Q1464.11 26.1121 1469.66 32.4315 Q1475.2 38.7509 1475.2 49.9314 Q1475.2 61.0714 1469.66 67.4314 Q1464.11 73.7508 1454.38 73.7508 Q1444.62 73.7508 1439.07 67.4314 Q1433.56 61.0714 1433.56 49.9314 Q1433.56 38.7509 1439.07 32.4315 Q1444.62 26.1121 1454.38 26.1121 Z" fill="#000000" fill-rule="nonzero" fill-opacity="1" /><path clip-path="url(#clip480)" d="M1525.27 45.1919 L1525.27 72.576 L1517.82 72.576 L1517.82 45.4349 Q1517.82 38.994 1515.31 35.7938 Q1512.8 32.5936 1507.77 32.5936 Q1501.74 32.5936 1498.25 36.4419 Q1494.77 40.2903 1494.77 46.9338 L1494.77 72.576 L1487.28 72.576 L1487.28 27.2059 L1494.77 27.2059 L1494.77 34.2544 Q1497.44 30.163 1501.05 28.1376 Q1504.7 26.1121 1509.43 26.1121 Q1517.25 26.1121 1521.26 30.9732 Q1525.27 35.7938 1525.27 45.1919 Z" fill="#000000" fill-rule="nonzero" fill-opacity="1" /><path clip-path="url(#clip480)" d="M1569.06 28.5427 L1569.06 35.5912 Q1565.9 33.9709 1562.5 33.1607 Q1559.1 32.3505 1555.45 32.3505 Q1549.9 32.3505 1547.11 34.0519 Q1544.35 35.7533 1544.35 39.156 Q1544.35 41.7486 1546.34 43.2475 Q1548.32 44.7058 1554.32 46.0426 L1556.87 46.6097 Q1564.81 48.3111 1568.13 51.4303 Q1571.49 54.509 1571.49 60.0587 Q1571.49 66.3781 1566.47 70.0644 Q1561.49 73.7508 1552.74 73.7508 Q1549.09 73.7508 1545.12 73.0216 Q1541.19 72.3329 1536.82 70.9151 L1536.82 63.2184 Q1540.95 65.3654 1544.96 66.4591 Q1548.97 67.5124 1552.9 67.5124 Q1558.17 67.5124 1561 65.73 Q1563.84 63.9071 1563.84 60.6258 Q1563.84 57.5877 1561.77 55.9673 Q1559.75 54.3469 1552.82 52.8481 L1550.23 52.2405 Q1543.3 50.7821 1540.22 47.7845 Q1537.14 44.7463 1537.14 39.4801 Q1537.14 33.0797 1541.68 29.5959 Q1546.22 26.1121 1554.56 26.1121 Q1558.69 26.1121 1562.34 26.7198 Q1565.99 27.3274 1569.06 28.5427 Z" fill="#000000" fill-rule="nonzero" fill-opacity="1" /><polyline clip-path="url(#clip482)" style="stroke:#009af9; stroke-linecap:round; stroke-linejoin:round; stroke-width:4; stroke-opacity:1; fill:none" points="265.903,607.818 468.51,527.88 671.117,589.34 873.724,574.242 1076.33,562.846 1278.94,566.197 1481.55,583.538 1684.15,594.221 1886.76,613.553 2089.37,641.734 2291.97,679.387 "/>
<polyline clip-path="url(#clip482)" style="stroke:#e26f46; stroke-linecap:round; stroke-linejoin:round; stroke-width:4; stroke-opacity:1; fill:none" points="265.903,607.818 468.51,527.88 671.117,589.34 873.724,666.649 1076.33,735.911 1278.94,777.477 1481.55,837.228 1684.15,886.766 1886.76,947.835 2089.37,1021.12 2291.97,1107.47 "/>
<path clip-path="url(#clip480)" d="M1408.54 324.425 L2281.17 324.425 L2281.17 168.905 L1408.54 168.905  Z" fill="#ffffff" fill-rule="evenodd" fill-opacity="1"/>
<polyline clip-path="url(#clip480)" style="stroke:#000000; stroke-linecap:round; stroke-linejoin:round; stroke-width:4; stroke-opacity:1; fill:none" points="1408.54,324.425 2281.17,324.425 2281.17,168.905 1408.54,168.905 1408.54,324.425 "/>
<polyline clip-path="url(#clip480)" style="stroke:#009af9; stroke-linecap:round; stroke-linejoin:round; stroke-width:4; stroke-opacity:1; fill:none" points="1432.4,220.745 1575.58,220.745 "/>
<path clip-path="url(#clip480)" d="M1599.44 203.465 L1606.41 203.465 L1615.23 226.983 L1624.09 203.465 L1631.06 203.465 L1631.06 238.025 L1626.5 238.025 L1626.5 207.678 L1617.59 231.381 L1612.89 231.381 L1603.98 207.678 L1603.98 238.025 L1599.44 238.025 L1599.44 203.465 Z" fill="#000000" fill-rule="nonzero" fill-opacity="1" /><path clip-path="url(#clip480)" d="M1650.2 215.085 Q1646.78 215.085 1644.79 217.77 Q1642.79 220.432 1642.79 225.085 Q1642.79 229.738 1644.76 232.423 Q1646.75 235.085 1650.2 235.085 Q1653.6 235.085 1655.6 232.4 Q1657.59 229.715 1657.59 225.085 Q1657.59 220.478 1655.6 217.793 Q1653.6 215.085 1650.2 215.085 M1650.2 211.474 Q1655.76 211.474 1658.93 215.085 Q1662.1 218.696 1662.1 225.085 Q1662.1 231.451 1658.93 235.085 Q1655.76 238.696 1650.2 238.696 Q1644.62 238.696 1641.45 235.085 Q1638.3 231.451 1638.3 225.085 Q1638.3 218.696 1641.45 215.085 Q1644.62 211.474 1650.2 211.474 Z" fill="#000000" fill-rule="nonzero" fill-opacity="1" /><path clip-path="url(#clip480)" d="M1684.18 216.08 Q1683.47 215.664 1682.61 215.478 Q1681.78 215.27 1680.76 215.27 Q1677.15 215.27 1675.2 217.631 Q1673.28 219.969 1673.28 224.367 L1673.28 238.025 L1669 238.025 L1669 212.099 L1673.28 212.099 L1673.28 216.127 Q1674.62 213.766 1676.78 212.631 Q1678.93 211.474 1682.01 211.474 Q1682.45 211.474 1682.98 211.543 Q1683.51 211.59 1684.16 211.705 L1684.18 216.08 Z" fill="#000000" fill-rule="nonzero" fill-opacity="1" /><path clip-path="url(#clip480)" d="M1709.79 223.997 L1709.79 226.08 L1690.2 226.08 Q1690.48 230.478 1692.84 232.793 Q1695.23 235.085 1699.46 235.085 Q1701.91 235.085 1704.21 234.483 Q1706.52 233.881 1708.79 232.677 L1708.79 236.705 Q1706.5 237.677 1704.09 238.187 Q1701.68 238.696 1699.21 238.696 Q1693 238.696 1689.37 235.085 Q1685.76 231.474 1685.76 225.316 Q1685.76 218.951 1689.18 215.224 Q1692.63 211.474 1698.47 211.474 Q1703.7 211.474 1706.73 214.853 Q1709.79 218.21 1709.79 223.997 M1705.53 222.747 Q1705.48 219.252 1703.56 217.168 Q1701.66 215.085 1698.51 215.085 Q1694.95 215.085 1692.79 217.099 Q1690.66 219.113 1690.34 222.77 L1705.53 222.747 Z" fill="#000000" fill-rule="nonzero" fill-opacity="1" /><path clip-path="url(#clip480)" d="M1731.41 227.793 L1731.41 212.099 L1735.66 212.099 L1735.66 227.631 Q1735.66 231.312 1737.1 233.164 Q1738.54 234.992 1741.41 234.992 Q1744.85 234.992 1746.85 232.793 Q1748.86 230.594 1748.86 226.798 L1748.86 212.099 L1753.12 212.099 L1753.12 238.025 L1748.86 238.025 L1748.86 234.043 Q1747.31 236.404 1745.25 237.562 Q1743.21 238.696 1740.5 238.696 Q1736.04 238.696 1733.72 235.918 Q1731.41 233.14 1731.41 227.793 M1742.12 211.474 L1742.12 211.474 Z" fill="#000000" fill-rule="nonzero" fill-opacity="1" /><path clip-path="url(#clip480)" d="M1766.1 204.738 L1766.1 212.099 L1774.88 212.099 L1774.88 215.409 L1766.1 215.409 L1766.1 229.483 Q1766.1 232.654 1766.96 233.557 Q1767.84 234.46 1770.5 234.46 L1774.88 234.46 L1774.88 238.025 L1770.5 238.025 Q1765.57 238.025 1763.7 236.196 Q1761.82 234.344 1761.82 229.483 L1761.82 215.409 L1758.7 215.409 L1758.7 212.099 L1761.82 212.099 L1761.82 204.738 L1766.1 204.738 Z" fill="#000000" fill-rule="nonzero" fill-opacity="1" /><path clip-path="url(#clip480)" d="M1780.48 212.099 L1784.74 212.099 L1784.74 238.025 L1780.48 238.025 L1780.48 212.099 M1780.48 202.006 L1784.74 202.006 L1784.74 207.4 L1780.48 207.4 L1780.48 202.006 Z" fill="#000000" fill-rule="nonzero" fill-opacity="1" /><path clip-path="url(#clip480)" d="M1793.65 202.006 L1797.91 202.006 L1797.91 238.025 L1793.65 238.025 L1793.65 202.006 Z" fill="#000000" fill-rule="nonzero" fill-opacity="1" /><path clip-path="url(#clip480)" d="M1806.82 212.099 L1811.08 212.099 L1811.08 238.025 L1806.82 238.025 L1806.82 212.099 M1806.82 202.006 L1811.08 202.006 L1811.08 207.4 L1806.82 207.4 L1806.82 202.006 Z" fill="#000000" fill-rule="nonzero" fill-opacity="1" /><path clip-path="url(#clip480)" d="M1824.21 204.738 L1824.21 212.099 L1832.98 212.099 L1832.98 215.409 L1824.21 215.409 L1824.21 229.483 Q1824.21 232.654 1825.06 233.557 Q1825.94 234.46 1828.6 234.46 L1832.98 234.46 L1832.98 238.025 L1828.6 238.025 Q1823.67 238.025 1821.8 236.196 Q1819.92 234.344 1819.92 229.483 L1819.92 215.409 L1816.8 215.409 L1816.8 212.099 L1819.92 212.099 L1819.92 204.738 L1824.21 204.738 Z" fill="#000000" fill-rule="nonzero" fill-opacity="1" /><path clip-path="url(#clip480)" d="M1849.37 240.432 Q1847.56 245.062 1845.85 246.474 Q1844.14 247.886 1841.27 247.886 L1837.86 247.886 L1837.86 244.321 L1840.36 244.321 Q1842.12 244.321 1843.09 243.488 Q1844.07 242.654 1845.25 239.552 L1846.01 237.608 L1835.53 212.099 L1840.04 212.099 L1848.14 232.377 L1856.24 212.099 L1860.76 212.099 L1849.37 240.432 Z" fill="#000000" fill-rule="nonzero" fill-opacity="1" /><path clip-path="url(#clip480)" d="M1879.23 212.099 L1883.49 212.099 L1888.81 232.33 L1894.11 212.099 L1899.14 212.099 L1904.46 232.33 L1909.76 212.099 L1914.02 212.099 L1907.24 238.025 L1902.21 238.025 L1896.64 216.775 L1891.03 238.025 L1886.01 238.025 L1879.23 212.099 Z" fill="#000000" fill-rule="nonzero" fill-opacity="1" /><path clip-path="url(#clip480)" d="M1942.65 223.997 L1942.65 226.08 L1923.07 226.08 Q1923.35 230.478 1925.71 232.793 Q1928.09 235.085 1932.33 235.085 Q1934.78 235.085 1937.08 234.483 Q1939.39 233.881 1941.66 232.677 L1941.66 236.705 Q1939.37 237.677 1936.96 238.187 Q1934.55 238.696 1932.08 238.696 Q1925.87 238.696 1922.24 235.085 Q1918.63 231.474 1918.63 225.316 Q1918.63 218.951 1922.05 215.224 Q1925.5 211.474 1931.33 211.474 Q1936.57 211.474 1939.6 214.853 Q1942.65 218.21 1942.65 223.997 M1938.4 222.747 Q1938.35 219.252 1936.43 217.168 Q1934.53 215.085 1931.38 215.085 Q1927.82 215.085 1925.66 217.099 Q1923.53 219.113 1923.21 222.77 L1938.4 222.747 Z" fill="#000000" fill-rule="nonzero" fill-opacity="1" /><path clip-path="url(#clip480)" d="M1949.65 212.099 L1953.9 212.099 L1953.9 238.025 L1949.65 238.025 L1949.65 212.099 M1949.65 202.006 L1953.9 202.006 L1953.9 207.4 L1949.65 207.4 L1949.65 202.006 Z" fill="#000000" fill-rule="nonzero" fill-opacity="1" /><path clip-path="url(#clip480)" d="M1979.88 224.761 Q1979.88 220.131 1977.96 217.585 Q1976.06 215.039 1972.61 215.039 Q1969.18 215.039 1967.26 217.585 Q1965.36 220.131 1965.36 224.761 Q1965.36 229.367 1967.26 231.914 Q1969.18 234.46 1972.61 234.46 Q1976.06 234.46 1977.96 231.914 Q1979.88 229.367 1979.88 224.761 M1984.14 234.807 Q1984.14 241.427 1981.2 244.645 Q1978.26 247.886 1972.19 247.886 Q1969.95 247.886 1967.96 247.538 Q1965.96 247.214 1964.09 246.52 L1964.09 242.376 Q1965.96 243.395 1967.79 243.881 Q1969.62 244.367 1971.52 244.367 Q1975.71 244.367 1977.79 242.168 Q1979.88 239.992 1979.88 235.571 L1979.88 233.464 Q1978.56 235.756 1976.5 236.89 Q1974.44 238.025 1971.57 238.025 Q1966.8 238.025 1963.88 234.39 Q1960.96 230.756 1960.96 224.761 Q1960.96 218.742 1963.88 215.108 Q1966.8 211.474 1971.57 211.474 Q1974.44 211.474 1976.5 212.608 Q1978.56 213.742 1979.88 216.034 L1979.88 212.099 L1984.14 212.099 L1984.14 234.807 Z" fill="#000000" fill-rule="nonzero" fill-opacity="1" /><path clip-path="url(#clip480)" d="M1997.12 204.738 L1997.12 212.099 L2005.89 212.099 L2005.89 215.409 L1997.12 215.409 L1997.12 229.483 Q1997.12 232.654 1997.98 233.557 Q1998.86 234.46 2001.52 234.46 L2005.89 234.46 L2005.89 238.025 L2001.52 238.025 Q1996.59 238.025 1994.71 236.196 Q1992.84 234.344 1992.84 229.483 L1992.84 215.409 L1989.71 215.409 L1989.71 212.099 L1992.84 212.099 L1992.84 204.738 L1997.12 204.738 Z" fill="#000000" fill-rule="nonzero" fill-opacity="1" /><path clip-path="url(#clip480)" d="M2033.05 222.377 L2033.05 238.025 L2028.79 238.025 L2028.79 222.515 Q2028.79 218.835 2027.35 217.006 Q2025.92 215.178 2023.05 215.178 Q2019.6 215.178 2017.61 217.377 Q2015.62 219.576 2015.62 223.372 L2015.62 238.025 L2011.33 238.025 L2011.33 202.006 L2015.62 202.006 L2015.62 216.127 Q2017.14 213.789 2019.2 212.631 Q2021.29 211.474 2024 211.474 Q2028.46 211.474 2030.76 214.252 Q2033.05 217.006 2033.05 222.377 Z" fill="#000000" fill-rule="nonzero" fill-opacity="1" /><path clip-path="url(#clip480)" d="M2063.72 223.997 L2063.72 226.08 L2044.14 226.08 Q2044.41 230.478 2046.77 232.793 Q2049.16 235.085 2053.39 235.085 Q2055.85 235.085 2058.14 234.483 Q2060.45 233.881 2062.72 232.677 L2062.72 236.705 Q2060.43 237.677 2058.02 238.187 Q2055.62 238.696 2053.14 238.696 Q2046.94 238.696 2043.3 235.085 Q2039.69 231.474 2039.69 225.316 Q2039.69 218.951 2043.12 215.224 Q2046.57 211.474 2052.4 211.474 Q2057.63 211.474 2060.66 214.853 Q2063.72 218.21 2063.72 223.997 M2059.46 222.747 Q2059.41 219.252 2057.49 217.168 Q2055.59 215.085 2052.45 215.085 Q2048.88 215.085 2046.73 217.099 Q2044.6 219.113 2044.27 222.77 L2059.46 222.747 Z" fill="#000000" fill-rule="nonzero" fill-opacity="1" /><path clip-path="url(#clip480)" d="M2087.77 216.034 L2087.77 202.006 L2092.03 202.006 L2092.03 238.025 L2087.77 238.025 L2087.77 234.136 Q2086.43 236.451 2084.37 237.585 Q2082.33 238.696 2079.46 238.696 Q2074.76 238.696 2071.8 234.946 Q2068.86 231.196 2068.86 225.085 Q2068.86 218.974 2071.8 215.224 Q2074.76 211.474 2079.46 211.474 Q2082.33 211.474 2084.37 212.608 Q2086.43 213.719 2087.77 216.034 M2073.26 225.085 Q2073.26 229.784 2075.18 232.469 Q2077.12 235.131 2080.5 235.131 Q2083.88 235.131 2085.82 232.469 Q2087.77 229.784 2087.77 225.085 Q2087.77 220.386 2085.82 217.724 Q2083.88 215.039 2080.5 215.039 Q2077.12 215.039 2075.18 217.724 Q2073.26 220.386 2073.26 225.085 Z" fill="#000000" fill-rule="nonzero" fill-opacity="1" /><path clip-path="url(#clip480)" d="M2130.89 216.08 Q2130.18 215.664 2129.32 215.478 Q2128.49 215.27 2127.47 215.27 Q2123.86 215.27 2121.91 217.631 Q2119.99 219.969 2119.99 224.367 L2119.99 238.025 L2115.71 238.025 L2115.71 212.099 L2119.99 212.099 L2119.99 216.127 Q2121.33 213.766 2123.49 212.631 Q2125.64 211.474 2128.72 211.474 Q2129.16 211.474 2129.69 211.543 Q2130.22 211.59 2130.87 211.705 L2130.89 216.08 Z" fill="#000000" fill-rule="nonzero" fill-opacity="1" /><path clip-path="url(#clip480)" d="M2156.5 223.997 L2156.5 226.08 L2136.91 226.08 Q2137.19 230.478 2139.55 232.793 Q2141.94 235.085 2146.17 235.085 Q2148.63 235.085 2150.92 234.483 Q2153.23 233.881 2155.5 232.677 L2155.5 236.705 Q2153.21 237.677 2150.8 238.187 Q2148.39 238.696 2145.92 238.696 Q2139.71 238.696 2136.08 235.085 Q2132.47 231.474 2132.47 225.316 Q2132.47 218.951 2135.89 215.224 Q2139.34 211.474 2145.18 211.474 Q2150.41 211.474 2153.44 214.853 Q2156.5 218.21 2156.5 223.997 M2152.24 222.747 Q2152.19 219.252 2150.27 217.168 Q2148.37 215.085 2145.22 215.085 Q2141.66 215.085 2139.51 217.099 Q2137.38 219.113 2137.05 222.77 L2152.24 222.747 Z" fill="#000000" fill-rule="nonzero" fill-opacity="1" /><path clip-path="url(#clip480)" d="M2180.55 224.761 Q2180.55 220.131 2178.63 217.585 Q2176.73 215.039 2173.28 215.039 Q2169.85 215.039 2167.93 217.585 Q2166.03 220.131 2166.03 224.761 Q2166.03 229.367 2167.93 231.914 Q2169.85 234.46 2173.28 234.46 Q2176.73 234.46 2178.63 231.914 Q2180.55 229.367 2180.55 224.761 M2184.81 234.807 Q2184.81 241.427 2181.87 244.645 Q2178.93 247.886 2172.86 247.886 Q2170.62 247.886 2168.63 247.538 Q2166.63 247.214 2164.76 246.52 L2164.76 242.376 Q2166.63 243.395 2168.46 243.881 Q2170.29 244.367 2172.19 244.367 Q2176.38 244.367 2178.46 242.168 Q2180.55 239.992 2180.55 235.571 L2180.55 233.464 Q2179.23 235.756 2177.17 236.89 Q2175.11 238.025 2172.24 238.025 Q2167.47 238.025 2164.55 234.39 Q2161.63 230.756 2161.63 224.761 Q2161.63 218.742 2164.55 215.108 Q2167.47 211.474 2172.24 211.474 Q2175.11 211.474 2177.17 212.608 Q2179.23 213.742 2180.55 216.034 L2180.55 212.099 L2184.81 212.099 L2184.81 234.807 Z" fill="#000000" fill-rule="nonzero" fill-opacity="1" /><path clip-path="url(#clip480)" d="M2193.58 212.099 L2197.84 212.099 L2197.84 238.025 L2193.58 238.025 L2193.58 212.099 M2193.58 202.006 L2197.84 202.006 L2197.84 207.4 L2193.58 207.4 L2193.58 202.006 Z" fill="#000000" fill-rule="nonzero" fill-opacity="1" /><path clip-path="url(#clip480)" d="M2216.8 215.085 Q2213.37 215.085 2211.38 217.77 Q2209.39 220.432 2209.39 225.085 Q2209.39 229.738 2211.36 232.423 Q2213.35 235.085 2216.8 235.085 Q2220.2 235.085 2222.19 232.4 Q2224.18 229.715 2224.18 225.085 Q2224.18 220.478 2222.19 217.793 Q2220.2 215.085 2216.8 215.085 M2216.8 211.474 Q2222.35 211.474 2225.52 215.085 Q2228.69 218.696 2228.69 225.085 Q2228.69 231.451 2225.52 235.085 Q2222.35 238.696 2216.8 238.696 Q2211.22 238.696 2208.05 235.085 Q2204.9 231.451 2204.9 225.085 Q2204.9 218.696 2208.05 215.085 Q2211.22 211.474 2216.8 211.474 Z" fill="#000000" fill-rule="nonzero" fill-opacity="1" /><path clip-path="url(#clip480)" d="M2257.31 222.377 L2257.31 238.025 L2253.05 238.025 L2253.05 222.515 Q2253.05 218.835 2251.61 217.006 Q2250.18 215.178 2247.31 215.178 Q2243.86 215.178 2241.87 217.377 Q2239.88 219.576 2239.88 223.372 L2239.88 238.025 L2235.59 238.025 L2235.59 212.099 L2239.88 212.099 L2239.88 216.127 Q2241.4 213.789 2243.46 212.631 Q2245.55 211.474 2248.25 211.474 Q2252.72 211.474 2255.01 214.252 Q2257.31 217.006 2257.31 222.377 Z" fill="#000000" fill-rule="nonzero" fill-opacity="1" /><polyline clip-path="url(#clip480)" style="stroke:#e26f46; stroke-linecap:round; stroke-linejoin:round; stroke-width:4; stroke-opacity:1; fill:none" points="1432.4,272.585 1575.58,272.585 "/>
<path clip-path="url(#clip480)" d="M1599.44 255.305 L1604.11 255.305 L1604.11 285.929 L1620.94 285.929 L1620.94 289.865 L1599.44 289.865 L1599.44 255.305 Z" fill="#000000" fill-rule="nonzero" fill-opacity="1" /><path clip-path="url(#clip480)" d="M1647.01 275.837 L1647.01 277.92 L1627.42 277.92 Q1627.7 282.318 1630.06 284.633 Q1632.45 286.925 1636.68 286.925 Q1639.14 286.925 1641.43 286.323 Q1643.74 285.721 1646.01 284.517 L1646.01 288.545 Q1643.72 289.517 1641.31 290.027 Q1638.91 290.536 1636.43 290.536 Q1630.23 290.536 1626.59 286.925 Q1622.98 283.314 1622.98 277.156 Q1622.98 270.791 1626.41 267.064 Q1629.86 263.314 1635.69 263.314 Q1640.92 263.314 1643.95 266.693 Q1647.01 270.05 1647.01 275.837 M1642.75 274.587 Q1642.7 271.092 1640.78 269.008 Q1638.88 266.925 1635.73 266.925 Q1632.17 266.925 1630.02 268.939 Q1627.89 270.953 1627.56 274.61 L1642.75 274.587 Z" fill="#000000" fill-rule="nonzero" fill-opacity="1" /><path clip-path="url(#clip480)" d="M1670.53 264.703 L1670.53 268.731 Q1668.72 267.805 1666.78 267.342 Q1664.83 266.879 1662.75 266.879 Q1659.58 266.879 1657.98 267.851 Q1656.41 268.823 1656.41 270.768 Q1656.41 272.249 1657.54 273.105 Q1658.67 273.939 1662.1 274.703 L1663.56 275.027 Q1668.1 275.999 1669.99 277.781 Q1671.92 279.541 1671.92 282.712 Q1671.92 286.323 1669.04 288.429 Q1666.2 290.536 1661.2 290.536 Q1659.11 290.536 1656.85 290.119 Q1654.6 289.726 1652.1 288.916 L1652.1 284.517 Q1654.46 285.744 1656.75 286.369 Q1659.04 286.971 1661.29 286.971 Q1664.3 286.971 1665.92 285.953 Q1667.54 284.911 1667.54 283.036 Q1667.54 281.3 1666.36 280.374 Q1665.2 279.448 1661.24 278.592 L1659.76 278.244 Q1655.8 277.411 1654.04 275.698 Q1652.29 273.962 1652.29 270.953 Q1652.29 267.295 1654.88 265.305 Q1657.47 263.314 1662.24 263.314 Q1664.6 263.314 1666.68 263.661 Q1668.77 264.008 1670.53 264.703 Z" fill="#000000" fill-rule="nonzero" fill-opacity="1" /><path clip-path="url(#clip480)" d="M1695.23 264.703 L1695.23 268.731 Q1693.42 267.805 1691.48 267.342 Q1689.53 266.879 1687.45 266.879 Q1684.28 266.879 1682.68 267.851 Q1681.1 268.823 1681.1 270.768 Q1681.1 272.249 1682.24 273.105 Q1683.37 273.939 1686.8 274.703 L1688.26 275.027 Q1692.79 275.999 1694.69 277.781 Q1696.61 279.541 1696.61 282.712 Q1696.61 286.323 1693.74 288.429 Q1690.9 290.536 1685.9 290.536 Q1683.81 290.536 1681.54 290.119 Q1679.3 289.726 1676.8 288.916 L1676.8 284.517 Q1679.16 285.744 1681.45 286.369 Q1683.74 286.971 1685.99 286.971 Q1689 286.971 1690.62 285.953 Q1692.24 284.911 1692.24 283.036 Q1692.24 281.3 1691.06 280.374 Q1689.9 279.448 1685.94 278.592 L1684.46 278.244 Q1680.5 277.411 1678.74 275.698 Q1676.98 273.962 1676.98 270.953 Q1676.98 267.295 1679.58 265.305 Q1682.17 263.314 1686.94 263.314 Q1689.3 263.314 1691.38 263.661 Q1693.47 264.008 1695.23 264.703 Z" fill="#000000" fill-rule="nonzero" fill-opacity="1" /><path clip-path="url(#clip480)" d="M1718.03 279.633 L1718.03 263.939 L1722.29 263.939 L1722.29 279.471 Q1722.29 283.152 1723.72 285.004 Q1725.16 286.832 1728.03 286.832 Q1731.47 286.832 1733.47 284.633 Q1735.48 282.434 1735.48 278.638 L1735.48 263.939 L1739.74 263.939 L1739.74 289.865 L1735.48 289.865 L1735.48 285.883 Q1733.93 288.244 1731.87 289.402 Q1729.83 290.536 1727.12 290.536 Q1722.66 290.536 1720.34 287.758 Q1718.03 284.98 1718.03 279.633 M1728.74 263.314 L1728.74 263.314 Z" fill="#000000" fill-rule="nonzero" fill-opacity="1" /><path clip-path="url(#clip480)" d="M1752.72 256.578 L1752.72 263.939 L1761.5 263.939 L1761.5 267.249 L1752.72 267.249 L1752.72 281.323 Q1752.72 284.494 1753.58 285.397 Q1754.46 286.3 1757.12 286.3 L1761.5 286.3 L1761.5 289.865 L1757.12 289.865 Q1752.19 289.865 1750.32 288.036 Q1748.44 286.184 1748.44 281.323 L1748.44 267.249 L1745.32 267.249 L1745.32 263.939 L1748.44 263.939 L1748.44 256.578 L1752.72 256.578 Z" fill="#000000" fill-rule="nonzero" fill-opacity="1" /><path clip-path="url(#clip480)" d="M1767.1 263.939 L1771.36 263.939 L1771.36 289.865 L1767.1 289.865 L1767.1 263.939 M1767.1 253.846 L1771.36 253.846 L1771.36 259.24 L1767.1 259.24 L1767.1 253.846 Z" fill="#000000" fill-rule="nonzero" fill-opacity="1" /><path clip-path="url(#clip480)" d="M1780.27 253.846 L1784.53 253.846 L1784.53 289.865 L1780.27 289.865 L1780.27 253.846 Z" fill="#000000" fill-rule="nonzero" fill-opacity="1" /><path clip-path="url(#clip480)" d="M1793.44 263.939 L1797.7 263.939 L1797.7 289.865 L1793.44 289.865 L1793.44 263.939 M1793.44 253.846 L1797.7 253.846 L1797.7 259.24 L1793.44 259.24 L1793.44 253.846 Z" fill="#000000" fill-rule="nonzero" fill-opacity="1" /><path clip-path="url(#clip480)" d="M1810.83 256.578 L1810.83 263.939 L1819.6 263.939 L1819.6 267.249 L1810.83 267.249 L1810.83 281.323 Q1810.83 284.494 1811.68 285.397 Q1812.56 286.3 1815.22 286.3 L1819.6 286.3 L1819.6 289.865 L1815.22 289.865 Q1810.29 289.865 1808.42 288.036 Q1806.54 286.184 1806.54 281.323 L1806.54 267.249 L1803.42 267.249 L1803.42 263.939 L1806.54 263.939 L1806.54 256.578 L1810.83 256.578 Z" fill="#000000" fill-rule="nonzero" fill-opacity="1" /><path clip-path="url(#clip480)" d="M1835.99 292.272 Q1834.18 296.902 1832.47 298.314 Q1830.76 299.726 1827.89 299.726 L1824.48 299.726 L1824.48 296.161 L1826.98 296.161 Q1828.74 296.161 1829.72 295.328 Q1830.69 294.494 1831.87 291.392 L1832.63 289.448 L1822.15 263.939 L1826.66 263.939 L1834.76 284.217 L1842.86 263.939 L1847.38 263.939 L1835.99 292.272 Z" fill="#000000" fill-rule="nonzero" fill-opacity="1" /><path clip-path="url(#clip480)" d="M1865.85 263.939 L1870.11 263.939 L1875.43 284.17 L1880.73 263.939 L1885.76 263.939 L1891.08 284.17 L1896.38 263.939 L1900.64 263.939 L1893.86 289.865 L1888.84 289.865 L1883.26 268.615 L1877.65 289.865 L1872.63 289.865 L1865.85 263.939 Z" fill="#000000" fill-rule="nonzero" fill-opacity="1" /><path clip-path="url(#clip480)" d="M1929.27 275.837 L1929.27 277.92 L1909.69 277.92 Q1909.97 282.318 1912.33 284.633 Q1914.71 286.925 1918.95 286.925 Q1921.4 286.925 1923.7 286.323 Q1926.01 285.721 1928.28 284.517 L1928.28 288.545 Q1925.99 289.517 1923.58 290.027 Q1921.17 290.536 1918.7 290.536 Q1912.49 290.536 1908.86 286.925 Q1905.25 283.314 1905.25 277.156 Q1905.25 270.791 1908.67 267.064 Q1912.12 263.314 1917.96 263.314 Q1923.19 263.314 1926.22 266.693 Q1929.27 270.05 1929.27 275.837 M1925.02 274.587 Q1924.97 271.092 1923.05 269.008 Q1921.15 266.925 1918 266.925 Q1914.44 266.925 1912.28 268.939 Q1910.15 270.953 1909.83 274.61 L1925.02 274.587 Z" fill="#000000" fill-rule="nonzero" fill-opacity="1" /><path clip-path="url(#clip480)" d="M1936.27 263.939 L1940.52 263.939 L1940.52 289.865 L1936.27 289.865 L1936.27 263.939 M1936.27 253.846 L1940.52 253.846 L1940.52 259.24 L1936.27 259.24 L1936.27 253.846 Z" fill="#000000" fill-rule="nonzero" fill-opacity="1" /><path clip-path="url(#clip480)" d="M1966.5 276.601 Q1966.5 271.971 1964.58 269.425 Q1962.68 266.879 1959.23 266.879 Q1955.8 266.879 1953.88 269.425 Q1951.98 271.971 1951.98 276.601 Q1951.98 281.207 1953.88 283.754 Q1955.8 286.3 1959.23 286.3 Q1962.68 286.3 1964.58 283.754 Q1966.5 281.207 1966.5 276.601 M1970.76 286.647 Q1970.76 293.267 1967.82 296.485 Q1964.88 299.726 1958.81 299.726 Q1956.57 299.726 1954.58 299.378 Q1952.58 299.054 1950.71 298.36 L1950.71 294.216 Q1952.58 295.235 1954.41 295.721 Q1956.24 296.207 1958.14 296.207 Q1962.33 296.207 1964.41 294.008 Q1966.5 291.832 1966.5 287.411 L1966.5 285.304 Q1965.18 287.596 1963.12 288.73 Q1961.06 289.865 1958.19 289.865 Q1953.42 289.865 1950.5 286.23 Q1947.58 282.596 1947.58 276.601 Q1947.58 270.582 1950.5 266.948 Q1953.42 263.314 1958.19 263.314 Q1961.06 263.314 1963.12 264.448 Q1965.18 265.582 1966.5 267.874 L1966.5 263.939 L1970.76 263.939 L1970.76 286.647 Z" fill="#000000" fill-rule="nonzero" fill-opacity="1" /><path clip-path="url(#clip480)" d="M1983.74 256.578 L1983.74 263.939 L1992.52 263.939 L1992.52 267.249 L1983.74 267.249 L1983.74 281.323 Q1983.74 284.494 1984.6 285.397 Q1985.48 286.3 1988.14 286.3 L1992.52 286.3 L1992.52 289.865 L1988.14 289.865 Q1983.21 289.865 1981.33 288.036 Q1979.46 286.184 1979.46 281.323 L1979.46 267.249 L1976.33 267.249 L1976.33 263.939 L1979.46 263.939 L1979.46 256.578 L1983.74 256.578 Z" fill="#000000" fill-rule="nonzero" fill-opacity="1" /><path clip-path="url(#clip480)" d="M2019.67 274.217 L2019.67 289.865 L2015.41 289.865 L2015.41 274.355 Q2015.41 270.675 2013.97 268.846 Q2012.54 267.018 2009.67 267.018 Q2006.22 267.018 2004.23 269.217 Q2002.24 271.416 2002.24 275.212 L2002.24 289.865 L1997.96 289.865 L1997.96 253.846 L2002.24 253.846 L2002.24 267.967 Q2003.77 265.629 2005.83 264.471 Q2007.91 263.314 2010.62 263.314 Q2015.08 263.314 2017.38 266.092 Q2019.67 268.846 2019.67 274.217 Z" fill="#000000" fill-rule="nonzero" fill-opacity="1" /><path clip-path="url(#clip480)" d="M2050.34 275.837 L2050.34 277.92 L2030.76 277.92 Q2031.03 282.318 2033.39 284.633 Q2035.78 286.925 2040.01 286.925 Q2042.47 286.925 2044.76 286.323 Q2047.08 285.721 2049.34 284.517 L2049.34 288.545 Q2047.05 289.517 2044.64 290.027 Q2042.24 290.536 2039.76 290.536 Q2033.56 290.536 2029.92 286.925 Q2026.31 283.314 2026.31 277.156 Q2026.31 270.791 2029.74 267.064 Q2033.19 263.314 2039.02 263.314 Q2044.25 263.314 2047.28 266.693 Q2050.34 270.05 2050.34 275.837 M2046.08 274.587 Q2046.03 271.092 2044.11 269.008 Q2042.21 266.925 2039.07 266.925 Q2035.5 266.925 2033.35 268.939 Q2031.22 270.953 2030.89 274.61 L2046.08 274.587 Z" fill="#000000" fill-rule="nonzero" fill-opacity="1" /><path clip-path="url(#clip480)" d="M2074.39 267.874 L2074.39 253.846 L2078.65 253.846 L2078.65 289.865 L2074.39 289.865 L2074.39 285.976 Q2073.05 288.291 2070.99 289.425 Q2068.95 290.536 2066.08 290.536 Q2061.38 290.536 2058.42 286.786 Q2055.48 283.036 2055.48 276.925 Q2055.48 270.814 2058.42 267.064 Q2061.38 263.314 2066.08 263.314 Q2068.95 263.314 2070.99 264.448 Q2073.05 265.559 2074.39 267.874 M2059.88 276.925 Q2059.88 281.624 2061.8 284.309 Q2063.74 286.971 2067.12 286.971 Q2070.5 286.971 2072.45 284.309 Q2074.39 281.624 2074.39 276.925 Q2074.39 272.226 2072.45 269.564 Q2070.5 266.879 2067.12 266.879 Q2063.74 266.879 2061.8 269.564 Q2059.88 272.226 2059.88 276.925 Z" fill="#000000" fill-rule="nonzero" fill-opacity="1" /><path clip-path="url(#clip480)" d="M2117.51 267.92 Q2116.8 267.504 2115.94 267.318 Q2115.11 267.11 2114.09 267.11 Q2110.48 267.11 2108.53 269.471 Q2106.61 271.809 2106.61 276.207 L2106.61 289.865 L2102.33 289.865 L2102.33 263.939 L2106.61 263.939 L2106.61 267.967 Q2107.95 265.606 2110.11 264.471 Q2112.26 263.314 2115.34 263.314 Q2115.78 263.314 2116.31 263.383 Q2116.84 263.43 2117.49 263.545 L2117.51 267.92 Z" fill="#000000" fill-rule="nonzero" fill-opacity="1" /><path clip-path="url(#clip480)" d="M2143.12 275.837 L2143.12 277.92 L2123.53 277.92 Q2123.81 282.318 2126.17 284.633 Q2128.56 286.925 2132.79 286.925 Q2135.25 286.925 2137.54 286.323 Q2139.85 285.721 2142.12 284.517 L2142.12 288.545 Q2139.83 289.517 2137.42 290.027 Q2135.01 290.536 2132.54 290.536 Q2126.33 290.536 2122.7 286.925 Q2119.09 283.314 2119.09 277.156 Q2119.09 270.791 2122.51 267.064 Q2125.96 263.314 2131.8 263.314 Q2137.03 263.314 2140.06 266.693 Q2143.12 270.05 2143.12 275.837 M2138.86 274.587 Q2138.81 271.092 2136.89 269.008 Q2134.99 266.925 2131.84 266.925 Q2128.28 266.925 2126.13 268.939 Q2124 270.953 2123.67 274.61 L2138.86 274.587 Z" fill="#000000" fill-rule="nonzero" fill-opacity="1" /><path clip-path="url(#clip480)" d="M2167.17 276.601 Q2167.17 271.971 2165.25 269.425 Q2163.35 266.879 2159.9 266.879 Q2156.47 266.879 2154.55 269.425 Q2152.65 271.971 2152.65 276.601 Q2152.65 281.207 2154.55 283.754 Q2156.47 286.3 2159.9 286.3 Q2163.35 286.3 2165.25 283.754 Q2167.17 281.207 2167.17 276.601 M2171.43 286.647 Q2171.43 293.267 2168.49 296.485 Q2165.55 299.726 2159.48 299.726 Q2157.24 299.726 2155.25 299.378 Q2153.26 299.054 2151.38 298.36 L2151.38 294.216 Q2153.26 295.235 2155.08 295.721 Q2156.91 296.207 2158.81 296.207 Q2163 296.207 2165.08 294.008 Q2167.17 291.832 2167.17 287.411 L2167.17 285.304 Q2165.85 287.596 2163.79 288.73 Q2161.73 289.865 2158.86 289.865 Q2154.09 289.865 2151.17 286.23 Q2148.26 282.596 2148.26 276.601 Q2148.26 270.582 2151.17 266.948 Q2154.09 263.314 2158.86 263.314 Q2161.73 263.314 2163.79 264.448 Q2165.85 265.582 2167.17 267.874 L2167.17 263.939 L2171.43 263.939 L2171.43 286.647 Z" fill="#000000" fill-rule="nonzero" fill-opacity="1" /><path clip-path="url(#clip480)" d="M2180.2 263.939 L2184.46 263.939 L2184.46 289.865 L2180.2 289.865 L2180.2 263.939 M2180.2 253.846 L2184.46 253.846 L2184.46 259.24 L2180.2 259.24 L2180.2 253.846 Z" fill="#000000" fill-rule="nonzero" fill-opacity="1" /><path clip-path="url(#clip480)" d="M2203.42 266.925 Q2199.99 266.925 2198 269.61 Q2196.01 272.272 2196.01 276.925 Q2196.01 281.578 2197.98 284.263 Q2199.97 286.925 2203.42 286.925 Q2206.82 286.925 2208.81 284.24 Q2210.8 281.555 2210.8 276.925 Q2210.8 272.318 2208.81 269.633 Q2206.82 266.925 2203.42 266.925 M2203.42 263.314 Q2208.97 263.314 2212.14 266.925 Q2215.31 270.536 2215.31 276.925 Q2215.31 283.291 2212.14 286.925 Q2208.97 290.536 2203.42 290.536 Q2197.84 290.536 2194.67 286.925 Q2191.52 283.291 2191.52 276.925 Q2191.52 270.536 2194.67 266.925 Q2197.84 263.314 2203.42 263.314 Z" fill="#000000" fill-rule="nonzero" fill-opacity="1" /><path clip-path="url(#clip480)" d="M2243.93 274.217 L2243.93 289.865 L2239.67 289.865 L2239.67 274.355 Q2239.67 270.675 2238.23 268.846 Q2236.8 267.018 2233.93 267.018 Q2230.48 267.018 2228.49 269.217 Q2226.5 271.416 2226.5 275.212 L2226.5 289.865 L2222.21 289.865 L2222.21 263.939 L2226.5 263.939 L2226.5 267.967 Q2228.02 265.629 2230.08 264.471 Q2232.17 263.314 2234.88 263.314 Q2239.34 263.314 2241.63 266.092 Q2243.93 268.846 2243.93 274.217 Z" fill="#000000" fill-rule="nonzero" fill-opacity="1" /></svg>
