<?xml version="1.0" encoding="utf-8"?>
<svg xmlns="http://www.w3.org/2000/svg" xmlns:xlink="http://www.w3.org/1999/xlink" width="600" height="400" viewBox="0 0 2400 1600">
<defs>
  <clipPath id="clip420">
    <rect x="0" y="0" width="2400" height="1600"/>
  </clipPath>
</defs>
<path clip-path="url(#clip420)" d="M0 1600 L2400 1600 L2400 0 L0 0  Z" fill="#ffffff" fill-rule="evenodd" fill-opacity="1"/>
<defs>
  <clipPath id="clip421">
    <rect x="480" y="0" width="1681" height="1600"/>
  </clipPath>
</defs>
<path clip-path="url(#clip420)" d="M232.389 1486.45 L2352.76 1486.45 L2352.76 123.472 L232.389 123.472  Z" fill="#ffffff" fill-rule="evenodd" fill-opacity="1"/>
<defs>
  <clipPath id="clip422">
    <rect x="232" y="123" width="2121" height="1364"/>
  </clipPath>
</defs>
<polyline clip-path="url(#clip422)" style="stroke:#000000; stroke-linecap:round; stroke-linejoin:round; stroke-width:2; stroke-opacity:0.1; fill:none" points="292.4,1486.45 292.4,123.472 "/>
<polyline clip-path="url(#clip422)" style="stroke:#000000; stroke-linecap:round; stroke-linejoin:round; stroke-width:2; stroke-opacity:0.1; fill:none" points="792.486,1486.45 792.486,123.472 "/>
<polyline clip-path="url(#clip422)" style="stroke:#000000; stroke-linecap:round; stroke-linejoin:round; stroke-width:2; stroke-opacity:0.1; fill:none" points="1292.57,1486.45 1292.57,123.472 "/>
<polyline clip-path="url(#clip422)" style="stroke:#000000; stroke-linecap:round; stroke-linejoin:round; stroke-width:2; stroke-opacity:0.1; fill:none" points="1792.66,1486.45 1792.66,123.472 "/>
<polyline clip-path="url(#clip422)" style="stroke:#000000; stroke-linecap:round; stroke-linejoin:round; stroke-width:2; stroke-opacity:0.1; fill:none" points="2292.75,1486.45 2292.75,123.472 "/>
<polyline clip-path="url(#clip422)" style="stroke:#000000; stroke-linecap:round; stroke-linejoin:round; stroke-width:2; stroke-opacity:0.1; fill:none" points="232.389,1486.45 2352.76,1486.45 "/>
<polyline clip-path="url(#clip422)" style="stroke:#000000; stroke-linecap:round; stroke-linejoin:round; stroke-width:2; stroke-opacity:0.1; fill:none" points="232.389,1213.85 2352.76,1213.85 "/>
<polyline clip-path="url(#clip422)" style="stroke:#000000; stroke-linecap:round; stroke-linejoin:round; stroke-width:2; stroke-opacity:0.1; fill:none" points="232.389,941.258 2352.76,941.258 "/>
<polyline clip-path="url(#clip422)" style="stroke:#000000; stroke-linecap:round; stroke-linejoin:round; stroke-width:2; stroke-opacity:0.1; fill:none" points="232.389,668.662 2352.76,668.662 "/>
<polyline clip-path="url(#clip422)" style="stroke:#000000; stroke-linecap:round; stroke-linejoin:round; stroke-width:2; stroke-opacity:0.1; fill:none" points="232.389,396.067 2352.76,396.067 "/>
<polyline clip-path="url(#clip422)" style="stroke:#000000; stroke-linecap:round; stroke-linejoin:round; stroke-width:2; stroke-opacity:0.1; fill:none" points="232.389,123.472 2352.76,123.472 "/>
<polyline clip-path="url(#clip420)" style="stroke:#000000; stroke-linecap:round; stroke-linejoin:round; stroke-width:4; stroke-opacity:1; fill:none" points="232.389,1486.45 2352.76,1486.45 "/>
<polyline clip-path="url(#clip420)" style="stroke:#000000; stroke-linecap:round; stroke-linejoin:round; stroke-width:4; stroke-opacity:1; fill:none" points="292.4,1486.45 292.4,1467.55 "/>
<polyline clip-path="url(#clip420)" style="stroke:#000000; stroke-linecap:round; stroke-linejoin:round; stroke-width:4; stroke-opacity:1; fill:none" points="792.486,1486.45 792.486,1467.55 "/>
<polyline clip-path="url(#clip420)" style="stroke:#000000; stroke-linecap:round; stroke-linejoin:round; stroke-width:4; stroke-opacity:1; fill:none" points="1292.57,1486.45 1292.57,1467.55 "/>
<polyline clip-path="url(#clip420)" style="stroke:#000000; stroke-linecap:round; stroke-linejoin:round; stroke-width:4; stroke-opacity:1; fill:none" points="1792.66,1486.45 1792.66,1467.55 "/>
<polyline clip-path="url(#clip420)" style="stroke:#000000; stroke-linecap:round; stroke-linejoin:round; stroke-width:4; stroke-opacity:1; fill:none" points="2292.75,1486.45 2292.75,1467.55 "/>
<path clip-path="url(#clip420)" d="M241.011 1544.91 L257.33 1544.91 L257.33 1548.85 L235.386 1548.85 L235.386 1544.91 Q238.048 1542.16 242.631 1537.53 Q247.238 1532.88 248.418 1531.53 Q250.664 1529.01 251.543 1527.27 Q252.446 1525.51 252.446 1523.82 Q252.446 1521.07 250.502 1519.33 Q248.581 1517.6 245.479 1517.6 Q243.28 1517.6 240.826 1518.36 Q238.395 1519.13 235.618 1520.68 L235.618 1515.95 Q238.442 1514.82 240.895 1514.24 Q243.349 1513.66 245.386 1513.66 Q250.756 1513.66 253.951 1516.35 Q257.145 1519.03 257.145 1523.52 Q257.145 1525.65 256.335 1527.57 Q255.548 1529.47 253.442 1532.07 Q252.863 1532.74 249.761 1535.95 Q246.659 1539.15 241.011 1544.91 Z" fill="#000000" fill-rule="nonzero" fill-opacity="1" /><path clip-path="url(#clip420)" d="M277.145 1517.37 Q273.534 1517.37 271.705 1520.93 Q269.9 1524.47 269.9 1531.6 Q269.9 1538.71 271.705 1542.27 Q273.534 1545.82 277.145 1545.82 Q280.779 1545.82 282.585 1542.27 Q284.414 1538.71 284.414 1531.6 Q284.414 1524.47 282.585 1520.93 Q280.779 1517.37 277.145 1517.37 M277.145 1513.66 Q282.955 1513.66 286.011 1518.27 Q289.09 1522.85 289.09 1531.6 Q289.09 1540.33 286.011 1544.94 Q282.955 1549.52 277.145 1549.52 Q271.335 1549.52 268.256 1544.94 Q265.201 1540.33 265.201 1531.6 Q265.201 1522.85 268.256 1518.27 Q271.335 1513.66 277.145 1513.66 Z" fill="#000000" fill-rule="nonzero" fill-opacity="1" /><path clip-path="url(#clip420)" d="M301.335 1544.91 L317.654 1544.91 L317.654 1548.85 L295.71 1548.85 L295.71 1544.91 Q298.372 1542.16 302.955 1537.53 Q307.562 1532.88 308.742 1531.53 Q310.988 1529.01 311.867 1527.27 Q312.77 1525.51 312.77 1523.82 Q312.77 1521.07 310.826 1519.33 Q308.904 1517.6 305.802 1517.6 Q303.603 1517.6 301.15 1518.36 Q298.719 1519.13 295.941 1520.68 L295.941 1515.95 Q298.765 1514.82 301.219 1514.24 Q303.673 1513.66 305.71 1513.66 Q311.08 1513.66 314.275 1516.35 Q317.469 1519.03 317.469 1523.52 Q317.469 1525.65 316.659 1527.57 Q315.872 1529.47 313.765 1532.07 Q313.187 1532.74 310.085 1535.95 Q306.983 1539.15 301.335 1544.91 Z" fill="#000000" fill-rule="nonzero" fill-opacity="1" /><path clip-path="url(#clip420)" d="M337.469 1517.37 Q333.858 1517.37 332.029 1520.93 Q330.224 1524.47 330.224 1531.6 Q330.224 1538.71 332.029 1542.27 Q333.858 1545.82 337.469 1545.82 Q341.103 1545.82 342.909 1542.27 Q344.737 1538.71 344.737 1531.6 Q344.737 1524.47 342.909 1520.93 Q341.103 1517.37 337.469 1517.37 M337.469 1513.66 Q343.279 1513.66 346.335 1518.27 Q349.413 1522.85 349.413 1531.6 Q349.413 1540.33 346.335 1544.94 Q343.279 1549.52 337.469 1549.52 Q331.659 1549.52 328.58 1544.94 Q325.525 1540.33 325.525 1531.6 Q325.525 1522.85 328.58 1518.27 Q331.659 1513.66 337.469 1513.66 Z" fill="#000000" fill-rule="nonzero" fill-opacity="1" /><path clip-path="url(#clip420)" d="M741.098 1544.91 L757.417 1544.91 L757.417 1548.85 L735.473 1548.85 L735.473 1544.91 Q738.135 1542.16 742.718 1537.53 Q747.324 1532.88 748.505 1531.53 Q750.75 1529.01 751.63 1527.27 Q752.533 1525.51 752.533 1523.82 Q752.533 1521.07 750.588 1519.33 Q748.667 1517.6 745.565 1517.6 Q743.366 1517.6 740.912 1518.36 Q738.482 1519.13 735.704 1520.68 L735.704 1515.95 Q738.528 1514.82 740.982 1514.24 Q743.436 1513.66 745.473 1513.66 Q750.843 1513.66 754.037 1516.35 Q757.232 1519.03 757.232 1523.52 Q757.232 1525.65 756.422 1527.57 Q755.635 1529.47 753.528 1532.07 Q752.949 1532.74 749.848 1535.95 Q746.746 1539.15 741.098 1544.91 Z" fill="#000000" fill-rule="nonzero" fill-opacity="1" /><path clip-path="url(#clip420)" d="M777.232 1517.37 Q773.621 1517.37 771.792 1520.93 Q769.986 1524.47 769.986 1531.6 Q769.986 1538.71 771.792 1542.27 Q773.621 1545.82 777.232 1545.82 Q780.866 1545.82 782.671 1542.27 Q784.5 1538.71 784.5 1531.6 Q784.5 1524.47 782.671 1520.93 Q780.866 1517.37 777.232 1517.37 M777.232 1513.66 Q783.042 1513.66 786.097 1518.27 Q789.176 1522.85 789.176 1531.6 Q789.176 1540.33 786.097 1544.94 Q783.042 1549.52 777.232 1549.52 Q771.421 1549.52 768.343 1544.94 Q765.287 1540.33 765.287 1531.6 Q765.287 1522.85 768.343 1518.27 Q771.421 1513.66 777.232 1513.66 Z" fill="#000000" fill-rule="nonzero" fill-opacity="1" /><path clip-path="url(#clip420)" d="M810.241 1518.36 L798.435 1536.81 L810.241 1536.81 L810.241 1518.36 M809.014 1514.29 L814.893 1514.29 L814.893 1536.81 L819.824 1536.81 L819.824 1540.7 L814.893 1540.7 L814.893 1548.85 L810.241 1548.85 L810.241 1540.7 L794.639 1540.7 L794.639 1536.19 L809.014 1514.29 Z" fill="#000000" fill-rule="nonzero" fill-opacity="1" /><path clip-path="url(#clip420)" d="M837.555 1517.37 Q833.944 1517.37 832.116 1520.93 Q830.31 1524.47 830.31 1531.6 Q830.31 1538.71 832.116 1542.27 Q833.944 1545.82 837.555 1545.82 Q841.19 1545.82 842.995 1542.27 Q844.824 1538.71 844.824 1531.6 Q844.824 1524.47 842.995 1520.93 Q841.19 1517.37 837.555 1517.37 M837.555 1513.66 Q843.366 1513.66 846.421 1518.27 Q849.5 1522.85 849.5 1531.6 Q849.5 1540.33 846.421 1544.94 Q843.366 1549.52 837.555 1549.52 Q831.745 1549.52 828.667 1544.94 Q825.611 1540.33 825.611 1531.6 Q825.611 1522.85 828.667 1518.27 Q831.745 1513.66 837.555 1513.66 Z" fill="#000000" fill-rule="nonzero" fill-opacity="1" /><path clip-path="url(#clip420)" d="M1241.18 1544.91 L1257.5 1544.91 L1257.5 1548.85 L1235.56 1548.85 L1235.56 1544.91 Q1238.22 1542.16 1242.8 1537.53 Q1247.41 1532.88 1248.59 1531.53 Q1250.84 1529.01 1251.72 1527.27 Q1252.62 1525.51 1252.62 1523.82 Q1252.62 1521.07 1250.67 1519.33 Q1248.75 1517.6 1245.65 1517.6 Q1243.45 1517.6 1241 1518.36 Q1238.57 1519.13 1235.79 1520.68 L1235.79 1515.95 Q1238.61 1514.82 1241.07 1514.24 Q1243.52 1513.66 1245.56 1513.66 Q1250.93 1513.66 1254.12 1516.35 Q1257.32 1519.03 1257.32 1523.52 Q1257.32 1525.65 1256.51 1527.57 Q1255.72 1529.47 1253.61 1532.07 Q1253.04 1532.74 1249.93 1535.95 Q1246.83 1539.15 1241.18 1544.91 Z" fill="#000000" fill-rule="nonzero" fill-opacity="1" /><path clip-path="url(#clip420)" d="M1277.32 1517.37 Q1273.71 1517.37 1271.88 1520.93 Q1270.07 1524.47 1270.07 1531.6 Q1270.07 1538.71 1271.88 1542.27 Q1273.71 1545.82 1277.32 1545.82 Q1280.95 1545.82 1282.76 1542.27 Q1284.59 1538.71 1284.59 1531.6 Q1284.59 1524.47 1282.76 1520.93 Q1280.95 1517.37 1277.32 1517.37 M1277.32 1513.66 Q1283.13 1513.66 1286.18 1518.27 Q1289.26 1522.85 1289.26 1531.6 Q1289.26 1540.33 1286.18 1544.94 Q1283.13 1549.52 1277.32 1549.52 Q1271.51 1549.52 1268.43 1544.94 Q1265.37 1540.33 1265.37 1531.6 Q1265.37 1522.85 1268.43 1518.27 Q1271.51 1513.66 1277.32 1513.66 Z" fill="#000000" fill-rule="nonzero" fill-opacity="1" /><path clip-path="url(#clip420)" d="M1308.06 1529.7 Q1304.91 1529.7 1303.06 1531.86 Q1301.23 1534.01 1301.23 1537.76 Q1301.23 1541.49 1303.06 1543.66 Q1304.91 1545.82 1308.06 1545.82 Q1311.21 1545.82 1313.04 1543.66 Q1314.89 1541.49 1314.89 1537.76 Q1314.89 1534.01 1313.04 1531.86 Q1311.21 1529.7 1308.06 1529.7 M1317.34 1515.05 L1317.34 1519.31 Q1315.58 1518.48 1313.78 1518.04 Q1311.99 1517.6 1310.23 1517.6 Q1305.6 1517.6 1303.15 1520.72 Q1300.72 1523.85 1300.37 1530.17 Q1301.74 1528.15 1303.8 1527.09 Q1305.86 1526 1308.34 1526 Q1313.54 1526 1316.55 1529.17 Q1319.59 1532.32 1319.59 1537.76 Q1319.59 1543.08 1316.44 1546.3 Q1313.29 1549.52 1308.06 1549.52 Q1302.06 1549.52 1298.89 1544.94 Q1295.72 1540.33 1295.72 1531.6 Q1295.72 1523.41 1299.61 1518.55 Q1303.5 1513.66 1310.05 1513.66 Q1311.81 1513.66 1313.59 1514.01 Q1315.4 1514.36 1317.34 1515.05 Z" fill="#000000" fill-rule="nonzero" fill-opacity="1" /><path clip-path="url(#clip420)" d="M1337.64 1517.37 Q1334.03 1517.37 1332.2 1520.93 Q1330.4 1524.47 1330.4 1531.6 Q1330.4 1538.71 1332.2 1542.27 Q1334.03 1545.82 1337.64 1545.82 Q1341.28 1545.82 1343.08 1542.27 Q1344.91 1538.71 1344.91 1531.6 Q1344.91 1524.47 1343.08 1520.93 Q1341.28 1517.37 1337.64 1517.37 M1337.64 1513.66 Q1343.45 1513.66 1346.51 1518.27 Q1349.59 1522.85 1349.59 1531.6 Q1349.59 1540.33 1346.51 1544.94 Q1343.45 1549.52 1337.64 1549.52 Q1331.83 1549.52 1328.75 1544.94 Q1325.7 1540.33 1325.7 1531.6 Q1325.7 1522.85 1328.75 1518.27 Q1331.83 1513.66 1337.64 1513.66 Z" fill="#000000" fill-rule="nonzero" fill-opacity="1" /><path clip-path="url(#clip420)" d="M1741.27 1544.91 L1757.59 1544.91 L1757.59 1548.85 L1735.65 1548.85 L1735.65 1544.91 Q1738.31 1542.16 1742.89 1537.53 Q1747.5 1532.88 1748.68 1531.53 Q1750.92 1529.01 1751.8 1527.27 Q1752.71 1525.51 1752.71 1523.82 Q1752.71 1521.07 1750.76 1519.33 Q1748.84 1517.6 1745.74 1517.6 Q1743.54 1517.6 1741.09 1518.36 Q1738.65 1519.13 1735.88 1520.68 L1735.88 1515.95 Q1738.7 1514.82 1741.15 1514.24 Q1743.61 1513.66 1745.65 1513.66 Q1751.02 1513.66 1754.21 1516.35 Q1757.4 1519.03 1757.4 1523.52 Q1757.4 1525.65 1756.59 1527.57 Q1755.81 1529.47 1753.7 1532.07 Q1753.12 1532.74 1750.02 1535.95 Q1746.92 1539.15 1741.27 1544.91 Z" fill="#000000" fill-rule="nonzero" fill-opacity="1" /><path clip-path="url(#clip420)" d="M1777.4 1517.37 Q1773.79 1517.37 1771.96 1520.93 Q1770.16 1524.47 1770.16 1531.6 Q1770.16 1538.71 1771.96 1542.27 Q1773.79 1545.82 1777.4 1545.82 Q1781.04 1545.82 1782.84 1542.27 Q1784.67 1538.71 1784.67 1531.6 Q1784.67 1524.47 1782.84 1520.93 Q1781.04 1517.37 1777.4 1517.37 M1777.4 1513.66 Q1783.21 1513.66 1786.27 1518.27 Q1789.35 1522.85 1789.35 1531.6 Q1789.35 1540.33 1786.27 1544.94 Q1783.21 1549.52 1777.4 1549.52 Q1771.59 1549.52 1768.52 1544.94 Q1765.46 1540.33 1765.46 1531.6 Q1765.46 1522.85 1768.52 1518.27 Q1771.59 1513.66 1777.4 1513.66 Z" fill="#000000" fill-rule="nonzero" fill-opacity="1" /><path clip-path="url(#clip420)" d="M1807.57 1532.44 Q1804.23 1532.44 1802.31 1534.22 Q1800.41 1536 1800.41 1539.13 Q1800.41 1542.25 1802.31 1544.03 Q1804.23 1545.82 1807.57 1545.82 Q1810.9 1545.82 1812.82 1544.03 Q1814.74 1542.23 1814.74 1539.13 Q1814.74 1536 1812.82 1534.22 Q1810.92 1532.44 1807.57 1532.44 M1802.89 1530.45 Q1799.88 1529.7 1798.19 1527.64 Q1796.52 1525.58 1796.52 1522.62 Q1796.52 1518.48 1799.46 1516.07 Q1802.43 1513.66 1807.57 1513.66 Q1812.73 1513.66 1815.67 1516.07 Q1818.61 1518.48 1818.61 1522.62 Q1818.61 1525.58 1816.92 1527.64 Q1815.25 1529.7 1812.27 1530.45 Q1815.65 1531.23 1817.52 1533.52 Q1819.42 1535.82 1819.42 1539.13 Q1819.42 1544.15 1816.34 1546.83 Q1813.28 1549.52 1807.57 1549.52 Q1801.85 1549.52 1798.77 1546.83 Q1795.71 1544.15 1795.71 1539.13 Q1795.71 1535.82 1797.61 1533.52 Q1799.51 1531.23 1802.89 1530.45 M1801.18 1523.06 Q1801.18 1525.75 1802.84 1527.25 Q1804.53 1528.76 1807.57 1528.76 Q1810.58 1528.76 1812.27 1527.25 Q1813.98 1525.75 1813.98 1523.06 Q1813.98 1520.38 1812.27 1518.87 Q1810.58 1517.37 1807.57 1517.37 Q1804.53 1517.37 1802.84 1518.87 Q1801.18 1520.38 1801.18 1523.06 Z" fill="#000000" fill-rule="nonzero" fill-opacity="1" /><path clip-path="url(#clip420)" d="M1837.73 1517.37 Q1834.12 1517.37 1832.29 1520.93 Q1830.48 1524.47 1830.48 1531.6 Q1830.48 1538.71 1832.29 1542.27 Q1834.12 1545.82 1837.73 1545.82 Q1841.36 1545.82 1843.17 1542.27 Q1845 1538.71 1845 1531.6 Q1845 1524.47 1843.17 1520.93 Q1841.36 1517.37 1837.73 1517.37 M1837.73 1513.66 Q1843.54 1513.66 1846.59 1518.27 Q1849.67 1522.85 1849.67 1531.6 Q1849.67 1540.33 1846.59 1544.94 Q1843.54 1549.52 1837.73 1549.52 Q1831.92 1549.52 1828.84 1544.94 Q1825.78 1540.33 1825.78 1531.6 Q1825.78 1522.85 1828.84 1518.27 Q1831.92 1513.66 1837.73 1513.66 Z" fill="#000000" fill-rule="nonzero" fill-opacity="1" /><path clip-path="url(#clip420)" d="M2241.36 1544.91 L2257.68 1544.91 L2257.68 1548.85 L2235.73 1548.85 L2235.73 1544.91 Q2238.39 1542.16 2242.98 1537.53 Q2247.58 1532.88 2248.76 1531.53 Q2251.01 1529.01 2251.89 1527.27 Q2252.79 1525.51 2252.79 1523.82 Q2252.79 1521.07 2250.85 1519.33 Q2248.93 1517.6 2245.82 1517.6 Q2243.63 1517.6 2241.17 1518.36 Q2238.74 1519.13 2235.96 1520.68 L2235.96 1515.95 Q2238.79 1514.82 2241.24 1514.24 Q2243.69 1513.66 2245.73 1513.66 Q2251.1 1513.66 2254.3 1516.35 Q2257.49 1519.03 2257.49 1523.52 Q2257.49 1525.65 2256.68 1527.57 Q2255.89 1529.47 2253.79 1532.07 Q2253.21 1532.74 2250.11 1535.95 Q2247.01 1539.15 2241.36 1544.91 Z" fill="#000000" fill-rule="nonzero" fill-opacity="1" /><path clip-path="url(#clip420)" d="M2268.3 1544.91 L2275.94 1544.91 L2275.94 1518.55 L2267.63 1520.21 L2267.63 1515.95 L2275.89 1514.29 L2280.57 1514.29 L2280.57 1544.91 L2288.21 1544.91 L2288.21 1548.85 L2268.3 1548.85 L2268.3 1544.91 Z" fill="#000000" fill-rule="nonzero" fill-opacity="1" /><path clip-path="url(#clip420)" d="M2307.65 1517.37 Q2304.04 1517.37 2302.21 1520.93 Q2300.41 1524.47 2300.41 1531.6 Q2300.41 1538.71 2302.21 1542.27 Q2304.04 1545.82 2307.65 1545.82 Q2311.29 1545.82 2313.09 1542.27 Q2314.92 1538.71 2314.92 1531.6 Q2314.92 1524.47 2313.09 1520.93 Q2311.29 1517.37 2307.65 1517.37 M2307.65 1513.66 Q2313.46 1513.66 2316.52 1518.27 Q2319.6 1522.85 2319.6 1531.6 Q2319.6 1540.33 2316.52 1544.94 Q2313.46 1549.52 2307.65 1549.52 Q2301.84 1549.52 2298.76 1544.94 Q2295.71 1540.33 2295.71 1531.6 Q2295.71 1522.85 2298.76 1518.27 Q2301.84 1513.66 2307.65 1513.66 Z" fill="#000000" fill-rule="nonzero" fill-opacity="1" /><path clip-path="url(#clip420)" d="M2337.81 1517.37 Q2334.2 1517.37 2332.37 1520.93 Q2330.57 1524.47 2330.57 1531.6 Q2330.57 1538.71 2332.37 1542.27 Q2334.2 1545.82 2337.81 1545.82 Q2341.45 1545.82 2343.25 1542.27 Q2345.08 1538.71 2345.08 1531.6 Q2345.08 1524.47 2343.25 1520.93 Q2341.45 1517.37 2337.81 1517.37 M2337.81 1513.66 Q2343.62 1513.66 2346.68 1518.27 Q2349.76 1522.85 2349.76 1531.6 Q2349.76 1540.33 2346.68 1544.94 Q2343.62 1549.52 2337.81 1549.52 Q2332 1549.52 2328.93 1544.94 Q2325.87 1540.33 2325.87 1531.6 Q2325.87 1522.85 2328.93 1518.27 Q2332 1513.66 2337.81 1513.66 Z" fill="#000000" fill-rule="nonzero" fill-opacity="1" /><polyline clip-path="url(#clip420)" style="stroke:#000000; stroke-linecap:round; stroke-linejoin:round; stroke-width:4; stroke-opacity:1; fill:none" points="232.389,1486.45 232.389,123.472 "/>
<polyline clip-path="url(#clip420)" style="stroke:#000000; stroke-linecap:round; stroke-linejoin:round; stroke-width:4; stroke-opacity:1; fill:none" points="232.389,1486.45 251.287,1486.45 "/>
<polyline clip-path="url(#clip420)" style="stroke:#000000; stroke-linecap:round; stroke-linejoin:round; stroke-width:4; stroke-opacity:1; fill:none" points="232.389,1213.85 251.287,1213.85 "/>
<polyline clip-path="url(#clip420)" style="stroke:#000000; stroke-linecap:round; stroke-linejoin:round; stroke-width:4; stroke-opacity:1; fill:none" points="232.389,941.258 251.287,941.258 "/>
<polyline clip-path="url(#clip420)" style="stroke:#000000; stroke-linecap:round; stroke-linejoin:round; stroke-width:4; stroke-opacity:1; fill:none" points="232.389,668.662 251.287,668.662 "/>
<polyline clip-path="url(#clip420)" style="stroke:#000000; stroke-linecap:round; stroke-linejoin:round; stroke-width:4; stroke-opacity:1; fill:none" points="232.389,396.067 251.287,396.067 "/>
<polyline clip-path="url(#clip420)" style="stroke:#000000; stroke-linecap:round; stroke-linejoin:round; stroke-width:4; stroke-opacity:1; fill:none" points="232.389,123.472 251.287,123.472 "/>
<path clip-path="url(#clip420)" d="M184.445 1472.25 Q180.834 1472.25 179.005 1475.81 Q177.2 1479.35 177.2 1486.48 Q177.2 1493.59 179.005 1497.15 Q180.834 1500.7 184.445 1500.7 Q188.079 1500.7 189.885 1497.15 Q191.713 1493.59 191.713 1486.48 Q191.713 1479.35 189.885 1475.81 Q188.079 1472.25 184.445 1472.25 M184.445 1468.54 Q190.255 1468.54 193.311 1473.15 Q196.389 1477.73 196.389 1486.48 Q196.389 1495.21 193.311 1499.82 Q190.255 1504.4 184.445 1504.4 Q178.635 1504.4 175.556 1499.82 Q172.501 1495.21 172.501 1486.48 Q172.501 1477.73 175.556 1473.15 Q178.635 1468.54 184.445 1468.54 Z" fill="#000000" fill-rule="nonzero" fill-opacity="1" /><path clip-path="url(#clip420)" d="M148.311 1227.2 L164.63 1227.2 L164.63 1231.13 L142.686 1231.13 L142.686 1227.2 Q145.348 1224.44 149.931 1219.81 Q154.538 1215.16 155.718 1213.82 Q157.964 1211.29 158.843 1209.56 Q159.746 1207.8 159.746 1206.11 Q159.746 1203.36 157.802 1201.62 Q155.88 1199.88 152.778 1199.88 Q150.579 1199.88 148.126 1200.65 Q145.695 1201.41 142.917 1202.96 L142.917 1198.24 Q145.741 1197.11 148.195 1196.53 Q150.649 1195.95 152.686 1195.95 Q158.056 1195.95 161.251 1198.63 Q164.445 1201.32 164.445 1205.81 Q164.445 1207.94 163.635 1209.86 Q162.848 1211.76 160.741 1214.35 Q160.163 1215.02 157.061 1218.24 Q153.959 1221.43 148.311 1227.2 Z" fill="#000000" fill-rule="nonzero" fill-opacity="1" /><path clip-path="url(#clip420)" d="M184.445 1199.65 Q180.834 1199.65 179.005 1203.22 Q177.2 1206.76 177.2 1213.89 Q177.2 1220.99 179.005 1224.56 Q180.834 1228.1 184.445 1228.1 Q188.079 1228.1 189.885 1224.56 Q191.713 1220.99 191.713 1213.89 Q191.713 1206.76 189.885 1203.22 Q188.079 1199.65 184.445 1199.65 M184.445 1195.95 Q190.255 1195.95 193.311 1200.55 Q196.389 1205.14 196.389 1213.89 Q196.389 1222.61 193.311 1227.22 Q190.255 1231.8 184.445 1231.8 Q178.635 1231.8 175.556 1227.22 Q172.501 1222.61 172.501 1213.89 Q172.501 1205.14 175.556 1200.55 Q178.635 1195.95 184.445 1195.95 Z" fill="#000000" fill-rule="nonzero" fill-opacity="1" /><path clip-path="url(#clip420)" d="M157.13 928.052 L145.325 946.501 L157.13 946.501 L157.13 928.052 M155.903 923.978 L161.783 923.978 L161.783 946.501 L166.714 946.501 L166.714 950.389 L161.783 950.389 L161.783 958.538 L157.13 958.538 L157.13 950.389 L141.529 950.389 L141.529 945.876 L155.903 923.978 Z" fill="#000000" fill-rule="nonzero" fill-opacity="1" /><path clip-path="url(#clip420)" d="M184.445 927.056 Q180.834 927.056 179.005 930.621 Q177.2 934.163 177.2 941.292 Q177.2 948.399 179.005 951.964 Q180.834 955.505 184.445 955.505 Q188.079 955.505 189.885 951.964 Q191.713 948.399 191.713 941.292 Q191.713 934.163 189.885 930.621 Q188.079 927.056 184.445 927.056 M184.445 923.353 Q190.255 923.353 193.311 927.959 Q196.389 932.542 196.389 941.292 Q196.389 950.019 193.311 954.626 Q190.255 959.209 184.445 959.209 Q178.635 959.209 175.556 954.626 Q172.501 950.019 172.501 941.292 Q172.501 932.542 175.556 927.959 Q178.635 923.353 184.445 923.353 Z" fill="#000000" fill-rule="nonzero" fill-opacity="1" /><path clip-path="url(#clip420)" d="M154.862 666.799 Q151.714 666.799 149.862 668.952 Q148.033 671.105 148.033 674.855 Q148.033 678.581 149.862 680.757 Q151.714 682.91 154.862 682.91 Q158.01 682.91 159.839 680.757 Q161.69 678.581 161.69 674.855 Q161.69 671.105 159.839 668.952 Q158.01 666.799 154.862 666.799 M164.144 652.146 L164.144 656.406 Q162.385 655.572 160.579 655.132 Q158.797 654.693 157.038 654.693 Q152.408 654.693 149.954 657.818 Q147.524 660.943 147.177 667.262 Q148.542 665.248 150.603 664.183 Q152.663 663.095 155.14 663.095 Q160.348 663.095 163.357 666.267 Q166.39 669.415 166.39 674.855 Q166.39 680.179 163.241 683.396 Q160.093 686.614 154.862 686.614 Q148.866 686.614 145.695 682.03 Q142.524 677.424 142.524 668.697 Q142.524 660.503 146.413 655.642 Q150.302 650.757 156.853 650.757 Q158.612 650.757 160.394 651.105 Q162.2 651.452 164.144 652.146 Z" fill="#000000" fill-rule="nonzero" fill-opacity="1" /><path clip-path="url(#clip420)" d="M184.445 654.461 Q180.834 654.461 179.005 658.026 Q177.2 661.568 177.2 668.697 Q177.2 675.804 179.005 679.368 Q180.834 682.91 184.445 682.91 Q188.079 682.91 189.885 679.368 Q191.713 675.804 191.713 668.697 Q191.713 661.568 189.885 658.026 Q188.079 654.461 184.445 654.461 M184.445 650.757 Q190.255 650.757 193.311 655.364 Q196.389 659.947 196.389 668.697 Q196.389 677.424 193.311 682.03 Q190.255 686.614 184.445 686.614 Q178.635 686.614 175.556 682.03 Q172.501 677.424 172.501 668.697 Q172.501 659.947 175.556 655.364 Q178.635 650.757 184.445 650.757 Z" fill="#000000" fill-rule="nonzero" fill-opacity="1" /><path clip-path="url(#clip420)" d="M154.283 396.935 Q150.95 396.935 149.028 398.718 Q147.13 400.5 147.13 403.625 Q147.13 406.75 149.028 408.532 Q150.95 410.315 154.283 410.315 Q157.616 410.315 159.538 408.532 Q161.459 406.727 161.459 403.625 Q161.459 400.5 159.538 398.718 Q157.64 396.935 154.283 396.935 M149.607 394.945 Q146.598 394.204 144.908 392.144 Q143.241 390.084 143.241 387.121 Q143.241 382.977 146.181 380.57 Q149.144 378.162 154.283 378.162 Q159.445 378.162 162.385 380.57 Q165.325 382.977 165.325 387.121 Q165.325 390.084 163.635 392.144 Q161.968 394.204 158.982 394.945 Q162.362 395.732 164.237 398.023 Q166.135 400.315 166.135 403.625 Q166.135 408.648 163.056 411.333 Q160.001 414.019 154.283 414.019 Q148.566 414.019 145.487 411.333 Q142.431 408.648 142.431 403.625 Q142.431 400.315 144.329 398.023 Q146.228 395.732 149.607 394.945 M147.894 387.56 Q147.894 390.246 149.561 391.75 Q151.251 393.255 154.283 393.255 Q157.292 393.255 158.982 391.75 Q160.695 390.246 160.695 387.56 Q160.695 384.875 158.982 383.371 Q157.292 381.866 154.283 381.866 Q151.251 381.866 149.561 383.371 Q147.894 384.875 147.894 387.56 Z" fill="#000000" fill-rule="nonzero" fill-opacity="1" /><path clip-path="url(#clip420)" d="M184.445 381.866 Q180.834 381.866 179.005 385.431 Q177.2 388.972 177.2 396.102 Q177.2 403.208 179.005 406.773 Q180.834 410.315 184.445 410.315 Q188.079 410.315 189.885 406.773 Q191.713 403.208 191.713 396.102 Q191.713 388.972 189.885 385.431 Q188.079 381.866 184.445 381.866 M184.445 378.162 Q190.255 378.162 193.311 382.769 Q196.389 387.352 196.389 396.102 Q196.389 404.829 193.311 409.435 Q190.255 414.019 184.445 414.019 Q178.635 414.019 175.556 409.435 Q172.501 404.829 172.501 396.102 Q172.501 387.352 175.556 382.769 Q178.635 378.162 184.445 378.162 Z" fill="#000000" fill-rule="nonzero" fill-opacity="1" /><path clip-path="url(#clip420)" d="M114.931 136.817 L122.57 136.817 L122.57 110.451 L114.26 112.118 L114.26 107.859 L122.524 106.192 L127.2 106.192 L127.2 136.817 L134.839 136.817 L134.839 140.752 L114.931 140.752 L114.931 136.817 Z" fill="#000000" fill-rule="nonzero" fill-opacity="1" /><path clip-path="url(#clip420)" d="M154.283 109.271 Q150.672 109.271 148.843 112.836 Q147.038 116.377 147.038 123.507 Q147.038 130.613 148.843 134.178 Q150.672 137.72 154.283 137.72 Q157.917 137.72 159.723 134.178 Q161.552 130.613 161.552 123.507 Q161.552 116.377 159.723 112.836 Q157.917 109.271 154.283 109.271 M154.283 105.567 Q160.093 105.567 163.149 110.174 Q166.227 114.757 166.227 123.507 Q166.227 132.234 163.149 136.84 Q160.093 141.423 154.283 141.423 Q148.473 141.423 145.394 136.84 Q142.339 132.234 142.339 123.507 Q142.339 114.757 145.394 110.174 Q148.473 105.567 154.283 105.567 Z" fill="#000000" fill-rule="nonzero" fill-opacity="1" /><path clip-path="url(#clip420)" d="M184.445 109.271 Q180.834 109.271 179.005 112.836 Q177.2 116.377 177.2 123.507 Q177.2 130.613 179.005 134.178 Q180.834 137.72 184.445 137.72 Q188.079 137.72 189.885 134.178 Q191.713 130.613 191.713 123.507 Q191.713 116.377 189.885 112.836 Q188.079 109.271 184.445 109.271 M184.445 105.567 Q190.255 105.567 193.311 110.174 Q196.389 114.757 196.389 123.507 Q196.389 132.234 193.311 136.84 Q190.255 141.423 184.445 141.423 Q178.635 141.423 175.556 136.84 Q172.501 132.234 172.501 123.507 Q172.501 114.757 175.556 110.174 Q178.635 105.567 184.445 105.567 Z" fill="#000000" fill-rule="nonzero" fill-opacity="1" /><path clip-path="url(#clip420)" d="M43.0928 788.536 Q43.0928 791.306 45.4481 792.897 Q47.8034 794.457 52.0048 794.457 Q56.1425 794.457 58.5296 792.897 Q60.885 791.306 60.885 788.536 Q60.885 785.831 58.5296 784.271 Q56.1425 782.68 52.0048 782.68 Q47.8353 782.68 45.48 784.271 Q43.0928 785.831 43.0928 788.536 M39.0506 788.536 Q39.0506 783.508 42.5517 780.548 Q46.0529 777.587 52.0048 777.587 Q57.9567 777.587 61.4579 780.579 Q64.9272 783.539 64.9272 788.536 Q64.9272 793.629 61.4579 796.589 Q57.9567 799.549 52.0048 799.549 Q46.021 799.549 42.5517 796.589 Q39.0506 793.597 39.0506 788.536 M19.667 821.384 Q19.667 824.121 22.0542 825.712 Q24.4095 827.272 28.5472 827.272 Q32.7485 827.272 35.1038 825.712 Q37.4592 824.153 37.4592 821.384 Q37.4592 818.614 35.1038 817.055 Q32.7485 815.463 28.5472 815.463 Q24.4413 815.463 22.0542 817.055 Q19.667 818.646 19.667 821.384 M15.6248 792.642 L15.6248 787.55 L64.9272 817.278 L64.9272 822.37 L15.6248 792.642 M15.6248 821.384 Q15.6248 816.355 19.1259 813.363 Q22.5952 810.371 28.5472 810.371 Q34.5628 810.371 38.0321 813.363 Q41.5014 816.323 41.5014 821.384 Q41.5014 826.444 38.0321 829.404 Q34.5309 832.333 28.5472 832.333 Q22.6271 832.333 19.1259 829.372 Q15.6248 826.412 15.6248 821.384 Z" fill="#000000" fill-rule="nonzero" fill-opacity="1" /><path clip-path="url(#clip420)" d="M859.875 12.096 L898.116 12.096 L898.116 18.9825 L868.058 18.9825 L868.058 36.8875 L896.86 36.8875 L896.86 43.7741 L868.058 43.7741 L868.058 65.6895 L898.845 65.6895 L898.845 72.576 L859.875 72.576 L859.875 12.096 Z" fill="#000000" fill-rule="nonzero" fill-opacity="1" /><path clip-path="url(#clip420)" d="M947.294 35.9153 Q950.089 30.8922 953.978 28.5022 Q957.867 26.1121 963.133 26.1121 Q970.222 26.1121 974.07 31.0947 Q977.919 36.0368 977.919 45.1919 L977.919 72.576 L970.424 72.576 L970.424 45.4349 Q970.424 38.913 968.115 35.7533 Q965.806 32.5936 961.067 32.5936 Q955.274 32.5936 951.912 36.4419 Q948.55 40.2903 948.55 46.9338 L948.55 72.576 L941.055 72.576 L941.055 45.4349 Q941.055 38.8725 938.746 35.7533 Q936.437 32.5936 931.617 32.5936 Q925.905 32.5936 922.543 36.4824 Q919.181 40.3308 919.181 46.9338 L919.181 72.576 L911.686 72.576 L911.686 27.2059 L919.181 27.2059 L919.181 34.2544 Q921.733 30.082 925.297 28.0971 Q928.862 26.1121 933.764 26.1121 Q938.706 26.1121 942.149 28.6237 Q945.633 31.1352 947.294 35.9153 Z" fill="#000000" fill-rule="nonzero" fill-opacity="1" /><path clip-path="url(#clip420)" d="M992.785 27.2059 L1000.24 27.2059 L1000.24 72.576 L992.785 72.576 L992.785 27.2059 M992.785 9.54393 L1000.24 9.54393 L1000.24 18.9825 L992.785 18.9825 L992.785 9.54393 Z" fill="#000000" fill-rule="nonzero" fill-opacity="1" /><path clip-path="url(#clip420)" d="M1044.76 28.5427 L1044.76 35.5912 Q1041.6 33.9709 1038.2 33.1607 Q1034.79 32.3505 1031.15 32.3505 Q1025.6 32.3505 1022.8 34.0519 Q1020.05 35.7533 1020.05 39.156 Q1020.05 41.7486 1022.03 43.2475 Q1024.02 44.7058 1030.01 46.0426 L1032.57 46.6097 Q1040.51 48.3111 1043.83 51.4303 Q1047.19 54.509 1047.19 60.0587 Q1047.19 66.3781 1042.17 70.0644 Q1037.18 73.7508 1028.43 73.7508 Q1024.79 73.7508 1020.82 73.0216 Q1016.89 72.3329 1012.51 70.9151 L1012.51 63.2184 Q1016.65 65.3654 1020.66 66.4591 Q1024.67 67.5124 1028.6 67.5124 Q1033.86 67.5124 1036.7 65.73 Q1039.53 63.9071 1039.53 60.6258 Q1039.53 57.5877 1037.47 55.9673 Q1035.44 54.3469 1028.51 52.8481 L1025.92 52.2405 Q1018.99 50.7821 1015.92 47.7845 Q1012.84 44.7463 1012.84 39.4801 Q1012.84 33.0797 1017.37 29.5959 Q1021.91 26.1121 1030.26 26.1121 Q1034.39 26.1121 1038.03 26.7198 Q1041.68 27.3274 1044.76 28.5427 Z" fill="#000000" fill-rule="nonzero" fill-opacity="1" /><path clip-path="url(#clip420)" d="M1087.98 28.5427 L1087.98 35.5912 Q1084.82 33.9709 1081.42 33.1607 Q1078.02 32.3505 1074.37 32.3505 Q1068.82 32.3505 1066.03 34.0519 Q1063.27 35.7533 1063.27 39.156 Q1063.27 41.7486 1065.26 43.2475 Q1067.24 44.7058 1073.24 46.0426 L1075.79 46.6097 Q1083.73 48.3111 1087.05 51.4303 Q1090.41 54.509 1090.41 60.0587 Q1090.41 66.3781 1085.39 70.0644 Q1080.41 73.7508 1071.66 73.7508 Q1068.01 73.7508 1064.04 73.0216 Q1060.11 72.3329 1055.74 70.9151 L1055.74 63.2184 Q1059.87 65.3654 1063.88 66.4591 Q1067.89 67.5124 1071.82 67.5124 Q1077.08 67.5124 1079.92 65.73 Q1082.76 63.9071 1082.76 60.6258 Q1082.76 57.5877 1080.69 55.9673 Q1078.66 54.3469 1071.74 52.8481 L1069.15 52.2405 Q1062.22 50.7821 1059.14 47.7845 Q1056.06 44.7463 1056.06 39.4801 Q1056.06 33.0797 1060.6 29.5959 Q1065.13 26.1121 1073.48 26.1121 Q1077.61 26.1121 1081.26 26.7198 Q1084.9 27.3274 1087.98 28.5427 Z" fill="#000000" fill-rule="nonzero" fill-opacity="1" /><path clip-path="url(#clip420)" d="M1102.28 27.2059 L1109.74 27.2059 L1109.74 72.576 L1102.28 72.576 L1102.28 27.2059 M1102.28 9.54393 L1109.74 9.54393 L1109.74 18.9825 L1102.28 18.9825 L1102.28 9.54393 Z" fill="#000000" fill-rule="nonzero" fill-opacity="1" /><path clip-path="url(#clip420)" d="M1142.91 32.4315 Q1136.92 32.4315 1133.43 37.1306 Q1129.95 41.7891 1129.95 49.9314 Q1129.95 58.0738 1133.39 62.7728 Q1136.88 67.4314 1142.91 67.4314 Q1148.87 67.4314 1152.35 62.7323 Q1155.83 58.0333 1155.83 49.9314 Q1155.83 41.8701 1152.35 37.1711 Q1148.87 32.4315 1142.91 32.4315 M1142.91 26.1121 Q1152.63 26.1121 1158.18 32.4315 Q1163.73 38.7509 1163.73 49.9314 Q1163.73 61.0714 1158.18 67.4314 Q1152.63 73.7508 1142.91 73.7508 Q1133.15 73.7508 1127.6 67.4314 Q1122.09 61.0714 1122.09 49.9314 Q1122.09 38.7509 1127.6 32.4315 Q1133.15 26.1121 1142.91 26.1121 Z" fill="#000000" fill-rule="nonzero" fill-opacity="1" /><path clip-path="url(#clip420)" d="M1213.8 45.1919 L1213.8 72.576 L1206.35 72.576 L1206.35 45.4349 Q1206.35 38.994 1203.84 35.7938 Q1201.33 32.5936 1196.3 32.5936 Q1190.27 32.5936 1186.78 36.4419 Q1183.3 40.2903 1183.3 46.9338 L1183.3 72.576 L1175.81 72.576 L1175.81 27.2059 L1183.3 27.2059 L1183.3 34.2544 Q1185.97 30.163 1189.58 28.1376 Q1193.22 26.1121 1197.96 26.1121 Q1205.78 26.1121 1209.79 30.9732 Q1213.8 35.7938 1213.8 45.1919 Z" fill="#000000" fill-rule="nonzero" fill-opacity="1" /><path clip-path="url(#clip420)" d="M1287.69 28.9478 L1287.69 35.9153 Q1284.53 34.1734 1281.33 33.3227 Q1278.17 32.4315 1274.93 32.4315 Q1267.68 32.4315 1263.67 37.0496 Q1259.66 41.6271 1259.66 49.9314 Q1259.66 58.2358 1263.67 62.8538 Q1267.68 67.4314 1274.93 67.4314 Q1278.17 67.4314 1281.33 66.5807 Q1284.53 65.6895 1287.69 63.9476 L1287.69 70.8341 Q1284.57 72.2924 1281.21 73.0216 Q1277.89 73.7508 1274.12 73.7508 Q1263.87 73.7508 1257.84 67.3098 Q1251.8 60.8689 1251.8 49.9314 Q1251.8 38.832 1257.88 32.472 Q1263.99 26.1121 1274.61 26.1121 Q1278.05 26.1121 1281.33 26.8413 Q1284.61 27.5299 1287.69 28.9478 Z" fill="#000000" fill-rule="nonzero" fill-opacity="1" /><path clip-path="url(#clip420)" d="M1318.24 32.4315 Q1312.24 32.4315 1308.76 37.1306 Q1305.27 41.7891 1305.27 49.9314 Q1305.27 58.0738 1308.72 62.7728 Q1312.2 67.4314 1318.24 67.4314 Q1324.19 67.4314 1327.67 62.7323 Q1331.16 58.0333 1331.16 49.9314 Q1331.16 41.8701 1327.67 37.1711 Q1324.19 32.4315 1318.24 32.4315 M1318.24 26.1121 Q1327.96 26.1121 1333.51 32.4315 Q1339.06 38.7509 1339.06 49.9314 Q1339.06 61.0714 1333.51 67.4314 Q1327.96 73.7508 1318.24 73.7508 Q1308.47 73.7508 1302.92 67.4314 Q1297.41 61.0714 1297.41 49.9314 Q1297.41 38.7509 1302.92 32.4315 Q1308.47 26.1121 1318.24 26.1121 Z" fill="#000000" fill-rule="nonzero" fill-opacity="1" /><path clip-path="url(#clip420)" d="M1389.13 45.1919 L1389.13 72.576 L1381.67 72.576 L1381.67 45.4349 Q1381.67 38.994 1379.16 35.7938 Q1376.65 32.5936 1371.63 32.5936 Q1365.59 32.5936 1362.11 36.4419 Q1358.62 40.2903 1358.62 46.9338 L1358.62 72.576 L1351.13 72.576 L1351.13 27.2059 L1358.62 27.2059 L1358.62 34.2544 Q1361.3 30.163 1364.9 28.1376 Q1368.55 26.1121 1373.29 26.1121 Q1381.11 26.1121 1385.12 30.9732 Q1389.13 35.7938 1389.13 45.1919 Z" fill="#000000" fill-rule="nonzero" fill-opacity="1" /><path clip-path="url(#clip420)" d="M1411.37 14.324 L1411.37 27.2059 L1426.72 27.2059 L1426.72 32.9987 L1411.37 32.9987 L1411.37 57.6282 Q1411.37 63.1779 1412.86 64.7578 Q1414.4 66.3376 1419.06 66.3376 L1426.72 66.3376 L1426.72 72.576 L1419.06 72.576 Q1410.43 72.576 1407.15 69.3758 Q1403.87 66.1351 1403.87 57.6282 L1403.87 32.9987 L1398.4 32.9987 L1398.4 27.2059 L1403.87 27.2059 L1403.87 14.324 L1411.37 14.324 Z" fill="#000000" fill-rule="nonzero" fill-opacity="1" /><path clip-path="url(#clip420)" d="M1462.81 34.1734 Q1461.56 33.4443 1460.06 33.1202 Q1458.6 32.7556 1456.82 32.7556 Q1450.5 32.7556 1447.09 36.8875 Q1443.73 40.9789 1443.73 48.6757 L1443.73 72.576 L1436.24 72.576 L1436.24 27.2059 L1443.73 27.2059 L1443.73 34.2544 Q1446.08 30.1225 1449.85 28.1376 Q1453.62 26.1121 1459 26.1121 Q1459.77 26.1121 1460.71 26.2337 Q1461.64 26.3147 1462.77 26.5172 L1462.81 34.1734 Z" fill="#000000" fill-rule="nonzero" fill-opacity="1" /><path clip-path="url(#clip420)" d="M1486.39 32.4315 Q1480.39 32.4315 1476.91 37.1306 Q1473.43 41.7891 1473.43 49.9314 Q1473.43 58.0738 1476.87 62.7728 Q1480.35 67.4314 1486.39 67.4314 Q1492.34 67.4314 1495.83 62.7323 Q1499.31 58.0333 1499.31 49.9314 Q1499.31 41.8701 1495.83 37.1711 Q1492.34 32.4315 1486.39 32.4315 M1486.39 26.1121 Q1496.11 26.1121 1501.66 32.4315 Q1507.21 38.7509 1507.21 49.9314 Q1507.21 61.0714 1501.66 67.4314 Q1496.11 73.7508 1486.39 73.7508 Q1476.63 73.7508 1471.08 67.4314 Q1465.57 61.0714 1465.57 49.9314 Q1465.57 38.7509 1471.08 32.4315 Q1476.63 26.1121 1486.39 26.1121 Z" fill="#000000" fill-rule="nonzero" fill-opacity="1" /><path clip-path="url(#clip420)" d="M1519.57 9.54393 L1527.02 9.54393 L1527.02 72.576 L1519.57 72.576 L1519.57 9.54393 Z" fill="#000000" fill-rule="nonzero" fill-opacity="1" /><path clip-path="url(#clip420)" d="M1595.28 34.1734 Q1594.02 33.4443 1592.52 33.1202 Q1591.06 32.7556 1589.28 32.7556 Q1582.96 32.7556 1579.56 36.8875 Q1576.2 40.9789 1576.2 48.6757 L1576.2 72.576 L1568.7 72.576 L1568.7 27.2059 L1576.2 27.2059 L1576.2 34.2544 Q1578.55 30.1225 1582.31 28.1376 Q1586.08 26.1121 1591.47 26.1121 Q1592.24 26.1121 1593.17 26.2337 Q1594.1 26.3147 1595.24 26.5172 L1595.28 34.1734 Z" fill="#000000" fill-rule="nonzero" fill-opacity="1" /><path clip-path="url(#clip420)" d="M1623.71 49.7694 Q1614.68 49.7694 1611.2 51.8354 Q1607.71 53.9013 1607.71 58.8839 Q1607.71 62.8538 1610.31 65.2034 Q1612.94 67.5124 1617.43 67.5124 Q1623.63 67.5124 1627.36 63.1374 Q1631.13 58.7219 1631.13 51.4303 L1631.13 49.7694 L1623.71 49.7694 M1638.58 46.6907 L1638.58 72.576 L1631.13 72.576 L1631.13 65.6895 Q1628.57 69.8214 1624.77 71.8063 Q1620.96 73.7508 1615.45 73.7508 Q1608.48 73.7508 1604.35 69.8619 Q1600.26 65.9325 1600.26 59.3701 Q1600.26 51.7138 1605.36 47.825 Q1610.51 43.9361 1620.68 43.9361 L1631.13 43.9361 L1631.13 43.2069 Q1631.13 38.0623 1627.72 35.2672 Q1624.36 32.4315 1618.25 32.4315 Q1614.36 32.4315 1610.67 33.3632 Q1606.98 34.295 1603.58 36.1584 L1603.58 29.2718 Q1607.67 27.692 1611.52 26.9223 Q1615.37 26.1121 1619.01 26.1121 Q1628.86 26.1121 1633.72 31.2163 Q1638.58 36.3204 1638.58 46.6907 Z" fill="#000000" fill-rule="nonzero" fill-opacity="1" /><path clip-path="url(#clip420)" d="M1661.31 14.324 L1661.31 27.2059 L1676.66 27.2059 L1676.66 32.9987 L1661.31 32.9987 L1661.31 57.6282 Q1661.31 63.1779 1662.81 64.7578 Q1664.34 66.3376 1669 66.3376 L1676.66 66.3376 L1676.66 72.576 L1669 72.576 Q1660.37 72.576 1657.09 69.3758 Q1653.81 66.1351 1653.81 57.6282 L1653.81 32.9987 L1648.34 32.9987 L1648.34 27.2059 L1653.81 27.2059 L1653.81 14.324 L1661.31 14.324 Z" fill="#000000" fill-rule="nonzero" fill-opacity="1" /><path clip-path="url(#clip420)" d="M1725.27 48.0275 L1725.27 51.6733 L1691 51.6733 Q1691.49 59.3701 1695.62 63.421 Q1699.79 67.4314 1707.2 67.4314 Q1711.5 67.4314 1715.51 66.3781 Q1719.56 65.3249 1723.53 63.2184 L1723.53 70.267 Q1719.52 71.9684 1715.3 72.8596 Q1711.09 73.7508 1706.76 73.7508 Q1695.9 73.7508 1689.54 67.4314 Q1683.22 61.1119 1683.22 50.3365 Q1683.22 39.1965 1689.22 32.6746 Q1695.25 26.1121 1705.46 26.1121 Q1714.62 26.1121 1719.92 32.0264 Q1725.27 37.9003 1725.27 48.0275 M1717.82 45.84 Q1717.74 39.7232 1714.37 36.0774 Q1711.05 32.4315 1705.54 32.4315 Q1699.3 32.4315 1695.54 35.9558 Q1691.81 39.4801 1691.24 45.8805 L1717.82 45.84 Z" fill="#000000" fill-rule="nonzero" fill-opacity="1" /><polyline clip-path="url(#clip422)" style="stroke:#cd0000; stroke-linecap:round; stroke-linejoin:round; stroke-width:8; stroke-opacity:1; fill:none" points="292.4,1418.3 417.421,1350.15 542.443,1159.33 667.465,1112.05 792.486,1064.03 917.508,1010.9 1042.53,952.237 1167.55,904.257 1292.57,853.346 1417.59,799.485 1542.62,742.67 1667.64,682.915 1792.66,620.247 1917.68,554.711 2042.7,486.366 2167.72,415.277 2292.75,341.498 "/>
<polyline clip-path="url(#clip422)" style="stroke:#000080; stroke-linecap:round; stroke-linejoin:round; stroke-width:12; stroke-opacity:1; fill:none" points="292.4,1418.3 417.421,1350.15 542.443,1159.33 667.465,1055.03 792.486,998.144 917.508,936.23 1042.53,868.618 1167.55,814 1292.57,756.569 1417.59,696.297 1542.62,633.2 1667.64,567.322 1792.66,498.731 1917.68,427.505 2042.7,353.722 2167.72,277.423 2292.75,198.555 "/>
<polyline clip-path="url(#clip422)" style="stroke:#191970; stroke-linecap:round; stroke-linejoin:round; stroke-width:12; stroke-opacity:1; fill:none" stroke-dasharray="48, 30" points="292.4,1418.3 417.421,1350.15 542.443,1159.33 667.465,995.777 792.486,919.212 917.508,847.329 1042.53,769.681 1167.55,707.864 1292.57,643.435 1417.59,576.342 1542.62,506.598 1667.64,434.254 1792.66,359.363 1917.68,281.936 2042.7,201.863 2167.72,123.474 2292.75,123.472 "/>
<polyline clip-path="url(#clip422)" style="stroke:#4b0082; stroke-linecap:round; stroke-linejoin:round; stroke-width:12; stroke-opacity:1; fill:none" stroke-dasharray="6, 12" points="292.4,1418.3 417.421,1350.15 542.443,1159.33 667.465,995.777 792.486,866.422 917.508,788.314 1042.53,704.466 1167.55,638.372 1292.57,569.829 1417.59,498.757 1542.62,425.153 1667.64,349.034 1792.66,270.37 1917.68,188.981 2042.7,123.473 2167.72,123.472 2292.75,123.472 "/>
<polyline clip-path="url(#clip422)" style="stroke:#0000cd; stroke-linecap:round; stroke-linejoin:round; stroke-width:4; stroke-opacity:1; fill:none" points="292.4,1451.56 417.421,1378.87 542.443,1219.82 667.465,1085.04 792.486,946.567 917.508,805.198 1042.53,664.938 1167.55,536.921 1292.57,501.571 1417.59,493.765 1542.62,498.57 1667.64,523.334 1792.66,549.555 1917.68,574.507 2042.7,597.13 2167.72,617.468 2292.75,634.59 "/>
<polyline clip-path="url(#clip422)" style="stroke:#436eee; stroke-linecap:round; stroke-linejoin:round; stroke-width:4; stroke-opacity:1; fill:none" stroke-dasharray="2, 4" points="292.4,1418.3 417.421,1350.15 542.443,1159.33 667.465,995.777 792.486,832.22 917.508,671.285 1042.53,575.873 1167.55,501.947 1292.57,425.736 1417.59,347.035 1542.62,265.663 1667.64,181.286 1792.66,123.474 1917.68,123.473 2042.7,123.472 2167.72,123.472 2292.75,123.472 "/>
<path clip-path="url(#clip420)" d="M303.068 531.785 L866.584 531.785 L866.584 168.905 L303.068 168.905  Z" fill="#ffffff" fill-rule="evenodd" fill-opacity="1"/>
<polyline clip-path="url(#clip420)" style="stroke:#000000; stroke-linecap:round; stroke-linejoin:round; stroke-width:4; stroke-opacity:1; fill:none" points="303.068,531.785 866.584,531.785 866.584,168.905 303.068,168.905 303.068,531.785 "/>
<polyline clip-path="url(#clip420)" style="stroke:#cd0000; stroke-linecap:round; stroke-linejoin:round; stroke-width:8; stroke-opacity:1; fill:none" points="326.628,220.745 467.986,220.745 "/>
<path clip-path="url(#clip420)" d="M492.217 234.089 L499.855 234.089 L499.855 207.724 L491.545 209.391 L491.545 205.131 L499.809 203.465 L504.485 203.465 L504.485 234.089 L512.124 234.089 L512.124 238.025 L492.217 238.025 L492.217 234.089 Z" fill="#000000" fill-rule="nonzero" fill-opacity="1" /><path clip-path="url(#clip420)" d="M551.059 216.08 Q550.341 215.664 549.485 215.478 Q548.651 215.27 547.633 215.27 Q544.022 215.27 542.077 217.631 Q540.156 219.969 540.156 224.367 L540.156 238.025 L535.874 238.025 L535.874 212.099 L540.156 212.099 L540.156 216.127 Q541.499 213.766 543.651 212.631 Q545.804 211.474 548.883 211.474 Q549.323 211.474 549.855 211.543 Q550.388 211.59 551.036 211.705 L551.059 216.08 Z" fill="#000000" fill-rule="nonzero" fill-opacity="1" /><path clip-path="url(#clip420)" d="M576.661 223.997 L576.661 226.08 L557.077 226.08 Q557.355 230.478 559.716 232.793 Q562.1 235.085 566.337 235.085 Q568.79 235.085 571.082 234.483 Q573.397 233.881 575.665 232.677 L575.665 236.705 Q573.374 237.677 570.966 238.187 Q568.559 238.696 566.082 238.696 Q559.878 238.696 556.244 235.085 Q552.633 231.474 552.633 225.316 Q552.633 218.951 556.059 215.224 Q559.508 211.474 565.341 211.474 Q570.573 211.474 573.605 214.853 Q576.661 218.21 576.661 223.997 M572.401 222.747 Q572.355 219.252 570.434 217.168 Q568.536 215.085 565.387 215.085 Q561.823 215.085 559.67 217.099 Q557.54 219.113 557.216 222.77 L572.401 222.747 Z" fill="#000000" fill-rule="nonzero" fill-opacity="1" /><path clip-path="url(#clip420)" d="M600.711 224.761 Q600.711 220.131 598.79 217.585 Q596.892 215.039 593.443 215.039 Q590.017 215.039 588.096 217.585 Q586.198 220.131 586.198 224.761 Q586.198 229.367 588.096 231.914 Q590.017 234.46 593.443 234.46 Q596.892 234.46 598.79 231.914 Q600.711 229.367 600.711 224.761 M604.971 234.807 Q604.971 241.427 602.031 244.645 Q599.091 247.886 593.026 247.886 Q590.781 247.886 588.79 247.538 Q586.799 247.214 584.924 246.52 L584.924 242.376 Q586.799 243.395 588.628 243.881 Q590.457 244.367 592.355 244.367 Q596.545 244.367 598.628 242.168 Q600.711 239.992 600.711 235.571 L600.711 233.464 Q599.392 235.756 597.332 236.89 Q595.272 238.025 592.401 238.025 Q587.633 238.025 584.716 234.39 Q581.799 230.756 581.799 224.761 Q581.799 218.742 584.716 215.108 Q587.633 211.474 592.401 211.474 Q595.272 211.474 597.332 212.608 Q599.392 213.742 600.711 216.034 L600.711 212.099 L604.971 212.099 L604.971 234.807 Z" fill="#000000" fill-rule="nonzero" fill-opacity="1" /><path clip-path="url(#clip420)" d="M613.744 212.099 L618.003 212.099 L618.003 238.025 L613.744 238.025 L613.744 212.099 M613.744 202.006 L618.003 202.006 L618.003 207.4 L613.744 207.4 L613.744 202.006 Z" fill="#000000" fill-rule="nonzero" fill-opacity="1" /><path clip-path="url(#clip420)" d="M636.961 215.085 Q633.535 215.085 631.545 217.77 Q629.554 220.432 629.554 225.085 Q629.554 229.738 631.521 232.423 Q633.512 235.085 636.961 235.085 Q640.364 235.085 642.355 232.4 Q644.345 229.715 644.345 225.085 Q644.345 220.478 642.355 217.793 Q640.364 215.085 636.961 215.085 M636.961 211.474 Q642.517 211.474 645.688 215.085 Q648.859 218.696 648.859 225.085 Q648.859 231.451 645.688 235.085 Q642.517 238.696 636.961 238.696 Q631.382 238.696 628.211 235.085 Q625.063 231.451 625.063 225.085 Q625.063 218.696 628.211 215.085 Q631.382 211.474 636.961 211.474 Z" fill="#000000" fill-rule="nonzero" fill-opacity="1" /><path clip-path="url(#clip420)" d="M677.47 222.377 L677.47 238.025 L673.211 238.025 L673.211 222.515 Q673.211 218.835 671.776 217.006 Q670.341 215.178 667.47 215.178 Q664.021 215.178 662.03 217.377 Q660.04 219.576 660.04 223.372 L660.04 238.025 L655.757 238.025 L655.757 212.099 L660.04 212.099 L660.04 216.127 Q661.567 213.789 663.628 212.631 Q665.711 211.474 668.419 211.474 Q672.887 211.474 675.179 214.252 Q677.47 217.006 677.47 222.377 Z" fill="#000000" fill-rule="nonzero" fill-opacity="1" /><path clip-path="url(#clip420)" d="M711.266 202.053 Q708.164 207.377 706.66 212.585 Q705.155 217.793 705.155 223.14 Q705.155 228.488 706.66 233.742 Q708.188 238.974 711.266 244.275 L707.563 244.275 Q704.09 238.835 702.354 233.58 Q700.641 228.326 700.641 223.14 Q700.641 217.978 702.354 212.747 Q704.067 207.516 707.563 202.053 L711.266 202.053 Z" fill="#000000" fill-rule="nonzero" fill-opacity="1" /><path clip-path="url(#clip420)" d="M724.391 207.307 L724.391 234.182 L730.039 234.182 Q737.192 234.182 740.502 230.941 Q743.836 227.701 743.836 220.71 Q743.836 213.766 740.502 210.548 Q737.192 207.307 730.039 207.307 L724.391 207.307 M719.715 203.465 L729.322 203.465 Q739.368 203.465 744.067 207.654 Q748.766 211.821 748.766 220.71 Q748.766 229.645 744.044 233.835 Q739.322 238.025 729.322 238.025 L719.715 238.025 L719.715 203.465 Z" fill="#000000" fill-rule="nonzero" fill-opacity="1" /><path clip-path="url(#clip420)" d="M756.22 203.465 L760.896 203.465 L760.896 238.025 L756.22 238.025 L756.22 203.465 Z" fill="#000000" fill-rule="nonzero" fill-opacity="1" /><path clip-path="url(#clip420)" d="M796.081 206.127 L796.081 211.057 Q793.72 208.858 791.034 207.77 Q788.372 206.682 785.363 206.682 Q779.437 206.682 776.289 210.316 Q773.141 213.928 773.141 220.779 Q773.141 227.608 776.289 231.242 Q779.437 234.853 785.363 234.853 Q788.372 234.853 791.034 233.765 Q793.72 232.677 796.081 230.478 L796.081 235.363 Q793.627 237.029 790.872 237.863 Q788.141 238.696 785.085 238.696 Q777.238 238.696 772.724 233.904 Q768.21 229.09 768.21 220.779 Q768.21 212.446 772.724 207.654 Q777.238 202.84 785.085 202.84 Q788.187 202.84 790.919 203.673 Q793.673 204.483 796.081 206.127 Z" fill="#000000" fill-rule="nonzero" fill-opacity="1" /><path clip-path="url(#clip420)" d="M803.303 203.465 L825.155 203.465 L825.155 207.4 L807.979 207.4 L807.979 217.631 L824.437 217.631 L824.437 221.566 L807.979 221.566 L807.979 234.089 L825.571 234.089 L825.571 238.025 L803.303 238.025 L803.303 203.465 Z" fill="#000000" fill-rule="nonzero" fill-opacity="1" /><path clip-path="url(#clip420)" d="M832.4 202.053 L836.104 202.053 Q839.576 207.516 841.289 212.747 Q843.025 217.978 843.025 223.14 Q843.025 228.326 841.289 233.58 Q839.576 238.835 836.104 244.275 L832.4 244.275 Q835.479 238.974 836.983 233.742 Q838.511 228.488 838.511 223.14 Q838.511 217.793 836.983 212.585 Q835.479 207.377 832.4 202.053 Z" fill="#000000" fill-rule="nonzero" fill-opacity="1" /><polyline clip-path="url(#clip420)" style="stroke:#000080; stroke-linecap:round; stroke-linejoin:round; stroke-width:12; stroke-opacity:1; fill:none" points="326.628,272.585 467.986,272.585 "/>
<path clip-path="url(#clip420)" d="M497.17 285.929 L513.49 285.929 L513.49 289.865 L491.545 289.865 L491.545 285.929 Q494.207 283.175 498.791 278.545 Q503.397 273.893 504.578 272.55 Q506.823 270.027 507.703 268.291 Q508.605 266.531 508.605 264.842 Q508.605 262.087 506.661 260.351 Q504.74 258.615 501.638 258.615 Q499.439 258.615 496.985 259.379 Q494.555 260.143 491.777 261.694 L491.777 256.971 Q494.601 255.837 497.054 255.258 Q499.508 254.68 501.545 254.68 Q506.916 254.68 510.11 257.365 Q513.304 260.05 513.304 264.541 Q513.304 266.67 512.494 268.592 Q511.707 270.49 509.601 273.082 Q509.022 273.754 505.92 276.971 Q502.818 280.166 497.17 285.929 Z" fill="#000000" fill-rule="nonzero" fill-opacity="1" /><path clip-path="url(#clip420)" d="M552.795 267.92 Q552.077 267.504 551.221 267.318 Q550.388 267.11 549.369 267.11 Q545.758 267.11 543.813 269.471 Q541.892 271.809 541.892 276.207 L541.892 289.865 L537.61 289.865 L537.61 263.939 L541.892 263.939 L541.892 267.967 Q543.235 265.606 545.388 264.471 Q547.54 263.314 550.619 263.314 Q551.059 263.314 551.591 263.383 Q552.124 263.43 552.772 263.545 L552.795 267.92 Z" fill="#000000" fill-rule="nonzero" fill-opacity="1" /><path clip-path="url(#clip420)" d="M578.397 275.837 L578.397 277.92 L558.813 277.92 Q559.091 282.318 561.452 284.633 Q563.837 286.925 568.073 286.925 Q570.526 286.925 572.818 286.323 Q575.133 285.721 577.401 284.517 L577.401 288.545 Q575.11 289.517 572.702 290.027 Q570.295 290.536 567.818 290.536 Q561.614 290.536 557.98 286.925 Q554.369 283.314 554.369 277.156 Q554.369 270.791 557.795 267.064 Q561.244 263.314 567.077 263.314 Q572.309 263.314 575.341 266.693 Q578.397 270.05 578.397 275.837 M574.137 274.587 Q574.091 271.092 572.17 269.008 Q570.272 266.925 567.124 266.925 Q563.559 266.925 561.406 268.939 Q559.276 270.953 558.952 274.61 L574.137 274.587 Z" fill="#000000" fill-rule="nonzero" fill-opacity="1" /><path clip-path="url(#clip420)" d="M602.447 276.601 Q602.447 271.971 600.526 269.425 Q598.628 266.879 595.179 266.879 Q591.753 266.879 589.832 269.425 Q587.934 271.971 587.934 276.601 Q587.934 281.207 589.832 283.754 Q591.753 286.3 595.179 286.3 Q598.628 286.3 600.526 283.754 Q602.447 281.207 602.447 276.601 M606.707 286.647 Q606.707 293.267 603.767 296.485 Q600.827 299.726 594.762 299.726 Q592.517 299.726 590.526 299.378 Q588.535 299.054 586.66 298.36 L586.66 294.216 Q588.535 295.235 590.364 295.721 Q592.193 296.207 594.091 296.207 Q598.281 296.207 600.364 294.008 Q602.447 291.832 602.447 287.411 L602.447 285.304 Q601.128 287.596 599.068 288.73 Q597.008 289.865 594.137 289.865 Q589.369 289.865 586.452 286.23 Q583.536 282.596 583.536 276.601 Q583.536 270.582 586.452 266.948 Q589.369 263.314 594.137 263.314 Q597.008 263.314 599.068 264.448 Q601.128 265.582 602.447 267.874 L602.447 263.939 L606.707 263.939 L606.707 286.647 Z" fill="#000000" fill-rule="nonzero" fill-opacity="1" /><path clip-path="url(#clip420)" d="M615.48 263.939 L619.739 263.939 L619.739 289.865 L615.48 289.865 L615.48 263.939 M615.48 253.846 L619.739 253.846 L619.739 259.24 L615.48 259.24 L615.48 253.846 Z" fill="#000000" fill-rule="nonzero" fill-opacity="1" /><path clip-path="url(#clip420)" d="M638.697 266.925 Q635.271 266.925 633.281 269.61 Q631.29 272.272 631.29 276.925 Q631.29 281.578 633.257 284.263 Q635.248 286.925 638.697 286.925 Q642.1 286.925 644.091 284.24 Q646.081 281.555 646.081 276.925 Q646.081 272.318 644.091 269.633 Q642.1 266.925 638.697 266.925 M638.697 263.314 Q644.253 263.314 647.424 266.925 Q650.595 270.536 650.595 276.925 Q650.595 283.291 647.424 286.925 Q644.253 290.536 638.697 290.536 Q633.119 290.536 629.947 286.925 Q626.799 283.291 626.799 276.925 Q626.799 270.536 629.947 266.925 Q633.119 263.314 638.697 263.314 Z" fill="#000000" fill-rule="nonzero" fill-opacity="1" /><path clip-path="url(#clip420)" d="M679.206 274.217 L679.206 289.865 L674.947 289.865 L674.947 274.355 Q674.947 270.675 673.512 268.846 Q672.077 267.018 669.206 267.018 Q665.757 267.018 663.767 269.217 Q661.776 271.416 661.776 275.212 L661.776 289.865 L657.493 289.865 L657.493 263.939 L661.776 263.939 L661.776 267.967 Q663.304 265.629 665.364 264.471 Q667.447 263.314 670.155 263.314 Q674.623 263.314 676.915 266.092 Q679.206 268.846 679.206 274.217 Z" fill="#000000" fill-rule="nonzero" fill-opacity="1" /><path clip-path="url(#clip420)" d="M704.229 264.703 L704.229 268.731 Q702.424 267.805 700.479 267.342 Q698.535 266.879 696.452 266.879 Q693.28 266.879 691.683 267.851 Q690.109 268.823 690.109 270.768 Q690.109 272.249 691.243 273.105 Q692.378 273.939 695.803 274.703 L697.262 275.027 Q701.799 275.999 703.697 277.781 Q705.618 279.541 705.618 282.712 Q705.618 286.323 702.748 288.429 Q699.901 290.536 694.901 290.536 Q692.817 290.536 690.549 290.119 Q688.303 289.726 685.803 288.916 L685.803 284.517 Q688.165 285.744 690.456 286.369 Q692.748 286.971 694.993 286.971 Q698.002 286.971 699.623 285.953 Q701.243 284.911 701.243 283.036 Q701.243 281.3 700.063 280.374 Q698.905 279.448 694.947 278.592 L693.465 278.244 Q689.507 277.411 687.748 275.698 Q685.989 273.962 685.989 270.953 Q685.989 267.295 688.581 265.305 Q691.174 263.314 695.942 263.314 Q698.303 263.314 700.387 263.661 Q702.47 264.008 704.229 264.703 Z" fill="#000000" fill-rule="nonzero" fill-opacity="1" /><polyline clip-path="url(#clip420)" style="stroke:#191970; stroke-linecap:round; stroke-linejoin:round; stroke-width:12; stroke-opacity:1; fill:none" stroke-dasharray="48, 30" points="326.628,324.425 467.986,324.425 "/>
<path clip-path="url(#clip420)" d="M507.147 311.219 L495.342 329.668 L507.147 329.668 L507.147 311.219 M505.92 307.145 L511.8 307.145 L511.8 329.668 L516.73 329.668 L516.73 333.557 L511.8 333.557 L511.8 341.705 L507.147 341.705 L507.147 333.557 L491.545 333.557 L491.545 329.043 L505.92 307.145 Z" fill="#000000" fill-rule="nonzero" fill-opacity="1" /><path clip-path="url(#clip420)" d="M553.952 319.76 Q553.235 319.344 552.378 319.158 Q551.545 318.95 550.526 318.95 Q546.915 318.95 544.971 321.311 Q543.05 323.649 543.05 328.047 L543.05 341.705 L538.767 341.705 L538.767 315.779 L543.05 315.779 L543.05 319.807 Q544.392 317.446 546.545 316.311 Q548.698 315.154 551.776 315.154 Q552.216 315.154 552.749 315.223 Q553.281 315.27 553.929 315.385 L553.952 319.76 Z" fill="#000000" fill-rule="nonzero" fill-opacity="1" /><path clip-path="url(#clip420)" d="M579.554 327.677 L579.554 329.76 L559.971 329.76 Q560.249 334.158 562.61 336.473 Q564.994 338.765 569.23 338.765 Q571.684 338.765 573.975 338.163 Q576.29 337.561 578.559 336.357 L578.559 340.385 Q576.267 341.357 573.86 341.867 Q571.452 342.376 568.975 342.376 Q562.772 342.376 559.137 338.765 Q555.526 335.154 555.526 328.996 Q555.526 322.631 558.952 318.904 Q562.401 315.154 568.235 315.154 Q573.466 315.154 576.499 318.533 Q579.554 321.89 579.554 327.677 M575.295 326.427 Q575.249 322.932 573.327 320.848 Q571.429 318.765 568.281 318.765 Q564.716 318.765 562.563 320.779 Q560.434 322.793 560.11 326.45 L575.295 326.427 Z" fill="#000000" fill-rule="nonzero" fill-opacity="1" /><path clip-path="url(#clip420)" d="M603.605 328.441 Q603.605 323.811 601.684 321.265 Q599.785 318.719 596.336 318.719 Q592.91 318.719 590.989 321.265 Q589.091 323.811 589.091 328.441 Q589.091 333.047 590.989 335.594 Q592.91 338.14 596.336 338.14 Q599.785 338.14 601.684 335.594 Q603.605 333.047 603.605 328.441 M607.864 338.487 Q607.864 345.107 604.924 348.325 Q601.984 351.566 595.92 351.566 Q593.674 351.566 591.684 351.218 Q589.693 350.894 587.818 350.2 L587.818 346.056 Q589.693 347.075 591.522 347.561 Q593.35 348.047 595.248 348.047 Q599.438 348.047 601.522 345.848 Q603.605 343.672 603.605 339.251 L603.605 337.144 Q602.285 339.436 600.225 340.57 Q598.165 341.705 595.295 341.705 Q590.526 341.705 587.61 338.07 Q584.693 334.436 584.693 328.441 Q584.693 322.422 587.61 318.788 Q590.526 315.154 595.295 315.154 Q598.165 315.154 600.225 316.288 Q602.285 317.422 603.605 319.714 L603.605 315.779 L607.864 315.779 L607.864 338.487 Z" fill="#000000" fill-rule="nonzero" fill-opacity="1" /><path clip-path="url(#clip420)" d="M616.637 315.779 L620.896 315.779 L620.896 341.705 L616.637 341.705 L616.637 315.779 M616.637 305.686 L620.896 305.686 L620.896 311.08 L616.637 311.08 L616.637 305.686 Z" fill="#000000" fill-rule="nonzero" fill-opacity="1" /><path clip-path="url(#clip420)" d="M639.855 318.765 Q636.429 318.765 634.438 321.45 Q632.447 324.112 632.447 328.765 Q632.447 333.418 634.415 336.103 Q636.406 338.765 639.855 338.765 Q643.257 338.765 645.248 336.08 Q647.239 333.395 647.239 328.765 Q647.239 324.158 645.248 321.473 Q643.257 318.765 639.855 318.765 M639.855 315.154 Q645.41 315.154 648.581 318.765 Q651.753 322.376 651.753 328.765 Q651.753 335.131 648.581 338.765 Q645.41 342.376 639.855 342.376 Q634.276 342.376 631.105 338.765 Q627.957 335.131 627.957 328.765 Q627.957 322.376 631.105 318.765 Q634.276 315.154 639.855 315.154 Z" fill="#000000" fill-rule="nonzero" fill-opacity="1" /><path clip-path="url(#clip420)" d="M680.364 326.057 L680.364 341.705 L676.104 341.705 L676.104 326.195 Q676.104 322.515 674.669 320.686 Q673.234 318.858 670.364 318.858 Q666.915 318.858 664.924 321.057 Q662.933 323.256 662.933 327.052 L662.933 341.705 L658.651 341.705 L658.651 315.779 L662.933 315.779 L662.933 319.807 Q664.461 317.469 666.521 316.311 Q668.604 315.154 671.313 315.154 Q675.78 315.154 678.072 317.932 Q680.364 320.686 680.364 326.057 Z" fill="#000000" fill-rule="nonzero" fill-opacity="1" /><path clip-path="url(#clip420)" d="M705.387 316.543 L705.387 320.571 Q703.581 319.645 701.637 319.182 Q699.692 318.719 697.609 318.719 Q694.438 318.719 692.84 319.691 Q691.266 320.663 691.266 322.608 Q691.266 324.089 692.401 324.945 Q693.535 325.779 696.961 326.543 L698.419 326.867 Q702.956 327.839 704.854 329.621 Q706.776 331.381 706.776 334.552 Q706.776 338.163 703.905 340.269 Q701.058 342.376 696.058 342.376 Q693.975 342.376 691.706 341.959 Q689.461 341.566 686.961 340.756 L686.961 336.357 Q689.322 337.584 691.614 338.209 Q693.905 338.811 696.151 338.811 Q699.16 338.811 700.78 337.793 Q702.401 336.751 702.401 334.876 Q702.401 333.14 701.22 332.214 Q700.063 331.288 696.104 330.432 L694.623 330.084 Q690.665 329.251 688.905 327.538 Q687.146 325.802 687.146 322.793 Q687.146 319.135 689.739 317.145 Q692.331 315.154 697.1 315.154 Q699.461 315.154 701.544 315.501 Q703.627 315.848 705.387 316.543 Z" fill="#000000" fill-rule="nonzero" fill-opacity="1" /><polyline clip-path="url(#clip420)" style="stroke:#4b0082; stroke-linecap:round; stroke-linejoin:round; stroke-width:12; stroke-opacity:1; fill:none" stroke-dasharray="6, 12" points="326.628,376.265 467.986,376.265 "/>
<path clip-path="url(#clip420)" d="M503.883 374.401 Q500.735 374.401 498.883 376.554 Q497.054 378.707 497.054 382.457 Q497.054 386.184 498.883 388.359 Q500.735 390.512 503.883 390.512 Q507.031 390.512 508.86 388.359 Q510.712 386.184 510.712 382.457 Q510.712 378.707 508.86 376.554 Q507.031 374.401 503.883 374.401 M513.166 359.749 L513.166 364.008 Q511.406 363.174 509.601 362.735 Q507.818 362.295 506.059 362.295 Q501.429 362.295 498.976 365.42 Q496.545 368.545 496.198 374.864 Q497.564 372.85 499.624 371.786 Q501.684 370.698 504.161 370.698 Q509.369 370.698 512.378 373.869 Q515.411 377.017 515.411 382.457 Q515.411 387.781 512.263 390.998 Q509.115 394.216 503.883 394.216 Q497.888 394.216 494.717 389.633 Q491.545 385.026 491.545 376.299 Q491.545 368.105 495.434 363.244 Q499.323 358.36 505.874 358.36 Q507.633 358.36 509.416 358.707 Q511.221 359.054 513.166 359.749 Z" fill="#000000" fill-rule="nonzero" fill-opacity="1" /><path clip-path="url(#clip420)" d="M552.957 371.6 Q552.239 371.184 551.383 370.998 Q550.55 370.79 549.531 370.79 Q545.92 370.79 543.976 373.151 Q542.054 375.489 542.054 379.887 L542.054 393.545 L537.772 393.545 L537.772 367.619 L542.054 367.619 L542.054 371.647 Q543.397 369.286 545.55 368.151 Q547.702 366.994 550.781 366.994 Q551.221 366.994 551.753 367.063 Q552.286 367.11 552.934 367.225 L552.957 371.6 Z" fill="#000000" fill-rule="nonzero" fill-opacity="1" /><path clip-path="url(#clip420)" d="M578.559 379.517 L578.559 381.6 L558.975 381.6 Q559.253 385.998 561.614 388.313 Q563.999 390.605 568.235 390.605 Q570.688 390.605 572.98 390.003 Q575.295 389.401 577.563 388.197 L577.563 392.225 Q575.272 393.197 572.864 393.707 Q570.457 394.216 567.98 394.216 Q561.776 394.216 558.142 390.605 Q554.531 386.994 554.531 380.836 Q554.531 374.471 557.957 370.744 Q561.406 366.994 567.239 366.994 Q572.471 366.994 575.503 370.373 Q578.559 373.73 578.559 379.517 M574.299 378.267 Q574.253 374.772 572.332 372.688 Q570.434 370.605 567.286 370.605 Q563.721 370.605 561.568 372.619 Q559.438 374.633 559.114 378.29 L574.299 378.267 Z" fill="#000000" fill-rule="nonzero" fill-opacity="1" /><path clip-path="url(#clip420)" d="M602.609 380.281 Q602.609 375.651 600.688 373.105 Q598.79 370.559 595.341 370.559 Q591.915 370.559 589.994 373.105 Q588.096 375.651 588.096 380.281 Q588.096 384.887 589.994 387.434 Q591.915 389.98 595.341 389.98 Q598.79 389.98 600.688 387.434 Q602.609 384.887 602.609 380.281 M606.869 390.327 Q606.869 396.947 603.929 400.165 Q600.989 403.406 594.924 403.406 Q592.679 403.406 590.688 403.058 Q588.698 402.734 586.823 402.04 L586.823 397.896 Q588.698 398.915 590.526 399.401 Q592.355 399.887 594.253 399.887 Q598.443 399.887 600.526 397.688 Q602.609 395.512 602.609 391.091 L602.609 388.984 Q601.29 391.276 599.23 392.41 Q597.17 393.545 594.299 393.545 Q589.531 393.545 586.614 389.91 Q583.698 386.276 583.698 380.281 Q583.698 374.262 586.614 370.628 Q589.531 366.994 594.299 366.994 Q597.17 366.994 599.23 368.128 Q601.29 369.262 602.609 371.554 L602.609 367.619 L606.869 367.619 L606.869 390.327 Z" fill="#000000" fill-rule="nonzero" fill-opacity="1" /><path clip-path="url(#clip420)" d="M615.642 367.619 L619.901 367.619 L619.901 393.545 L615.642 393.545 L615.642 367.619 M615.642 357.526 L619.901 357.526 L619.901 362.92 L615.642 362.92 L615.642 357.526 Z" fill="#000000" fill-rule="nonzero" fill-opacity="1" /><path clip-path="url(#clip420)" d="M638.859 370.605 Q635.433 370.605 633.443 373.29 Q631.452 375.952 631.452 380.605 Q631.452 385.258 633.419 387.943 Q635.41 390.605 638.859 390.605 Q642.262 390.605 644.253 387.92 Q646.244 385.235 646.244 380.605 Q646.244 375.998 644.253 373.313 Q642.262 370.605 638.859 370.605 M638.859 366.994 Q644.415 366.994 647.586 370.605 Q650.757 374.216 650.757 380.605 Q650.757 386.971 647.586 390.605 Q644.415 394.216 638.859 394.216 Q633.281 394.216 630.109 390.605 Q626.961 386.971 626.961 380.605 Q626.961 374.216 630.109 370.605 Q633.281 366.994 638.859 366.994 Z" fill="#000000" fill-rule="nonzero" fill-opacity="1" /><path clip-path="url(#clip420)" d="M679.368 377.897 L679.368 393.545 L675.109 393.545 L675.109 378.035 Q675.109 374.355 673.674 372.526 Q672.239 370.698 669.368 370.698 Q665.919 370.698 663.929 372.897 Q661.938 375.096 661.938 378.892 L661.938 393.545 L657.655 393.545 L657.655 367.619 L661.938 367.619 L661.938 371.647 Q663.466 369.309 665.526 368.151 Q667.609 366.994 670.317 366.994 Q674.785 366.994 677.077 369.772 Q679.368 372.526 679.368 377.897 Z" fill="#000000" fill-rule="nonzero" fill-opacity="1" /><path clip-path="url(#clip420)" d="M704.391 368.383 L704.391 372.411 Q702.586 371.485 700.641 371.022 Q698.697 370.559 696.614 370.559 Q693.442 370.559 691.845 371.531 Q690.271 372.503 690.271 374.448 Q690.271 375.929 691.405 376.785 Q692.54 377.619 695.965 378.383 L697.424 378.707 Q701.961 379.679 703.859 381.461 Q705.78 383.221 705.78 386.392 Q705.78 390.003 702.91 392.109 Q700.063 394.216 695.063 394.216 Q692.979 394.216 690.711 393.799 Q688.466 393.406 685.966 392.596 L685.966 388.197 Q688.327 389.424 690.618 390.049 Q692.91 390.651 695.155 390.651 Q698.165 390.651 699.785 389.633 Q701.405 388.591 701.405 386.716 Q701.405 384.98 700.225 384.054 Q699.067 383.128 695.109 382.272 L693.628 381.924 Q689.669 381.091 687.91 379.378 Q686.151 377.642 686.151 374.633 Q686.151 370.975 688.743 368.985 Q691.336 366.994 696.104 366.994 Q698.465 366.994 700.549 367.341 Q702.632 367.688 704.391 368.383 Z" fill="#000000" fill-rule="nonzero" fill-opacity="1" /><polyline clip-path="url(#clip420)" style="stroke:#0000cd; stroke-linecap:round; stroke-linejoin:round; stroke-width:4; stroke-opacity:1; fill:none" points="326.628,428.105 467.986,428.105 "/>
<path clip-path="url(#clip420)" d="M503.397 428.973 Q500.064 428.973 498.142 430.755 Q496.244 432.537 496.244 435.662 Q496.244 438.787 498.142 440.57 Q500.064 442.352 503.397 442.352 Q506.73 442.352 508.652 440.57 Q510.573 438.764 510.573 435.662 Q510.573 432.537 508.652 430.755 Q506.754 428.973 503.397 428.973 M498.721 426.982 Q495.712 426.241 494.022 424.181 Q492.355 422.121 492.355 419.158 Q492.355 415.014 495.295 412.607 Q498.258 410.2 503.397 410.2 Q508.559 410.2 511.499 412.607 Q514.439 415.014 514.439 419.158 Q514.439 422.121 512.749 424.181 Q511.082 426.241 508.096 426.982 Q511.476 427.769 513.351 430.061 Q515.249 432.352 515.249 435.662 Q515.249 440.686 512.17 443.371 Q509.115 446.056 503.397 446.056 Q497.679 446.056 494.601 443.371 Q491.545 440.686 491.545 435.662 Q491.545 432.352 493.443 430.061 Q495.342 427.769 498.721 426.982 M497.008 419.598 Q497.008 422.283 498.675 423.788 Q500.365 425.292 503.397 425.292 Q506.406 425.292 508.096 423.788 Q509.809 422.283 509.809 419.598 Q509.809 416.913 508.096 415.408 Q506.406 413.903 503.397 413.903 Q500.365 413.903 498.675 415.408 Q497.008 416.913 497.008 419.598 Z" fill="#000000" fill-rule="nonzero" fill-opacity="1" /><path clip-path="url(#clip420)" d="M553.05 423.44 Q552.332 423.024 551.475 422.838 Q550.642 422.63 549.624 422.63 Q546.013 422.63 544.068 424.991 Q542.147 427.329 542.147 431.727 L542.147 445.385 L537.864 445.385 L537.864 419.459 L542.147 419.459 L542.147 423.487 Q543.489 421.126 545.642 419.991 Q547.795 418.834 550.874 418.834 Q551.313 418.834 551.846 418.903 Q552.378 418.95 553.026 419.065 L553.05 423.44 Z" fill="#000000" fill-rule="nonzero" fill-opacity="1" /><path clip-path="url(#clip420)" d="M578.651 431.357 L578.651 433.44 L559.068 433.44 Q559.346 437.838 561.707 440.153 Q564.091 442.445 568.327 442.445 Q570.781 442.445 573.073 441.843 Q575.387 441.241 577.656 440.037 L577.656 444.065 Q575.364 445.037 572.957 445.547 Q570.549 446.056 568.073 446.056 Q561.869 446.056 558.235 442.445 Q554.624 438.834 554.624 432.676 Q554.624 426.311 558.05 422.584 Q561.499 418.834 567.332 418.834 Q572.563 418.834 575.596 422.213 Q578.651 425.57 578.651 431.357 M574.392 430.107 Q574.346 426.612 572.424 424.528 Q570.526 422.445 567.378 422.445 Q563.813 422.445 561.661 424.459 Q559.531 426.473 559.207 430.13 L574.392 430.107 Z" fill="#000000" fill-rule="nonzero" fill-opacity="1" /><path clip-path="url(#clip420)" d="M602.702 432.121 Q602.702 427.491 600.781 424.945 Q598.883 422.399 595.434 422.399 Q592.008 422.399 590.086 424.945 Q588.188 427.491 588.188 432.121 Q588.188 436.727 590.086 439.274 Q592.008 441.82 595.434 441.82 Q598.883 441.82 600.781 439.274 Q602.702 436.727 602.702 432.121 M606.961 442.167 Q606.961 448.787 604.022 452.005 Q601.082 455.246 595.017 455.246 Q592.772 455.246 590.781 454.898 Q588.79 454.574 586.915 453.88 L586.915 449.736 Q588.79 450.755 590.619 451.241 Q592.447 451.727 594.346 451.727 Q598.535 451.727 600.619 449.528 Q602.702 447.352 602.702 442.931 L602.702 440.824 Q601.383 443.116 599.322 444.25 Q597.262 445.385 594.392 445.385 Q589.623 445.385 586.707 441.75 Q583.79 438.116 583.79 432.121 Q583.79 426.102 586.707 422.468 Q589.623 418.834 594.392 418.834 Q597.262 418.834 599.322 419.968 Q601.383 421.102 602.702 423.394 L602.702 419.459 L606.961 419.459 L606.961 442.167 Z" fill="#000000" fill-rule="nonzero" fill-opacity="1" /><path clip-path="url(#clip420)" d="M615.734 419.459 L619.994 419.459 L619.994 445.385 L615.734 445.385 L615.734 419.459 M615.734 409.366 L619.994 409.366 L619.994 414.76 L615.734 414.76 L615.734 409.366 Z" fill="#000000" fill-rule="nonzero" fill-opacity="1" /><path clip-path="url(#clip420)" d="M638.952 422.445 Q635.526 422.445 633.535 425.13 Q631.545 427.792 631.545 432.445 Q631.545 437.098 633.512 439.783 Q635.503 442.445 638.952 442.445 Q642.355 442.445 644.345 439.76 Q646.336 437.075 646.336 432.445 Q646.336 427.838 644.345 425.153 Q642.355 422.445 638.952 422.445 M638.952 418.834 Q644.507 418.834 647.679 422.445 Q650.85 426.056 650.85 432.445 Q650.85 438.811 647.679 442.445 Q644.507 446.056 638.952 446.056 Q633.373 446.056 630.202 442.445 Q627.054 438.811 627.054 432.445 Q627.054 426.056 630.202 422.445 Q633.373 418.834 638.952 418.834 Z" fill="#000000" fill-rule="nonzero" fill-opacity="1" /><path clip-path="url(#clip420)" d="M679.461 429.737 L679.461 445.385 L675.202 445.385 L675.202 429.875 Q675.202 426.195 673.767 424.366 Q672.331 422.538 669.461 422.538 Q666.012 422.538 664.021 424.737 Q662.03 426.936 662.03 430.732 L662.03 445.385 L657.748 445.385 L657.748 419.459 L662.03 419.459 L662.03 423.487 Q663.558 421.149 665.618 419.991 Q667.702 418.834 670.41 418.834 Q674.878 418.834 677.169 421.612 Q679.461 424.366 679.461 429.737 Z" fill="#000000" fill-rule="nonzero" fill-opacity="1" /><path clip-path="url(#clip420)" d="M704.484 420.223 L704.484 424.251 Q702.678 423.325 700.734 422.862 Q698.79 422.399 696.706 422.399 Q693.535 422.399 691.938 423.371 Q690.364 424.343 690.364 426.288 Q690.364 427.769 691.498 428.625 Q692.632 429.459 696.058 430.223 L697.516 430.547 Q702.053 431.519 703.952 433.301 Q705.873 435.061 705.873 438.232 Q705.873 441.843 703.002 443.949 Q700.155 446.056 695.155 446.056 Q693.072 446.056 690.803 445.639 Q688.558 445.246 686.058 444.436 L686.058 440.037 Q688.419 441.264 690.711 441.889 Q693.003 442.491 695.248 442.491 Q698.257 442.491 699.877 441.473 Q701.498 440.431 701.498 438.556 Q701.498 436.82 700.317 435.894 Q699.16 434.968 695.202 434.112 L693.72 433.764 Q689.762 432.931 688.003 431.218 Q686.243 429.482 686.243 426.473 Q686.243 422.815 688.836 420.825 Q691.428 418.834 696.197 418.834 Q698.558 418.834 700.641 419.181 Q702.725 419.528 704.484 420.223 Z" fill="#000000" fill-rule="nonzero" fill-opacity="1" /><polyline clip-path="url(#clip420)" style="stroke:#436eee; stroke-linecap:round; stroke-linejoin:round; stroke-width:4; stroke-opacity:1; fill:none" stroke-dasharray="2, 4" points="326.628,479.945 467.986,479.945 "/>
<path clip-path="url(#clip420)" d="M492.217 493.289 L499.855 493.289 L499.855 466.924 L491.545 468.591 L491.545 464.331 L499.809 462.665 L504.485 462.665 L504.485 493.289 L512.124 493.289 L512.124 497.225 L492.217 497.225 L492.217 493.289 Z" fill="#000000" fill-rule="nonzero" fill-opacity="1" /><path clip-path="url(#clip420)" d="M525.596 493.289 L541.915 493.289 L541.915 497.225 L519.971 497.225 L519.971 493.289 Q522.633 490.535 527.216 485.905 Q531.823 481.253 533.003 479.91 Q535.249 477.387 536.128 475.651 Q537.031 473.891 537.031 472.202 Q537.031 469.447 535.087 467.711 Q533.165 465.975 530.064 465.975 Q527.865 465.975 525.411 466.739 Q522.98 467.503 520.203 469.054 L520.203 464.331 Q523.027 463.197 525.48 462.618 Q527.934 462.04 529.971 462.04 Q535.341 462.04 538.536 464.725 Q541.73 467.41 541.73 471.901 Q541.73 474.03 540.92 475.952 Q540.133 477.85 538.026 480.442 Q537.448 481.114 534.346 484.331 Q531.244 487.526 525.596 493.289 Z" fill="#000000" fill-rule="nonzero" fill-opacity="1" /><path clip-path="url(#clip420)" d="M581.221 475.28 Q580.503 474.864 579.647 474.678 Q578.813 474.47 577.795 474.47 Q574.184 474.47 572.239 476.831 Q570.318 479.169 570.318 483.567 L570.318 497.225 L566.036 497.225 L566.036 471.299 L570.318 471.299 L570.318 475.327 Q571.661 472.966 573.813 471.831 Q575.966 470.674 579.045 470.674 Q579.485 470.674 580.017 470.743 Q580.549 470.79 581.198 470.905 L581.221 475.28 Z" fill="#000000" fill-rule="nonzero" fill-opacity="1" /><path clip-path="url(#clip420)" d="M606.822 483.197 L606.822 485.28 L587.239 485.28 Q587.517 489.678 589.878 491.993 Q592.262 494.285 596.498 494.285 Q598.952 494.285 601.244 493.683 Q603.559 493.081 605.827 491.877 L605.827 495.905 Q603.535 496.877 601.128 497.387 Q598.721 497.896 596.244 497.896 Q590.04 497.896 586.406 494.285 Q582.795 490.674 582.795 484.516 Q582.795 478.151 586.221 474.424 Q589.67 470.674 595.503 470.674 Q600.734 470.674 603.767 474.053 Q606.822 477.41 606.822 483.197 M602.563 481.947 Q602.517 478.452 600.596 476.368 Q598.697 474.285 595.549 474.285 Q591.985 474.285 589.832 476.299 Q587.702 478.313 587.378 481.97 L602.563 481.947 Z" fill="#000000" fill-rule="nonzero" fill-opacity="1" /><path clip-path="url(#clip420)" d="M630.873 483.961 Q630.873 479.331 628.952 476.785 Q627.054 474.239 623.605 474.239 Q620.179 474.239 618.258 476.785 Q616.359 479.331 616.359 483.961 Q616.359 488.567 618.258 491.114 Q620.179 493.66 623.605 493.66 Q627.054 493.66 628.952 491.114 Q630.873 488.567 630.873 483.961 M635.132 494.007 Q635.132 500.627 632.193 503.845 Q629.253 507.086 623.188 507.086 Q620.943 507.086 618.952 506.738 Q616.961 506.414 615.086 505.72 L615.086 501.576 Q616.961 502.595 618.79 503.081 Q620.619 503.567 622.517 503.567 Q626.707 503.567 628.79 501.368 Q630.873 499.192 630.873 494.771 L630.873 492.664 Q629.554 494.956 627.494 496.09 Q625.433 497.225 622.563 497.225 Q617.795 497.225 614.878 493.59 Q611.961 489.956 611.961 483.961 Q611.961 477.942 614.878 474.308 Q617.795 470.674 622.563 470.674 Q625.433 470.674 627.494 471.808 Q629.554 472.942 630.873 475.234 L630.873 471.299 L635.132 471.299 L635.132 494.007 Z" fill="#000000" fill-rule="nonzero" fill-opacity="1" /><path clip-path="url(#clip420)" d="M643.906 471.299 L648.165 471.299 L648.165 497.225 L643.906 497.225 L643.906 471.299 M643.906 461.206 L648.165 461.206 L648.165 466.6 L643.906 466.6 L643.906 461.206 Z" fill="#000000" fill-rule="nonzero" fill-opacity="1" /><path clip-path="url(#clip420)" d="M667.123 474.285 Q663.697 474.285 661.706 476.97 Q659.716 479.632 659.716 484.285 Q659.716 488.938 661.683 491.623 Q663.674 494.285 667.123 494.285 Q670.526 494.285 672.517 491.6 Q674.507 488.915 674.507 484.285 Q674.507 479.678 672.517 476.993 Q670.526 474.285 667.123 474.285 M667.123 470.674 Q672.679 470.674 675.85 474.285 Q679.021 477.896 679.021 484.285 Q679.021 490.651 675.85 494.285 Q672.679 497.896 667.123 497.896 Q661.544 497.896 658.373 494.285 Q655.225 490.651 655.225 484.285 Q655.225 477.896 658.373 474.285 Q661.544 470.674 667.123 470.674 Z" fill="#000000" fill-rule="nonzero" fill-opacity="1" /><path clip-path="url(#clip420)" d="M707.632 481.577 L707.632 497.225 L703.373 497.225 L703.373 481.715 Q703.373 478.035 701.938 476.206 Q700.502 474.378 697.632 474.378 Q694.183 474.378 692.192 476.577 Q690.202 478.776 690.202 482.572 L690.202 497.225 L685.919 497.225 L685.919 471.299 L690.202 471.299 L690.202 475.327 Q691.729 472.989 693.79 471.831 Q695.873 470.674 698.581 470.674 Q703.049 470.674 705.34 473.452 Q707.632 476.206 707.632 481.577 Z" fill="#000000" fill-rule="nonzero" fill-opacity="1" /><path clip-path="url(#clip420)" d="M732.655 472.063 L732.655 476.091 Q730.85 475.165 728.905 474.702 Q726.961 474.239 724.877 474.239 Q721.706 474.239 720.109 475.211 Q718.535 476.183 718.535 478.128 Q718.535 479.609 719.669 480.465 Q720.803 481.299 724.229 482.063 L725.688 482.387 Q730.225 483.359 732.123 485.141 Q734.044 486.901 734.044 490.072 Q734.044 493.683 731.174 495.789 Q728.326 497.896 723.326 497.896 Q721.243 497.896 718.975 497.479 Q716.729 497.086 714.229 496.276 L714.229 491.877 Q716.59 493.104 718.882 493.729 Q721.174 494.331 723.419 494.331 Q726.428 494.331 728.049 493.313 Q729.669 492.271 729.669 490.396 Q729.669 488.66 728.488 487.734 Q727.331 486.808 723.373 485.952 L721.891 485.604 Q717.933 484.771 716.174 483.058 Q714.414 481.322 714.414 478.313 Q714.414 474.655 717.007 472.665 Q719.6 470.674 724.368 470.674 Q726.729 470.674 728.813 471.021 Q730.896 471.368 732.655 472.063 Z" fill="#000000" fill-rule="nonzero" fill-opacity="1" /></svg>
