<?xml version="1.0" encoding="utf-8"?>
<svg xmlns="http://www.w3.org/2000/svg" xmlns:xlink="http://www.w3.org/1999/xlink" width="600" height="400" viewBox="0 0 2400 1600">
<defs>
  <clipPath id="clip370">
    <rect x="0" y="0" width="2400" height="1600"/>
  </clipPath>
</defs>
<path clip-path="url(#clip370)" d="M0 1600 L2400 1600 L2400 0 L0 0  Z" fill="#ffffff" fill-rule="evenodd" fill-opacity="1"/>
<defs>
  <clipPath id="clip371">
    <rect x="480" y="0" width="1681" height="1600"/>
  </clipPath>
</defs>
<path clip-path="url(#clip370)" d="M234.125 1486.45 L2352.76 1486.45 L2352.76 123.472 L234.125 123.472  Z" fill="#ffffff" fill-rule="evenodd" fill-opacity="1"/>
<defs>
  <clipPath id="clip372">
    <rect x="234" y="123" width="2120" height="1364"/>
  </clipPath>
</defs>
<polyline clip-path="url(#clip372)" style="stroke:#000000; stroke-linecap:round; stroke-linejoin:round; stroke-width:2; stroke-opacity:0.1; fill:none" points="294.087,1486.45 294.087,123.472 "/>
<polyline clip-path="url(#clip372)" style="stroke:#000000; stroke-linecap:round; stroke-linejoin:round; stroke-width:2; stroke-opacity:0.1; fill:none" points="793.764,1486.45 793.764,123.472 "/>
<polyline clip-path="url(#clip372)" style="stroke:#000000; stroke-linecap:round; stroke-linejoin:round; stroke-width:2; stroke-opacity:0.1; fill:none" points="1293.44,1486.45 1293.44,123.472 "/>
<polyline clip-path="url(#clip372)" style="stroke:#000000; stroke-linecap:round; stroke-linejoin:round; stroke-width:2; stroke-opacity:0.1; fill:none" points="1793.12,1486.45 1793.12,123.472 "/>
<polyline clip-path="url(#clip372)" style="stroke:#000000; stroke-linecap:round; stroke-linejoin:round; stroke-width:2; stroke-opacity:0.1; fill:none" points="2292.79,1486.45 2292.79,123.472 "/>
<polyline clip-path="url(#clip372)" style="stroke:#000000; stroke-linecap:round; stroke-linejoin:round; stroke-width:2; stroke-opacity:0.1; fill:none" points="234.125,1486.45 2352.76,1486.45 "/>
<polyline clip-path="url(#clip372)" style="stroke:#000000; stroke-linecap:round; stroke-linejoin:round; stroke-width:2; stroke-opacity:0.1; fill:none" points="234.125,1291.74 2352.76,1291.74 "/>
<polyline clip-path="url(#clip372)" style="stroke:#000000; stroke-linecap:round; stroke-linejoin:round; stroke-width:2; stroke-opacity:0.1; fill:none" points="234.125,1097.03 2352.76,1097.03 "/>
<polyline clip-path="url(#clip372)" style="stroke:#000000; stroke-linecap:round; stroke-linejoin:round; stroke-width:2; stroke-opacity:0.1; fill:none" points="234.125,902.315 2352.76,902.315 "/>
<polyline clip-path="url(#clip372)" style="stroke:#000000; stroke-linecap:round; stroke-linejoin:round; stroke-width:2; stroke-opacity:0.1; fill:none" points="234.125,707.605 2352.76,707.605 "/>
<polyline clip-path="url(#clip372)" style="stroke:#000000; stroke-linecap:round; stroke-linejoin:round; stroke-width:2; stroke-opacity:0.1; fill:none" points="234.125,512.894 2352.76,512.894 "/>
<polyline clip-path="url(#clip372)" style="stroke:#000000; stroke-linecap:round; stroke-linejoin:round; stroke-width:2; stroke-opacity:0.1; fill:none" points="234.125,318.183 2352.76,318.183 "/>
<polyline clip-path="url(#clip372)" style="stroke:#000000; stroke-linecap:round; stroke-linejoin:round; stroke-width:2; stroke-opacity:0.1; fill:none" points="234.125,123.472 2352.76,123.472 "/>
<polyline clip-path="url(#clip370)" style="stroke:#000000; stroke-linecap:round; stroke-linejoin:round; stroke-width:4; stroke-opacity:1; fill:none" points="234.125,1486.45 2352.76,1486.45 "/>
<polyline clip-path="url(#clip370)" style="stroke:#000000; stroke-linecap:round; stroke-linejoin:round; stroke-width:4; stroke-opacity:1; fill:none" points="294.087,1486.45 294.087,1467.55 "/>
<polyline clip-path="url(#clip370)" style="stroke:#000000; stroke-linecap:round; stroke-linejoin:round; stroke-width:4; stroke-opacity:1; fill:none" points="793.764,1486.45 793.764,1467.55 "/>
<polyline clip-path="url(#clip370)" style="stroke:#000000; stroke-linecap:round; stroke-linejoin:round; stroke-width:4; stroke-opacity:1; fill:none" points="1293.44,1486.45 1293.44,1467.55 "/>
<polyline clip-path="url(#clip370)" style="stroke:#000000; stroke-linecap:round; stroke-linejoin:round; stroke-width:4; stroke-opacity:1; fill:none" points="1793.12,1486.45 1793.12,1467.55 "/>
<polyline clip-path="url(#clip370)" style="stroke:#000000; stroke-linecap:round; stroke-linejoin:round; stroke-width:4; stroke-opacity:1; fill:none" points="2292.79,1486.45 2292.79,1467.55 "/>
<path clip-path="url(#clip370)" d="M242.698 1544.91 L259.017 1544.91 L259.017 1548.85 L237.073 1548.85 L237.073 1544.91 Q239.735 1542.16 244.318 1537.53 Q248.925 1532.88 250.105 1531.53 Q252.351 1529.01 253.23 1527.27 Q254.133 1525.51 254.133 1523.82 Q254.133 1521.07 252.189 1519.33 Q250.267 1517.6 247.166 1517.6 Q244.967 1517.6 242.513 1518.36 Q240.082 1519.13 237.305 1520.68 L237.305 1515.95 Q240.129 1514.82 242.582 1514.24 Q245.036 1513.66 247.073 1513.66 Q252.443 1513.66 255.638 1516.35 Q258.832 1519.03 258.832 1523.52 Q258.832 1525.65 258.022 1527.57 Q257.235 1529.47 255.129 1532.07 Q254.55 1532.74 251.448 1535.95 Q248.346 1539.15 242.698 1544.91 Z" fill="#000000" fill-rule="nonzero" fill-opacity="1" /><path clip-path="url(#clip370)" d="M278.832 1517.37 Q275.221 1517.37 273.392 1520.93 Q271.587 1524.47 271.587 1531.6 Q271.587 1538.71 273.392 1542.27 Q275.221 1545.82 278.832 1545.82 Q282.466 1545.82 284.272 1542.27 Q286.101 1538.71 286.101 1531.6 Q286.101 1524.47 284.272 1520.93 Q282.466 1517.37 278.832 1517.37 M278.832 1513.66 Q284.642 1513.66 287.698 1518.27 Q290.777 1522.85 290.777 1531.6 Q290.777 1540.33 287.698 1544.94 Q284.642 1549.52 278.832 1549.52 Q273.022 1549.52 269.943 1544.94 Q266.888 1540.33 266.888 1531.6 Q266.888 1522.85 269.943 1518.27 Q273.022 1513.66 278.832 1513.66 Z" fill="#000000" fill-rule="nonzero" fill-opacity="1" /><path clip-path="url(#clip370)" d="M303.022 1544.91 L319.341 1544.91 L319.341 1548.85 L297.397 1548.85 L297.397 1544.91 Q300.059 1542.16 304.642 1537.53 Q309.249 1532.88 310.429 1531.53 Q312.675 1529.01 313.554 1527.27 Q314.457 1525.51 314.457 1523.82 Q314.457 1521.07 312.513 1519.33 Q310.591 1517.6 307.489 1517.6 Q305.29 1517.6 302.837 1518.36 Q300.406 1519.13 297.628 1520.68 L297.628 1515.95 Q300.452 1514.82 302.906 1514.24 Q305.36 1513.66 307.397 1513.66 Q312.767 1513.66 315.962 1516.35 Q319.156 1519.03 319.156 1523.52 Q319.156 1525.65 318.346 1527.57 Q317.559 1529.47 315.452 1532.07 Q314.874 1532.74 311.772 1535.95 Q308.67 1539.15 303.022 1544.91 Z" fill="#000000" fill-rule="nonzero" fill-opacity="1" /><path clip-path="url(#clip370)" d="M339.156 1517.37 Q335.545 1517.37 333.716 1520.93 Q331.911 1524.47 331.911 1531.6 Q331.911 1538.71 333.716 1542.27 Q335.545 1545.82 339.156 1545.82 Q342.79 1545.82 344.596 1542.27 Q346.424 1538.71 346.424 1531.6 Q346.424 1524.47 344.596 1520.93 Q342.79 1517.37 339.156 1517.37 M339.156 1513.66 Q344.966 1513.66 348.022 1518.27 Q351.1 1522.85 351.1 1531.6 Q351.1 1540.33 348.022 1544.94 Q344.966 1549.52 339.156 1549.52 Q333.346 1549.52 330.267 1544.94 Q327.212 1540.33 327.212 1531.6 Q327.212 1522.85 330.267 1518.27 Q333.346 1513.66 339.156 1513.66 Z" fill="#000000" fill-rule="nonzero" fill-opacity="1" /><path clip-path="url(#clip370)" d="M742.375 1544.91 L758.694 1544.91 L758.694 1548.85 L736.75 1548.85 L736.75 1544.91 Q739.412 1542.16 743.995 1537.53 Q748.602 1532.88 749.782 1531.53 Q752.028 1529.01 752.907 1527.27 Q753.81 1525.51 753.81 1523.82 Q753.81 1521.07 751.866 1519.33 Q749.944 1517.6 746.843 1517.6 Q744.644 1517.6 742.19 1518.36 Q739.759 1519.13 736.982 1520.68 L736.982 1515.95 Q739.806 1514.82 742.259 1514.24 Q744.713 1513.66 746.75 1513.66 Q752.12 1513.66 755.315 1516.35 Q758.509 1519.03 758.509 1523.52 Q758.509 1525.65 757.699 1527.57 Q756.912 1529.47 754.806 1532.07 Q754.227 1532.74 751.125 1535.95 Q748.023 1539.15 742.375 1544.91 Z" fill="#000000" fill-rule="nonzero" fill-opacity="1" /><path clip-path="url(#clip370)" d="M778.509 1517.37 Q774.898 1517.37 773.069 1520.93 Q771.264 1524.47 771.264 1531.6 Q771.264 1538.71 773.069 1542.27 Q774.898 1545.82 778.509 1545.82 Q782.143 1545.82 783.949 1542.27 Q785.778 1538.71 785.778 1531.6 Q785.778 1524.47 783.949 1520.93 Q782.143 1517.37 778.509 1517.37 M778.509 1513.66 Q784.319 1513.66 787.375 1518.27 Q790.454 1522.85 790.454 1531.6 Q790.454 1540.33 787.375 1544.94 Q784.319 1549.52 778.509 1549.52 Q772.699 1549.52 769.62 1544.94 Q766.565 1540.33 766.565 1531.6 Q766.565 1522.85 769.62 1518.27 Q772.699 1513.66 778.509 1513.66 Z" fill="#000000" fill-rule="nonzero" fill-opacity="1" /><path clip-path="url(#clip370)" d="M812.838 1530.21 Q816.194 1530.93 818.069 1533.2 Q819.967 1535.47 819.967 1538.8 Q819.967 1543.92 816.449 1546.72 Q812.93 1549.52 806.449 1549.52 Q804.273 1549.52 801.958 1549.08 Q799.666 1548.66 797.213 1547.81 L797.213 1543.29 Q799.157 1544.43 801.472 1545.01 Q803.787 1545.58 806.31 1545.58 Q810.708 1545.58 813 1543.85 Q815.314 1542.11 815.314 1538.8 Q815.314 1535.75 813.162 1534.03 Q811.032 1532.3 807.213 1532.3 L803.185 1532.3 L803.185 1528.45 L807.398 1528.45 Q810.847 1528.45 812.676 1527.09 Q814.504 1525.7 814.504 1523.11 Q814.504 1520.45 812.606 1519.03 Q810.731 1517.6 807.213 1517.6 Q805.291 1517.6 803.092 1518.01 Q800.893 1518.43 798.254 1519.31 L798.254 1515.14 Q800.916 1514.4 803.231 1514.03 Q805.569 1513.66 807.629 1513.66 Q812.953 1513.66 816.055 1516.09 Q819.157 1518.5 819.157 1522.62 Q819.157 1525.49 817.514 1527.48 Q815.87 1529.45 812.838 1530.21 Z" fill="#000000" fill-rule="nonzero" fill-opacity="1" /><path clip-path="url(#clip370)" d="M838.833 1517.37 Q835.222 1517.37 833.393 1520.93 Q831.588 1524.47 831.588 1531.6 Q831.588 1538.71 833.393 1542.27 Q835.222 1545.82 838.833 1545.82 Q842.467 1545.82 844.273 1542.27 Q846.101 1538.71 846.101 1531.6 Q846.101 1524.47 844.273 1520.93 Q842.467 1517.37 838.833 1517.37 M838.833 1513.66 Q844.643 1513.66 847.699 1518.27 Q850.777 1522.85 850.777 1531.6 Q850.777 1540.33 847.699 1544.94 Q844.643 1549.52 838.833 1549.52 Q833.023 1549.52 829.944 1544.94 Q826.889 1540.33 826.889 1531.6 Q826.889 1522.85 829.944 1518.27 Q833.023 1513.66 838.833 1513.66 Z" fill="#000000" fill-rule="nonzero" fill-opacity="1" /><path clip-path="url(#clip370)" d="M1242.05 1544.91 L1258.37 1544.91 L1258.37 1548.85 L1236.43 1548.85 L1236.43 1544.91 Q1239.09 1542.16 1243.67 1537.53 Q1248.28 1532.88 1249.46 1531.53 Q1251.7 1529.01 1252.58 1527.27 Q1253.49 1525.51 1253.49 1523.82 Q1253.49 1521.07 1251.54 1519.33 Q1249.62 1517.6 1246.52 1517.6 Q1244.32 1517.6 1241.87 1518.36 Q1239.44 1519.13 1236.66 1520.68 L1236.66 1515.95 Q1239.48 1514.82 1241.94 1514.24 Q1244.39 1513.66 1246.43 1513.66 Q1251.8 1513.66 1254.99 1516.35 Q1258.19 1519.03 1258.19 1523.52 Q1258.19 1525.65 1257.38 1527.57 Q1256.59 1529.47 1254.48 1532.07 Q1253.9 1532.74 1250.8 1535.95 Q1247.7 1539.15 1242.05 1544.91 Z" fill="#000000" fill-rule="nonzero" fill-opacity="1" /><path clip-path="url(#clip370)" d="M1278.19 1517.37 Q1274.58 1517.37 1272.75 1520.93 Q1270.94 1524.47 1270.94 1531.6 Q1270.94 1538.71 1272.75 1542.27 Q1274.58 1545.82 1278.19 1545.82 Q1281.82 1545.82 1283.63 1542.27 Q1285.45 1538.71 1285.45 1531.6 Q1285.45 1524.47 1283.63 1520.93 Q1281.82 1517.37 1278.19 1517.37 M1278.19 1513.66 Q1284 1513.66 1287.05 1518.27 Q1290.13 1522.85 1290.13 1531.6 Q1290.13 1540.33 1287.05 1544.94 Q1284 1549.52 1278.19 1549.52 Q1272.38 1549.52 1269.3 1544.94 Q1266.24 1540.33 1266.24 1531.6 Q1266.24 1522.85 1269.3 1518.27 Q1272.38 1513.66 1278.19 1513.66 Z" fill="#000000" fill-rule="nonzero" fill-opacity="1" /><path clip-path="url(#clip370)" d="M1311.2 1518.36 L1299.39 1536.81 L1311.2 1536.81 L1311.2 1518.36 M1309.97 1514.29 L1315.85 1514.29 L1315.85 1536.81 L1320.78 1536.81 L1320.78 1540.7 L1315.85 1540.7 L1315.85 1548.85 L1311.2 1548.85 L1311.2 1540.7 L1295.59 1540.7 L1295.59 1536.19 L1309.97 1514.29 Z" fill="#000000" fill-rule="nonzero" fill-opacity="1" /><path clip-path="url(#clip370)" d="M1338.51 1517.37 Q1334.9 1517.37 1333.07 1520.93 Q1331.26 1524.47 1331.26 1531.6 Q1331.26 1538.71 1333.07 1542.27 Q1334.9 1545.82 1338.51 1545.82 Q1342.14 1545.82 1343.95 1542.27 Q1345.78 1538.71 1345.78 1531.6 Q1345.78 1524.47 1343.95 1520.93 Q1342.14 1517.37 1338.51 1517.37 M1338.51 1513.66 Q1344.32 1513.66 1347.38 1518.27 Q1350.45 1522.85 1350.45 1531.6 Q1350.45 1540.33 1347.38 1544.94 Q1344.32 1549.52 1338.51 1549.52 Q1332.7 1549.52 1329.62 1544.94 Q1326.57 1540.33 1326.57 1531.6 Q1326.57 1522.85 1329.62 1518.27 Q1332.7 1513.66 1338.51 1513.66 Z" fill="#000000" fill-rule="nonzero" fill-opacity="1" /><path clip-path="url(#clip370)" d="M1741.73 1544.91 L1758.05 1544.91 L1758.05 1548.85 L1736.1 1548.85 L1736.1 1544.91 Q1738.77 1542.16 1743.35 1537.53 Q1747.96 1532.88 1749.14 1531.53 Q1751.38 1529.01 1752.26 1527.27 Q1753.16 1525.51 1753.16 1523.82 Q1753.16 1521.07 1751.22 1519.33 Q1749.3 1517.6 1746.2 1517.6 Q1744 1517.6 1741.54 1518.36 Q1739.11 1519.13 1736.34 1520.68 L1736.34 1515.95 Q1739.16 1514.82 1741.61 1514.24 Q1744.07 1513.66 1746.1 1513.66 Q1751.47 1513.66 1754.67 1516.35 Q1757.86 1519.03 1757.86 1523.52 Q1757.86 1525.65 1757.05 1527.57 Q1756.27 1529.47 1754.16 1532.07 Q1753.58 1532.74 1750.48 1535.95 Q1747.38 1539.15 1741.73 1544.91 Z" fill="#000000" fill-rule="nonzero" fill-opacity="1" /><path clip-path="url(#clip370)" d="M1777.86 1517.37 Q1774.25 1517.37 1772.42 1520.93 Q1770.62 1524.47 1770.62 1531.6 Q1770.62 1538.71 1772.42 1542.27 Q1774.25 1545.82 1777.86 1545.82 Q1781.5 1545.82 1783.3 1542.27 Q1785.13 1538.71 1785.13 1531.6 Q1785.13 1524.47 1783.3 1520.93 Q1781.5 1517.37 1777.86 1517.37 M1777.86 1513.66 Q1783.67 1513.66 1786.73 1518.27 Q1789.81 1522.85 1789.81 1531.6 Q1789.81 1540.33 1786.73 1544.94 Q1783.67 1549.52 1777.86 1549.52 Q1772.05 1549.52 1768.97 1544.94 Q1765.92 1540.33 1765.92 1531.6 Q1765.92 1522.85 1768.97 1518.27 Q1772.05 1513.66 1777.86 1513.66 Z" fill="#000000" fill-rule="nonzero" fill-opacity="1" /><path clip-path="url(#clip370)" d="M1798.07 1514.29 L1816.43 1514.29 L1816.43 1518.22 L1802.35 1518.22 L1802.35 1526.7 Q1803.37 1526.35 1804.39 1526.19 Q1805.41 1526 1806.43 1526 Q1812.21 1526 1815.59 1529.17 Q1818.97 1532.34 1818.97 1537.76 Q1818.97 1543.34 1815.5 1546.44 Q1812.03 1549.52 1805.71 1549.52 Q1803.53 1549.52 1801.27 1549.15 Q1799.02 1548.78 1796.61 1548.04 L1796.61 1543.34 Q1798.7 1544.47 1800.92 1545.03 Q1803.14 1545.58 1805.62 1545.58 Q1809.62 1545.58 1811.96 1543.48 Q1814.3 1541.37 1814.3 1537.76 Q1814.3 1534.15 1811.96 1532.04 Q1809.62 1529.94 1805.62 1529.94 Q1803.74 1529.94 1801.87 1530.35 Q1800.02 1530.77 1798.07 1531.65 L1798.07 1514.29 Z" fill="#000000" fill-rule="nonzero" fill-opacity="1" /><path clip-path="url(#clip370)" d="M1838.19 1517.37 Q1834.58 1517.37 1832.75 1520.93 Q1830.94 1524.47 1830.94 1531.6 Q1830.94 1538.71 1832.75 1542.27 Q1834.58 1545.82 1838.19 1545.82 Q1841.82 1545.82 1843.63 1542.27 Q1845.46 1538.71 1845.46 1531.6 Q1845.46 1524.47 1843.63 1520.93 Q1841.82 1517.37 1838.19 1517.37 M1838.19 1513.66 Q1844 1513.66 1847.05 1518.27 Q1850.13 1522.85 1850.13 1531.6 Q1850.13 1540.33 1847.05 1544.94 Q1844 1549.52 1838.19 1549.52 Q1832.38 1549.52 1829.3 1544.94 Q1826.24 1540.33 1826.24 1531.6 Q1826.24 1522.85 1829.3 1518.27 Q1832.38 1513.66 1838.19 1513.66 Z" fill="#000000" fill-rule="nonzero" fill-opacity="1" /><path clip-path="url(#clip370)" d="M2241.41 1544.91 L2257.73 1544.91 L2257.73 1548.85 L2235.78 1548.85 L2235.78 1544.91 Q2238.44 1542.16 2243.03 1537.53 Q2247.63 1532.88 2248.81 1531.53 Q2251.06 1529.01 2251.94 1527.27 Q2252.84 1525.51 2252.84 1523.82 Q2252.84 1521.07 2250.9 1519.33 Q2248.98 1517.6 2245.87 1517.6 Q2243.67 1517.6 2241.22 1518.36 Q2238.79 1519.13 2236.01 1520.68 L2236.01 1515.95 Q2238.84 1514.82 2241.29 1514.24 Q2243.74 1513.66 2245.78 1513.66 Q2251.15 1513.66 2254.35 1516.35 Q2257.54 1519.03 2257.54 1523.52 Q2257.54 1525.65 2256.73 1527.57 Q2255.94 1529.47 2253.84 1532.07 Q2253.26 1532.74 2250.16 1535.95 Q2247.05 1539.15 2241.41 1544.91 Z" fill="#000000" fill-rule="nonzero" fill-opacity="1" /><path clip-path="url(#clip370)" d="M2277.54 1517.37 Q2273.93 1517.37 2272.1 1520.93 Q2270.29 1524.47 2270.29 1531.6 Q2270.29 1538.71 2272.1 1542.27 Q2273.93 1545.82 2277.54 1545.82 Q2281.17 1545.82 2282.98 1542.27 Q2284.81 1538.71 2284.81 1531.6 Q2284.81 1524.47 2282.98 1520.93 Q2281.17 1517.37 2277.54 1517.37 M2277.54 1513.66 Q2283.35 1513.66 2286.41 1518.27 Q2289.48 1522.85 2289.48 1531.6 Q2289.48 1540.33 2286.41 1544.94 Q2283.35 1549.52 2277.54 1549.52 Q2271.73 1549.52 2268.65 1544.94 Q2265.6 1540.33 2265.6 1531.6 Q2265.6 1522.85 2268.65 1518.27 Q2271.73 1513.66 2277.54 1513.66 Z" fill="#000000" fill-rule="nonzero" fill-opacity="1" /><path clip-path="url(#clip370)" d="M2308.28 1529.7 Q2305.13 1529.7 2303.28 1531.86 Q2301.45 1534.01 2301.45 1537.76 Q2301.45 1541.49 2303.28 1543.66 Q2305.13 1545.82 2308.28 1545.82 Q2311.43 1545.82 2313.26 1543.66 Q2315.11 1541.49 2315.11 1537.76 Q2315.11 1534.01 2313.26 1531.86 Q2311.43 1529.7 2308.28 1529.7 M2317.56 1515.05 L2317.56 1519.31 Q2315.8 1518.48 2314 1518.04 Q2312.22 1517.6 2310.46 1517.6 Q2305.83 1517.6 2303.37 1520.72 Q2300.94 1523.85 2300.6 1530.17 Q2301.96 1528.15 2304.02 1527.09 Q2306.08 1526 2308.56 1526 Q2313.77 1526 2316.78 1529.17 Q2319.81 1532.32 2319.81 1537.76 Q2319.81 1543.08 2316.66 1546.3 Q2313.51 1549.52 2308.28 1549.52 Q2302.29 1549.52 2299.11 1544.94 Q2295.94 1540.33 2295.94 1531.6 Q2295.94 1523.41 2299.83 1518.55 Q2303.72 1513.66 2310.27 1513.66 Q2312.03 1513.66 2313.81 1514.01 Q2315.62 1514.36 2317.56 1515.05 Z" fill="#000000" fill-rule="nonzero" fill-opacity="1" /><path clip-path="url(#clip370)" d="M2337.86 1517.37 Q2334.25 1517.37 2332.42 1520.93 Q2330.62 1524.47 2330.62 1531.6 Q2330.62 1538.71 2332.42 1542.27 Q2334.25 1545.82 2337.86 1545.82 Q2341.5 1545.82 2343.3 1542.27 Q2345.13 1538.71 2345.13 1531.6 Q2345.13 1524.47 2343.3 1520.93 Q2341.5 1517.37 2337.86 1517.37 M2337.86 1513.66 Q2343.67 1513.66 2346.73 1518.27 Q2349.81 1522.85 2349.81 1531.6 Q2349.81 1540.33 2346.73 1544.94 Q2343.67 1549.52 2337.86 1549.52 Q2332.05 1549.52 2328.98 1544.94 Q2325.92 1540.33 2325.92 1531.6 Q2325.92 1522.85 2328.98 1518.27 Q2332.05 1513.66 2337.86 1513.66 Z" fill="#000000" fill-rule="nonzero" fill-opacity="1" /><polyline clip-path="url(#clip370)" style="stroke:#000000; stroke-linecap:round; stroke-linejoin:round; stroke-width:4; stroke-opacity:1; fill:none" points="234.125,1486.45 234.125,123.472 "/>
<polyline clip-path="url(#clip370)" style="stroke:#000000; stroke-linecap:round; stroke-linejoin:round; stroke-width:4; stroke-opacity:1; fill:none" points="234.125,1486.45 253.023,1486.45 "/>
<polyline clip-path="url(#clip370)" style="stroke:#000000; stroke-linecap:round; stroke-linejoin:round; stroke-width:4; stroke-opacity:1; fill:none" points="234.125,1291.74 253.023,1291.74 "/>
<polyline clip-path="url(#clip370)" style="stroke:#000000; stroke-linecap:round; stroke-linejoin:round; stroke-width:4; stroke-opacity:1; fill:none" points="234.125,1097.03 253.023,1097.03 "/>
<polyline clip-path="url(#clip370)" style="stroke:#000000; stroke-linecap:round; stroke-linejoin:round; stroke-width:4; stroke-opacity:1; fill:none" points="234.125,902.315 253.023,902.315 "/>
<polyline clip-path="url(#clip370)" style="stroke:#000000; stroke-linecap:round; stroke-linejoin:round; stroke-width:4; stroke-opacity:1; fill:none" points="234.125,707.605 253.023,707.605 "/>
<polyline clip-path="url(#clip370)" style="stroke:#000000; stroke-linecap:round; stroke-linejoin:round; stroke-width:4; stroke-opacity:1; fill:none" points="234.125,512.894 253.023,512.894 "/>
<polyline clip-path="url(#clip370)" style="stroke:#000000; stroke-linecap:round; stroke-linejoin:round; stroke-width:4; stroke-opacity:1; fill:none" points="234.125,318.183 253.023,318.183 "/>
<polyline clip-path="url(#clip370)" style="stroke:#000000; stroke-linecap:round; stroke-linejoin:round; stroke-width:4; stroke-opacity:1; fill:none" points="234.125,123.472 253.023,123.472 "/>
<path clip-path="url(#clip370)" d="M186.181 1472.25 Q182.57 1472.25 180.741 1475.81 Q178.936 1479.35 178.936 1486.48 Q178.936 1493.59 180.741 1497.15 Q182.57 1500.7 186.181 1500.7 Q189.815 1500.7 191.621 1497.15 Q193.45 1493.59 193.45 1486.48 Q193.45 1479.35 191.621 1475.81 Q189.815 1472.25 186.181 1472.25 M186.181 1468.54 Q191.991 1468.54 195.047 1473.15 Q198.125 1477.73 198.125 1486.48 Q198.125 1495.21 195.047 1499.82 Q191.991 1504.4 186.181 1504.4 Q180.371 1504.4 177.292 1499.82 Q174.237 1495.21 174.237 1486.48 Q174.237 1477.73 177.292 1473.15 Q180.371 1468.54 186.181 1468.54 Z" fill="#000000" fill-rule="nonzero" fill-opacity="1" /><path clip-path="url(#clip370)" d="M146.066 1274.46 L164.422 1274.46 L164.422 1278.39 L150.348 1278.39 L150.348 1286.86 Q151.366 1286.52 152.385 1286.36 Q153.403 1286.17 154.422 1286.17 Q160.209 1286.17 163.589 1289.34 Q166.968 1292.51 166.968 1297.93 Q166.968 1303.51 163.496 1306.61 Q160.024 1309.69 153.704 1309.69 Q151.528 1309.69 149.26 1309.32 Q147.015 1308.95 144.607 1308.21 L144.607 1303.51 Q146.691 1304.64 148.913 1305.2 Q151.135 1305.75 153.612 1305.75 Q157.616 1305.75 159.954 1303.65 Q162.292 1301.54 162.292 1297.93 Q162.292 1294.32 159.954 1292.21 Q157.616 1290.11 153.612 1290.11 Q151.737 1290.11 149.862 1290.52 Q148.01 1290.94 146.066 1291.82 L146.066 1274.46 Z" fill="#000000" fill-rule="nonzero" fill-opacity="1" /><path clip-path="url(#clip370)" d="M186.181 1277.54 Q182.57 1277.54 180.741 1281.1 Q178.936 1284.64 178.936 1291.77 Q178.936 1298.88 180.741 1302.44 Q182.57 1305.98 186.181 1305.98 Q189.815 1305.98 191.621 1302.44 Q193.45 1298.88 193.45 1291.77 Q193.45 1284.64 191.621 1281.1 Q189.815 1277.54 186.181 1277.54 M186.181 1273.83 Q191.991 1273.83 195.047 1278.44 Q198.125 1283.02 198.125 1291.77 Q198.125 1300.5 195.047 1305.11 Q191.991 1309.69 186.181 1309.69 Q180.371 1309.69 177.292 1305.11 Q174.237 1300.5 174.237 1291.77 Q174.237 1283.02 177.292 1278.44 Q180.371 1273.83 186.181 1273.83 Z" fill="#000000" fill-rule="nonzero" fill-opacity="1" /><path clip-path="url(#clip370)" d="M116.668 1110.37 L124.306 1110.37 L124.306 1084.01 L115.996 1085.67 L115.996 1081.41 L124.26 1079.75 L128.936 1079.75 L128.936 1110.37 L136.575 1110.37 L136.575 1114.31 L116.668 1114.31 L116.668 1110.37 Z" fill="#000000" fill-rule="nonzero" fill-opacity="1" /><path clip-path="url(#clip370)" d="M156.019 1082.82 Q152.408 1082.82 150.579 1086.39 Q148.774 1089.93 148.774 1097.06 Q148.774 1104.17 150.579 1107.73 Q152.408 1111.27 156.019 1111.27 Q159.653 1111.27 161.459 1107.73 Q163.288 1104.17 163.288 1097.06 Q163.288 1089.93 161.459 1086.39 Q159.653 1082.82 156.019 1082.82 M156.019 1079.12 Q161.829 1079.12 164.885 1083.73 Q167.964 1088.31 167.964 1097.06 Q167.964 1105.79 164.885 1110.39 Q161.829 1114.98 156.019 1114.98 Q150.209 1114.98 147.13 1110.39 Q144.075 1105.79 144.075 1097.06 Q144.075 1088.31 147.13 1083.73 Q150.209 1079.12 156.019 1079.12 Z" fill="#000000" fill-rule="nonzero" fill-opacity="1" /><path clip-path="url(#clip370)" d="M186.181 1082.82 Q182.57 1082.82 180.741 1086.39 Q178.936 1089.93 178.936 1097.06 Q178.936 1104.17 180.741 1107.73 Q182.57 1111.27 186.181 1111.27 Q189.815 1111.27 191.621 1107.73 Q193.45 1104.17 193.45 1097.06 Q193.45 1089.93 191.621 1086.39 Q189.815 1082.82 186.181 1082.82 M186.181 1079.12 Q191.991 1079.12 195.047 1083.73 Q198.125 1088.31 198.125 1097.06 Q198.125 1105.79 195.047 1110.39 Q191.991 1114.98 186.181 1114.98 Q180.371 1114.98 177.292 1110.39 Q174.237 1105.79 174.237 1097.06 Q174.237 1088.31 177.292 1083.73 Q180.371 1079.12 186.181 1079.12 Z" fill="#000000" fill-rule="nonzero" fill-opacity="1" /><path clip-path="url(#clip370)" d="M116.668 915.66 L124.306 915.66 L124.306 889.295 L115.996 890.961 L115.996 886.702 L124.26 885.035 L128.936 885.035 L128.936 915.66 L136.575 915.66 L136.575 919.595 L116.668 919.595 L116.668 915.66 Z" fill="#000000" fill-rule="nonzero" fill-opacity="1" /><path clip-path="url(#clip370)" d="M146.066 885.035 L164.422 885.035 L164.422 888.971 L150.348 888.971 L150.348 897.443 Q151.366 897.096 152.385 896.933 Q153.403 896.748 154.422 896.748 Q160.209 896.748 163.589 899.92 Q166.968 903.091 166.968 908.508 Q166.968 914.086 163.496 917.188 Q160.024 920.267 153.704 920.267 Q151.528 920.267 149.26 919.896 Q147.015 919.526 144.607 918.785 L144.607 914.086 Q146.691 915.22 148.913 915.776 Q151.135 916.332 153.612 916.332 Q157.616 916.332 159.954 914.225 Q162.292 912.119 162.292 908.508 Q162.292 904.896 159.954 902.79 Q157.616 900.683 153.612 900.683 Q151.737 900.683 149.862 901.1 Q148.01 901.517 146.066 902.396 L146.066 885.035 Z" fill="#000000" fill-rule="nonzero" fill-opacity="1" /><path clip-path="url(#clip370)" d="M186.181 888.114 Q182.57 888.114 180.741 891.679 Q178.936 895.221 178.936 902.35 Q178.936 909.457 180.741 913.021 Q182.57 916.563 186.181 916.563 Q189.815 916.563 191.621 913.021 Q193.45 909.457 193.45 902.35 Q193.45 895.221 191.621 891.679 Q189.815 888.114 186.181 888.114 M186.181 884.41 Q191.991 884.41 195.047 889.017 Q198.125 893.6 198.125 902.35 Q198.125 911.077 195.047 915.683 Q191.991 920.267 186.181 920.267 Q180.371 920.267 177.292 915.683 Q174.237 911.077 174.237 902.35 Q174.237 893.6 177.292 889.017 Q180.371 884.41 186.181 884.41 Z" fill="#000000" fill-rule="nonzero" fill-opacity="1" /><path clip-path="url(#clip370)" d="M119.885 720.949 L136.204 720.949 L136.204 724.885 L114.26 724.885 L114.26 720.949 Q116.922 718.195 121.505 713.565 Q126.112 708.912 127.292 707.57 Q129.538 705.047 130.417 703.311 Q131.32 701.551 131.32 699.862 Q131.32 697.107 129.376 695.371 Q127.455 693.635 124.353 693.635 Q122.154 693.635 119.7 694.399 Q117.269 695.163 114.492 696.713 L114.492 691.991 Q117.316 690.857 119.769 690.278 Q122.223 689.7 124.26 689.7 Q129.63 689.7 132.825 692.385 Q136.019 695.07 136.019 699.561 Q136.019 701.69 135.209 703.612 Q134.422 705.51 132.316 708.102 Q131.737 708.774 128.635 711.991 Q125.533 715.186 119.885 720.949 Z" fill="#000000" fill-rule="nonzero" fill-opacity="1" /><path clip-path="url(#clip370)" d="M156.019 693.403 Q152.408 693.403 150.579 696.968 Q148.774 700.51 148.774 707.639 Q148.774 714.746 150.579 718.311 Q152.408 721.852 156.019 721.852 Q159.653 721.852 161.459 718.311 Q163.288 714.746 163.288 707.639 Q163.288 700.51 161.459 696.968 Q159.653 693.403 156.019 693.403 M156.019 689.7 Q161.829 689.7 164.885 694.306 Q167.964 698.889 167.964 707.639 Q167.964 716.366 164.885 720.973 Q161.829 725.556 156.019 725.556 Q150.209 725.556 147.13 720.973 Q144.075 716.366 144.075 707.639 Q144.075 698.889 147.13 694.306 Q150.209 689.7 156.019 689.7 Z" fill="#000000" fill-rule="nonzero" fill-opacity="1" /><path clip-path="url(#clip370)" d="M186.181 693.403 Q182.57 693.403 180.741 696.968 Q178.936 700.51 178.936 707.639 Q178.936 714.746 180.741 718.311 Q182.57 721.852 186.181 721.852 Q189.815 721.852 191.621 718.311 Q193.45 714.746 193.45 707.639 Q193.45 700.51 191.621 696.968 Q189.815 693.403 186.181 693.403 M186.181 689.7 Q191.991 689.7 195.047 694.306 Q198.125 698.889 198.125 707.639 Q198.125 716.366 195.047 720.973 Q191.991 725.556 186.181 725.556 Q180.371 725.556 177.292 720.973 Q174.237 716.366 174.237 707.639 Q174.237 698.889 177.292 694.306 Q180.371 689.7 186.181 689.7 Z" fill="#000000" fill-rule="nonzero" fill-opacity="1" /><path clip-path="url(#clip370)" d="M119.885 526.239 L136.204 526.239 L136.204 530.174 L114.26 530.174 L114.26 526.239 Q116.922 523.484 121.505 518.854 Q126.112 514.202 127.292 512.859 Q129.538 510.336 130.417 508.6 Q131.32 506.841 131.32 505.151 Q131.32 502.396 129.376 500.66 Q127.455 498.924 124.353 498.924 Q122.154 498.924 119.7 499.688 Q117.269 500.452 114.492 502.003 L114.492 497.28 Q117.316 496.146 119.769 495.567 Q122.223 494.989 124.26 494.989 Q129.63 494.989 132.825 497.674 Q136.019 500.359 136.019 504.85 Q136.019 506.979 135.209 508.901 Q134.422 510.799 132.316 513.391 Q131.737 514.063 128.635 517.28 Q125.533 520.475 119.885 526.239 Z" fill="#000000" fill-rule="nonzero" fill-opacity="1" /><path clip-path="url(#clip370)" d="M146.066 495.614 L164.422 495.614 L164.422 499.549 L150.348 499.549 L150.348 508.021 Q151.366 507.674 152.385 507.512 Q153.403 507.327 154.422 507.327 Q160.209 507.327 163.589 510.498 Q166.968 513.669 166.968 519.086 Q166.968 524.665 163.496 527.766 Q160.024 530.845 153.704 530.845 Q151.528 530.845 149.26 530.475 Q147.015 530.104 144.607 529.364 L144.607 524.665 Q146.691 525.799 148.913 526.354 Q151.135 526.91 153.612 526.91 Q157.616 526.91 159.954 524.803 Q162.292 522.697 162.292 519.086 Q162.292 515.475 159.954 513.368 Q157.616 511.262 153.612 511.262 Q151.737 511.262 149.862 511.678 Q148.01 512.095 146.066 512.975 L146.066 495.614 Z" fill="#000000" fill-rule="nonzero" fill-opacity="1" /><path clip-path="url(#clip370)" d="M186.181 498.692 Q182.57 498.692 180.741 502.257 Q178.936 505.799 178.936 512.928 Q178.936 520.035 180.741 523.6 Q182.57 527.141 186.181 527.141 Q189.815 527.141 191.621 523.6 Q193.45 520.035 193.45 512.928 Q193.45 505.799 191.621 502.257 Q189.815 498.692 186.181 498.692 M186.181 494.989 Q191.991 494.989 195.047 499.595 Q198.125 504.179 198.125 512.928 Q198.125 521.655 195.047 526.262 Q191.991 530.845 186.181 530.845 Q180.371 530.845 177.292 526.262 Q174.237 521.655 174.237 512.928 Q174.237 504.179 177.292 499.595 Q180.371 494.989 186.181 494.989 Z" fill="#000000" fill-rule="nonzero" fill-opacity="1" /><path clip-path="url(#clip370)" d="M130.024 316.829 Q133.38 317.546 135.255 319.815 Q137.154 322.083 137.154 325.417 Q137.154 330.532 133.635 333.333 Q130.117 336.134 123.635 336.134 Q121.459 336.134 119.144 335.694 Q116.853 335.278 114.399 334.421 L114.399 329.907 Q116.343 331.042 118.658 331.62 Q120.973 332.199 123.496 332.199 Q127.894 332.199 130.186 330.463 Q132.501 328.727 132.501 325.417 Q132.501 322.361 130.348 320.648 Q128.218 318.912 124.399 318.912 L120.371 318.912 L120.371 315.07 L124.584 315.07 Q128.033 315.07 129.862 313.704 Q131.691 312.315 131.691 309.722 Q131.691 307.06 129.792 305.648 Q127.917 304.213 124.399 304.213 Q122.478 304.213 120.279 304.63 Q118.08 305.046 115.441 305.926 L115.441 301.759 Q118.103 301.019 120.418 300.648 Q122.755 300.278 124.816 300.278 Q130.14 300.278 133.242 302.708 Q136.343 305.116 136.343 309.236 Q136.343 312.107 134.7 314.097 Q133.056 316.065 130.024 316.829 Z" fill="#000000" fill-rule="nonzero" fill-opacity="1" /><path clip-path="url(#clip370)" d="M156.019 303.982 Q152.408 303.982 150.579 307.546 Q148.774 311.088 148.774 318.218 Q148.774 325.324 150.579 328.889 Q152.408 332.431 156.019 332.431 Q159.653 332.431 161.459 328.889 Q163.288 325.324 163.288 318.218 Q163.288 311.088 161.459 307.546 Q159.653 303.982 156.019 303.982 M156.019 300.278 Q161.829 300.278 164.885 304.884 Q167.964 309.468 167.964 318.218 Q167.964 326.944 164.885 331.551 Q161.829 336.134 156.019 336.134 Q150.209 336.134 147.13 331.551 Q144.075 326.944 144.075 318.218 Q144.075 309.468 147.13 304.884 Q150.209 300.278 156.019 300.278 Z" fill="#000000" fill-rule="nonzero" fill-opacity="1" /><path clip-path="url(#clip370)" d="M186.181 303.982 Q182.57 303.982 180.741 307.546 Q178.936 311.088 178.936 318.218 Q178.936 325.324 180.741 328.889 Q182.57 332.431 186.181 332.431 Q189.815 332.431 191.621 328.889 Q193.45 325.324 193.45 318.218 Q193.45 311.088 191.621 307.546 Q189.815 303.982 186.181 303.982 M186.181 300.278 Q191.991 300.278 195.047 304.884 Q198.125 309.468 198.125 318.218 Q198.125 326.944 195.047 331.551 Q191.991 336.134 186.181 336.134 Q180.371 336.134 177.292 331.551 Q174.237 326.944 174.237 318.218 Q174.237 309.468 177.292 304.884 Q180.371 300.278 186.181 300.278 Z" fill="#000000" fill-rule="nonzero" fill-opacity="1" /><path clip-path="url(#clip370)" d="M130.024 122.118 Q133.38 122.836 135.255 125.104 Q137.154 127.373 137.154 130.706 Q137.154 135.822 133.635 138.623 Q130.117 141.423 123.635 141.423 Q121.459 141.423 119.144 140.984 Q116.853 140.567 114.399 139.71 L114.399 135.197 Q116.343 136.331 118.658 136.91 Q120.973 137.488 123.496 137.488 Q127.894 137.488 130.186 135.752 Q132.501 134.016 132.501 130.706 Q132.501 127.65 130.348 125.937 Q128.218 124.201 124.399 124.201 L120.371 124.201 L120.371 120.359 L124.584 120.359 Q128.033 120.359 129.862 118.993 Q131.691 117.604 131.691 115.012 Q131.691 112.35 129.792 110.937 Q127.917 109.502 124.399 109.502 Q122.478 109.502 120.279 109.919 Q118.08 110.336 115.441 111.215 L115.441 107.049 Q118.103 106.308 120.418 105.937 Q122.755 105.567 124.816 105.567 Q130.14 105.567 133.242 107.998 Q136.343 110.405 136.343 114.525 Q136.343 117.396 134.7 119.386 Q133.056 121.354 130.024 122.118 Z" fill="#000000" fill-rule="nonzero" fill-opacity="1" /><path clip-path="url(#clip370)" d="M146.066 106.192 L164.422 106.192 L164.422 110.127 L150.348 110.127 L150.348 118.599 Q151.366 118.252 152.385 118.09 Q153.403 117.905 154.422 117.905 Q160.209 117.905 163.589 121.076 Q166.968 124.248 166.968 129.664 Q166.968 135.243 163.496 138.345 Q160.024 141.423 153.704 141.423 Q151.528 141.423 149.26 141.053 Q147.015 140.683 144.607 139.942 L144.607 135.243 Q146.691 136.377 148.913 136.933 Q151.135 137.488 153.612 137.488 Q157.616 137.488 159.954 135.382 Q162.292 133.275 162.292 129.664 Q162.292 126.053 159.954 123.947 Q157.616 121.84 153.612 121.84 Q151.737 121.84 149.862 122.257 Q148.01 122.674 146.066 123.553 L146.066 106.192 Z" fill="#000000" fill-rule="nonzero" fill-opacity="1" /><path clip-path="url(#clip370)" d="M186.181 109.271 Q182.57 109.271 180.741 112.836 Q178.936 116.377 178.936 123.507 Q178.936 130.613 180.741 134.178 Q182.57 137.72 186.181 137.72 Q189.815 137.72 191.621 134.178 Q193.45 130.613 193.45 123.507 Q193.45 116.377 191.621 112.836 Q189.815 109.271 186.181 109.271 M186.181 105.567 Q191.991 105.567 195.047 110.174 Q198.125 114.757 198.125 123.507 Q198.125 132.234 195.047 136.84 Q191.991 141.423 186.181 141.423 Q180.371 141.423 177.292 136.84 Q174.237 132.234 174.237 123.507 Q174.237 114.757 177.292 110.174 Q180.371 105.567 186.181 105.567 Z" fill="#000000" fill-rule="nonzero" fill-opacity="1" /><path clip-path="url(#clip370)" d="M58.5933 1002.42 L58.5933 979.985 L64.0042 979.985 L64.0042 1010.16 L58.5933 1010.16 Q54.8057 1006.5 48.44 1000.2 Q42.0425 993.862 40.1964 992.239 Q36.7271 989.152 34.34 987.942 Q31.921 986.701 29.5975 986.701 Q25.8099 986.701 23.4228 989.375 Q21.0356 992.016 21.0356 996.281 Q21.0356 999.305 22.086 1002.68 Q23.1363 1006.02 25.2688 1009.84 L18.7758 1009.84 Q17.2162 1005.96 16.4205 1002.58 Q15.6248 999.21 15.6248 996.409 Q15.6248 989.024 19.3169 984.632 Q23.009 980.24 29.1837 980.24 Q32.112 980.24 34.7537 981.354 Q37.3637 982.436 40.9285 985.332 Q41.8515 986.128 46.2757 990.393 Q50.668 994.658 58.5933 1002.42 Z" fill="#000000" fill-rule="nonzero" fill-opacity="1" /><path clip-path="url(#clip370)" d="M20.7174 952.74 Q20.7174 957.705 25.6189 960.22 Q30.4887 962.702 40.2919 962.702 Q50.0633 962.702 54.9649 960.22 Q59.8346 957.705 59.8346 952.74 Q59.8346 947.743 54.9649 945.26 Q50.0633 942.746 40.2919 942.746 Q30.4887 942.746 25.6189 945.26 Q20.7174 947.743 20.7174 952.74 M15.6248 952.74 Q15.6248 944.751 21.9587 940.55 Q28.2607 936.316 40.2919 936.316 Q52.2913 936.316 58.6251 940.55 Q64.9272 944.751 64.9272 952.74 Q64.9272 960.729 58.6251 964.962 Q52.2913 969.163 40.2919 969.163 Q28.2607 969.163 21.9587 964.962 Q15.6248 960.729 15.6248 952.74 Z" fill="#000000" fill-rule="nonzero" fill-opacity="1" /><path clip-path="url(#clip370)" d="M58.5933 923.903 L58.5933 913.4 L22.3406 913.4 L24.6323 924.826 L18.7758 924.826 L16.4842 913.463 L16.4842 907.034 L58.5933 907.034 L58.5933 896.531 L64.0042 896.531 L64.0042 923.903 L58.5933 923.903 Z" fill="#000000" fill-rule="nonzero" fill-opacity="1" /><path clip-path="url(#clip370)" d="M63.0175 883.354 L57.161 883.354 Q58.3069 880.935 58.9116 878.452 Q59.5163 875.969 59.5163 873.582 Q59.5163 867.217 55.2513 863.875 Q50.9545 860.501 42.2334 860.023 Q44.9707 861.869 46.4348 864.702 Q47.8989 867.535 47.8989 870.972 Q47.8989 878.102 43.6021 882.272 Q39.2734 886.409 31.7937 886.409 Q24.4731 886.409 20.049 882.081 Q15.6248 877.752 15.6248 870.559 Q15.6248 862.315 21.9587 857.986 Q28.2607 853.626 40.2919 853.626 Q51.5274 853.626 58.2432 858.973 Q64.9272 864.288 64.9272 873.296 Q64.9272 875.715 64.4498 878.197 Q63.9723 880.68 63.0175 883.354 M42.87 870.559 Q42.87 866.23 39.91 863.715 Q36.9499 861.169 31.7937 861.169 Q26.6693 861.169 23.7092 863.715 Q20.7174 866.23 20.7174 870.559 Q20.7174 874.887 23.7092 877.434 Q26.6693 879.948 31.7937 879.948 Q36.9499 879.948 39.91 877.434 Q42.87 874.887 42.87 870.559 Z" fill="#000000" fill-rule="nonzero" fill-opacity="1" /><path clip-path="url(#clip370)" d="M73.5845 827.017 L73.5845 830.2 L64.0042 830.232 Q63.9405 833.574 63.2403 836.916 Q62.5082 840.258 61.0759 843.632 L55.3468 843.632 Q57.3838 840.385 58.4342 837.075 Q59.4527 833.733 59.4845 830.2 L44.9707 830.2 Q43.8249 837.234 41.0876 840.449 Q38.3504 843.632 33.5761 843.632 Q28.388 843.632 25.3961 840.162 Q22.4043 836.693 21.9587 830.2 L14.479 830.2 L14.479 827.017 L21.8632 827.017 Q21.9905 824.057 22.4998 821.288 Q22.9772 818.519 23.8365 815.877 L29.4065 815.877 Q28.0697 818.519 27.3377 821.32 Q26.6056 824.089 26.4783 827.017 L40.0691 827.017 Q41.1831 819.792 44.0477 816.386 Q46.9122 812.981 51.8775 812.981 Q57.2565 812.981 60.3757 816.609 Q63.4631 820.206 63.9405 827.017 L73.5845 827.017 M39.4962 830.2 L26.4465 830.2 Q26.8603 833.892 28.5472 835.834 Q30.2341 837.775 33.035 837.775 Q35.7722 837.775 37.3 835.993 Q38.8278 834.179 39.4962 830.2 M45.6073 827.017 L59.389 827.017 Q58.8479 822.975 57.0974 820.938 Q55.3468 818.869 52.4822 818.869 Q49.6813 818.869 48.0262 820.842 Q46.3712 822.784 45.6073 827.017 Z" fill="#000000" fill-rule="nonzero" fill-opacity="1" /><path clip-path="url(#clip370)" d="M16.4842 770.299 L16.4842 764.888 L70.0516 781.439 L70.0516 786.85 L16.4842 770.299 Z" fill="#000000" fill-rule="nonzero" fill-opacity="1" /><path clip-path="url(#clip370)" d="M18.2347 732.232 L28.3562 732.232 L28.3562 720.169 L32.9077 720.169 L32.9077 732.232 L52.2594 732.232 Q56.6199 732.232 57.8613 731.054 Q59.1026 729.845 59.1026 726.184 L59.1026 720.169 L64.0042 720.169 L64.0042 726.184 Q64.0042 732.964 61.4897 735.542 Q58.9434 738.12 52.2594 738.12 L32.9077 738.12 L32.9077 742.417 L28.3562 742.417 L28.3562 738.12 L18.2347 738.12 L18.2347 732.232 Z" fill="#000000" fill-rule="nonzero" fill-opacity="1" /><path clip-path="url(#clip370)" d="M20.1444 676.627 L26.9239 676.627 Q23.9002 679.874 22.4043 683.566 Q20.9083 687.226 20.9083 691.364 Q20.9083 699.512 25.9054 703.841 Q30.8707 708.169 40.2919 708.169 Q49.6813 708.169 54.6784 703.841 Q59.6436 699.512 59.6436 691.364 Q59.6436 687.226 58.1477 683.566 Q56.6518 679.874 53.6281 676.627 L60.3439 676.627 Q62.6355 680.001 63.7814 683.789 Q64.9272 687.545 64.9272 691.746 Q64.9272 702.536 58.3387 708.742 Q51.7183 714.949 40.2919 714.949 Q28.8336 714.949 22.2451 708.742 Q15.6248 702.536 15.6248 691.746 Q15.6248 687.481 16.7706 683.725 Q17.8846 679.938 20.1444 676.627 Z" fill="#000000" fill-rule="nonzero" fill-opacity="1" /><path clip-path="url(#clip370)" d="M20.8447 647.409 Q20.8447 654.411 26.0645 658.549 Q31.2844 662.655 40.2919 662.655 Q49.2675 662.655 54.4874 658.549 Q59.7073 654.411 59.7073 647.409 Q59.7073 640.406 54.4874 636.332 Q49.2675 632.227 40.2919 632.227 Q31.2844 632.227 26.0645 636.332 Q20.8447 640.406 20.8447 647.409 M15.6248 647.409 Q15.6248 637.415 22.3406 631.431 Q29.0246 625.447 40.2919 625.447 Q51.5274 625.447 58.2432 631.431 Q64.9272 637.415 64.9272 647.409 Q64.9272 657.435 58.2432 663.45 Q51.5592 669.434 40.2919 669.434 Q29.0246 669.434 22.3406 663.45 Q15.6248 657.435 15.6248 647.409 Z" fill="#000000" fill-rule="nonzero" fill-opacity="1" /><path clip-path="url(#clip370)" d="M60.3757 613.257 L60.3757 599.761 L64.0042 599.761 L64.0042 618.795 L60.503 618.795 Q59.5163 617.713 57.7339 615.708 Q48.0262 604.759 45.0344 604.759 Q42.9337 604.759 41.6605 606.414 Q40.3556 608.069 40.3556 610.774 Q40.3556 612.429 40.9285 614.371 Q41.4696 616.312 42.5836 618.604 L38.6686 618.604 Q37.7774 616.153 37.3318 614.052 Q36.8862 611.92 36.8862 610.106 Q36.8862 605.491 38.9869 602.722 Q41.0876 599.952 44.5251 599.952 Q48.9493 599.952 57.9886 610.488 Q59.5163 612.27 60.3757 613.257 Z" fill="#000000" fill-rule="nonzero" fill-opacity="1" /><path clip-path="url(#clip370)" d="M1080.89 16.7545 L1080.89 25.383 Q1076.76 21.5346 1072.06 19.6307 Q1067.4 17.7268 1062.13 17.7268 Q1051.76 17.7268 1046.25 24.0867 Q1040.75 30.4061 1040.75 42.3968 Q1040.75 54.3469 1046.25 60.7069 Q1051.76 67.0263 1062.13 67.0263 Q1067.4 67.0263 1072.06 65.1223 Q1076.76 63.2184 1080.89 59.3701 L1080.89 67.9175 Q1076.6 70.8341 1071.78 72.2924 Q1067 73.7508 1061.65 73.7508 Q1047.92 73.7508 1040.02 65.3654 Q1032.12 56.9395 1032.12 42.3968 Q1032.12 27.8135 1040.02 19.4281 Q1047.92 11.0023 1061.65 11.0023 Q1067.08 11.0023 1071.86 12.4606 Q1076.68 13.8784 1080.89 16.7545 Z" fill="#000000" fill-rule="nonzero" fill-opacity="1" /><path clip-path="url(#clip370)" d="M1113.82 49.7694 Q1104.79 49.7694 1101.31 51.8354 Q1097.82 53.9013 1097.82 58.8839 Q1097.82 62.8538 1100.42 65.2034 Q1103.05 67.5124 1107.54 67.5124 Q1113.74 67.5124 1117.47 63.1374 Q1121.24 58.7219 1121.24 51.4303 L1121.24 49.7694 L1113.82 49.7694 M1128.69 46.6907 L1128.69 72.576 L1121.24 72.576 L1121.24 65.6895 Q1118.68 69.8214 1114.88 71.8063 Q1111.07 73.7508 1105.56 73.7508 Q1098.59 73.7508 1094.46 69.8619 Q1090.37 65.9325 1090.37 59.3701 Q1090.37 51.7138 1095.47 47.825 Q1100.62 43.9361 1110.79 43.9361 L1121.24 43.9361 L1121.24 43.2069 Q1121.24 38.0623 1117.83 35.2672 Q1114.47 32.4315 1108.35 32.4315 Q1104.47 32.4315 1100.78 33.3632 Q1097.09 34.295 1093.69 36.1584 L1093.69 29.2718 Q1097.78 27.692 1101.63 26.9223 Q1105.48 26.1121 1109.12 26.1121 Q1118.97 26.1121 1123.83 31.2163 Q1128.69 36.3204 1128.69 46.6907 Z" fill="#000000" fill-rule="nonzero" fill-opacity="1" /><path clip-path="url(#clip370)" d="M1170.33 34.1734 Q1169.08 33.4443 1167.58 33.1202 Q1166.12 32.7556 1164.34 32.7556 Q1158.02 32.7556 1154.62 36.8875 Q1151.25 40.9789 1151.25 48.6757 L1151.25 72.576 L1143.76 72.576 L1143.76 27.2059 L1151.25 27.2059 L1151.25 34.2544 Q1153.6 30.1225 1157.37 28.1376 Q1161.14 26.1121 1166.53 26.1121 Q1167.3 26.1121 1168.23 26.2337 Q1169.16 26.3147 1170.29 26.5172 L1170.33 34.1734 Z" fill="#000000" fill-rule="nonzero" fill-opacity="1" /><path clip-path="url(#clip370)" d="M1210.72 49.9314 Q1210.72 41.7081 1207.32 37.0496 Q1203.96 32.3505 1198.04 32.3505 Q1192.13 32.3505 1188.72 37.0496 Q1185.36 41.7081 1185.36 49.9314 Q1185.36 58.1548 1188.72 62.8538 Q1192.13 67.5124 1198.04 67.5124 Q1203.96 67.5124 1207.32 62.8538 Q1210.72 58.1548 1210.72 49.9314 M1185.36 34.0924 Q1187.71 30.0415 1191.28 28.0971 Q1194.88 26.1121 1199.86 26.1121 Q1208.13 26.1121 1213.27 32.6746 Q1218.46 39.2371 1218.46 49.9314 Q1218.46 60.6258 1213.27 67.1883 Q1208.13 73.7508 1199.86 73.7508 Q1194.88 73.7508 1191.28 71.8063 Q1187.71 69.8214 1185.36 65.7705 L1185.36 72.576 L1177.87 72.576 L1177.87 9.54393 L1185.36 9.54393 L1185.36 34.0924 Z" fill="#000000" fill-rule="nonzero" fill-opacity="1" /><path clip-path="url(#clip370)" d="M1248.39 32.4315 Q1242.4 32.4315 1238.92 37.1306 Q1235.43 41.7891 1235.43 49.9314 Q1235.43 58.0738 1238.87 62.7728 Q1242.36 67.4314 1248.39 67.4314 Q1254.35 67.4314 1257.83 62.7323 Q1261.32 58.0333 1261.32 49.9314 Q1261.32 41.8701 1257.83 37.1711 Q1254.35 32.4315 1248.39 32.4315 M1248.39 26.1121 Q1258.12 26.1121 1263.67 32.4315 Q1269.22 38.7509 1269.22 49.9314 Q1269.22 61.0714 1263.67 67.4314 Q1258.12 73.7508 1248.39 73.7508 Q1238.63 73.7508 1233.08 67.4314 Q1227.57 61.0714 1227.57 49.9314 Q1227.57 38.7509 1233.08 32.4315 Q1238.63 26.1121 1248.39 26.1121 Z" fill="#000000" fill-rule="nonzero" fill-opacity="1" /><path clip-path="url(#clip370)" d="M1319.29 45.1919 L1319.29 72.576 L1311.83 72.576 L1311.83 45.4349 Q1311.83 38.994 1309.32 35.7938 Q1306.81 32.5936 1301.79 32.5936 Q1295.75 32.5936 1292.27 36.4419 Q1288.78 40.2903 1288.78 46.9338 L1288.78 72.576 L1281.29 72.576 L1281.29 27.2059 L1288.78 27.2059 L1288.78 34.2544 Q1291.46 30.163 1295.06 28.1376 Q1298.71 26.1121 1303.45 26.1121 Q1311.26 26.1121 1315.28 30.9732 Q1319.29 35.7938 1319.29 45.1919 Z" fill="#000000" fill-rule="nonzero" fill-opacity="1" /><path clip-path="url(#clip370)" d="M1367.73 65.7705 L1367.73 89.8329 L1360.24 89.8329 L1360.24 27.2059 L1367.73 27.2059 L1367.73 34.0924 Q1370.08 30.0415 1373.65 28.0971 Q1377.25 26.1121 1382.24 26.1121 Q1390.5 26.1121 1395.64 32.6746 Q1400.83 39.2371 1400.83 49.9314 Q1400.83 60.6258 1395.64 67.1883 Q1390.5 73.7508 1382.24 73.7508 Q1377.25 73.7508 1373.65 71.8063 Q1370.08 69.8214 1367.73 65.7705 M1393.09 49.9314 Q1393.09 41.7081 1389.69 37.0496 Q1386.33 32.3505 1380.41 32.3505 Q1374.5 32.3505 1371.1 37.0496 Q1367.73 41.7081 1367.73 49.9314 Q1367.73 58.1548 1371.1 62.8538 Q1374.5 67.5124 1380.41 67.5124 Q1386.33 67.5124 1389.69 62.8538 Q1393.09 58.1548 1393.09 49.9314 Z" fill="#000000" fill-rule="nonzero" fill-opacity="1" /><path clip-path="url(#clip370)" d="M1439.48 34.1734 Q1438.22 33.4443 1436.72 33.1202 Q1435.26 32.7556 1433.48 32.7556 Q1427.16 32.7556 1423.76 36.8875 Q1420.4 40.9789 1420.4 48.6757 L1420.4 72.576 L1412.9 72.576 L1412.9 27.2059 L1420.4 27.2059 L1420.4 34.2544 Q1422.75 30.1225 1426.51 28.1376 Q1430.28 26.1121 1435.67 26.1121 Q1436.44 26.1121 1437.37 26.2337 Q1438.3 26.3147 1439.44 26.5172 L1439.48 34.1734 Z" fill="#000000" fill-rule="nonzero" fill-opacity="1" /><path clip-path="url(#clip370)" d="M1447.29 27.2059 L1454.75 27.2059 L1454.75 72.576 L1447.29 72.576 L1447.29 27.2059 M1447.29 9.54393 L1454.75 9.54393 L1454.75 18.9825 L1447.29 18.9825 L1447.29 9.54393 Z" fill="#000000" fill-rule="nonzero" fill-opacity="1" /><path clip-path="url(#clip370)" d="M1502.99 28.9478 L1502.99 35.9153 Q1499.83 34.1734 1496.63 33.3227 Q1493.47 32.4315 1490.23 32.4315 Q1482.98 32.4315 1478.97 37.0496 Q1474.96 41.6271 1474.96 49.9314 Q1474.96 58.2358 1478.97 62.8538 Q1482.98 67.4314 1490.23 67.4314 Q1493.47 67.4314 1496.63 66.5807 Q1499.83 65.6895 1502.99 63.9476 L1502.99 70.8341 Q1499.87 72.2924 1496.51 73.0216 Q1493.19 73.7508 1489.42 73.7508 Q1479.17 73.7508 1473.14 67.3098 Q1467.1 60.8689 1467.1 49.9314 Q1467.1 38.832 1473.18 32.472 Q1479.3 26.1121 1489.91 26.1121 Q1493.35 26.1121 1496.63 26.8413 Q1499.92 27.5299 1502.99 28.9478 Z" fill="#000000" fill-rule="nonzero" fill-opacity="1" /><path clip-path="url(#clip370)" d="M1554.76 48.0275 L1554.76 51.6733 L1520.49 51.6733 Q1520.98 59.3701 1525.11 63.421 Q1529.28 67.4314 1536.7 67.4314 Q1540.99 67.4314 1545 66.3781 Q1549.05 65.3249 1553.02 63.2184 L1553.02 70.267 Q1549.01 71.9684 1544.8 72.8596 Q1540.59 73.7508 1536.25 73.7508 Q1525.4 73.7508 1519.04 67.4314 Q1512.72 61.1119 1512.72 50.3365 Q1512.72 39.1965 1518.71 32.6746 Q1524.75 26.1121 1534.96 26.1121 Q1544.11 26.1121 1549.42 32.0264 Q1554.76 37.9003 1554.76 48.0275 M1547.31 45.84 Q1547.23 39.7232 1543.87 36.0774 Q1540.55 32.4315 1535.04 32.4315 Q1528.8 32.4315 1525.03 35.9558 Q1521.3 39.4801 1520.74 45.8805 L1547.31 45.84 Z" fill="#000000" fill-rule="nonzero" fill-opacity="1" /><polyline clip-path="url(#clip372)" style="stroke:#ff0000; stroke-linecap:round; stroke-linejoin:round; stroke-width:4; stroke-opacity:1; fill:none" points="294.087,1464.02 543.925,1421.76 793.764,1236.74 1043.6,1191.65 1293.44,1146.31 1543.28,1095.36 1793.12,1038.34 2042.96,974.79 2292.79,904.263 "/>
<circle clip-path="url(#clip372)" cx="294.087" cy="1464.02" r="14.4" fill="#ffffff" fill-rule="evenodd" fill-opacity="1" stroke="#ff0000" stroke-opacity="1" stroke-width="3.2"/>
<circle clip-path="url(#clip372)" cx="543.925" cy="1421.76" r="14.4" fill="#ffffff" fill-rule="evenodd" fill-opacity="1" stroke="#ff0000" stroke-opacity="1" stroke-width="3.2"/>
<circle clip-path="url(#clip372)" cx="793.764" cy="1236.74" r="14.4" fill="#ffffff" fill-rule="evenodd" fill-opacity="1" stroke="#ff0000" stroke-opacity="1" stroke-width="3.2"/>
<circle clip-path="url(#clip372)" cx="1043.6" cy="1191.65" r="14.4" fill="#ffffff" fill-rule="evenodd" fill-opacity="1" stroke="#ff0000" stroke-opacity="1" stroke-width="3.2"/>
<circle clip-path="url(#clip372)" cx="1293.44" cy="1146.31" r="14.4" fill="#ffffff" fill-rule="evenodd" fill-opacity="1" stroke="#ff0000" stroke-opacity="1" stroke-width="3.2"/>
<circle clip-path="url(#clip372)" cx="1543.28" cy="1095.36" r="14.4" fill="#ffffff" fill-rule="evenodd" fill-opacity="1" stroke="#ff0000" stroke-opacity="1" stroke-width="3.2"/>
<circle clip-path="url(#clip372)" cx="1793.12" cy="1038.34" r="14.4" fill="#ffffff" fill-rule="evenodd" fill-opacity="1" stroke="#ff0000" stroke-opacity="1" stroke-width="3.2"/>
<circle clip-path="url(#clip372)" cx="2042.96" cy="974.79" r="14.4" fill="#ffffff" fill-rule="evenodd" fill-opacity="1" stroke="#ff0000" stroke-opacity="1" stroke-width="3.2"/>
<circle clip-path="url(#clip372)" cx="2292.79" cy="904.263" r="14.4" fill="#ffffff" fill-rule="evenodd" fill-opacity="1" stroke="#ff0000" stroke-opacity="1" stroke-width="3.2"/>
<polyline clip-path="url(#clip372)" style="stroke:#ff8c00; stroke-linecap:round; stroke-linejoin:round; stroke-width:4; stroke-opacity:1; fill:none" stroke-dasharray="16, 10" points="294.087,1464.02 543.925,1431.8 793.764,1392.82 1043.6,1349.65 1293.44,1303.97 1543.28,1271.53 1793.12,1239.61 2042.96,1195.74 2292.79,1149.54 "/>
<line clip-path="url(#clip372)" x1="294.087" y1="1464.02" x2="294.087" y2="1448.02" style="stroke:#ff8c00; stroke-width:4; stroke-opacity:1"/>
<line clip-path="url(#clip372)" x1="294.087" y1="1464.02" x2="278.087" y2="1464.02" style="stroke:#ff8c00; stroke-width:4; stroke-opacity:1"/>
<line clip-path="url(#clip372)" x1="294.087" y1="1464.02" x2="294.087" y2="1480.02" style="stroke:#ff8c00; stroke-width:4; stroke-opacity:1"/>
<line clip-path="url(#clip372)" x1="294.087" y1="1464.02" x2="310.087" y2="1464.02" style="stroke:#ff8c00; stroke-width:4; stroke-opacity:1"/>
<line clip-path="url(#clip372)" x1="543.925" y1="1431.8" x2="543.925" y2="1415.8" style="stroke:#ff8c00; stroke-width:4; stroke-opacity:1"/>
<line clip-path="url(#clip372)" x1="543.925" y1="1431.8" x2="527.925" y2="1431.8" style="stroke:#ff8c00; stroke-width:4; stroke-opacity:1"/>
<line clip-path="url(#clip372)" x1="543.925" y1="1431.8" x2="543.925" y2="1447.8" style="stroke:#ff8c00; stroke-width:4; stroke-opacity:1"/>
<line clip-path="url(#clip372)" x1="543.925" y1="1431.8" x2="559.925" y2="1431.8" style="stroke:#ff8c00; stroke-width:4; stroke-opacity:1"/>
<line clip-path="url(#clip372)" x1="793.764" y1="1392.82" x2="793.764" y2="1376.82" style="stroke:#ff8c00; stroke-width:4; stroke-opacity:1"/>
<line clip-path="url(#clip372)" x1="793.764" y1="1392.82" x2="777.764" y2="1392.82" style="stroke:#ff8c00; stroke-width:4; stroke-opacity:1"/>
<line clip-path="url(#clip372)" x1="793.764" y1="1392.82" x2="793.764" y2="1408.82" style="stroke:#ff8c00; stroke-width:4; stroke-opacity:1"/>
<line clip-path="url(#clip372)" x1="793.764" y1="1392.82" x2="809.764" y2="1392.82" style="stroke:#ff8c00; stroke-width:4; stroke-opacity:1"/>
<line clip-path="url(#clip372)" x1="1043.6" y1="1349.65" x2="1043.6" y2="1333.65" style="stroke:#ff8c00; stroke-width:4; stroke-opacity:1"/>
<line clip-path="url(#clip372)" x1="1043.6" y1="1349.65" x2="1027.6" y2="1349.65" style="stroke:#ff8c00; stroke-width:4; stroke-opacity:1"/>
<line clip-path="url(#clip372)" x1="1043.6" y1="1349.65" x2="1043.6" y2="1365.65" style="stroke:#ff8c00; stroke-width:4; stroke-opacity:1"/>
<line clip-path="url(#clip372)" x1="1043.6" y1="1349.65" x2="1059.6" y2="1349.65" style="stroke:#ff8c00; stroke-width:4; stroke-opacity:1"/>
<line clip-path="url(#clip372)" x1="1293.44" y1="1303.97" x2="1293.44" y2="1287.97" style="stroke:#ff8c00; stroke-width:4; stroke-opacity:1"/>
<line clip-path="url(#clip372)" x1="1293.44" y1="1303.97" x2="1277.44" y2="1303.97" style="stroke:#ff8c00; stroke-width:4; stroke-opacity:1"/>
<line clip-path="url(#clip372)" x1="1293.44" y1="1303.97" x2="1293.44" y2="1319.97" style="stroke:#ff8c00; stroke-width:4; stroke-opacity:1"/>
<line clip-path="url(#clip372)" x1="1293.44" y1="1303.97" x2="1309.44" y2="1303.97" style="stroke:#ff8c00; stroke-width:4; stroke-opacity:1"/>
<line clip-path="url(#clip372)" x1="1543.28" y1="1271.53" x2="1543.28" y2="1255.53" style="stroke:#ff8c00; stroke-width:4; stroke-opacity:1"/>
<line clip-path="url(#clip372)" x1="1543.28" y1="1271.53" x2="1527.28" y2="1271.53" style="stroke:#ff8c00; stroke-width:4; stroke-opacity:1"/>
<line clip-path="url(#clip372)" x1="1543.28" y1="1271.53" x2="1543.28" y2="1287.53" style="stroke:#ff8c00; stroke-width:4; stroke-opacity:1"/>
<line clip-path="url(#clip372)" x1="1543.28" y1="1271.53" x2="1559.28" y2="1271.53" style="stroke:#ff8c00; stroke-width:4; stroke-opacity:1"/>
<line clip-path="url(#clip372)" x1="1793.12" y1="1239.61" x2="1793.12" y2="1223.61" style="stroke:#ff8c00; stroke-width:4; stroke-opacity:1"/>
<line clip-path="url(#clip372)" x1="1793.12" y1="1239.61" x2="1777.12" y2="1239.61" style="stroke:#ff8c00; stroke-width:4; stroke-opacity:1"/>
<line clip-path="url(#clip372)" x1="1793.12" y1="1239.61" x2="1793.12" y2="1255.61" style="stroke:#ff8c00; stroke-width:4; stroke-opacity:1"/>
<line clip-path="url(#clip372)" x1="1793.12" y1="1239.61" x2="1809.12" y2="1239.61" style="stroke:#ff8c00; stroke-width:4; stroke-opacity:1"/>
<line clip-path="url(#clip372)" x1="2042.96" y1="1195.74" x2="2042.96" y2="1179.74" style="stroke:#ff8c00; stroke-width:4; stroke-opacity:1"/>
<line clip-path="url(#clip372)" x1="2042.96" y1="1195.74" x2="2026.96" y2="1195.74" style="stroke:#ff8c00; stroke-width:4; stroke-opacity:1"/>
<line clip-path="url(#clip372)" x1="2042.96" y1="1195.74" x2="2042.96" y2="1211.74" style="stroke:#ff8c00; stroke-width:4; stroke-opacity:1"/>
<line clip-path="url(#clip372)" x1="2042.96" y1="1195.74" x2="2058.96" y2="1195.74" style="stroke:#ff8c00; stroke-width:4; stroke-opacity:1"/>
<line clip-path="url(#clip372)" x1="2292.79" y1="1149.54" x2="2292.79" y2="1133.54" style="stroke:#ff8c00; stroke-width:4; stroke-opacity:1"/>
<line clip-path="url(#clip372)" x1="2292.79" y1="1149.54" x2="2276.79" y2="1149.54" style="stroke:#ff8c00; stroke-width:4; stroke-opacity:1"/>
<line clip-path="url(#clip372)" x1="2292.79" y1="1149.54" x2="2292.79" y2="1165.54" style="stroke:#ff8c00; stroke-width:4; stroke-opacity:1"/>
<line clip-path="url(#clip372)" x1="2292.79" y1="1149.54" x2="2308.79" y2="1149.54" style="stroke:#ff8c00; stroke-width:4; stroke-opacity:1"/>
<polyline clip-path="url(#clip372)" style="stroke:#008000; stroke-linecap:round; stroke-linejoin:round; stroke-width:4; stroke-opacity:1; fill:none" stroke-dasharray="16, 10" points="294.087,1464.02 543.925,1421.76 793.764,1236.74 1043.6,1032.03 1293.44,937.47 1543.28,833.546 1793.12,709.443 2042.96,561.01 2292.79,383.196 "/>
<line clip-path="url(#clip372)" x1="294.087" y1="1464.02" x2="294.087" y2="1448.02" style="stroke:#008000; stroke-width:4; stroke-opacity:1"/>
<line clip-path="url(#clip372)" x1="294.087" y1="1464.02" x2="278.087" y2="1464.02" style="stroke:#008000; stroke-width:4; stroke-opacity:1"/>
<line clip-path="url(#clip372)" x1="294.087" y1="1464.02" x2="294.087" y2="1480.02" style="stroke:#008000; stroke-width:4; stroke-opacity:1"/>
<line clip-path="url(#clip372)" x1="294.087" y1="1464.02" x2="310.087" y2="1464.02" style="stroke:#008000; stroke-width:4; stroke-opacity:1"/>
<line clip-path="url(#clip372)" x1="543.925" y1="1421.76" x2="543.925" y2="1405.76" style="stroke:#008000; stroke-width:4; stroke-opacity:1"/>
<line clip-path="url(#clip372)" x1="543.925" y1="1421.76" x2="527.925" y2="1421.76" style="stroke:#008000; stroke-width:4; stroke-opacity:1"/>
<line clip-path="url(#clip372)" x1="543.925" y1="1421.76" x2="543.925" y2="1437.76" style="stroke:#008000; stroke-width:4; stroke-opacity:1"/>
<line clip-path="url(#clip372)" x1="543.925" y1="1421.76" x2="559.925" y2="1421.76" style="stroke:#008000; stroke-width:4; stroke-opacity:1"/>
<line clip-path="url(#clip372)" x1="793.764" y1="1236.74" x2="793.764" y2="1220.74" style="stroke:#008000; stroke-width:4; stroke-opacity:1"/>
<line clip-path="url(#clip372)" x1="793.764" y1="1236.74" x2="777.764" y2="1236.74" style="stroke:#008000; stroke-width:4; stroke-opacity:1"/>
<line clip-path="url(#clip372)" x1="793.764" y1="1236.74" x2="793.764" y2="1252.74" style="stroke:#008000; stroke-width:4; stroke-opacity:1"/>
<line clip-path="url(#clip372)" x1="793.764" y1="1236.74" x2="809.764" y2="1236.74" style="stroke:#008000; stroke-width:4; stroke-opacity:1"/>
<line clip-path="url(#clip372)" x1="1043.6" y1="1032.03" x2="1043.6" y2="1016.03" style="stroke:#008000; stroke-width:4; stroke-opacity:1"/>
<line clip-path="url(#clip372)" x1="1043.6" y1="1032.03" x2="1027.6" y2="1032.03" style="stroke:#008000; stroke-width:4; stroke-opacity:1"/>
<line clip-path="url(#clip372)" x1="1043.6" y1="1032.03" x2="1043.6" y2="1048.03" style="stroke:#008000; stroke-width:4; stroke-opacity:1"/>
<line clip-path="url(#clip372)" x1="1043.6" y1="1032.03" x2="1059.6" y2="1032.03" style="stroke:#008000; stroke-width:4; stroke-opacity:1"/>
<line clip-path="url(#clip372)" x1="1293.44" y1="937.47" x2="1293.44" y2="921.47" style="stroke:#008000; stroke-width:4; stroke-opacity:1"/>
<line clip-path="url(#clip372)" x1="1293.44" y1="937.47" x2="1277.44" y2="937.47" style="stroke:#008000; stroke-width:4; stroke-opacity:1"/>
<line clip-path="url(#clip372)" x1="1293.44" y1="937.47" x2="1293.44" y2="953.47" style="stroke:#008000; stroke-width:4; stroke-opacity:1"/>
<line clip-path="url(#clip372)" x1="1293.44" y1="937.47" x2="1309.44" y2="937.47" style="stroke:#008000; stroke-width:4; stroke-opacity:1"/>
<line clip-path="url(#clip372)" x1="1543.28" y1="833.546" x2="1543.28" y2="817.546" style="stroke:#008000; stroke-width:4; stroke-opacity:1"/>
<line clip-path="url(#clip372)" x1="1543.28" y1="833.546" x2="1527.28" y2="833.546" style="stroke:#008000; stroke-width:4; stroke-opacity:1"/>
<line clip-path="url(#clip372)" x1="1543.28" y1="833.546" x2="1543.28" y2="849.546" style="stroke:#008000; stroke-width:4; stroke-opacity:1"/>
<line clip-path="url(#clip372)" x1="1543.28" y1="833.546" x2="1559.28" y2="833.546" style="stroke:#008000; stroke-width:4; stroke-opacity:1"/>
<line clip-path="url(#clip372)" x1="1793.12" y1="709.443" x2="1793.12" y2="693.443" style="stroke:#008000; stroke-width:4; stroke-opacity:1"/>
<line clip-path="url(#clip372)" x1="1793.12" y1="709.443" x2="1777.12" y2="709.443" style="stroke:#008000; stroke-width:4; stroke-opacity:1"/>
<line clip-path="url(#clip372)" x1="1793.12" y1="709.443" x2="1793.12" y2="725.443" style="stroke:#008000; stroke-width:4; stroke-opacity:1"/>
<line clip-path="url(#clip372)" x1="1793.12" y1="709.443" x2="1809.12" y2="709.443" style="stroke:#008000; stroke-width:4; stroke-opacity:1"/>
<line clip-path="url(#clip372)" x1="2042.96" y1="561.01" x2="2042.96" y2="545.01" style="stroke:#008000; stroke-width:4; stroke-opacity:1"/>
<line clip-path="url(#clip372)" x1="2042.96" y1="561.01" x2="2026.96" y2="561.01" style="stroke:#008000; stroke-width:4; stroke-opacity:1"/>
<line clip-path="url(#clip372)" x1="2042.96" y1="561.01" x2="2042.96" y2="577.01" style="stroke:#008000; stroke-width:4; stroke-opacity:1"/>
<line clip-path="url(#clip372)" x1="2042.96" y1="561.01" x2="2058.96" y2="561.01" style="stroke:#008000; stroke-width:4; stroke-opacity:1"/>
<line clip-path="url(#clip372)" x1="2292.79" y1="383.196" x2="2292.79" y2="367.196" style="stroke:#008000; stroke-width:4; stroke-opacity:1"/>
<line clip-path="url(#clip372)" x1="2292.79" y1="383.196" x2="2276.79" y2="383.196" style="stroke:#008000; stroke-width:4; stroke-opacity:1"/>
<line clip-path="url(#clip372)" x1="2292.79" y1="383.196" x2="2292.79" y2="399.196" style="stroke:#008000; stroke-width:4; stroke-opacity:1"/>
<line clip-path="url(#clip372)" x1="2292.79" y1="383.196" x2="2308.79" y2="383.196" style="stroke:#008000; stroke-width:4; stroke-opacity:1"/>
<polyline clip-path="url(#clip372)" style="stroke:#00688b; stroke-linecap:round; stroke-linejoin:round; stroke-width:4; stroke-opacity:1; fill:none" points="294.087,1464.02 543.925,1421.76 793.764,1236.74 1043.6,1035.4 1293.44,987.384 1543.28,934.981 1793.12,877.947 2042.96,816.109 2292.79,749.261 "/>
<path clip-path="url(#clip372)" d="M294.087 1448.02 L278.087 1464.02 L294.087 1480.02 L310.087 1464.02 L294.087 1448.02 Z" fill="#00688b" fill-rule="evenodd" fill-opacity="1" stroke="none"/>
<path clip-path="url(#clip372)" d="M543.925 1405.76 L527.925 1421.76 L543.925 1437.76 L559.925 1421.76 L543.925 1405.76 Z" fill="#00688b" fill-rule="evenodd" fill-opacity="1" stroke="none"/>
<path clip-path="url(#clip372)" d="M793.764 1220.74 L777.764 1236.74 L793.764 1252.74 L809.764 1236.74 L793.764 1220.74 Z" fill="#00688b" fill-rule="evenodd" fill-opacity="1" stroke="none"/>
<path clip-path="url(#clip372)" d="M1043.6 1019.4 L1027.6 1035.4 L1043.6 1051.4 L1059.6 1035.4 L1043.6 1019.4 Z" fill="#00688b" fill-rule="evenodd" fill-opacity="1" stroke="none"/>
<path clip-path="url(#clip372)" d="M1293.44 971.384 L1277.44 987.384 L1293.44 1003.38 L1309.44 987.384 L1293.44 971.384 Z" fill="#00688b" fill-rule="evenodd" fill-opacity="1" stroke="none"/>
<path clip-path="url(#clip372)" d="M1543.28 918.981 L1527.28 934.981 L1543.28 950.981 L1559.28 934.981 L1543.28 918.981 Z" fill="#00688b" fill-rule="evenodd" fill-opacity="1" stroke="none"/>
<path clip-path="url(#clip372)" d="M1793.12 861.947 L1777.12 877.947 L1793.12 893.947 L1809.12 877.947 L1793.12 861.947 Z" fill="#00688b" fill-rule="evenodd" fill-opacity="1" stroke="none"/>
<path clip-path="url(#clip372)" d="M2042.96 800.109 L2026.96 816.109 L2042.96 832.109 L2058.96 816.109 L2042.96 800.109 Z" fill="#00688b" fill-rule="evenodd" fill-opacity="1" stroke="none"/>
<path clip-path="url(#clip372)" d="M2292.79 733.261 L2276.79 749.261 L2292.79 765.261 L2308.79 749.261 L2292.79 733.261 Z" fill="#00688b" fill-rule="evenodd" fill-opacity="1" stroke="none"/>
<path clip-path="url(#clip370)" d="M304.746 428.105 L785.428 428.105 L785.428 168.905 L304.746 168.905  Z" fill="#ffffff" fill-rule="evenodd" fill-opacity="1"/>
<polyline clip-path="url(#clip370)" style="stroke:#000000; stroke-linecap:round; stroke-linejoin:round; stroke-width:4; stroke-opacity:1; fill:none" points="304.746,428.105 785.428,428.105 785.428,168.905 304.746,168.905 304.746,428.105 "/>
<polyline clip-path="url(#clip370)" style="stroke:#ff0000; stroke-linecap:round; stroke-linejoin:round; stroke-width:4; stroke-opacity:1; fill:none" points="328.287,220.745 469.529,220.745 "/>
<circle clip-path="url(#clip370)" cx="398.908" cy="220.745" r="19.6169" fill="#ffffff" fill-rule="evenodd" fill-opacity="1" stroke="#ff0000" stroke-opacity="1" stroke-width="4.55111"/>
<path clip-path="url(#clip370)" d="M520.939 206.127 L520.939 211.057 Q518.578 208.858 515.893 207.77 Q513.231 206.682 510.222 206.682 Q504.296 206.682 501.148 210.316 Q498 213.928 498 220.779 Q498 227.608 501.148 231.242 Q504.296 234.853 510.222 234.853 Q513.231 234.853 515.893 233.765 Q518.578 232.677 520.939 230.478 L520.939 235.363 Q518.486 237.029 515.731 237.863 Q513 238.696 509.944 238.696 Q502.097 238.696 497.583 233.904 Q493.069 229.09 493.069 220.779 Q493.069 212.446 497.583 207.654 Q502.097 202.84 509.944 202.84 Q513.046 202.84 515.777 203.673 Q518.532 204.483 520.939 206.127 Z" fill="#000000" fill-rule="nonzero" fill-opacity="1" /><path clip-path="url(#clip370)" d="M535.546 203.465 L539.481 203.465 L527.444 242.423 L523.509 242.423 L535.546 203.465 Z" fill="#000000" fill-rule="nonzero" fill-opacity="1" /><path clip-path="url(#clip370)" d="M548.81 221.52 L548.81 234.182 L556.31 234.182 Q560.083 234.182 561.888 232.631 Q563.717 231.057 563.717 227.84 Q563.717 224.599 561.888 223.071 Q560.083 221.52 556.31 221.52 L548.81 221.52 M548.81 207.307 L548.81 217.724 L555.731 217.724 Q559.157 217.724 560.823 216.451 Q562.513 215.154 562.513 212.516 Q562.513 209.9 560.823 208.604 Q559.157 207.307 555.731 207.307 L548.81 207.307 M544.134 203.465 L556.078 203.465 Q561.425 203.465 564.319 205.687 Q567.212 207.909 567.212 212.006 Q567.212 215.178 565.731 217.053 Q564.249 218.928 561.379 219.39 Q564.828 220.131 566.726 222.492 Q568.647 224.83 568.647 228.349 Q568.647 232.978 565.499 235.502 Q562.351 238.025 556.541 238.025 L544.134 238.025 L544.134 203.465 Z" fill="#000000" fill-rule="nonzero" fill-opacity="1" /><path clip-path="url(#clip370)" d="M601.587 215.085 Q598.161 215.085 596.17 217.77 Q594.18 220.432 594.18 225.085 Q594.18 229.738 596.147 232.423 Q598.138 235.085 601.587 235.085 Q604.99 235.085 606.981 232.4 Q608.971 229.715 608.971 225.085 Q608.971 220.478 606.981 217.793 Q604.99 215.085 601.587 215.085 M601.587 211.474 Q607.143 211.474 610.314 215.085 Q613.485 218.696 613.485 225.085 Q613.485 231.451 610.314 235.085 Q607.143 238.696 601.587 238.696 Q596.008 238.696 592.837 235.085 Q589.689 231.451 589.689 225.085 Q589.689 218.696 592.837 215.085 Q596.008 211.474 601.587 211.474 Z" fill="#000000" fill-rule="nonzero" fill-opacity="1" /><path clip-path="url(#clip370)" d="M624.666 234.136 L624.666 247.886 L620.383 247.886 L620.383 212.099 L624.666 212.099 L624.666 216.034 Q626.008 213.719 628.045 212.608 Q630.105 211.474 632.953 211.474 Q637.675 211.474 640.615 215.224 Q643.578 218.974 643.578 225.085 Q643.578 231.196 640.615 234.946 Q637.675 238.696 632.953 238.696 Q630.105 238.696 628.045 237.585 Q626.008 236.451 624.666 234.136 M639.156 225.085 Q639.156 220.386 637.212 217.724 Q635.291 215.039 631.911 215.039 Q628.531 215.039 626.587 217.724 Q624.666 220.386 624.666 225.085 Q624.666 229.784 626.587 232.469 Q628.531 235.131 631.911 235.131 Q635.291 235.131 637.212 232.469 Q639.156 229.784 639.156 225.085 Z" fill="#000000" fill-rule="nonzero" fill-opacity="1" /><path clip-path="url(#clip370)" d="M654.851 204.738 L654.851 212.099 L663.624 212.099 L663.624 215.409 L654.851 215.409 L654.851 229.483 Q654.851 232.654 655.707 233.557 Q656.587 234.46 659.249 234.46 L663.624 234.46 L663.624 238.025 L659.249 238.025 Q654.318 238.025 652.443 236.196 Q650.568 234.344 650.568 229.483 L650.568 215.409 L647.443 215.409 L647.443 212.099 L650.568 212.099 L650.568 204.738 L654.851 204.738 Z" fill="#000000" fill-rule="nonzero" fill-opacity="1" /><path clip-path="url(#clip370)" d="M669.226 212.099 L673.485 212.099 L673.485 238.025 L669.226 238.025 L669.226 212.099 M669.226 202.006 L673.485 202.006 L673.485 207.4 L669.226 207.4 L669.226 202.006 Z" fill="#000000" fill-rule="nonzero" fill-opacity="1" /><path clip-path="url(#clip370)" d="M702.582 217.076 Q704.179 214.205 706.401 212.84 Q708.624 211.474 711.633 211.474 Q715.684 211.474 717.883 214.321 Q720.082 217.145 720.082 222.377 L720.082 238.025 L715.799 238.025 L715.799 222.515 Q715.799 218.789 714.48 216.983 Q713.161 215.178 710.452 215.178 Q707.142 215.178 705.221 217.377 Q703.3 219.576 703.3 223.372 L703.3 238.025 L699.017 238.025 L699.017 222.515 Q699.017 218.765 697.698 216.983 Q696.378 215.178 693.624 215.178 Q690.36 215.178 688.438 217.4 Q686.517 219.599 686.517 223.372 L686.517 238.025 L682.235 238.025 L682.235 212.099 L686.517 212.099 L686.517 216.127 Q687.976 213.742 690.013 212.608 Q692.05 211.474 694.85 211.474 Q697.675 211.474 699.642 212.909 Q701.633 214.344 702.582 217.076 Z" fill="#000000" fill-rule="nonzero" fill-opacity="1" /><path clip-path="url(#clip370)" d="M740.36 224.992 Q735.198 224.992 733.207 226.173 Q731.216 227.353 731.216 230.201 Q731.216 232.469 732.698 233.812 Q734.202 235.131 736.772 235.131 Q740.313 235.131 742.443 232.631 Q744.596 230.108 744.596 225.941 L744.596 224.992 L740.36 224.992 M748.855 223.233 L748.855 238.025 L744.596 238.025 L744.596 234.089 Q743.137 236.451 740.961 237.585 Q738.785 238.696 735.637 238.696 Q731.656 238.696 729.295 236.474 Q726.957 234.228 726.957 230.478 Q726.957 226.103 729.873 223.881 Q732.813 221.659 738.623 221.659 L744.596 221.659 L744.596 221.242 Q744.596 218.303 742.651 216.705 Q740.73 215.085 737.235 215.085 Q735.012 215.085 732.906 215.617 Q730.799 216.15 728.855 217.215 L728.855 213.279 Q731.193 212.377 733.392 211.937 Q735.591 211.474 737.674 211.474 Q743.299 211.474 746.077 214.391 Q748.855 217.307 748.855 223.233 Z" fill="#000000" fill-rule="nonzero" fill-opacity="1" /><path clip-path="url(#clip370)" d="M757.628 202.006 L761.887 202.006 L761.887 238.025 L757.628 238.025 L757.628 202.006 Z" fill="#000000" fill-rule="nonzero" fill-opacity="1" /><polyline clip-path="url(#clip370)" style="stroke:#ff8c00; stroke-linecap:round; stroke-linejoin:round; stroke-width:4; stroke-opacity:1; fill:none" stroke-dasharray="16, 10" points="328.287,272.585 469.529,272.585 "/>
<line clip-path="url(#clip370)" x1="398.908" y1="272.585" x2="398.908" y2="250.788" style="stroke:#ff8c00; stroke-width:4.55111; stroke-opacity:1"/>
<line clip-path="url(#clip370)" x1="398.908" y1="272.585" x2="377.111" y2="272.585" style="stroke:#ff8c00; stroke-width:4.55111; stroke-opacity:1"/>
<line clip-path="url(#clip370)" x1="398.908" y1="272.585" x2="398.908" y2="294.381" style="stroke:#ff8c00; stroke-width:4.55111; stroke-opacity:1"/>
<line clip-path="url(#clip370)" x1="398.908" y1="272.585" x2="420.704" y2="272.585" style="stroke:#ff8c00; stroke-width:4.55111; stroke-opacity:1"/>
<path clip-path="url(#clip370)" d="M497.745 259.147 L497.745 272.133 L503.625 272.133 Q506.889 272.133 508.671 270.443 Q510.453 268.754 510.453 265.629 Q510.453 262.527 508.671 260.837 Q506.889 259.147 503.625 259.147 L497.745 259.147 M493.069 255.305 L503.625 255.305 Q509.435 255.305 512.398 257.944 Q515.384 260.559 515.384 265.629 Q515.384 270.744 512.398 273.36 Q509.435 275.976 503.625 275.976 L497.745 275.976 L497.745 289.865 L493.069 289.865 L493.069 255.305 Z" fill="#000000" fill-rule="nonzero" fill-opacity="1" /><path clip-path="url(#clip370)" d="M531.125 276.832 Q525.963 276.832 523.972 278.013 Q521.981 279.193 521.981 282.041 Q521.981 284.309 523.463 285.652 Q524.967 286.971 527.537 286.971 Q531.078 286.971 533.208 284.471 Q535.361 281.948 535.361 277.781 L535.361 276.832 L531.125 276.832 M539.62 275.073 L539.62 289.865 L535.361 289.865 L535.361 285.929 Q533.902 288.291 531.726 289.425 Q529.55 290.536 526.402 290.536 Q522.421 290.536 520.06 288.314 Q517.722 286.068 517.722 282.318 Q517.722 277.943 520.638 275.721 Q523.578 273.499 529.388 273.499 L535.361 273.499 L535.361 273.082 Q535.361 270.143 533.416 268.545 Q531.495 266.925 528 266.925 Q525.777 266.925 523.671 267.457 Q521.564 267.99 519.62 269.055 L519.62 265.119 Q521.958 264.217 524.157 263.777 Q526.356 263.314 528.439 263.314 Q534.064 263.314 536.842 266.231 Q539.62 269.147 539.62 275.073 Z" fill="#000000" fill-rule="nonzero" fill-opacity="1" /><path clip-path="url(#clip370)" d="M563.416 267.92 Q562.698 267.504 561.842 267.318 Q561.009 267.11 559.99 267.11 Q556.379 267.11 554.435 269.471 Q552.513 271.809 552.513 276.207 L552.513 289.865 L548.231 289.865 L548.231 263.939 L552.513 263.939 L552.513 267.967 Q553.856 265.606 556.009 264.471 Q558.161 263.314 561.24 263.314 Q561.68 263.314 562.212 263.383 Q562.745 263.43 563.393 263.545 L563.416 267.92 Z" fill="#000000" fill-rule="nonzero" fill-opacity="1" /><path clip-path="url(#clip370)" d="M567.884 263.939 L572.143 263.939 L572.143 289.865 L567.884 289.865 L567.884 263.939 M567.884 253.846 L572.143 253.846 L572.143 259.24 L567.884 259.24 L567.884 253.846 Z" fill="#000000" fill-rule="nonzero" fill-opacity="1" /><path clip-path="url(#clip370)" d="M597.583 264.703 L597.583 268.731 Q595.777 267.805 593.833 267.342 Q591.888 266.879 589.805 266.879 Q586.633 266.879 585.036 267.851 Q583.462 268.823 583.462 270.768 Q583.462 272.249 584.596 273.105 Q585.731 273.939 589.157 274.703 L590.615 275.027 Q595.152 275.999 597.05 277.781 Q598.971 279.541 598.971 282.712 Q598.971 286.323 596.101 288.429 Q593.254 290.536 588.254 290.536 Q586.171 290.536 583.902 290.119 Q581.657 289.726 579.157 288.916 L579.157 284.517 Q581.518 285.744 583.809 286.369 Q586.101 286.971 588.346 286.971 Q591.356 286.971 592.976 285.953 Q594.596 284.911 594.596 283.036 Q594.596 281.3 593.416 280.374 Q592.258 279.448 588.3 278.592 L586.819 278.244 Q582.86 277.411 581.101 275.698 Q579.342 273.962 579.342 270.953 Q579.342 267.295 581.934 265.305 Q584.527 263.314 589.296 263.314 Q591.657 263.314 593.74 263.661 Q595.823 264.008 597.583 264.703 Z" fill="#000000" fill-rule="nonzero" fill-opacity="1" /><path clip-path="url(#clip370)" d="M642.999 275.837 L642.999 277.92 L623.416 277.92 Q623.693 282.318 626.055 284.633 Q628.439 286.925 632.675 286.925 Q635.129 286.925 637.42 286.323 Q639.735 285.721 642.004 284.517 L642.004 288.545 Q639.712 289.517 637.305 290.027 Q634.897 290.536 632.42 290.536 Q626.217 290.536 622.582 286.925 Q618.971 283.314 618.971 277.156 Q618.971 270.791 622.397 267.064 Q625.846 263.314 631.68 263.314 Q636.911 263.314 639.943 266.693 Q642.999 270.05 642.999 275.837 M638.74 274.587 Q638.693 271.092 636.772 269.008 Q634.874 266.925 631.726 266.925 Q628.161 266.925 626.008 268.939 Q623.879 270.953 623.555 274.61 L638.74 274.587 Z" fill="#000000" fill-rule="nonzero" fill-opacity="1" /><path clip-path="url(#clip370)" d="M670.707 263.939 L661.332 276.555 L671.193 289.865 L666.17 289.865 L658.624 279.68 L651.078 289.865 L646.054 289.865 L656.124 276.3 L646.911 263.939 L651.934 263.939 L658.809 273.175 L665.684 263.939 L670.707 263.939 Z" fill="#000000" fill-rule="nonzero" fill-opacity="1" /><path clip-path="url(#clip370)" d="M681.425 256.578 L681.425 263.939 L690.198 263.939 L690.198 267.249 L681.425 267.249 L681.425 281.323 Q681.425 284.494 682.281 285.397 Q683.161 286.3 685.823 286.3 L690.198 286.3 L690.198 289.865 L685.823 289.865 Q680.892 289.865 679.017 288.036 Q677.142 286.184 677.142 281.323 L677.142 267.249 L674.017 267.249 L674.017 263.939 L677.142 263.939 L677.142 256.578 L681.425 256.578 Z" fill="#000000" fill-rule="nonzero" fill-opacity="1" /><polyline clip-path="url(#clip370)" style="stroke:#008000; stroke-linecap:round; stroke-linejoin:round; stroke-width:4; stroke-opacity:1; fill:none" stroke-dasharray="16, 10" points="328.287,324.425 469.529,324.425 "/>
<line clip-path="url(#clip370)" x1="398.908" y1="324.425" x2="398.908" y2="302.628" style="stroke:#008000; stroke-width:4.55111; stroke-opacity:1"/>
<line clip-path="url(#clip370)" x1="398.908" y1="324.425" x2="377.111" y2="324.425" style="stroke:#008000; stroke-width:4.55111; stroke-opacity:1"/>
<line clip-path="url(#clip370)" x1="398.908" y1="324.425" x2="398.908" y2="346.221" style="stroke:#008000; stroke-width:4.55111; stroke-opacity:1"/>
<line clip-path="url(#clip370)" x1="398.908" y1="324.425" x2="420.704" y2="324.425" style="stroke:#008000; stroke-width:4.55111; stroke-opacity:1"/>
<path clip-path="url(#clip370)" d="M493.069 307.145 L522.305 307.145 L522.305 311.08 L510.037 311.08 L510.037 341.705 L505.338 341.705 L505.338 311.08 L493.069 311.08 L493.069 307.145 Z" fill="#000000" fill-rule="nonzero" fill-opacity="1" /><path clip-path="url(#clip370)" d="M571.934 318.371 L548.046 326.867 L571.934 335.316 L571.934 339.529 L542.259 328.765 L542.259 324.922 L571.934 314.159 L571.934 318.371 Z" fill="#000000" fill-rule="nonzero" fill-opacity="1" /><path clip-path="url(#clip370)" d="M601.124 337.769 L617.444 337.769 L617.444 341.705 L595.499 341.705 L595.499 337.769 Q598.161 335.015 602.745 330.385 Q607.351 325.733 608.532 324.39 Q610.777 321.867 611.656 320.131 Q612.559 318.371 612.559 316.682 Q612.559 313.927 610.615 312.191 Q608.694 310.455 605.592 310.455 Q603.393 310.455 600.939 311.219 Q598.508 311.983 595.731 313.534 L595.731 308.811 Q598.555 307.677 601.008 307.098 Q603.462 306.52 605.499 306.52 Q610.869 306.52 614.064 309.205 Q617.258 311.89 617.258 316.381 Q617.258 318.51 616.448 320.432 Q615.661 322.33 613.555 324.922 Q612.976 325.594 609.874 328.811 Q606.772 332.006 601.124 337.769 Z" fill="#000000" fill-rule="nonzero" fill-opacity="1" /><path clip-path="url(#clip370)" d="M649.11 309.506 Q647.258 309.506 645.985 310.802 Q644.712 312.075 644.712 313.927 Q644.712 315.756 645.985 317.029 Q647.258 318.279 649.11 318.279 Q650.962 318.279 652.235 317.029 Q653.508 315.756 653.508 313.927 Q653.508 312.098 652.212 310.802 Q650.939 309.506 649.11 309.506 M649.11 306.52 Q650.591 306.52 651.957 307.098 Q653.323 307.654 654.318 308.719 Q655.383 309.76 655.916 311.08 Q656.448 312.399 656.448 313.927 Q656.448 316.983 654.295 319.112 Q652.166 321.219 649.064 321.219 Q645.939 321.219 643.855 319.135 Q641.772 317.052 641.772 313.927 Q641.772 310.825 643.902 308.672 Q646.031 306.52 649.11 306.52 Z" fill="#000000" fill-rule="nonzero" fill-opacity="1" /><path clip-path="url(#clip370)" d="M691.494 309.807 L691.494 314.737 Q689.133 312.538 686.448 311.45 Q683.786 310.362 680.776 310.362 Q674.851 310.362 671.702 313.996 Q668.554 317.608 668.554 324.459 Q668.554 331.288 671.702 334.922 Q674.851 338.533 680.776 338.533 Q683.786 338.533 686.448 337.445 Q689.133 336.357 691.494 334.158 L691.494 339.043 Q689.04 340.709 686.286 341.543 Q683.554 342.376 680.499 342.376 Q672.652 342.376 668.138 337.584 Q663.624 332.77 663.624 324.459 Q663.624 316.126 668.138 311.334 Q672.652 306.52 680.499 306.52 Q683.601 306.52 686.332 307.353 Q689.087 308.163 691.494 309.807 Z" fill="#000000" fill-rule="nonzero" fill-opacity="1" /><polyline clip-path="url(#clip370)" style="stroke:#00688b; stroke-linecap:round; stroke-linejoin:round; stroke-width:4; stroke-opacity:1; fill:none" points="328.287,376.265 469.529,376.265 "/>
<path clip-path="url(#clip370)" d="M398.908 354.468 L377.111 376.265 L398.908 398.061 L420.704 376.265 L398.908 354.468 Z" fill="#00688b" fill-rule="evenodd" fill-opacity="1" stroke="none"/>
<path clip-path="url(#clip370)" d="M509.458 377.341 Q510.963 377.85 512.375 379.517 Q513.81 381.184 515.245 384.1 L519.99 393.545 L514.967 393.545 L510.546 384.679 Q508.833 381.207 507.213 380.073 Q505.615 378.938 502.838 378.938 L497.745 378.938 L497.745 393.545 L493.069 393.545 L493.069 358.985 L503.625 358.985 Q509.551 358.985 512.467 361.461 Q515.384 363.938 515.384 368.938 Q515.384 372.202 513.856 374.355 Q512.351 376.508 509.458 377.341 M497.745 362.827 L497.745 375.096 L503.625 375.096 Q507.004 375.096 508.717 373.545 Q510.453 371.971 510.453 368.938 Q510.453 365.906 508.717 364.378 Q507.004 362.827 503.625 362.827 L497.745 362.827 Z" fill="#000000" fill-rule="nonzero" fill-opacity="1" /><path clip-path="url(#clip370)" d="M541.449 372.017 L571.124 372.017 L571.124 375.906 L541.449 375.906 L541.449 372.017 M541.449 381.461 L571.124 381.461 L571.124 385.397 L541.449 385.397 L541.449 381.461 Z" fill="#000000" fill-rule="nonzero" fill-opacity="1" /><path clip-path="url(#clip370)" d="M610.453 374.91 Q613.809 375.628 615.684 377.897 Q617.582 380.165 617.582 383.498 Q617.582 388.614 614.064 391.415 Q610.545 394.216 604.064 394.216 Q601.888 394.216 599.573 393.776 Q597.282 393.359 594.828 392.503 L594.828 387.989 Q596.772 389.123 599.087 389.702 Q601.402 390.281 603.925 390.281 Q608.323 390.281 610.615 388.545 Q612.93 386.809 612.93 383.498 Q612.93 380.443 610.777 378.73 Q608.647 376.994 604.828 376.994 L600.8 376.994 L600.8 373.151 L605.013 373.151 Q608.462 373.151 610.291 371.786 Q612.119 370.397 612.119 367.804 Q612.119 365.142 610.221 363.73 Q608.346 362.295 604.828 362.295 Q602.907 362.295 600.707 362.711 Q598.508 363.128 595.87 364.008 L595.87 359.841 Q598.532 359.1 600.846 358.73 Q603.184 358.36 605.244 358.36 Q610.569 358.36 613.67 360.79 Q616.772 363.198 616.772 367.318 Q616.772 370.188 615.129 372.179 Q613.485 374.147 610.453 374.91 Z" fill="#000000" fill-rule="nonzero" fill-opacity="1" /><path clip-path="url(#clip370)" d="M655.846 378.336 Q653.832 378.336 652.675 380.049 Q651.541 381.762 651.541 384.818 Q651.541 387.827 652.675 389.563 Q653.832 391.276 655.846 391.276 Q657.814 391.276 658.948 389.563 Q660.105 387.827 660.105 384.818 Q660.105 381.785 658.948 380.073 Q657.814 378.336 655.846 378.336 M655.846 375.397 Q659.503 375.397 661.656 377.943 Q663.809 380.489 663.809 384.818 Q663.809 389.147 661.633 391.693 Q659.48 394.216 655.846 394.216 Q652.142 394.216 649.99 391.693 Q647.837 389.147 647.837 384.818 Q647.837 380.466 649.99 377.943 Q652.166 375.397 655.846 375.397 M631.957 361.299 Q629.967 361.299 628.809 363.036 Q627.675 364.749 627.675 367.758 Q627.675 370.813 628.809 372.526 Q629.943 374.239 631.957 374.239 Q633.971 374.239 635.105 372.526 Q636.263 370.813 636.263 367.758 Q636.263 364.772 635.105 363.036 Q633.948 361.299 631.957 361.299 M652.86 358.36 L656.564 358.36 L634.943 394.216 L631.24 394.216 L652.86 358.36 M631.957 358.36 Q635.615 358.36 637.791 360.906 Q639.967 363.429 639.967 367.758 Q639.967 372.133 637.791 374.656 Q635.638 377.179 631.957 377.179 Q628.277 377.179 626.124 374.656 Q623.994 372.11 623.994 367.758 Q623.994 363.452 626.147 360.906 Q628.3 358.36 631.957 358.36 Z" fill="#000000" fill-rule="nonzero" fill-opacity="1" /></svg>
