<?xml version="1.0" encoding="utf-8"?>
<svg xmlns="http://www.w3.org/2000/svg" xmlns:xlink="http://www.w3.org/1999/xlink" width="600" height="400" viewBox="0 0 2400 1600">
<defs>
  <clipPath id="clip090">
    <rect x="0" y="0" width="2400" height="1600"/>
  </clipPath>
</defs>
<path clip-path="url(#clip090)" d="M0 1600 L2400 1600 L2400 0 L0 0  Z" fill="#ffffff" fill-rule="evenodd" fill-opacity="1"/>
<defs>
  <clipPath id="clip091">
    <rect x="480" y="0" width="1681" height="1600"/>
  </clipPath>
</defs>
<path clip-path="url(#clip090)" d="M232.389 1486.45 L2352.76 1486.45 L2352.76 123.472 L232.389 123.472  Z" fill="#ffffff" fill-rule="evenodd" fill-opacity="1"/>
<defs>
  <clipPath id="clip092">
    <rect x="232" y="123" width="2121" height="1364"/>
  </clipPath>
</defs>
<polyline clip-path="url(#clip092)" style="stroke:#000000; stroke-linecap:round; stroke-linejoin:round; stroke-width:2; stroke-opacity:0.1; fill:none" points="292.4,1486.45 292.4,123.472 "/>
<polyline clip-path="url(#clip092)" style="stroke:#000000; stroke-linecap:round; stroke-linejoin:round; stroke-width:2; stroke-opacity:0.1; fill:none" points="692.469,1486.45 692.469,123.472 "/>
<polyline clip-path="url(#clip092)" style="stroke:#000000; stroke-linecap:round; stroke-linejoin:round; stroke-width:2; stroke-opacity:0.1; fill:none" points="1092.54,1486.45 1092.54,123.472 "/>
<polyline clip-path="url(#clip092)" style="stroke:#000000; stroke-linecap:round; stroke-linejoin:round; stroke-width:2; stroke-opacity:0.1; fill:none" points="1492.61,1486.45 1492.61,123.472 "/>
<polyline clip-path="url(#clip092)" style="stroke:#000000; stroke-linecap:round; stroke-linejoin:round; stroke-width:2; stroke-opacity:0.1; fill:none" points="1892.68,1486.45 1892.68,123.472 "/>
<polyline clip-path="url(#clip092)" style="stroke:#000000; stroke-linecap:round; stroke-linejoin:round; stroke-width:2; stroke-opacity:0.1; fill:none" points="2292.75,1486.45 2292.75,123.472 "/>
<polyline clip-path="url(#clip092)" style="stroke:#000000; stroke-linecap:round; stroke-linejoin:round; stroke-width:2; stroke-opacity:0.1; fill:none" points="232.389,1486.45 2352.76,1486.45 "/>
<polyline clip-path="url(#clip092)" style="stroke:#000000; stroke-linecap:round; stroke-linejoin:round; stroke-width:2; stroke-opacity:0.1; fill:none" points="232.389,1213.85 2352.76,1213.85 "/>
<polyline clip-path="url(#clip092)" style="stroke:#000000; stroke-linecap:round; stroke-linejoin:round; stroke-width:2; stroke-opacity:0.1; fill:none" points="232.389,941.258 2352.76,941.258 "/>
<polyline clip-path="url(#clip092)" style="stroke:#000000; stroke-linecap:round; stroke-linejoin:round; stroke-width:2; stroke-opacity:0.1; fill:none" points="232.389,668.662 2352.76,668.662 "/>
<polyline clip-path="url(#clip092)" style="stroke:#000000; stroke-linecap:round; stroke-linejoin:round; stroke-width:2; stroke-opacity:0.1; fill:none" points="232.389,396.067 2352.76,396.067 "/>
<polyline clip-path="url(#clip092)" style="stroke:#000000; stroke-linecap:round; stroke-linejoin:round; stroke-width:2; stroke-opacity:0.1; fill:none" points="232.389,123.472 2352.76,123.472 "/>
<polyline clip-path="url(#clip090)" style="stroke:#000000; stroke-linecap:round; stroke-linejoin:round; stroke-width:4; stroke-opacity:1; fill:none" points="232.389,1486.45 2352.76,1486.45 "/>
<polyline clip-path="url(#clip090)" style="stroke:#000000; stroke-linecap:round; stroke-linejoin:round; stroke-width:4; stroke-opacity:1; fill:none" points="292.4,1486.45 292.4,1467.55 "/>
<polyline clip-path="url(#clip090)" style="stroke:#000000; stroke-linecap:round; stroke-linejoin:round; stroke-width:4; stroke-opacity:1; fill:none" points="692.469,1486.45 692.469,1467.55 "/>
<polyline clip-path="url(#clip090)" style="stroke:#000000; stroke-linecap:round; stroke-linejoin:round; stroke-width:4; stroke-opacity:1; fill:none" points="1092.54,1486.45 1092.54,1467.55 "/>
<polyline clip-path="url(#clip090)" style="stroke:#000000; stroke-linecap:round; stroke-linejoin:round; stroke-width:4; stroke-opacity:1; fill:none" points="1492.61,1486.45 1492.61,1467.55 "/>
<polyline clip-path="url(#clip090)" style="stroke:#000000; stroke-linecap:round; stroke-linejoin:round; stroke-width:4; stroke-opacity:1; fill:none" points="1892.68,1486.45 1892.68,1467.55 "/>
<polyline clip-path="url(#clip090)" style="stroke:#000000; stroke-linecap:round; stroke-linejoin:round; stroke-width:4; stroke-opacity:1; fill:none" points="2292.75,1486.45 2292.75,1467.55 "/>
<path clip-path="url(#clip090)" d="M241.011 1544.91 L257.33 1544.91 L257.33 1548.85 L235.386 1548.85 L235.386 1544.91 Q238.048 1542.16 242.631 1537.53 Q247.238 1532.88 248.418 1531.53 Q250.664 1529.01 251.543 1527.27 Q252.446 1525.51 252.446 1523.82 Q252.446 1521.07 250.502 1519.33 Q248.581 1517.6 245.479 1517.6 Q243.28 1517.6 240.826 1518.36 Q238.395 1519.13 235.618 1520.68 L235.618 1515.95 Q238.442 1514.82 240.895 1514.24 Q243.349 1513.66 245.386 1513.66 Q250.756 1513.66 253.951 1516.35 Q257.145 1519.03 257.145 1523.52 Q257.145 1525.65 256.335 1527.57 Q255.548 1529.47 253.442 1532.07 Q252.863 1532.74 249.761 1535.95 Q246.659 1539.15 241.011 1544.91 Z" fill="#000000" fill-rule="nonzero" fill-opacity="1" /><path clip-path="url(#clip090)" d="M277.145 1517.37 Q273.534 1517.37 271.705 1520.93 Q269.9 1524.47 269.9 1531.6 Q269.9 1538.71 271.705 1542.27 Q273.534 1545.82 277.145 1545.82 Q280.779 1545.82 282.585 1542.27 Q284.414 1538.71 284.414 1531.6 Q284.414 1524.47 282.585 1520.93 Q280.779 1517.37 277.145 1517.37 M277.145 1513.66 Q282.955 1513.66 286.011 1518.27 Q289.09 1522.85 289.09 1531.6 Q289.09 1540.33 286.011 1544.94 Q282.955 1549.52 277.145 1549.52 Q271.335 1549.52 268.256 1544.94 Q265.201 1540.33 265.201 1531.6 Q265.201 1522.85 268.256 1518.27 Q271.335 1513.66 277.145 1513.66 Z" fill="#000000" fill-rule="nonzero" fill-opacity="1" /><path clip-path="url(#clip090)" d="M301.335 1544.91 L317.654 1544.91 L317.654 1548.85 L295.71 1548.85 L295.71 1544.91 Q298.372 1542.16 302.955 1537.53 Q307.562 1532.88 308.742 1531.53 Q310.988 1529.01 311.867 1527.27 Q312.77 1525.51 312.77 1523.82 Q312.77 1521.07 310.826 1519.33 Q308.904 1517.6 305.802 1517.6 Q303.603 1517.6 301.15 1518.36 Q298.719 1519.13 295.941 1520.68 L295.941 1515.95 Q298.765 1514.82 301.219 1514.24 Q303.673 1513.66 305.71 1513.66 Q311.08 1513.66 314.275 1516.35 Q317.469 1519.03 317.469 1523.52 Q317.469 1525.65 316.659 1527.57 Q315.872 1529.47 313.765 1532.07 Q313.187 1532.74 310.085 1535.95 Q306.983 1539.15 301.335 1544.91 Z" fill="#000000" fill-rule="nonzero" fill-opacity="1" /><path clip-path="url(#clip090)" d="M337.469 1517.37 Q333.858 1517.37 332.029 1520.93 Q330.224 1524.47 330.224 1531.6 Q330.224 1538.71 332.029 1542.27 Q333.858 1545.82 337.469 1545.82 Q341.103 1545.82 342.909 1542.27 Q344.737 1538.71 344.737 1531.6 Q344.737 1524.47 342.909 1520.93 Q341.103 1517.37 337.469 1517.37 M337.469 1513.66 Q343.279 1513.66 346.335 1518.27 Q349.413 1522.85 349.413 1531.6 Q349.413 1540.33 346.335 1544.94 Q343.279 1549.52 337.469 1549.52 Q331.659 1549.52 328.58 1544.94 Q325.525 1540.33 325.525 1531.6 Q325.525 1522.85 328.58 1518.27 Q331.659 1513.66 337.469 1513.66 Z" fill="#000000" fill-rule="nonzero" fill-opacity="1" /><path clip-path="url(#clip090)" d="M641.08 1544.91 L657.4 1544.91 L657.4 1548.85 L635.455 1548.85 L635.455 1544.91 Q638.117 1542.16 642.701 1537.53 Q647.307 1532.88 648.488 1531.53 Q650.733 1529.01 651.613 1527.27 Q652.515 1525.51 652.515 1523.82 Q652.515 1521.07 650.571 1519.33 Q648.65 1517.6 645.548 1517.6 Q643.349 1517.6 640.895 1518.36 Q638.465 1519.13 635.687 1520.68 L635.687 1515.95 Q638.511 1514.82 640.965 1514.24 Q643.418 1513.66 645.455 1513.66 Q650.826 1513.66 654.02 1516.35 Q657.214 1519.03 657.214 1523.52 Q657.214 1525.65 656.404 1527.57 Q655.617 1529.47 653.511 1532.07 Q652.932 1532.74 649.83 1535.95 Q646.728 1539.15 641.08 1544.91 Z" fill="#000000" fill-rule="nonzero" fill-opacity="1" /><path clip-path="url(#clip090)" d="M677.214 1517.37 Q673.603 1517.37 671.775 1520.93 Q669.969 1524.47 669.969 1531.6 Q669.969 1538.71 671.775 1542.27 Q673.603 1545.82 677.214 1545.82 Q680.849 1545.82 682.654 1542.27 Q684.483 1538.71 684.483 1531.6 Q684.483 1524.47 682.654 1520.93 Q680.849 1517.37 677.214 1517.37 M677.214 1513.66 Q683.024 1513.66 686.08 1518.27 Q689.159 1522.85 689.159 1531.6 Q689.159 1540.33 686.08 1544.94 Q683.024 1549.52 677.214 1549.52 Q671.404 1549.52 668.325 1544.94 Q665.27 1540.33 665.27 1531.6 Q665.27 1522.85 668.325 1518.27 Q671.404 1513.66 677.214 1513.66 Z" fill="#000000" fill-rule="nonzero" fill-opacity="1" /><path clip-path="url(#clip090)" d="M711.543 1530.21 Q714.899 1530.93 716.774 1533.2 Q718.672 1535.47 718.672 1538.8 Q718.672 1543.92 715.154 1546.72 Q711.635 1549.52 705.154 1549.52 Q702.978 1549.52 700.663 1549.08 Q698.372 1548.66 695.918 1547.81 L695.918 1543.29 Q697.862 1544.43 700.177 1545.01 Q702.492 1545.58 705.015 1545.58 Q709.413 1545.58 711.705 1543.85 Q714.02 1542.11 714.02 1538.8 Q714.02 1535.75 711.867 1534.03 Q709.737 1532.3 705.918 1532.3 L701.89 1532.3 L701.89 1528.45 L706.103 1528.45 Q709.552 1528.45 711.381 1527.09 Q713.21 1525.7 713.21 1523.11 Q713.21 1520.45 711.311 1519.03 Q709.436 1517.6 705.918 1517.6 Q703.997 1517.6 701.798 1518.01 Q699.598 1518.43 696.96 1519.31 L696.96 1515.14 Q699.622 1514.4 701.936 1514.03 Q704.274 1513.66 706.335 1513.66 Q711.659 1513.66 714.76 1516.09 Q717.862 1518.5 717.862 1522.62 Q717.862 1525.49 716.219 1527.48 Q714.575 1529.45 711.543 1530.21 Z" fill="#000000" fill-rule="nonzero" fill-opacity="1" /><path clip-path="url(#clip090)" d="M737.538 1517.37 Q733.927 1517.37 732.098 1520.93 Q730.293 1524.47 730.293 1531.6 Q730.293 1538.71 732.098 1542.27 Q733.927 1545.82 737.538 1545.82 Q741.172 1545.82 742.978 1542.27 Q744.807 1538.71 744.807 1531.6 Q744.807 1524.47 742.978 1520.93 Q741.172 1517.37 737.538 1517.37 M737.538 1513.66 Q743.348 1513.66 746.404 1518.27 Q749.482 1522.85 749.482 1531.6 Q749.482 1540.33 746.404 1544.94 Q743.348 1549.52 737.538 1549.52 Q731.728 1549.52 728.649 1544.94 Q725.594 1540.33 725.594 1531.6 Q725.594 1522.85 728.649 1518.27 Q731.728 1513.66 737.538 1513.66 Z" fill="#000000" fill-rule="nonzero" fill-opacity="1" /><path clip-path="url(#clip090)" d="M1041.15 1544.91 L1057.47 1544.91 L1057.47 1548.85 L1035.52 1548.85 L1035.52 1544.91 Q1038.19 1542.16 1042.77 1537.53 Q1047.38 1532.88 1048.56 1531.53 Q1050.8 1529.01 1051.68 1527.27 Q1052.58 1525.51 1052.58 1523.82 Q1052.58 1521.07 1050.64 1519.33 Q1048.72 1517.6 1045.62 1517.6 Q1043.42 1517.6 1040.96 1518.36 Q1038.53 1519.13 1035.76 1520.68 L1035.76 1515.95 Q1038.58 1514.82 1041.03 1514.24 Q1043.49 1513.66 1045.52 1513.66 Q1050.89 1513.66 1054.09 1516.35 Q1057.28 1519.03 1057.28 1523.52 Q1057.28 1525.65 1056.47 1527.57 Q1055.69 1529.47 1053.58 1532.07 Q1053 1532.74 1049.9 1535.95 Q1046.8 1539.15 1041.15 1544.91 Z" fill="#000000" fill-rule="nonzero" fill-opacity="1" /><path clip-path="url(#clip090)" d="M1077.28 1517.37 Q1073.67 1517.37 1071.84 1520.93 Q1070.04 1524.47 1070.04 1531.6 Q1070.04 1538.71 1071.84 1542.27 Q1073.67 1545.82 1077.28 1545.82 Q1080.92 1545.82 1082.72 1542.27 Q1084.55 1538.71 1084.55 1531.6 Q1084.55 1524.47 1082.72 1520.93 Q1080.92 1517.37 1077.28 1517.37 M1077.28 1513.66 Q1083.09 1513.66 1086.15 1518.27 Q1089.23 1522.85 1089.23 1531.6 Q1089.23 1540.33 1086.15 1544.94 Q1083.09 1549.52 1077.28 1549.52 Q1071.47 1549.52 1068.39 1544.94 Q1065.34 1540.33 1065.34 1531.6 Q1065.34 1522.85 1068.39 1518.27 Q1071.47 1513.66 1077.28 1513.66 Z" fill="#000000" fill-rule="nonzero" fill-opacity="1" /><path clip-path="url(#clip090)" d="M1110.29 1518.36 L1098.49 1536.81 L1110.29 1536.81 L1110.29 1518.36 M1109.07 1514.29 L1114.95 1514.29 L1114.95 1536.81 L1119.88 1536.81 L1119.88 1540.7 L1114.95 1540.7 L1114.95 1548.85 L1110.29 1548.85 L1110.29 1540.7 L1094.69 1540.7 L1094.69 1536.19 L1109.07 1514.29 Z" fill="#000000" fill-rule="nonzero" fill-opacity="1" /><path clip-path="url(#clip090)" d="M1137.61 1517.37 Q1134 1517.37 1132.17 1520.93 Q1130.36 1524.47 1130.36 1531.6 Q1130.36 1538.71 1132.17 1542.27 Q1134 1545.82 1137.61 1545.82 Q1141.24 1545.82 1143.05 1542.27 Q1144.88 1538.71 1144.88 1531.6 Q1144.88 1524.47 1143.05 1520.93 Q1141.24 1517.37 1137.61 1517.37 M1137.61 1513.66 Q1143.42 1513.66 1146.47 1518.27 Q1149.55 1522.85 1149.55 1531.6 Q1149.55 1540.33 1146.47 1544.94 Q1143.42 1549.52 1137.61 1549.52 Q1131.8 1549.52 1128.72 1544.94 Q1125.66 1540.33 1125.66 1531.6 Q1125.66 1522.85 1128.72 1518.27 Q1131.8 1513.66 1137.61 1513.66 Z" fill="#000000" fill-rule="nonzero" fill-opacity="1" /><path clip-path="url(#clip090)" d="M1441.22 1544.91 L1457.54 1544.91 L1457.54 1548.85 L1435.59 1548.85 L1435.59 1544.91 Q1438.26 1542.16 1442.84 1537.53 Q1447.45 1532.88 1448.63 1531.53 Q1450.87 1529.01 1451.75 1527.27 Q1452.65 1525.51 1452.65 1523.82 Q1452.65 1521.07 1450.71 1519.33 Q1448.79 1517.6 1445.69 1517.6 Q1443.49 1517.6 1441.03 1518.36 Q1438.6 1519.13 1435.83 1520.68 L1435.83 1515.95 Q1438.65 1514.82 1441.1 1514.24 Q1443.56 1513.66 1445.59 1513.66 Q1450.96 1513.66 1454.16 1516.35 Q1457.35 1519.03 1457.35 1523.52 Q1457.35 1525.65 1456.54 1527.57 Q1455.76 1529.47 1453.65 1532.07 Q1453.07 1532.74 1449.97 1535.95 Q1446.87 1539.15 1441.22 1544.91 Z" fill="#000000" fill-rule="nonzero" fill-opacity="1" /><path clip-path="url(#clip090)" d="M1477.35 1517.37 Q1473.74 1517.37 1471.91 1520.93 Q1470.11 1524.47 1470.11 1531.6 Q1470.11 1538.71 1471.91 1542.27 Q1473.74 1545.82 1477.35 1545.82 Q1480.99 1545.82 1482.79 1542.27 Q1484.62 1538.71 1484.62 1531.6 Q1484.62 1524.47 1482.79 1520.93 Q1480.99 1517.37 1477.35 1517.37 M1477.35 1513.66 Q1483.16 1513.66 1486.22 1518.27 Q1489.3 1522.85 1489.3 1531.6 Q1489.3 1540.33 1486.22 1544.94 Q1483.16 1549.52 1477.35 1549.52 Q1471.54 1549.52 1468.46 1544.94 Q1465.41 1540.33 1465.41 1531.6 Q1465.41 1522.85 1468.46 1518.27 Q1471.54 1513.66 1477.35 1513.66 Z" fill="#000000" fill-rule="nonzero" fill-opacity="1" /><path clip-path="url(#clip090)" d="M1497.56 1514.29 L1515.92 1514.29 L1515.92 1518.22 L1501.84 1518.22 L1501.84 1526.7 Q1502.86 1526.35 1503.88 1526.19 Q1504.9 1526 1505.92 1526 Q1511.7 1526 1515.08 1529.17 Q1518.46 1532.34 1518.46 1537.76 Q1518.46 1543.34 1514.99 1546.44 Q1511.52 1549.52 1505.2 1549.52 Q1503.02 1549.52 1500.76 1549.15 Q1498.51 1548.78 1496.1 1548.04 L1496.1 1543.34 Q1498.19 1544.47 1500.41 1545.03 Q1502.63 1545.58 1505.11 1545.58 Q1509.11 1545.58 1511.45 1543.48 Q1513.79 1541.37 1513.79 1537.76 Q1513.79 1534.15 1511.45 1532.04 Q1509.11 1529.94 1505.11 1529.94 Q1503.23 1529.94 1501.36 1530.35 Q1499.51 1530.77 1497.56 1531.65 L1497.56 1514.29 Z" fill="#000000" fill-rule="nonzero" fill-opacity="1" /><path clip-path="url(#clip090)" d="M1537.68 1517.37 Q1534.07 1517.37 1532.24 1520.93 Q1530.43 1524.47 1530.43 1531.6 Q1530.43 1538.71 1532.24 1542.27 Q1534.07 1545.82 1537.68 1545.82 Q1541.31 1545.82 1543.12 1542.27 Q1544.94 1538.71 1544.94 1531.6 Q1544.94 1524.47 1543.12 1520.93 Q1541.31 1517.37 1537.68 1517.37 M1537.68 1513.66 Q1543.49 1513.66 1546.54 1518.27 Q1549.62 1522.85 1549.62 1531.6 Q1549.62 1540.33 1546.54 1544.94 Q1543.49 1549.52 1537.68 1549.52 Q1531.87 1549.52 1528.79 1544.94 Q1525.73 1540.33 1525.73 1531.6 Q1525.73 1522.85 1528.79 1518.27 Q1531.87 1513.66 1537.68 1513.66 Z" fill="#000000" fill-rule="nonzero" fill-opacity="1" /><path clip-path="url(#clip090)" d="M1841.29 1544.91 L1857.61 1544.91 L1857.61 1548.85 L1835.66 1548.85 L1835.66 1544.91 Q1838.32 1542.16 1842.91 1537.53 Q1847.51 1532.88 1848.7 1531.53 Q1850.94 1529.01 1851.82 1527.27 Q1852.72 1525.51 1852.72 1523.82 Q1852.72 1521.07 1850.78 1519.33 Q1848.86 1517.6 1845.76 1517.6 Q1843.56 1517.6 1841.1 1518.36 Q1838.67 1519.13 1835.89 1520.68 L1835.89 1515.95 Q1838.72 1514.82 1841.17 1514.24 Q1843.63 1513.66 1845.66 1513.66 Q1851.03 1513.66 1854.23 1516.35 Q1857.42 1519.03 1857.42 1523.52 Q1857.42 1525.65 1856.61 1527.57 Q1855.82 1529.47 1853.72 1532.07 Q1853.14 1532.74 1850.04 1535.95 Q1846.94 1539.15 1841.29 1544.91 Z" fill="#000000" fill-rule="nonzero" fill-opacity="1" /><path clip-path="url(#clip090)" d="M1877.42 1517.37 Q1873.81 1517.37 1871.98 1520.93 Q1870.18 1524.47 1870.18 1531.6 Q1870.18 1538.71 1871.98 1542.27 Q1873.81 1545.82 1877.42 1545.82 Q1881.06 1545.82 1882.86 1542.27 Q1884.69 1538.71 1884.69 1531.6 Q1884.69 1524.47 1882.86 1520.93 Q1881.06 1517.37 1877.42 1517.37 M1877.42 1513.66 Q1883.23 1513.66 1886.29 1518.27 Q1889.37 1522.85 1889.37 1531.6 Q1889.37 1540.33 1886.29 1544.94 Q1883.23 1549.52 1877.42 1549.52 Q1871.61 1549.52 1868.53 1544.94 Q1865.48 1540.33 1865.48 1531.6 Q1865.48 1522.85 1868.53 1518.27 Q1871.61 1513.66 1877.42 1513.66 Z" fill="#000000" fill-rule="nonzero" fill-opacity="1" /><path clip-path="url(#clip090)" d="M1908.16 1529.7 Q1905.01 1529.7 1903.16 1531.86 Q1901.33 1534.01 1901.33 1537.76 Q1901.33 1541.49 1903.16 1543.66 Q1905.01 1545.82 1908.16 1545.82 Q1911.31 1545.82 1913.14 1543.66 Q1914.99 1541.49 1914.99 1537.76 Q1914.99 1534.01 1913.14 1531.86 Q1911.31 1529.7 1908.16 1529.7 M1917.44 1515.05 L1917.44 1519.31 Q1915.69 1518.48 1913.88 1518.04 Q1912.1 1517.6 1910.34 1517.6 Q1905.71 1517.6 1903.26 1520.72 Q1900.82 1523.85 1900.48 1530.17 Q1901.84 1528.15 1903.9 1527.09 Q1905.96 1526 1908.44 1526 Q1913.65 1526 1916.66 1529.17 Q1919.69 1532.32 1919.69 1537.76 Q1919.69 1543.08 1916.54 1546.3 Q1913.39 1549.52 1908.16 1549.52 Q1902.17 1549.52 1899 1544.94 Q1895.82 1540.33 1895.82 1531.6 Q1895.82 1523.41 1899.71 1518.55 Q1903.6 1513.66 1910.15 1513.66 Q1911.91 1513.66 1913.69 1514.01 Q1915.5 1514.36 1917.44 1515.05 Z" fill="#000000" fill-rule="nonzero" fill-opacity="1" /><path clip-path="url(#clip090)" d="M1937.75 1517.37 Q1934.13 1517.37 1932.31 1520.93 Q1930.5 1524.47 1930.5 1531.6 Q1930.5 1538.71 1932.31 1542.27 Q1934.13 1545.82 1937.75 1545.82 Q1941.38 1545.82 1943.19 1542.27 Q1945.01 1538.71 1945.01 1531.6 Q1945.01 1524.47 1943.19 1520.93 Q1941.38 1517.37 1937.75 1517.37 M1937.75 1513.66 Q1943.56 1513.66 1946.61 1518.27 Q1949.69 1522.85 1949.69 1531.6 Q1949.69 1540.33 1946.61 1544.94 Q1943.56 1549.52 1937.75 1549.52 Q1931.94 1549.52 1928.86 1544.94 Q1925.8 1540.33 1925.8 1531.6 Q1925.8 1522.85 1928.86 1518.27 Q1931.94 1513.66 1937.75 1513.66 Z" fill="#000000" fill-rule="nonzero" fill-opacity="1" /><path clip-path="url(#clip090)" d="M2241.36 1544.91 L2257.68 1544.91 L2257.68 1548.85 L2235.73 1548.85 L2235.73 1544.91 Q2238.39 1542.16 2242.98 1537.53 Q2247.58 1532.88 2248.76 1531.53 Q2251.01 1529.01 2251.89 1527.27 Q2252.79 1525.51 2252.79 1523.82 Q2252.79 1521.07 2250.85 1519.33 Q2248.93 1517.6 2245.82 1517.6 Q2243.63 1517.6 2241.17 1518.36 Q2238.74 1519.13 2235.96 1520.68 L2235.96 1515.95 Q2238.79 1514.82 2241.24 1514.24 Q2243.69 1513.66 2245.73 1513.66 Q2251.1 1513.66 2254.3 1516.35 Q2257.49 1519.03 2257.49 1523.52 Q2257.49 1525.65 2256.68 1527.57 Q2255.89 1529.47 2253.79 1532.07 Q2253.21 1532.74 2250.11 1535.95 Q2247.01 1539.15 2241.36 1544.91 Z" fill="#000000" fill-rule="nonzero" fill-opacity="1" /><path clip-path="url(#clip090)" d="M2277.49 1517.37 Q2273.88 1517.37 2272.05 1520.93 Q2270.25 1524.47 2270.25 1531.6 Q2270.25 1538.71 2272.05 1542.27 Q2273.88 1545.82 2277.49 1545.82 Q2281.13 1545.82 2282.93 1542.27 Q2284.76 1538.71 2284.76 1531.6 Q2284.76 1524.47 2282.93 1520.93 Q2281.13 1517.37 2277.49 1517.37 M2277.49 1513.66 Q2283.3 1513.66 2286.36 1518.27 Q2289.44 1522.85 2289.44 1531.6 Q2289.44 1540.33 2286.36 1544.94 Q2283.3 1549.52 2277.49 1549.52 Q2271.68 1549.52 2268.6 1544.94 Q2265.55 1540.33 2265.55 1531.6 Q2265.55 1522.85 2268.6 1518.27 Q2271.68 1513.66 2277.49 1513.66 Z" fill="#000000" fill-rule="nonzero" fill-opacity="1" /><path clip-path="url(#clip090)" d="M2296.47 1514.29 L2318.69 1514.29 L2318.69 1516.28 L2306.15 1548.85 L2301.26 1548.85 L2313.07 1518.22 L2296.47 1518.22 L2296.47 1514.29 Z" fill="#000000" fill-rule="nonzero" fill-opacity="1" /><path clip-path="url(#clip090)" d="M2337.81 1517.37 Q2334.2 1517.37 2332.37 1520.93 Q2330.57 1524.47 2330.57 1531.6 Q2330.57 1538.71 2332.37 1542.27 Q2334.2 1545.82 2337.81 1545.82 Q2341.45 1545.82 2343.25 1542.27 Q2345.08 1538.71 2345.08 1531.6 Q2345.08 1524.47 2343.25 1520.93 Q2341.45 1517.37 2337.81 1517.37 M2337.81 1513.66 Q2343.62 1513.66 2346.68 1518.27 Q2349.76 1522.85 2349.76 1531.6 Q2349.76 1540.33 2346.68 1544.94 Q2343.62 1549.52 2337.81 1549.52 Q2332 1549.52 2328.93 1544.94 Q2325.87 1540.33 2325.87 1531.6 Q2325.87 1522.85 2328.93 1518.27 Q2332 1513.66 2337.81 1513.66 Z" fill="#000000" fill-rule="nonzero" fill-opacity="1" /><polyline clip-path="url(#clip090)" style="stroke:#000000; stroke-linecap:round; stroke-linejoin:round; stroke-width:4; stroke-opacity:1; fill:none" points="232.389,1486.45 232.389,123.472 "/>
<polyline clip-path="url(#clip090)" style="stroke:#000000; stroke-linecap:round; stroke-linejoin:round; stroke-width:4; stroke-opacity:1; fill:none" points="232.389,1486.45 251.287,1486.45 "/>
<polyline clip-path="url(#clip090)" style="stroke:#000000; stroke-linecap:round; stroke-linejoin:round; stroke-width:4; stroke-opacity:1; fill:none" points="232.389,1213.85 251.287,1213.85 "/>
<polyline clip-path="url(#clip090)" style="stroke:#000000; stroke-linecap:round; stroke-linejoin:round; stroke-width:4; stroke-opacity:1; fill:none" points="232.389,941.258 251.287,941.258 "/>
<polyline clip-path="url(#clip090)" style="stroke:#000000; stroke-linecap:round; stroke-linejoin:round; stroke-width:4; stroke-opacity:1; fill:none" points="232.389,668.662 251.287,668.662 "/>
<polyline clip-path="url(#clip090)" style="stroke:#000000; stroke-linecap:round; stroke-linejoin:round; stroke-width:4; stroke-opacity:1; fill:none" points="232.389,396.067 251.287,396.067 "/>
<polyline clip-path="url(#clip090)" style="stroke:#000000; stroke-linecap:round; stroke-linejoin:round; stroke-width:4; stroke-opacity:1; fill:none" points="232.389,123.472 251.287,123.472 "/>
<path clip-path="url(#clip090)" d="M184.445 1472.25 Q180.834 1472.25 179.005 1475.81 Q177.2 1479.35 177.2 1486.48 Q177.2 1493.59 179.005 1497.15 Q180.834 1500.7 184.445 1500.7 Q188.079 1500.7 189.885 1497.15 Q191.713 1493.59 191.713 1486.48 Q191.713 1479.35 189.885 1475.81 Q188.079 1472.25 184.445 1472.25 M184.445 1468.54 Q190.255 1468.54 193.311 1473.15 Q196.389 1477.73 196.389 1486.48 Q196.389 1495.21 193.311 1499.82 Q190.255 1504.4 184.445 1504.4 Q178.635 1504.4 175.556 1499.82 Q172.501 1495.21 172.501 1486.48 Q172.501 1477.73 175.556 1473.15 Q178.635 1468.54 184.445 1468.54 Z" fill="#000000" fill-rule="nonzero" fill-opacity="1" /><path clip-path="url(#clip090)" d="M148.311 1227.2 L164.63 1227.2 L164.63 1231.13 L142.686 1231.13 L142.686 1227.2 Q145.348 1224.44 149.931 1219.81 Q154.538 1215.16 155.718 1213.82 Q157.964 1211.29 158.843 1209.56 Q159.746 1207.8 159.746 1206.11 Q159.746 1203.36 157.802 1201.62 Q155.88 1199.88 152.778 1199.88 Q150.579 1199.88 148.126 1200.65 Q145.695 1201.41 142.917 1202.96 L142.917 1198.24 Q145.741 1197.11 148.195 1196.53 Q150.649 1195.95 152.686 1195.95 Q158.056 1195.95 161.251 1198.63 Q164.445 1201.32 164.445 1205.81 Q164.445 1207.94 163.635 1209.86 Q162.848 1211.76 160.741 1214.35 Q160.163 1215.02 157.061 1218.24 Q153.959 1221.43 148.311 1227.2 Z" fill="#000000" fill-rule="nonzero" fill-opacity="1" /><path clip-path="url(#clip090)" d="M184.445 1199.65 Q180.834 1199.65 179.005 1203.22 Q177.2 1206.76 177.2 1213.89 Q177.2 1220.99 179.005 1224.56 Q180.834 1228.1 184.445 1228.1 Q188.079 1228.1 189.885 1224.56 Q191.713 1220.99 191.713 1213.89 Q191.713 1206.76 189.885 1203.22 Q188.079 1199.65 184.445 1199.65 M184.445 1195.95 Q190.255 1195.95 193.311 1200.55 Q196.389 1205.14 196.389 1213.89 Q196.389 1222.61 193.311 1227.22 Q190.255 1231.8 184.445 1231.8 Q178.635 1231.8 175.556 1227.22 Q172.501 1222.61 172.501 1213.89 Q172.501 1205.14 175.556 1200.55 Q178.635 1195.95 184.445 1195.95 Z" fill="#000000" fill-rule="nonzero" fill-opacity="1" /><path clip-path="url(#clip090)" d="M157.13 928.052 L145.325 946.501 L157.13 946.501 L157.13 928.052 M155.903 923.978 L161.783 923.978 L161.783 946.501 L166.714 946.501 L166.714 950.389 L161.783 950.389 L161.783 958.538 L157.13 958.538 L157.13 950.389 L141.529 950.389 L141.529 945.876 L155.903 923.978 Z" fill="#000000" fill-rule="nonzero" fill-opacity="1" /><path clip-path="url(#clip090)" d="M184.445 927.056 Q180.834 927.056 179.005 930.621 Q177.2 934.163 177.2 941.292 Q177.2 948.399 179.005 951.964 Q180.834 955.505 184.445 955.505 Q188.079 955.505 189.885 951.964 Q191.713 948.399 191.713 941.292 Q191.713 934.163 189.885 930.621 Q188.079 927.056 184.445 927.056 M184.445 923.353 Q190.255 923.353 193.311 927.959 Q196.389 932.542 196.389 941.292 Q196.389 950.019 193.311 954.626 Q190.255 959.209 184.445 959.209 Q178.635 959.209 175.556 954.626 Q172.501 950.019 172.501 941.292 Q172.501 932.542 175.556 927.959 Q178.635 923.353 184.445 923.353 Z" fill="#000000" fill-rule="nonzero" fill-opacity="1" /><path clip-path="url(#clip090)" d="M154.862 666.799 Q151.714 666.799 149.862 668.952 Q148.033 671.105 148.033 674.855 Q148.033 678.581 149.862 680.757 Q151.714 682.91 154.862 682.91 Q158.01 682.91 159.839 680.757 Q161.69 678.581 161.69 674.855 Q161.69 671.105 159.839 668.952 Q158.01 666.799 154.862 666.799 M164.144 652.146 L164.144 656.406 Q162.385 655.572 160.579 655.132 Q158.797 654.693 157.038 654.693 Q152.408 654.693 149.954 657.818 Q147.524 660.943 147.177 667.262 Q148.542 665.248 150.603 664.183 Q152.663 663.095 155.14 663.095 Q160.348 663.095 163.357 666.267 Q166.39 669.415 166.39 674.855 Q166.39 680.179 163.241 683.396 Q160.093 686.614 154.862 686.614 Q148.866 686.614 145.695 682.03 Q142.524 677.424 142.524 668.697 Q142.524 660.503 146.413 655.642 Q150.302 650.757 156.853 650.757 Q158.612 650.757 160.394 651.105 Q162.2 651.452 164.144 652.146 Z" fill="#000000" fill-rule="nonzero" fill-opacity="1" /><path clip-path="url(#clip090)" d="M184.445 654.461 Q180.834 654.461 179.005 658.026 Q177.2 661.568 177.2 668.697 Q177.2 675.804 179.005 679.368 Q180.834 682.91 184.445 682.91 Q188.079 682.91 189.885 679.368 Q191.713 675.804 191.713 668.697 Q191.713 661.568 189.885 658.026 Q188.079 654.461 184.445 654.461 M184.445 650.757 Q190.255 650.757 193.311 655.364 Q196.389 659.947 196.389 668.697 Q196.389 677.424 193.311 682.03 Q190.255 686.614 184.445 686.614 Q178.635 686.614 175.556 682.03 Q172.501 677.424 172.501 668.697 Q172.501 659.947 175.556 655.364 Q178.635 650.757 184.445 650.757 Z" fill="#000000" fill-rule="nonzero" fill-opacity="1" /><path clip-path="url(#clip090)" d="M154.283 396.935 Q150.95 396.935 149.028 398.718 Q147.13 400.5 147.13 403.625 Q147.13 406.75 149.028 408.532 Q150.95 410.315 154.283 410.315 Q157.616 410.315 159.538 408.532 Q161.459 406.727 161.459 403.625 Q161.459 400.5 159.538 398.718 Q157.64 396.935 154.283 396.935 M149.607 394.945 Q146.598 394.204 144.908 392.144 Q143.241 390.084 143.241 387.121 Q143.241 382.977 146.181 380.57 Q149.144 378.162 154.283 378.162 Q159.445 378.162 162.385 380.57 Q165.325 382.977 165.325 387.121 Q165.325 390.084 163.635 392.144 Q161.968 394.204 158.982 394.945 Q162.362 395.732 164.237 398.023 Q166.135 400.315 166.135 403.625 Q166.135 408.648 163.056 411.333 Q160.001 414.019 154.283 414.019 Q148.566 414.019 145.487 411.333 Q142.431 408.648 142.431 403.625 Q142.431 400.315 144.329 398.023 Q146.228 395.732 149.607 394.945 M147.894 387.56 Q147.894 390.246 149.561 391.75 Q151.251 393.255 154.283 393.255 Q157.292 393.255 158.982 391.75 Q160.695 390.246 160.695 387.56 Q160.695 384.875 158.982 383.371 Q157.292 381.866 154.283 381.866 Q151.251 381.866 149.561 383.371 Q147.894 384.875 147.894 387.56 Z" fill="#000000" fill-rule="nonzero" fill-opacity="1" /><path clip-path="url(#clip090)" d="M184.445 381.866 Q180.834 381.866 179.005 385.431 Q177.2 388.972 177.2 396.102 Q177.2 403.208 179.005 406.773 Q180.834 410.315 184.445 410.315 Q188.079 410.315 189.885 406.773 Q191.713 403.208 191.713 396.102 Q191.713 388.972 189.885 385.431 Q188.079 381.866 184.445 381.866 M184.445 378.162 Q190.255 378.162 193.311 382.769 Q196.389 387.352 196.389 396.102 Q196.389 404.829 193.311 409.435 Q190.255 414.019 184.445 414.019 Q178.635 414.019 175.556 409.435 Q172.501 404.829 172.501 396.102 Q172.501 387.352 175.556 382.769 Q178.635 378.162 184.445 378.162 Z" fill="#000000" fill-rule="nonzero" fill-opacity="1" /><path clip-path="url(#clip090)" d="M114.931 136.817 L122.57 136.817 L122.57 110.451 L114.26 112.118 L114.26 107.859 L122.524 106.192 L127.2 106.192 L127.2 136.817 L134.839 136.817 L134.839 140.752 L114.931 140.752 L114.931 136.817 Z" fill="#000000" fill-rule="nonzero" fill-opacity="1" /><path clip-path="url(#clip090)" d="M154.283 109.271 Q150.672 109.271 148.843 112.836 Q147.038 116.377 147.038 123.507 Q147.038 130.613 148.843 134.178 Q150.672 137.72 154.283 137.72 Q157.917 137.72 159.723 134.178 Q161.552 130.613 161.552 123.507 Q161.552 116.377 159.723 112.836 Q157.917 109.271 154.283 109.271 M154.283 105.567 Q160.093 105.567 163.149 110.174 Q166.227 114.757 166.227 123.507 Q166.227 132.234 163.149 136.84 Q160.093 141.423 154.283 141.423 Q148.473 141.423 145.394 136.84 Q142.339 132.234 142.339 123.507 Q142.339 114.757 145.394 110.174 Q148.473 105.567 154.283 105.567 Z" fill="#000000" fill-rule="nonzero" fill-opacity="1" /><path clip-path="url(#clip090)" d="M184.445 109.271 Q180.834 109.271 179.005 112.836 Q177.2 116.377 177.2 123.507 Q177.2 130.613 179.005 134.178 Q180.834 137.72 184.445 137.72 Q188.079 137.72 189.885 134.178 Q191.713 130.613 191.713 123.507 Q191.713 116.377 189.885 112.836 Q188.079 109.271 184.445 109.271 M184.445 105.567 Q190.255 105.567 193.311 110.174 Q196.389 114.757 196.389 123.507 Q196.389 132.234 193.311 136.84 Q190.255 141.423 184.445 141.423 Q178.635 141.423 175.556 136.84 Q172.501 132.234 172.501 123.507 Q172.501 114.757 175.556 110.174 Q178.635 105.567 184.445 105.567 Z" fill="#000000" fill-rule="nonzero" fill-opacity="1" /><path clip-path="url(#clip090)" d="M57.2247 911.172 L44.4614 911.172 L44.4614 921.675 L39.1779 921.675 L39.1779 904.806 L59.58 904.806 Q62.2218 908.53 63.5904 913.018 Q64.9272 917.506 64.9272 922.598 Q64.9272 933.738 58.4342 940.04 Q51.9093 946.311 40.2919 946.311 Q28.6427 946.311 22.1496 940.04 Q15.6248 933.738 15.6248 922.598 Q15.6248 917.951 16.7706 913.782 Q17.9164 909.58 20.1444 906.047 L26.9876 906.047 Q23.9639 909.612 22.4361 913.623 Q20.9083 917.633 20.9083 922.057 Q20.9083 930.778 25.7781 935.171 Q30.6479 939.531 40.2919 939.531 Q49.9041 939.531 54.7739 935.171 Q59.6436 930.778 59.6436 922.057 Q59.6436 918.652 59.0707 915.978 Q58.466 913.304 57.2247 911.172 Z" fill="#000000" fill-rule="nonzero" fill-opacity="1" /><path clip-path="url(#clip090)" d="M18.2347 887.523 L28.3562 887.523 L28.3562 875.46 L32.9077 875.46 L32.9077 887.523 L52.2594 887.523 Q56.6199 887.523 57.8613 886.346 Q59.1026 885.136 59.1026 881.476 L59.1026 875.46 L64.0042 875.46 L64.0042 881.476 Q64.0042 888.255 61.4897 890.833 Q58.9434 893.411 52.2594 893.411 L32.9077 893.411 L32.9077 897.708 L28.3562 897.708 L28.3562 893.411 L18.2347 893.411 L18.2347 887.523 Z" fill="#000000" fill-rule="nonzero" fill-opacity="1" /><path clip-path="url(#clip090)" d="M20.1444 831.919 L26.9239 831.919 Q23.9002 835.165 22.4043 838.857 Q20.9083 842.518 20.9083 846.655 Q20.9083 854.803 25.9054 859.132 Q30.8707 863.461 40.2919 863.461 Q49.6813 863.461 54.6784 859.132 Q59.6436 854.803 59.6436 846.655 Q59.6436 842.518 58.1477 838.857 Q56.6518 835.165 53.6281 831.919 L60.3439 831.919 Q62.6355 835.293 63.7814 839.08 Q64.9272 842.836 64.9272 847.037 Q64.9272 857.827 58.3387 864.034 Q51.7183 870.24 40.2919 870.24 Q28.8336 870.24 22.2451 864.034 Q15.6248 857.827 15.6248 847.037 Q15.6248 842.772 16.7706 839.017 Q17.8846 835.229 20.1444 831.919 Z" fill="#000000" fill-rule="nonzero" fill-opacity="1" /><path clip-path="url(#clip090)" d="M20.8447 802.7 Q20.8447 809.702 26.0645 813.84 Q31.2844 817.946 40.2919 817.946 Q49.2675 817.946 54.4874 813.84 Q59.7073 809.702 59.7073 802.7 Q59.7073 795.698 54.4874 791.624 Q49.2675 787.518 40.2919 787.518 Q31.2844 787.518 26.0645 791.624 Q20.8447 795.698 20.8447 802.7 M15.6248 802.7 Q15.6248 792.706 22.3406 786.722 Q29.0246 780.738 40.2919 780.738 Q51.5274 780.738 58.2432 786.722 Q64.9272 792.706 64.9272 802.7 Q64.9272 812.726 58.2432 818.742 Q51.5592 824.726 40.2919 824.726 Q29.0246 824.726 22.3406 818.742 Q15.6248 812.726 15.6248 802.7 Z" fill="#000000" fill-rule="nonzero" fill-opacity="1" /><path clip-path="url(#clip090)" d="M60.3757 768.548 L60.3757 755.053 L64.0042 755.053 L64.0042 774.086 L60.503 774.086 Q59.5163 773.004 57.7339 770.999 Q48.0262 760.05 45.0344 760.05 Q42.9337 760.05 41.6605 761.705 Q40.3556 763.36 40.3556 766.066 Q40.3556 767.721 40.9285 769.662 Q41.4696 771.604 42.5836 773.895 L38.6686 773.895 Q37.7774 771.445 37.3318 769.344 Q36.8862 767.211 36.8862 765.397 Q36.8862 760.782 38.9869 758.013 Q41.0876 755.244 44.5251 755.244 Q48.9493 755.244 57.9886 765.779 Q59.5163 767.561 60.3757 768.548 Z" fill="#000000" fill-rule="nonzero" fill-opacity="1" /><path clip-path="url(#clip090)" d="M16.4842 734.396 L16.4842 728.985 L70.0516 745.536 L70.0516 750.947 L16.4842 734.396 Z" fill="#000000" fill-rule="nonzero" fill-opacity="1" /><path clip-path="url(#clip090)" d="M67.3143 708.01 Q73.68 710.493 75.6216 712.848 Q77.5631 715.204 77.5631 719.15 L77.5631 723.829 L72.6615 723.829 L72.6615 720.392 Q72.6615 717.973 71.5157 716.636 Q70.3699 715.299 66.1048 713.676 L63.4312 712.625 L28.3562 727.044 L28.3562 720.837 L56.238 709.697 L28.3562 698.557 L28.3562 692.351 L67.3143 708.01 Z" fill="#000000" fill-rule="nonzero" fill-opacity="1" /><path clip-path="url(#clip090)" d="M33.8307 663.609 Q33.2578 664.596 33.0032 665.774 Q32.7167 666.92 32.7167 668.32 Q32.7167 673.285 35.9632 675.959 Q39.1779 678.601 45.2253 678.601 L64.0042 678.601 L64.0042 684.489 L28.3562 684.489 L28.3562 678.601 L33.8944 678.601 Q30.6479 676.755 29.0883 673.795 Q27.4968 670.835 27.4968 666.601 Q27.4968 665.997 27.5923 665.265 Q27.656 664.533 27.8151 663.641 L33.8307 663.609 Z" fill="#000000" fill-rule="nonzero" fill-opacity="1" /><path clip-path="url(#clip090)" d="M1048.79 16.7545 L1048.79 25.383 Q1044.66 21.5346 1039.96 19.6307 Q1035.3 17.7268 1030.03 17.7268 Q1019.66 17.7268 1014.15 24.0867 Q1008.64 30.4061 1008.64 42.3968 Q1008.64 54.3469 1014.15 60.7069 Q1019.66 67.0263 1030.03 67.0263 Q1035.3 67.0263 1039.96 65.1223 Q1044.66 63.2184 1048.79 59.3701 L1048.79 67.9175 Q1044.5 70.8341 1039.67 72.2924 Q1034.89 73.7508 1029.55 73.7508 Q1015.81 73.7508 1007.92 65.3654 Q1000.02 56.9395 1000.02 42.3968 Q1000.02 27.8135 1007.92 19.4281 Q1015.81 11.0023 1029.55 11.0023 Q1034.98 11.0023 1039.76 12.4606 Q1044.58 13.8784 1048.79 16.7545 Z" fill="#000000" fill-rule="nonzero" fill-opacity="1" /><path clip-path="url(#clip090)" d="M1085.98 17.6457 Q1077.06 17.6457 1071.8 24.2892 Q1066.57 30.9327 1066.57 42.3968 Q1066.57 53.8203 1071.8 60.4638 Q1077.06 67.1073 1085.98 67.1073 Q1094.89 67.1073 1100.07 60.4638 Q1105.3 53.8203 1105.3 42.3968 Q1105.3 30.9327 1100.07 24.2892 Q1094.89 17.6457 1085.98 17.6457 M1085.98 11.0023 Q1098.7 11.0023 1106.31 19.5497 Q1113.93 28.0566 1113.93 42.3968 Q1113.93 56.6965 1106.31 65.2439 Q1098.7 73.7508 1085.98 73.7508 Q1073.22 73.7508 1065.56 65.2439 Q1057.94 56.737 1057.94 42.3968 Q1057.94 28.0566 1065.56 19.5497 Q1073.22 11.0023 1085.98 11.0023 Z" fill="#000000" fill-rule="nonzero" fill-opacity="1" /><path clip-path="url(#clip090)" d="M1129.44 67.958 L1146.62 67.958 L1146.62 72.576 L1122.39 72.576 L1122.39 68.12 Q1123.77 66.8642 1126.32 64.5957 Q1140.26 52.2405 1140.26 48.4326 Q1140.26 45.759 1138.15 44.1387 Q1136.05 42.4778 1132.6 42.4778 Q1130.5 42.4778 1128.02 43.2069 Q1125.55 43.8956 1122.64 45.3134 L1122.64 40.3308 Q1125.76 39.1965 1128.43 38.6294 Q1131.14 38.0623 1133.45 38.0623 Q1139.33 38.0623 1142.85 40.7359 Q1146.38 43.4095 1146.38 47.7845 Q1146.38 53.4152 1132.97 64.9198 Q1130.7 66.8642 1129.44 67.958 Z" fill="#000000" fill-rule="nonzero" fill-opacity="1" /><path clip-path="url(#clip090)" d="M1224.84 48.0275 L1224.84 51.6733 L1190.57 51.6733 Q1191.06 59.3701 1195.19 63.421 Q1199.36 67.4314 1206.77 67.4314 Q1211.07 67.4314 1215.08 66.3781 Q1219.13 65.3249 1223.1 63.2184 L1223.1 70.267 Q1219.09 71.9684 1214.88 72.8596 Q1210.66 73.7508 1206.33 73.7508 Q1195.47 73.7508 1189.11 67.4314 Q1182.79 61.1119 1182.79 50.3365 Q1182.79 39.1965 1188.79 32.6746 Q1194.82 26.1121 1205.03 26.1121 Q1214.19 26.1121 1219.49 32.0264 Q1224.84 37.9003 1224.84 48.0275 M1217.39 45.84 Q1217.31 39.7232 1213.94 36.0774 Q1210.62 32.4315 1205.11 32.4315 Q1198.88 32.4315 1195.11 35.9558 Q1191.38 39.4801 1190.81 45.8805 L1217.39 45.84 Z" fill="#000000" fill-rule="nonzero" fill-opacity="1" /><path clip-path="url(#clip090)" d="M1272.4 35.9153 Q1275.19 30.8922 1279.08 28.5022 Q1282.97 26.1121 1288.24 26.1121 Q1295.33 26.1121 1299.18 31.0947 Q1303.02 36.0368 1303.02 45.1919 L1303.02 72.576 L1295.53 72.576 L1295.53 45.4349 Q1295.53 38.913 1293.22 35.7533 Q1290.91 32.5936 1286.17 32.5936 Q1280.38 32.5936 1277.02 36.4419 Q1273.65 40.2903 1273.65 46.9338 L1273.65 72.576 L1266.16 72.576 L1266.16 45.4349 Q1266.16 38.8725 1263.85 35.7533 Q1261.54 32.5936 1256.72 32.5936 Q1251.01 32.5936 1247.65 36.4824 Q1244.29 40.3308 1244.29 46.9338 L1244.29 72.576 L1236.79 72.576 L1236.79 27.2059 L1244.29 27.2059 L1244.29 34.2544 Q1246.84 30.082 1250.4 28.0971 Q1253.97 26.1121 1258.87 26.1121 Q1263.81 26.1121 1267.25 28.6237 Q1270.74 31.1352 1272.4 35.9153 Z" fill="#000000" fill-rule="nonzero" fill-opacity="1" /><path clip-path="url(#clip090)" d="M1317.89 27.2059 L1325.34 27.2059 L1325.34 72.576 L1317.89 72.576 L1317.89 27.2059 M1317.89 9.54393 L1325.34 9.54393 L1325.34 18.9825 L1317.89 18.9825 L1317.89 9.54393 Z" fill="#000000" fill-rule="nonzero" fill-opacity="1" /><path clip-path="url(#clip090)" d="M1369.86 28.5427 L1369.86 35.5912 Q1366.7 33.9709 1363.3 33.1607 Q1359.9 32.3505 1356.25 32.3505 Q1350.7 32.3505 1347.91 34.0519 Q1345.15 35.7533 1345.15 39.156 Q1345.15 41.7486 1347.14 43.2475 Q1349.12 44.7058 1355.12 46.0426 L1357.67 46.6097 Q1365.61 48.3111 1368.93 51.4303 Q1372.29 54.509 1372.29 60.0587 Q1372.29 66.3781 1367.27 70.0644 Q1362.29 73.7508 1353.54 73.7508 Q1349.89 73.7508 1345.92 73.0216 Q1341.99 72.3329 1337.62 70.9151 L1337.62 63.2184 Q1341.75 65.3654 1345.76 66.4591 Q1349.77 67.5124 1353.7 67.5124 Q1358.97 67.5124 1361.8 65.73 Q1364.64 63.9071 1364.64 60.6258 Q1364.64 57.5877 1362.57 55.9673 Q1360.55 54.3469 1353.62 52.8481 L1351.03 52.2405 Q1344.1 50.7821 1341.02 47.7845 Q1337.94 44.7463 1337.94 39.4801 Q1337.94 33.0797 1342.48 29.5959 Q1347.02 26.1121 1355.36 26.1121 Q1359.49 26.1121 1363.14 26.7198 Q1366.79 27.3274 1369.86 28.5427 Z" fill="#000000" fill-rule="nonzero" fill-opacity="1" /><path clip-path="url(#clip090)" d="M1413.09 28.5427 L1413.09 35.5912 Q1409.93 33.9709 1406.52 33.1607 Q1403.12 32.3505 1399.48 32.3505 Q1393.93 32.3505 1391.13 34.0519 Q1388.38 35.7533 1388.38 39.156 Q1388.38 41.7486 1390.36 43.2475 Q1392.35 44.7058 1398.34 46.0426 L1400.89 46.6097 Q1408.83 48.3111 1412.16 51.4303 Q1415.52 54.509 1415.52 60.0587 Q1415.52 66.3781 1410.49 70.0644 Q1405.51 73.7508 1396.76 73.7508 Q1393.12 73.7508 1389.15 73.0216 Q1385.22 72.3329 1380.84 70.9151 L1380.84 63.2184 Q1384.97 65.3654 1388.98 66.4591 Q1392.99 67.5124 1396.92 67.5124 Q1402.19 67.5124 1405.03 65.73 Q1407.86 63.9071 1407.86 60.6258 Q1407.86 57.5877 1405.8 55.9673 Q1403.77 54.3469 1396.84 52.8481 L1394.25 52.2405 Q1387.32 50.7821 1384.24 47.7845 Q1381.17 44.7463 1381.17 39.4801 Q1381.17 33.0797 1385.7 29.5959 Q1390.24 26.1121 1398.58 26.1121 Q1402.72 26.1121 1406.36 26.7198 Q1410.01 27.3274 1413.09 28.5427 Z" fill="#000000" fill-rule="nonzero" fill-opacity="1" /><path clip-path="url(#clip090)" d="M1427.39 27.2059 L1434.84 27.2059 L1434.84 72.576 L1427.39 72.576 L1427.39 27.2059 M1427.39 9.54393 L1434.84 9.54393 L1434.84 18.9825 L1427.39 18.9825 L1427.39 9.54393 Z" fill="#000000" fill-rule="nonzero" fill-opacity="1" /><path clip-path="url(#clip090)" d="M1468.02 32.4315 Q1462.02 32.4315 1458.54 37.1306 Q1455.05 41.7891 1455.05 49.9314 Q1455.05 58.0738 1458.5 62.7728 Q1461.98 67.4314 1468.02 67.4314 Q1473.97 67.4314 1477.46 62.7323 Q1480.94 58.0333 1480.94 49.9314 Q1480.94 41.8701 1477.46 37.1711 Q1473.97 32.4315 1468.02 32.4315 M1468.02 26.1121 Q1477.74 26.1121 1483.29 32.4315 Q1488.84 38.7509 1488.84 49.9314 Q1488.84 61.0714 1483.29 67.4314 Q1477.74 73.7508 1468.02 73.7508 Q1458.25 73.7508 1452.7 67.4314 Q1447.2 61.0714 1447.2 49.9314 Q1447.2 38.7509 1452.7 32.4315 Q1458.25 26.1121 1468.02 26.1121 Z" fill="#000000" fill-rule="nonzero" fill-opacity="1" /><path clip-path="url(#clip090)" d="M1538.91 45.1919 L1538.91 72.576 L1531.45 72.576 L1531.45 45.4349 Q1531.45 38.994 1528.94 35.7938 Q1526.43 32.5936 1521.41 32.5936 Q1515.37 32.5936 1511.89 36.4419 Q1508.4 40.2903 1508.4 46.9338 L1508.4 72.576 L1500.91 72.576 L1500.91 27.2059 L1508.4 27.2059 L1508.4 34.2544 Q1511.08 30.163 1514.68 28.1376 Q1518.33 26.1121 1523.07 26.1121 Q1530.89 26.1121 1534.9 30.9732 Q1538.91 35.7938 1538.91 45.1919 Z" fill="#000000" fill-rule="nonzero" fill-opacity="1" /><path clip-path="url(#clip090)" d="M1582.7 28.5427 L1582.7 35.5912 Q1579.54 33.9709 1576.14 33.1607 Q1572.73 32.3505 1569.09 32.3505 Q1563.54 32.3505 1560.74 34.0519 Q1557.99 35.7533 1557.99 39.156 Q1557.99 41.7486 1559.97 43.2475 Q1561.96 44.7058 1567.95 46.0426 L1570.51 46.6097 Q1578.44 48.3111 1581.77 51.4303 Q1585.13 54.509 1585.13 60.0587 Q1585.13 66.3781 1580.11 70.0644 Q1575.12 73.7508 1566.37 73.7508 Q1562.73 73.7508 1558.76 73.0216 Q1554.83 72.3329 1550.45 70.9151 L1550.45 63.2184 Q1554.59 65.3654 1558.6 66.4591 Q1562.61 67.5124 1566.54 67.5124 Q1571.8 67.5124 1574.64 65.73 Q1577.47 63.9071 1577.47 60.6258 Q1577.47 57.5877 1575.41 55.9673 Q1573.38 54.3469 1566.45 52.8481 L1563.86 52.2405 Q1556.93 50.7821 1553.86 47.7845 Q1550.78 44.7463 1550.78 39.4801 Q1550.78 33.0797 1555.31 29.5959 Q1559.85 26.1121 1568.2 26.1121 Q1572.33 26.1121 1575.97 26.7198 Q1579.62 27.3274 1582.7 28.5427 Z" fill="#000000" fill-rule="nonzero" fill-opacity="1" /><polyline clip-path="url(#clip092)" style="stroke:#cd0000; stroke-linecap:round; stroke-linejoin:round; stroke-width:8; stroke-opacity:1; fill:none" points="292.4,448 492.434,266.061 692.469,307.452 892.503,393.777 1092.54,509.956 1292.57,646.055 1492.61,801.486 1692.64,918.835 1892.68,1021.58 2092.71,1139.47 2292.75,1273.11 "/>
<polyline clip-path="url(#clip092)" style="stroke:#00cd00; stroke-linecap:round; stroke-linejoin:round; stroke-width:8; stroke-opacity:1; fill:none" stroke-dasharray="32, 20" points="292.4,448 492.434,281.66 692.469,333.068 892.503,423.946 1092.54,559.173 1292.57,717.713 1492.61,847.77 1692.64,932.241 1892.68,1027.67 2092.71,1138.85 2292.75,1267.29 "/>
<polyline clip-path="url(#clip092)" style="stroke:#0000cd; stroke-linecap:round; stroke-linejoin:round; stroke-width:8; stroke-opacity:1; fill:none" stroke-dasharray="32, 16, 4, 16" points="292.4,448 492.434,265.07 692.469,303.703 892.503,386.991 1092.54,520.378 1292.57,681.319 1492.61,851.933 1692.64,996.911 1892.68,1106.69 2092.71,1227.84 2292.75,1365.28 "/>
<path clip-path="url(#clip090)" d="M1285.85 376.265 L2282.08 376.265 L2282.08 168.905 L1285.85 168.905  Z" fill="#ffffff" fill-rule="evenodd" fill-opacity="1"/>
<polyline clip-path="url(#clip090)" style="stroke:#000000; stroke-linecap:round; stroke-linejoin:round; stroke-width:4; stroke-opacity:1; fill:none" points="1285.85,376.265 2282.08,376.265 2282.08,168.905 1285.85,168.905 1285.85,376.265 "/>
<polyline clip-path="url(#clip090)" style="stroke:#cd0000; stroke-linecap:round; stroke-linejoin:round; stroke-width:8; stroke-opacity:1; fill:none" points="1309.41,220.745 1450.77,220.745 "/>
<path clip-path="url(#clip090)" d="M1479.01 207.307 L1479.01 220.293 L1484.89 220.293 Q1488.15 220.293 1489.93 218.603 Q1491.72 216.914 1491.72 213.789 Q1491.72 210.687 1489.93 208.997 Q1488.15 207.307 1484.89 207.307 L1479.01 207.307 M1474.33 203.465 L1484.89 203.465 Q1490.7 203.465 1493.66 206.104 Q1496.65 208.719 1496.65 213.789 Q1496.65 218.904 1493.66 221.52 Q1490.7 224.136 1484.89 224.136 L1479.01 224.136 L1479.01 238.025 L1474.33 238.025 L1474.33 203.465 Z" fill="#000000" fill-rule="nonzero" fill-opacity="1" /><path clip-path="url(#clip090)" d="M1516.92 216.08 Q1516.21 215.664 1515.35 215.478 Q1514.52 215.27 1513.5 215.27 Q1509.89 215.27 1507.94 217.631 Q1506.02 219.969 1506.02 224.367 L1506.02 238.025 L1501.74 238.025 L1501.74 212.099 L1506.02 212.099 L1506.02 216.127 Q1507.36 213.766 1509.52 212.631 Q1511.67 211.474 1514.75 211.474 Q1515.19 211.474 1515.72 211.543 Q1516.25 211.59 1516.9 211.705 L1516.92 216.08 Z" fill="#000000" fill-rule="nonzero" fill-opacity="1" /><path clip-path="url(#clip090)" d="M1542.53 223.997 L1542.53 226.08 L1522.94 226.08 Q1523.22 230.478 1525.58 232.793 Q1527.97 235.085 1532.2 235.085 Q1534.66 235.085 1536.95 234.483 Q1539.26 233.881 1541.53 232.677 L1541.53 236.705 Q1539.24 237.677 1536.83 238.187 Q1534.42 238.696 1531.95 238.696 Q1525.74 238.696 1522.11 235.085 Q1518.5 231.474 1518.5 225.316 Q1518.5 218.951 1521.92 215.224 Q1525.37 211.474 1531.21 211.474 Q1536.44 211.474 1539.47 214.853 Q1542.53 218.21 1542.53 223.997 M1538.27 222.747 Q1538.22 219.252 1536.3 217.168 Q1534.4 215.085 1531.25 215.085 Q1527.69 215.085 1525.54 217.099 Q1523.41 219.113 1523.08 222.77 L1538.27 222.747 Z" fill="#000000" fill-rule="nonzero" fill-opacity="1" /><path clip-path="url(#clip090)" d="M1562.64 202.006 L1562.64 205.548 L1558.57 205.548 Q1556.28 205.548 1555.37 206.474 Q1554.49 207.4 1554.49 209.807 L1554.49 212.099 L1561.51 212.099 L1561.51 215.409 L1554.49 215.409 L1554.49 238.025 L1550.21 238.025 L1550.21 215.409 L1546.14 215.409 L1546.14 212.099 L1550.21 212.099 L1550.21 210.293 Q1550.21 205.965 1552.22 203.997 Q1554.24 202.006 1558.61 202.006 L1562.64 202.006 Z" fill="#000000" fill-rule="nonzero" fill-opacity="1" /><path clip-path="url(#clip090)" d="M1585.49 204.738 L1585.49 212.099 L1594.26 212.099 L1594.26 215.409 L1585.49 215.409 L1585.49 229.483 Q1585.49 232.654 1586.35 233.557 Q1587.22 234.46 1589.89 234.46 L1594.26 234.46 L1594.26 238.025 L1589.89 238.025 Q1584.96 238.025 1583.08 236.196 Q1581.21 234.344 1581.21 229.483 L1581.21 215.409 L1578.08 215.409 L1578.08 212.099 L1581.21 212.099 L1581.21 204.738 L1585.49 204.738 Z" fill="#000000" fill-rule="nonzero" fill-opacity="1" /><path clip-path="url(#clip090)" d="M1609.91 215.085 Q1606.48 215.085 1604.49 217.77 Q1602.5 220.432 1602.5 225.085 Q1602.5 229.738 1604.47 232.423 Q1606.46 235.085 1609.91 235.085 Q1613.31 235.085 1615.3 232.4 Q1617.29 229.715 1617.29 225.085 Q1617.29 220.478 1615.3 217.793 Q1613.31 215.085 1609.91 215.085 M1609.91 211.474 Q1615.47 211.474 1618.64 215.085 Q1621.81 218.696 1621.81 225.085 Q1621.81 231.451 1618.64 235.085 Q1615.47 238.696 1609.91 238.696 Q1604.33 238.696 1601.16 235.085 Q1598.01 231.451 1598.01 225.085 Q1598.01 218.696 1601.16 215.085 Q1604.33 211.474 1609.91 211.474 Z" fill="#000000" fill-rule="nonzero" fill-opacity="1" /><path clip-path="url(#clip090)" d="M1661 216.034 L1661 202.006 L1665.26 202.006 L1665.26 238.025 L1661 238.025 L1661 234.136 Q1659.65 236.451 1657.59 237.585 Q1655.56 238.696 1652.69 238.696 Q1647.99 238.696 1645.03 234.946 Q1642.09 231.196 1642.09 225.085 Q1642.09 218.974 1645.03 215.224 Q1647.99 211.474 1652.69 211.474 Q1655.56 211.474 1657.59 212.608 Q1659.65 213.719 1661 216.034 M1646.48 225.085 Q1646.48 229.784 1648.4 232.469 Q1650.35 235.131 1653.73 235.131 Q1657.11 235.131 1659.05 232.469 Q1661 229.784 1661 225.085 Q1661 220.386 1659.05 217.724 Q1657.11 215.039 1653.73 215.039 Q1650.35 215.039 1648.4 217.724 Q1646.48 220.386 1646.48 225.085 Z" fill="#000000" fill-rule="nonzero" fill-opacity="1" /><path clip-path="url(#clip090)" d="M1696.21 223.997 L1696.21 226.08 L1676.62 226.08 Q1676.9 230.478 1679.26 232.793 Q1681.65 235.085 1685.88 235.085 Q1688.34 235.085 1690.63 234.483 Q1692.94 233.881 1695.21 232.677 L1695.21 236.705 Q1692.92 237.677 1690.51 238.187 Q1688.1 238.696 1685.63 238.696 Q1679.42 238.696 1675.79 235.085 Q1672.18 231.474 1672.18 225.316 Q1672.18 218.951 1675.6 215.224 Q1679.05 211.474 1684.89 211.474 Q1690.12 211.474 1693.15 214.853 Q1696.21 218.21 1696.21 223.997 M1691.95 222.747 Q1691.9 219.252 1689.98 217.168 Q1688.08 215.085 1684.93 215.085 Q1681.37 215.085 1679.21 217.099 Q1677.09 219.113 1676.76 222.77 L1691.95 222.747 Z" fill="#000000" fill-rule="nonzero" fill-opacity="1" /><path clip-path="url(#clip090)" d="M1700.14 212.099 L1704.65 212.099 L1712.76 233.858 L1720.86 212.099 L1725.37 212.099 L1715.65 238.025 L1709.86 238.025 L1700.14 212.099 Z" fill="#000000" fill-rule="nonzero" fill-opacity="1" /><path clip-path="url(#clip090)" d="M1753.43 223.997 L1753.43 226.08 L1733.84 226.08 Q1734.12 230.478 1736.48 232.793 Q1738.87 235.085 1743.1 235.085 Q1745.56 235.085 1747.85 234.483 Q1750.16 233.881 1752.43 232.677 L1752.43 236.705 Q1750.14 237.677 1747.73 238.187 Q1745.33 238.696 1742.85 238.696 Q1736.65 238.696 1733.01 235.085 Q1729.4 231.474 1729.4 225.316 Q1729.4 218.951 1732.83 215.224 Q1736.27 211.474 1742.11 211.474 Q1747.34 211.474 1750.37 214.853 Q1753.43 218.21 1753.43 223.997 M1749.17 222.747 Q1749.12 219.252 1747.2 217.168 Q1745.3 215.085 1742.15 215.085 Q1738.59 215.085 1736.44 217.099 Q1734.31 219.113 1733.98 222.77 L1749.17 222.747 Z" fill="#000000" fill-rule="nonzero" fill-opacity="1" /><path clip-path="url(#clip090)" d="M1760.42 202.006 L1764.68 202.006 L1764.68 238.025 L1760.42 238.025 L1760.42 202.006 Z" fill="#000000" fill-rule="nonzero" fill-opacity="1" /><path clip-path="url(#clip090)" d="M1783.64 215.085 Q1780.21 215.085 1778.22 217.77 Q1776.23 220.432 1776.23 225.085 Q1776.23 229.738 1778.2 232.423 Q1780.19 235.085 1783.64 235.085 Q1787.04 235.085 1789.03 232.4 Q1791.02 229.715 1791.02 225.085 Q1791.02 220.478 1789.03 217.793 Q1787.04 215.085 1783.64 215.085 M1783.64 211.474 Q1789.19 211.474 1792.36 215.085 Q1795.53 218.696 1795.53 225.085 Q1795.53 231.451 1792.36 235.085 Q1789.19 238.696 1783.64 238.696 Q1778.06 238.696 1774.89 235.085 Q1771.74 231.451 1771.74 225.085 Q1771.74 218.696 1774.89 215.085 Q1778.06 211.474 1783.64 211.474 Z" fill="#000000" fill-rule="nonzero" fill-opacity="1" /><path clip-path="url(#clip090)" d="M1806.71 234.136 L1806.71 247.886 L1802.43 247.886 L1802.43 212.099 L1806.71 212.099 L1806.71 216.034 Q1808.06 213.719 1810.09 212.608 Q1812.15 211.474 1815 211.474 Q1819.72 211.474 1822.66 215.224 Q1825.63 218.974 1825.63 225.085 Q1825.63 231.196 1822.66 234.946 Q1819.72 238.696 1815 238.696 Q1812.15 238.696 1810.09 237.585 Q1808.06 236.451 1806.71 234.136 M1821.2 225.085 Q1821.2 220.386 1819.26 217.724 Q1817.34 215.039 1813.96 215.039 Q1810.58 215.039 1808.64 217.724 Q1806.71 220.386 1806.71 225.085 Q1806.71 229.784 1808.64 232.469 Q1810.58 235.131 1813.96 235.131 Q1817.34 235.131 1819.26 232.469 Q1821.2 229.784 1821.2 225.085 Z" fill="#000000" fill-rule="nonzero" fill-opacity="1" /><path clip-path="url(#clip090)" d="M1854.86 223.997 L1854.86 226.08 L1835.28 226.08 Q1835.56 230.478 1837.92 232.793 Q1840.3 235.085 1844.54 235.085 Q1846.99 235.085 1849.28 234.483 Q1851.6 233.881 1853.87 232.677 L1853.87 236.705 Q1851.58 237.677 1849.17 238.187 Q1846.76 238.696 1844.28 238.696 Q1838.08 238.696 1834.45 235.085 Q1830.83 231.474 1830.83 225.316 Q1830.83 218.951 1834.26 215.224 Q1837.71 211.474 1843.54 211.474 Q1848.77 211.474 1851.81 214.853 Q1854.86 218.21 1854.86 223.997 M1850.6 222.747 Q1850.56 219.252 1848.64 217.168 Q1846.74 215.085 1843.59 215.085 Q1840.02 215.085 1837.87 217.099 Q1835.74 219.113 1835.42 222.77 L1850.6 222.747 Z" fill="#000000" fill-rule="nonzero" fill-opacity="1" /><path clip-path="url(#clip090)" d="M1878.91 216.034 L1878.91 202.006 L1883.17 202.006 L1883.17 238.025 L1878.91 238.025 L1878.91 234.136 Q1877.57 236.451 1875.51 237.585 Q1873.47 238.696 1870.6 238.696 Q1865.9 238.696 1862.94 234.946 Q1860 231.196 1860 225.085 Q1860 218.974 1862.94 215.224 Q1865.9 211.474 1870.6 211.474 Q1873.47 211.474 1875.51 212.608 Q1877.57 213.719 1878.91 216.034 M1864.4 225.085 Q1864.4 229.784 1866.32 232.469 Q1868.26 235.131 1871.64 235.131 Q1875.02 235.131 1876.97 232.469 Q1878.91 229.784 1878.91 225.085 Q1878.91 220.386 1876.97 217.724 Q1875.02 215.039 1871.64 215.039 Q1868.26 215.039 1866.32 217.724 Q1864.4 220.386 1864.4 225.085 Z" fill="#000000" fill-rule="nonzero" fill-opacity="1" /><path clip-path="url(#clip090)" d="M1925.67 213.094 L1925.67 217.076 Q1923.87 216.08 1922.04 215.594 Q1920.23 215.085 1918.38 215.085 Q1914.24 215.085 1911.95 217.724 Q1909.65 220.34 1909.65 225.085 Q1909.65 229.83 1911.95 232.469 Q1914.24 235.085 1918.38 235.085 Q1920.23 235.085 1922.04 234.599 Q1923.87 234.089 1925.67 233.094 L1925.67 237.029 Q1923.89 237.863 1921.97 238.279 Q1920.07 238.696 1917.92 238.696 Q1912.06 238.696 1908.61 235.015 Q1905.16 231.335 1905.16 225.085 Q1905.16 218.742 1908.64 215.108 Q1912.13 211.474 1918.2 211.474 Q1920.16 211.474 1922.04 211.891 Q1923.91 212.284 1925.67 213.094 Z" fill="#000000" fill-rule="nonzero" fill-opacity="1" /><path clip-path="url(#clip090)" d="M1943.13 215.085 Q1939.7 215.085 1937.71 217.77 Q1935.72 220.432 1935.72 225.085 Q1935.72 229.738 1937.69 232.423 Q1939.68 235.085 1943.13 235.085 Q1946.53 235.085 1948.52 232.4 Q1950.51 229.715 1950.51 225.085 Q1950.51 220.478 1948.52 217.793 Q1946.53 215.085 1943.13 215.085 M1943.13 211.474 Q1948.68 211.474 1951.85 215.085 Q1955.02 218.696 1955.02 225.085 Q1955.02 231.451 1951.85 235.085 Q1948.68 238.696 1943.13 238.696 Q1937.55 238.696 1934.38 235.085 Q1931.23 231.451 1931.23 225.085 Q1931.23 218.696 1934.38 215.085 Q1937.55 211.474 1943.13 211.474 Z" fill="#000000" fill-rule="nonzero" fill-opacity="1" /><path clip-path="url(#clip090)" d="M1961.64 227.793 L1961.64 212.099 L1965.9 212.099 L1965.9 227.631 Q1965.9 231.312 1967.34 233.164 Q1968.77 234.992 1971.64 234.992 Q1975.09 234.992 1977.08 232.793 Q1979.1 230.594 1979.1 226.798 L1979.1 212.099 L1983.36 212.099 L1983.36 238.025 L1979.1 238.025 L1979.1 234.043 Q1977.55 236.404 1975.49 237.562 Q1973.45 238.696 1970.74 238.696 Q1966.27 238.696 1963.96 235.918 Q1961.64 233.14 1961.64 227.793 M1972.36 211.474 L1972.36 211.474 Z" fill="#000000" fill-rule="nonzero" fill-opacity="1" /><path clip-path="url(#clip090)" d="M2013.68 222.377 L2013.68 238.025 L2009.42 238.025 L2009.42 222.515 Q2009.42 218.835 2007.99 217.006 Q2006.55 215.178 2003.68 215.178 Q2000.23 215.178 1998.24 217.377 Q1996.25 219.576 1996.25 223.372 L1996.25 238.025 L1991.97 238.025 L1991.97 212.099 L1996.25 212.099 L1996.25 216.127 Q1997.78 213.789 1999.84 212.631 Q2001.92 211.474 2004.63 211.474 Q2009.1 211.474 2011.39 214.252 Q2013.68 217.006 2013.68 222.377 Z" fill="#000000" fill-rule="nonzero" fill-opacity="1" /><path clip-path="url(#clip090)" d="M2026.39 204.738 L2026.39 212.099 L2035.16 212.099 L2035.16 215.409 L2026.39 215.409 L2026.39 229.483 Q2026.39 232.654 2027.25 233.557 Q2028.13 234.46 2030.79 234.46 L2035.16 234.46 L2035.16 238.025 L2030.79 238.025 Q2025.86 238.025 2023.98 236.196 Q2022.11 234.344 2022.11 229.483 L2022.11 215.409 L2018.98 215.409 L2018.98 212.099 L2022.11 212.099 L2022.11 204.738 L2026.39 204.738 Z" fill="#000000" fill-rule="nonzero" fill-opacity="1" /><path clip-path="url(#clip090)" d="M2055.79 216.08 Q2055.07 215.664 2054.21 215.478 Q2053.38 215.27 2052.36 215.27 Q2048.75 215.27 2046.81 217.631 Q2044.88 219.969 2044.88 224.367 L2044.88 238.025 L2040.6 238.025 L2040.6 212.099 L2044.88 212.099 L2044.88 216.127 Q2046.23 213.766 2048.38 212.631 Q2050.53 211.474 2053.61 211.474 Q2054.05 211.474 2054.58 211.543 Q2055.12 211.59 2055.76 211.705 L2055.79 216.08 Z" fill="#000000" fill-rule="nonzero" fill-opacity="1" /><path clip-path="url(#clip090)" d="M2060.25 212.099 L2064.51 212.099 L2064.51 238.025 L2060.25 238.025 L2060.25 212.099 M2060.25 202.006 L2064.51 202.006 L2064.51 207.4 L2060.25 207.4 L2060.25 202.006 Z" fill="#000000" fill-rule="nonzero" fill-opacity="1" /><path clip-path="url(#clip090)" d="M2095.6 223.997 L2095.6 226.08 L2076.02 226.08 Q2076.3 230.478 2078.66 232.793 Q2081.04 235.085 2085.28 235.085 Q2087.73 235.085 2090.02 234.483 Q2092.34 233.881 2094.61 232.677 L2094.61 236.705 Q2092.31 237.677 2089.91 238.187 Q2087.5 238.696 2085.02 238.696 Q2078.82 238.696 2075.19 235.085 Q2071.57 231.474 2071.57 225.316 Q2071.57 218.951 2075 215.224 Q2078.45 211.474 2084.28 211.474 Q2089.51 211.474 2092.55 214.853 Q2095.6 218.21 2095.6 223.997 M2091.34 222.747 Q2091.3 219.252 2089.37 217.168 Q2087.48 215.085 2084.33 215.085 Q2080.76 215.085 2078.61 217.099 Q2076.48 219.113 2076.16 222.77 L2091.34 222.747 Z" fill="#000000" fill-rule="nonzero" fill-opacity="1" /><path clip-path="url(#clip090)" d="M2119.12 212.863 L2119.12 216.891 Q2117.31 215.965 2115.37 215.502 Q2113.43 215.039 2111.34 215.039 Q2108.17 215.039 2106.57 216.011 Q2105 216.983 2105 218.928 Q2105 220.409 2106.13 221.265 Q2107.27 222.099 2110.69 222.863 L2112.15 223.187 Q2116.69 224.159 2118.59 225.941 Q2120.51 227.701 2120.51 230.872 Q2120.51 234.483 2117.64 236.589 Q2114.79 238.696 2109.79 238.696 Q2107.71 238.696 2105.44 238.279 Q2103.19 237.886 2100.69 237.076 L2100.69 232.677 Q2103.06 233.904 2105.35 234.529 Q2107.64 235.131 2109.88 235.131 Q2112.89 235.131 2114.51 234.113 Q2116.13 233.071 2116.13 231.196 Q2116.13 229.46 2114.95 228.534 Q2113.8 227.608 2109.84 226.752 L2108.36 226.404 Q2104.4 225.571 2102.64 223.858 Q2100.88 222.122 2100.88 219.113 Q2100.88 215.455 2103.47 213.465 Q2106.06 211.474 2110.83 211.474 Q2113.19 211.474 2115.28 211.821 Q2117.36 212.168 2119.12 212.863 Z" fill="#000000" fill-rule="nonzero" fill-opacity="1" /><polyline clip-path="url(#clip090)" style="stroke:#00cd00; stroke-linecap:round; stroke-linejoin:round; stroke-width:8; stroke-opacity:1; fill:none" stroke-dasharray="32, 20" points="1309.41,272.585 1450.77,272.585 "/>
<path clip-path="url(#clip090)" d="M1474.33 255.305 L1496.18 255.305 L1496.18 259.24 L1479.01 259.24 L1479.01 269.471 L1495.47 269.471 L1495.47 273.406 L1479.01 273.406 L1479.01 285.929 L1496.6 285.929 L1496.6 289.865 L1474.33 289.865 L1474.33 255.305 Z" fill="#000000" fill-rule="nonzero" fill-opacity="1" /><path clip-path="url(#clip090)" d="M1506.65 276.925 Q1506.65 281.624 1508.57 284.309 Q1510.51 286.971 1513.89 286.971 Q1517.27 286.971 1519.22 284.309 Q1521.16 281.624 1521.16 276.925 Q1521.16 272.226 1519.22 269.564 Q1517.27 266.879 1513.89 266.879 Q1510.51 266.879 1508.57 269.564 Q1506.65 272.226 1506.65 276.925 M1521.16 285.976 Q1519.82 288.291 1517.76 289.425 Q1515.72 290.536 1512.85 290.536 Q1508.15 290.536 1505.19 286.786 Q1502.25 283.036 1502.25 276.925 Q1502.25 270.814 1505.19 267.064 Q1508.15 263.314 1512.85 263.314 Q1515.72 263.314 1517.76 264.448 Q1519.82 265.559 1521.16 267.874 L1521.16 263.939 L1525.42 263.939 L1525.42 299.726 L1521.16 299.726 L1521.16 285.976 Z" fill="#000000" fill-rule="nonzero" fill-opacity="1" /><path clip-path="url(#clip090)" d="M1533.75 279.633 L1533.75 263.939 L1538.01 263.939 L1538.01 279.471 Q1538.01 283.152 1539.45 285.004 Q1540.88 286.832 1543.75 286.832 Q1547.2 286.832 1549.19 284.633 Q1551.21 282.434 1551.21 278.638 L1551.21 263.939 L1555.47 263.939 L1555.47 289.865 L1551.21 289.865 L1551.21 285.883 Q1549.66 288.244 1547.6 289.402 Q1545.56 290.536 1542.85 290.536 Q1538.38 290.536 1536.07 287.758 Q1533.75 284.98 1533.75 279.633 M1544.47 263.314 L1544.47 263.314 Z" fill="#000000" fill-rule="nonzero" fill-opacity="1" /><path clip-path="url(#clip090)" d="M1576.02 276.832 Q1570.86 276.832 1568.87 278.013 Q1566.88 279.193 1566.88 282.041 Q1566.88 284.309 1568.36 285.652 Q1569.86 286.971 1572.43 286.971 Q1575.97 286.971 1578.1 284.471 Q1580.26 281.948 1580.26 277.781 L1580.26 276.832 L1576.02 276.832 M1584.52 275.073 L1584.52 289.865 L1580.26 289.865 L1580.26 285.929 Q1578.8 288.291 1576.62 289.425 Q1574.45 290.536 1571.3 290.536 Q1567.32 290.536 1564.96 288.314 Q1562.62 286.068 1562.62 282.318 Q1562.62 277.943 1565.53 275.721 Q1568.47 273.499 1574.28 273.499 L1580.26 273.499 L1580.26 273.082 Q1580.26 270.143 1578.31 268.545 Q1576.39 266.925 1572.9 266.925 Q1570.67 266.925 1568.57 267.457 Q1566.46 267.99 1564.52 269.055 L1564.52 265.119 Q1566.85 264.217 1569.05 263.777 Q1571.25 263.314 1573.34 263.314 Q1578.96 263.314 1581.74 266.231 Q1584.52 269.147 1584.52 275.073 Z" fill="#000000" fill-rule="nonzero" fill-opacity="1" /><path clip-path="url(#clip090)" d="M1593.29 253.846 L1597.55 253.846 L1597.55 289.865 L1593.29 289.865 L1593.29 253.846 Z" fill="#000000" fill-rule="nonzero" fill-opacity="1" /><path clip-path="url(#clip090)" d="M1625.65 285.976 L1625.65 299.726 L1621.37 299.726 L1621.37 263.939 L1625.65 263.939 L1625.65 267.874 Q1626.99 265.559 1629.03 264.448 Q1631.09 263.314 1633.94 263.314 Q1638.66 263.314 1641.6 267.064 Q1644.56 270.814 1644.56 276.925 Q1644.56 283.036 1641.6 286.786 Q1638.66 290.536 1633.94 290.536 Q1631.09 290.536 1629.03 289.425 Q1626.99 288.291 1625.65 285.976 M1640.14 276.925 Q1640.14 272.226 1638.2 269.564 Q1636.28 266.879 1632.9 266.879 Q1629.52 266.879 1627.57 269.564 Q1625.65 272.226 1625.65 276.925 Q1625.65 281.624 1627.57 284.309 Q1629.52 286.971 1632.9 286.971 Q1636.28 286.971 1638.2 284.309 Q1640.14 281.624 1640.14 276.925 Z" fill="#000000" fill-rule="nonzero" fill-opacity="1" /><path clip-path="url(#clip090)" d="M1666.65 267.92 Q1665.93 267.504 1665.07 267.318 Q1664.24 267.11 1663.22 267.11 Q1659.61 267.11 1657.66 269.471 Q1655.74 271.809 1655.74 276.207 L1655.74 289.865 L1651.46 289.865 L1651.46 263.939 L1655.74 263.939 L1655.74 267.967 Q1657.09 265.606 1659.24 264.471 Q1661.39 263.314 1664.47 263.314 Q1664.91 263.314 1665.44 263.383 Q1665.97 263.43 1666.62 263.545 L1666.65 267.92 Z" fill="#000000" fill-rule="nonzero" fill-opacity="1" /><path clip-path="url(#clip090)" d="M1692.25 275.837 L1692.25 277.92 L1672.66 277.92 Q1672.94 282.318 1675.3 284.633 Q1677.69 286.925 1681.92 286.925 Q1684.38 286.925 1686.67 286.323 Q1688.98 285.721 1691.25 284.517 L1691.25 288.545 Q1688.96 289.517 1686.55 290.027 Q1684.15 290.536 1681.67 290.536 Q1675.46 290.536 1671.83 286.925 Q1668.22 283.314 1668.22 277.156 Q1668.22 270.791 1671.65 267.064 Q1675.09 263.314 1680.93 263.314 Q1686.16 263.314 1689.19 266.693 Q1692.25 270.05 1692.25 275.837 M1687.99 274.587 Q1687.94 271.092 1686.02 269.008 Q1684.12 266.925 1680.97 266.925 Q1677.41 266.925 1675.26 268.939 Q1673.13 270.953 1672.8 274.61 L1687.99 274.587 Z" fill="#000000" fill-rule="nonzero" fill-opacity="1" /><path clip-path="url(#clip090)" d="M1712.36 253.846 L1712.36 257.388 L1708.29 257.388 Q1706 257.388 1705.09 258.314 Q1704.21 259.24 1704.21 261.647 L1704.21 263.939 L1711.23 263.939 L1711.23 267.249 L1704.21 267.249 L1704.21 289.865 L1699.93 289.865 L1699.93 267.249 L1695.86 267.249 L1695.86 263.939 L1699.93 263.939 L1699.93 262.133 Q1699.93 257.805 1701.95 255.837 Q1703.96 253.846 1708.34 253.846 L1712.36 253.846 Z" fill="#000000" fill-rule="nonzero" fill-opacity="1" /><path clip-path="url(#clip090)" d="M1738.1 275.837 L1738.1 277.92 L1718.52 277.92 Q1718.8 282.318 1721.16 284.633 Q1723.54 286.925 1727.78 286.925 Q1730.23 286.925 1732.52 286.323 Q1734.84 285.721 1737.11 284.517 L1737.11 288.545 Q1734.82 289.517 1732.41 290.027 Q1730 290.536 1727.52 290.536 Q1721.32 290.536 1717.69 286.925 Q1714.08 283.314 1714.08 277.156 Q1714.08 270.791 1717.5 267.064 Q1720.95 263.314 1726.78 263.314 Q1732.02 263.314 1735.05 266.693 Q1738.1 270.05 1738.1 275.837 M1733.84 274.587 Q1733.8 271.092 1731.88 269.008 Q1729.98 266.925 1726.83 266.925 Q1723.27 266.925 1721.11 268.939 Q1718.98 270.953 1718.66 274.61 L1733.84 274.587 Z" fill="#000000" fill-rule="nonzero" fill-opacity="1" /><path clip-path="url(#clip090)" d="M1760.12 267.92 Q1759.4 267.504 1758.54 267.318 Q1757.71 267.11 1756.69 267.11 Q1753.08 267.11 1751.14 269.471 Q1749.21 271.809 1749.21 276.207 L1749.21 289.865 L1744.93 289.865 L1744.93 263.939 L1749.21 263.939 L1749.21 267.967 Q1750.56 265.606 1752.71 264.471 Q1754.86 263.314 1757.94 263.314 Q1758.38 263.314 1758.91 263.383 Q1759.45 263.43 1760.09 263.545 L1760.12 267.92 Z" fill="#000000" fill-rule="nonzero" fill-opacity="1" /><path clip-path="url(#clip090)" d="M1785.72 275.837 L1785.72 277.92 L1766.14 277.92 Q1766.41 282.318 1768.77 284.633 Q1771.16 286.925 1775.39 286.925 Q1777.85 286.925 1780.14 286.323 Q1782.46 285.721 1784.72 284.517 L1784.72 288.545 Q1782.43 289.517 1780.02 290.027 Q1777.62 290.536 1775.14 290.536 Q1768.94 290.536 1765.3 286.925 Q1761.69 283.314 1761.69 277.156 Q1761.69 270.791 1765.12 267.064 Q1768.57 263.314 1774.4 263.314 Q1779.63 263.314 1782.66 266.693 Q1785.72 270.05 1785.72 275.837 M1781.46 274.587 Q1781.41 271.092 1779.49 269.008 Q1777.59 266.925 1774.45 266.925 Q1770.88 266.925 1768.73 268.939 Q1766.6 270.953 1766.27 274.61 L1781.46 274.587 Z" fill="#000000" fill-rule="nonzero" fill-opacity="1" /><path clip-path="url(#clip090)" d="M1814.26 274.217 L1814.26 289.865 L1810 289.865 L1810 274.355 Q1810 270.675 1808.57 268.846 Q1807.13 267.018 1804.26 267.018 Q1800.81 267.018 1798.82 269.217 Q1796.83 271.416 1796.83 275.212 L1796.83 289.865 L1792.55 289.865 L1792.55 263.939 L1796.83 263.939 L1796.83 267.967 Q1798.36 265.629 1800.42 264.471 Q1802.5 263.314 1805.21 263.314 Q1809.68 263.314 1811.97 266.092 Q1814.26 268.846 1814.26 274.217 Z" fill="#000000" fill-rule="nonzero" fill-opacity="1" /><path clip-path="url(#clip090)" d="M1841.41 264.934 L1841.41 268.916 Q1839.61 267.92 1837.78 267.434 Q1835.97 266.925 1834.12 266.925 Q1829.98 266.925 1827.69 269.564 Q1825.39 272.18 1825.39 276.925 Q1825.39 281.67 1827.69 284.309 Q1829.98 286.925 1834.12 286.925 Q1835.97 286.925 1837.78 286.439 Q1839.61 285.929 1841.41 284.934 L1841.41 288.869 Q1839.63 289.703 1837.71 290.119 Q1835.81 290.536 1833.66 290.536 Q1827.8 290.536 1824.35 286.855 Q1820.9 283.175 1820.9 276.925 Q1820.9 270.582 1824.38 266.948 Q1827.87 263.314 1833.94 263.314 Q1835.9 263.314 1837.78 263.731 Q1839.65 264.124 1841.41 264.934 Z" fill="#000000" fill-rule="nonzero" fill-opacity="1" /><path clip-path="url(#clip090)" d="M1871 275.837 L1871 277.92 L1851.41 277.92 Q1851.69 282.318 1854.05 284.633 Q1856.44 286.925 1860.67 286.925 Q1863.13 286.925 1865.42 286.323 Q1867.73 285.721 1870 284.517 L1870 288.545 Q1867.71 289.517 1865.3 290.027 Q1862.89 290.536 1860.42 290.536 Q1854.21 290.536 1850.58 286.925 Q1846.97 283.314 1846.97 277.156 Q1846.97 270.791 1850.39 267.064 Q1853.84 263.314 1859.68 263.314 Q1864.91 263.314 1867.94 266.693 Q1871 270.05 1871 275.837 M1866.74 274.587 Q1866.69 271.092 1864.77 269.008 Q1862.87 266.925 1859.72 266.925 Q1856.16 266.925 1854.01 268.939 Q1851.88 270.953 1851.55 274.61 L1866.74 274.587 Z" fill="#000000" fill-rule="nonzero" fill-opacity="1" /><path clip-path="url(#clip090)" d="M1894.51 264.703 L1894.51 268.731 Q1892.71 267.805 1890.76 267.342 Q1888.82 266.879 1886.74 266.879 Q1883.57 266.879 1881.97 267.851 Q1880.39 268.823 1880.39 270.768 Q1880.39 272.249 1881.53 273.105 Q1882.66 273.939 1886.09 274.703 L1887.55 275.027 Q1892.08 275.999 1893.98 277.781 Q1895.9 279.541 1895.9 282.712 Q1895.9 286.323 1893.03 288.429 Q1890.19 290.536 1885.19 290.536 Q1883.1 290.536 1880.83 290.119 Q1878.59 289.726 1876.09 288.916 L1876.09 284.517 Q1878.45 285.744 1880.74 286.369 Q1883.03 286.971 1885.28 286.971 Q1888.29 286.971 1889.91 285.953 Q1891.53 284.911 1891.53 283.036 Q1891.53 281.3 1890.35 280.374 Q1889.19 279.448 1885.23 278.592 L1883.75 278.244 Q1879.79 277.411 1878.03 275.698 Q1876.27 273.962 1876.27 270.953 Q1876.27 267.295 1878.87 265.305 Q1881.46 263.314 1886.23 263.314 Q1888.59 263.314 1890.67 263.661 Q1892.76 264.008 1894.51 264.703 Z" fill="#000000" fill-rule="nonzero" fill-opacity="1" /><polyline clip-path="url(#clip090)" style="stroke:#0000cd; stroke-linecap:round; stroke-linejoin:round; stroke-width:8; stroke-opacity:1; fill:none" stroke-dasharray="32, 16, 4, 16" points="1309.41,324.425 1450.77,324.425 "/>
<path clip-path="url(#clip090)" d="M1479.01 310.987 L1479.01 323.973 L1484.89 323.973 Q1488.15 323.973 1489.93 322.283 Q1491.72 320.594 1491.72 317.469 Q1491.72 314.367 1489.93 312.677 Q1488.15 310.987 1484.89 310.987 L1479.01 310.987 M1474.33 307.145 L1484.89 307.145 Q1490.7 307.145 1493.66 309.784 Q1496.65 312.399 1496.65 317.469 Q1496.65 322.584 1493.66 325.2 Q1490.7 327.816 1484.89 327.816 L1479.01 327.816 L1479.01 341.705 L1474.33 341.705 L1474.33 307.145 Z" fill="#000000" fill-rule="nonzero" fill-opacity="1" /><path clip-path="url(#clip090)" d="M1516.92 319.76 Q1516.21 319.344 1515.35 319.158 Q1514.52 318.95 1513.5 318.95 Q1509.89 318.95 1507.94 321.311 Q1506.02 323.649 1506.02 328.047 L1506.02 341.705 L1501.74 341.705 L1501.74 315.779 L1506.02 315.779 L1506.02 319.807 Q1507.36 317.446 1509.52 316.311 Q1511.67 315.154 1514.75 315.154 Q1515.19 315.154 1515.72 315.223 Q1516.25 315.27 1516.9 315.385 L1516.92 319.76 Z" fill="#000000" fill-rule="nonzero" fill-opacity="1" /><path clip-path="url(#clip090)" d="M1542.53 327.677 L1542.53 329.76 L1522.94 329.76 Q1523.22 334.158 1525.58 336.473 Q1527.97 338.765 1532.2 338.765 Q1534.66 338.765 1536.95 338.163 Q1539.26 337.561 1541.53 336.357 L1541.53 340.385 Q1539.24 341.357 1536.83 341.867 Q1534.42 342.376 1531.95 342.376 Q1525.74 342.376 1522.11 338.765 Q1518.5 335.154 1518.5 328.996 Q1518.5 322.631 1521.92 318.904 Q1525.37 315.154 1531.21 315.154 Q1536.44 315.154 1539.47 318.533 Q1542.53 321.89 1542.53 327.677 M1538.27 326.427 Q1538.22 322.932 1536.3 320.848 Q1534.4 318.765 1531.25 318.765 Q1527.69 318.765 1525.54 320.779 Q1523.41 322.793 1523.08 326.45 L1538.27 326.427 Z" fill="#000000" fill-rule="nonzero" fill-opacity="1" /><path clip-path="url(#clip090)" d="M1562.64 305.686 L1562.64 309.228 L1558.57 309.228 Q1556.28 309.228 1555.37 310.154 Q1554.49 311.08 1554.49 313.487 L1554.49 315.779 L1561.51 315.779 L1561.51 319.089 L1554.49 319.089 L1554.49 341.705 L1550.21 341.705 L1550.21 319.089 L1546.14 319.089 L1546.14 315.779 L1550.21 315.779 L1550.21 313.973 Q1550.21 309.645 1552.22 307.677 Q1554.24 305.686 1558.61 305.686 L1562.64 305.686 Z" fill="#000000" fill-rule="nonzero" fill-opacity="1" /><path clip-path="url(#clip090)" d="M1585.49 308.418 L1585.49 315.779 L1594.26 315.779 L1594.26 319.089 L1585.49 319.089 L1585.49 333.163 Q1585.49 336.334 1586.35 337.237 Q1587.22 338.14 1589.89 338.14 L1594.26 338.14 L1594.26 341.705 L1589.89 341.705 Q1584.96 341.705 1583.08 339.876 Q1581.21 338.024 1581.21 333.163 L1581.21 319.089 L1578.08 319.089 L1578.08 315.779 L1581.21 315.779 L1581.21 308.418 L1585.49 308.418 Z" fill="#000000" fill-rule="nonzero" fill-opacity="1" /><path clip-path="url(#clip090)" d="M1609.91 318.765 Q1606.48 318.765 1604.49 321.45 Q1602.5 324.112 1602.5 328.765 Q1602.5 333.418 1604.47 336.103 Q1606.46 338.765 1609.91 338.765 Q1613.31 338.765 1615.3 336.08 Q1617.29 333.395 1617.29 328.765 Q1617.29 324.158 1615.3 321.473 Q1613.31 318.765 1609.91 318.765 M1609.91 315.154 Q1615.47 315.154 1618.64 318.765 Q1621.81 322.376 1621.81 328.765 Q1621.81 335.131 1618.64 338.765 Q1615.47 342.376 1609.91 342.376 Q1604.33 342.376 1601.16 338.765 Q1598.01 335.131 1598.01 328.765 Q1598.01 322.376 1601.16 318.765 Q1604.33 315.154 1609.91 315.154 Z" fill="#000000" fill-rule="nonzero" fill-opacity="1" /><path clip-path="url(#clip090)" d="M1643.5 331.473 L1643.5 315.779 L1647.76 315.779 L1647.76 331.311 Q1647.76 334.992 1649.19 336.844 Q1650.63 338.672 1653.5 338.672 Q1656.95 338.672 1658.94 336.473 Q1660.95 334.274 1660.95 330.478 L1660.95 315.779 L1665.21 315.779 L1665.21 341.705 L1660.95 341.705 L1660.95 337.723 Q1659.4 340.084 1657.34 341.242 Q1655.3 342.376 1652.59 342.376 Q1648.13 342.376 1645.81 339.598 Q1643.5 336.82 1643.5 331.473 M1654.22 315.154 L1654.22 315.154 Z" fill="#000000" fill-rule="nonzero" fill-opacity="1" /><path clip-path="url(#clip090)" d="M1695.53 326.057 L1695.53 341.705 L1691.28 341.705 L1691.28 326.195 Q1691.28 322.515 1689.84 320.686 Q1688.4 318.858 1685.53 318.858 Q1682.09 318.858 1680.09 321.057 Q1678.1 323.256 1678.1 327.052 L1678.1 341.705 L1673.82 341.705 L1673.82 315.779 L1678.1 315.779 L1678.1 319.807 Q1679.63 317.469 1681.69 316.311 Q1683.78 315.154 1686.48 315.154 Q1690.95 315.154 1693.24 317.932 Q1695.53 320.686 1695.53 326.057 Z" fill="#000000" fill-rule="nonzero" fill-opacity="1" /><path clip-path="url(#clip090)" d="M1721.09 319.714 L1721.09 305.686 L1725.35 305.686 L1725.35 341.705 L1721.09 341.705 L1721.09 337.816 Q1719.75 340.131 1717.69 341.265 Q1715.65 342.376 1712.78 342.376 Q1708.08 342.376 1705.12 338.626 Q1702.18 334.876 1702.18 328.765 Q1702.18 322.654 1705.12 318.904 Q1708.08 315.154 1712.78 315.154 Q1715.65 315.154 1717.69 316.288 Q1719.75 317.399 1721.09 319.714 M1706.58 328.765 Q1706.58 333.464 1708.5 336.149 Q1710.44 338.811 1713.82 338.811 Q1717.2 338.811 1719.15 336.149 Q1721.09 333.464 1721.09 328.765 Q1721.09 324.066 1719.15 321.404 Q1717.2 318.719 1713.82 318.719 Q1710.44 318.719 1708.5 321.404 Q1706.58 324.066 1706.58 328.765 Z" fill="#000000" fill-rule="nonzero" fill-opacity="1" /><path clip-path="url(#clip090)" d="M1756.3 327.677 L1756.3 329.76 L1736.71 329.76 Q1736.99 334.158 1739.35 336.473 Q1741.74 338.765 1745.97 338.765 Q1748.43 338.765 1750.72 338.163 Q1753.03 337.561 1755.3 336.357 L1755.3 340.385 Q1753.01 341.357 1750.6 341.867 Q1748.2 342.376 1745.72 342.376 Q1739.52 342.376 1735.88 338.765 Q1732.27 335.154 1732.27 328.996 Q1732.27 322.631 1735.7 318.904 Q1739.15 315.154 1744.98 315.154 Q1750.21 315.154 1753.24 318.533 Q1756.3 321.89 1756.3 327.677 M1752.04 326.427 Q1751.99 322.932 1750.07 320.848 Q1748.17 318.765 1745.02 318.765 Q1741.46 318.765 1739.31 320.779 Q1737.18 322.793 1736.85 326.45 L1752.04 326.427 Z" fill="#000000" fill-rule="nonzero" fill-opacity="1" /><path clip-path="url(#clip090)" d="M1778.31 319.76 Q1777.59 319.344 1776.74 319.158 Q1775.9 318.95 1774.89 318.95 Q1771.27 318.95 1769.33 321.311 Q1767.41 323.649 1767.41 328.047 L1767.41 341.705 L1763.13 341.705 L1763.13 315.779 L1767.41 315.779 L1767.41 319.807 Q1768.75 317.446 1770.9 316.311 Q1773.06 315.154 1776.14 315.154 Q1776.58 315.154 1777.11 315.223 Q1777.64 315.27 1778.29 315.385 L1778.31 319.76 Z" fill="#000000" fill-rule="nonzero" fill-opacity="1" /><path clip-path="url(#clip090)" d="M1799.01 319.714 L1799.01 305.686 L1803.27 305.686 L1803.27 341.705 L1799.01 341.705 L1799.01 337.816 Q1797.66 340.131 1795.6 341.265 Q1793.57 342.376 1790.7 342.376 Q1786 342.376 1783.03 338.626 Q1780.09 334.876 1780.09 328.765 Q1780.09 322.654 1783.03 318.904 Q1786 315.154 1790.7 315.154 Q1793.57 315.154 1795.6 316.288 Q1797.66 317.399 1799.01 319.714 M1784.49 328.765 Q1784.49 333.464 1786.41 336.149 Q1788.36 338.811 1791.74 338.811 Q1795.12 338.811 1797.06 336.149 Q1799.01 333.464 1799.01 328.765 Q1799.01 324.066 1797.06 321.404 Q1795.12 318.719 1791.74 318.719 Q1788.36 318.719 1786.41 321.404 Q1784.49 324.066 1784.49 328.765 Z" fill="#000000" fill-rule="nonzero" fill-opacity="1" /><path clip-path="url(#clip090)" d="M1834.21 327.677 L1834.21 329.76 L1814.63 329.76 Q1814.91 334.158 1817.27 336.473 Q1819.65 338.765 1823.89 338.765 Q1826.34 338.765 1828.64 338.163 Q1830.95 337.561 1833.22 336.357 L1833.22 340.385 Q1830.93 341.357 1828.52 341.867 Q1826.11 342.376 1823.64 342.376 Q1817.43 342.376 1813.8 338.765 Q1810.19 335.154 1810.19 328.996 Q1810.19 322.631 1813.61 318.904 Q1817.06 315.154 1822.89 315.154 Q1828.13 315.154 1831.16 318.533 Q1834.21 321.89 1834.21 327.677 M1829.95 326.427 Q1829.91 322.932 1827.99 320.848 Q1826.09 318.765 1822.94 318.765 Q1819.38 318.765 1817.22 320.779 Q1815.09 322.793 1814.77 326.45 L1829.95 326.427 Z" fill="#000000" fill-rule="nonzero" fill-opacity="1" /><path clip-path="url(#clip090)" d="M1838.15 315.779 L1842.66 315.779 L1850.76 337.538 L1858.87 315.779 L1863.38 315.779 L1853.66 341.705 L1847.87 341.705 L1838.15 315.779 Z" fill="#000000" fill-rule="nonzero" fill-opacity="1" /><path clip-path="url(#clip090)" d="M1891.44 327.677 L1891.44 329.76 L1871.85 329.76 Q1872.13 334.158 1874.49 336.473 Q1876.88 338.765 1881.11 338.765 Q1883.57 338.765 1885.86 338.163 Q1888.17 337.561 1890.44 336.357 L1890.44 340.385 Q1888.15 341.357 1885.74 341.867 Q1883.33 342.376 1880.86 342.376 Q1874.65 342.376 1871.02 338.765 Q1867.41 335.154 1867.41 328.996 Q1867.41 322.631 1870.83 318.904 Q1874.28 315.154 1880.12 315.154 Q1885.35 315.154 1888.38 318.533 Q1891.44 321.89 1891.44 327.677 M1887.18 326.427 Q1887.13 322.932 1885.21 320.848 Q1883.31 318.765 1880.16 318.765 Q1876.6 318.765 1874.45 320.779 Q1872.32 322.793 1871.99 326.45 L1887.18 326.427 Z" fill="#000000" fill-rule="nonzero" fill-opacity="1" /><path clip-path="url(#clip090)" d="M1898.43 305.686 L1902.69 305.686 L1902.69 341.705 L1898.43 341.705 L1898.43 305.686 Z" fill="#000000" fill-rule="nonzero" fill-opacity="1" /><path clip-path="url(#clip090)" d="M1921.64 318.765 Q1918.22 318.765 1916.23 321.45 Q1914.24 324.112 1914.24 328.765 Q1914.24 333.418 1916.2 336.103 Q1918.2 338.765 1921.64 338.765 Q1925.05 338.765 1927.04 336.08 Q1929.03 333.395 1929.03 328.765 Q1929.03 324.158 1927.04 321.473 Q1925.05 318.765 1921.64 318.765 M1921.64 315.154 Q1927.2 315.154 1930.37 318.765 Q1933.54 322.376 1933.54 328.765 Q1933.54 335.131 1930.37 338.765 Q1927.2 342.376 1921.64 342.376 Q1916.07 342.376 1912.89 338.765 Q1909.75 335.131 1909.75 328.765 Q1909.75 322.376 1912.89 318.765 Q1916.07 315.154 1921.64 315.154 Z" fill="#000000" fill-rule="nonzero" fill-opacity="1" /><path clip-path="url(#clip090)" d="M1944.72 337.816 L1944.72 351.566 L1940.44 351.566 L1940.44 315.779 L1944.72 315.779 L1944.72 319.714 Q1946.07 317.399 1948.1 316.288 Q1950.16 315.154 1953.01 315.154 Q1957.73 315.154 1960.67 318.904 Q1963.63 322.654 1963.63 328.765 Q1963.63 334.876 1960.67 338.626 Q1957.73 342.376 1953.01 342.376 Q1950.16 342.376 1948.1 341.265 Q1946.07 340.131 1944.72 337.816 M1959.21 328.765 Q1959.21 324.066 1957.27 321.404 Q1955.35 318.719 1951.97 318.719 Q1948.59 318.719 1946.64 321.404 Q1944.72 324.066 1944.72 328.765 Q1944.72 333.464 1946.64 336.149 Q1948.59 338.811 1951.97 338.811 Q1955.35 338.811 1957.27 336.149 Q1959.21 333.464 1959.21 328.765 Z" fill="#000000" fill-rule="nonzero" fill-opacity="1" /><path clip-path="url(#clip090)" d="M1992.87 327.677 L1992.87 329.76 L1973.29 329.76 Q1973.57 334.158 1975.93 336.473 Q1978.31 338.765 1982.55 338.765 Q1985 338.765 1987.29 338.163 Q1989.61 337.561 1991.88 336.357 L1991.88 340.385 Q1989.58 341.357 1987.18 341.867 Q1984.77 342.376 1982.29 342.376 Q1976.09 342.376 1972.45 338.765 Q1968.84 335.154 1968.84 328.996 Q1968.84 322.631 1972.27 318.904 Q1975.72 315.154 1981.55 315.154 Q1986.78 315.154 1989.82 318.533 Q1992.87 321.89 1992.87 327.677 M1988.61 326.427 Q1988.57 322.932 1986.64 320.848 Q1984.75 318.765 1981.6 318.765 Q1978.03 318.765 1975.88 320.779 Q1973.75 322.793 1973.43 326.45 L1988.61 326.427 Z" fill="#000000" fill-rule="nonzero" fill-opacity="1" /><path clip-path="url(#clip090)" d="M2016.92 319.714 L2016.92 305.686 L2021.18 305.686 L2021.18 341.705 L2016.92 341.705 L2016.92 337.816 Q2015.58 340.131 2013.52 341.265 Q2011.48 342.376 2008.61 342.376 Q2003.91 342.376 2000.95 338.626 Q1998.01 334.876 1998.01 328.765 Q1998.01 322.654 2000.95 318.904 Q2003.91 315.154 2008.61 315.154 Q2011.48 315.154 2013.52 316.288 Q2015.58 317.399 2016.92 319.714 M2002.41 328.765 Q2002.41 333.464 2004.33 336.149 Q2006.27 338.811 2009.65 338.811 Q2013.03 338.811 2014.98 336.149 Q2016.92 333.464 2016.92 328.765 Q2016.92 324.066 2014.98 321.404 Q2013.03 318.719 2009.65 318.719 Q2006.27 318.719 2004.33 321.404 Q2002.41 324.066 2002.41 328.765 Z" fill="#000000" fill-rule="nonzero" fill-opacity="1" /><path clip-path="url(#clip090)" d="M2063.68 316.774 L2063.68 320.756 Q2061.87 319.76 2060.05 319.274 Q2058.24 318.765 2056.39 318.765 Q2052.25 318.765 2049.95 321.404 Q2047.66 324.02 2047.66 328.765 Q2047.66 333.51 2049.95 336.149 Q2052.25 338.765 2056.39 338.765 Q2058.24 338.765 2060.05 338.279 Q2061.87 337.769 2063.68 336.774 L2063.68 340.709 Q2061.9 341.543 2059.98 341.959 Q2058.08 342.376 2055.93 342.376 Q2050.07 342.376 2046.62 338.695 Q2043.17 335.015 2043.17 328.765 Q2043.17 322.422 2046.64 318.788 Q2050.14 315.154 2056.2 315.154 Q2058.17 315.154 2060.05 315.571 Q2061.92 315.964 2063.68 316.774 Z" fill="#000000" fill-rule="nonzero" fill-opacity="1" /><path clip-path="url(#clip090)" d="M2081.13 318.765 Q2077.71 318.765 2075.72 321.45 Q2073.73 324.112 2073.73 328.765 Q2073.73 333.418 2075.69 336.103 Q2077.69 338.765 2081.13 338.765 Q2084.54 338.765 2086.53 336.08 Q2088.52 333.395 2088.52 328.765 Q2088.52 324.158 2086.53 321.473 Q2084.54 318.765 2081.13 318.765 M2081.13 315.154 Q2086.69 315.154 2089.86 318.765 Q2093.03 322.376 2093.03 328.765 Q2093.03 335.131 2089.86 338.765 Q2086.69 342.376 2081.13 342.376 Q2075.56 342.376 2072.38 338.765 Q2069.24 335.131 2069.24 328.765 Q2069.24 322.376 2072.38 318.765 Q2075.56 315.154 2081.13 315.154 Z" fill="#000000" fill-rule="nonzero" fill-opacity="1" /><path clip-path="url(#clip090)" d="M2099.65 331.473 L2099.65 315.779 L2103.91 315.779 L2103.91 331.311 Q2103.91 334.992 2105.35 336.844 Q2106.78 338.672 2109.65 338.672 Q2113.1 338.672 2115.09 336.473 Q2117.11 334.274 2117.11 330.478 L2117.11 315.779 L2121.37 315.779 L2121.37 341.705 L2117.11 341.705 L2117.11 337.723 Q2115.56 340.084 2113.5 341.242 Q2111.46 342.376 2108.75 342.376 Q2104.28 342.376 2101.97 339.598 Q2099.65 336.82 2099.65 331.473 M2110.37 315.154 L2110.37 315.154 Z" fill="#000000" fill-rule="nonzero" fill-opacity="1" /><path clip-path="url(#clip090)" d="M2151.69 326.057 L2151.69 341.705 L2147.43 341.705 L2147.43 326.195 Q2147.43 322.515 2145.99 320.686 Q2144.56 318.858 2141.69 318.858 Q2138.24 318.858 2136.25 321.057 Q2134.26 323.256 2134.26 327.052 L2134.26 341.705 L2129.98 341.705 L2129.98 315.779 L2134.26 315.779 L2134.26 319.807 Q2135.79 317.469 2137.85 316.311 Q2139.93 315.154 2142.64 315.154 Q2147.11 315.154 2149.4 317.932 Q2151.69 320.686 2151.69 326.057 Z" fill="#000000" fill-rule="nonzero" fill-opacity="1" /><path clip-path="url(#clip090)" d="M2164.4 308.418 L2164.4 315.779 L2173.17 315.779 L2173.17 319.089 L2164.4 319.089 L2164.4 333.163 Q2164.4 336.334 2165.25 337.237 Q2166.13 338.14 2168.8 338.14 L2173.17 338.14 L2173.17 341.705 L2168.8 341.705 Q2163.87 341.705 2161.99 339.876 Q2160.12 338.024 2160.12 333.163 L2160.12 319.089 L2156.99 319.089 L2156.99 315.779 L2160.12 315.779 L2160.12 308.418 L2164.4 308.418 Z" fill="#000000" fill-rule="nonzero" fill-opacity="1" /><path clip-path="url(#clip090)" d="M2193.8 319.76 Q2193.08 319.344 2192.22 319.158 Q2191.39 318.95 2190.37 318.95 Q2186.76 318.95 2184.81 321.311 Q2182.89 323.649 2182.89 328.047 L2182.89 341.705 L2178.61 341.705 L2178.61 315.779 L2182.89 315.779 L2182.89 319.807 Q2184.24 317.446 2186.39 316.311 Q2188.54 315.154 2191.62 315.154 Q2192.06 315.154 2192.59 315.223 Q2193.12 315.27 2193.77 315.385 L2193.8 319.76 Z" fill="#000000" fill-rule="nonzero" fill-opacity="1" /><path clip-path="url(#clip090)" d="M2198.26 315.779 L2202.52 315.779 L2202.52 341.705 L2198.26 341.705 L2198.26 315.779 M2198.26 305.686 L2202.52 305.686 L2202.52 311.08 L2198.26 311.08 L2198.26 305.686 Z" fill="#000000" fill-rule="nonzero" fill-opacity="1" /><path clip-path="url(#clip090)" d="M2233.61 327.677 L2233.61 329.76 L2214.03 329.76 Q2214.3 334.158 2216.67 336.473 Q2219.05 338.765 2223.29 338.765 Q2225.74 338.765 2228.03 338.163 Q2230.35 337.561 2232.61 336.357 L2232.61 340.385 Q2230.32 341.357 2227.92 341.867 Q2225.51 342.376 2223.03 342.376 Q2216.83 342.376 2213.19 338.765 Q2209.58 335.154 2209.58 328.996 Q2209.58 322.631 2213.01 318.904 Q2216.46 315.154 2222.29 315.154 Q2227.52 315.154 2230.55 318.533 Q2233.61 321.89 2233.61 327.677 M2229.35 326.427 Q2229.3 322.932 2227.38 320.848 Q2225.49 318.765 2222.34 318.765 Q2218.77 318.765 2216.62 320.779 Q2214.49 322.793 2214.17 326.45 L2229.35 326.427 Z" fill="#000000" fill-rule="nonzero" fill-opacity="1" /><path clip-path="url(#clip090)" d="M2257.13 316.543 L2257.13 320.571 Q2255.32 319.645 2253.38 319.182 Q2251.43 318.719 2249.35 318.719 Q2246.18 318.719 2244.58 319.691 Q2243.01 320.663 2243.01 322.608 Q2243.01 324.089 2244.14 324.945 Q2245.28 325.779 2248.7 326.543 L2250.16 326.867 Q2254.7 327.839 2256.6 329.621 Q2258.52 331.381 2258.52 334.552 Q2258.52 338.163 2255.65 340.269 Q2252.8 342.376 2247.8 342.376 Q2245.72 342.376 2243.45 341.959 Q2241.2 341.566 2238.7 340.756 L2238.7 336.357 Q2241.06 337.584 2243.36 338.209 Q2245.65 338.811 2247.89 338.811 Q2250.9 338.811 2252.52 337.793 Q2254.14 336.751 2254.14 334.876 Q2254.14 333.14 2252.96 332.214 Q2251.8 331.288 2247.85 330.432 L2246.36 330.084 Q2242.41 329.251 2240.65 327.538 Q2238.89 325.802 2238.89 322.793 Q2238.89 319.135 2241.48 317.145 Q2244.07 315.154 2248.84 315.154 Q2251.2 315.154 2253.29 315.501 Q2255.37 315.848 2257.13 316.543 Z" fill="#000000" fill-rule="nonzero" fill-opacity="1" /></svg>
