<?xml version="1.0" encoding="utf-8"?>
<svg xmlns="http://www.w3.org/2000/svg" xmlns:xlink="http://www.w3.org/1999/xlink" width="600" height="400" viewBox="0 0 2400 1600">
<defs>
  <clipPath id="clip790">
    <rect x="0" y="0" width="2400" height="1600"/>
  </clipPath>
</defs>
<path clip-path="url(#clip790)" d="M0 1600 L2400 1600 L2400 0 L0 0  Z" fill="#ffffff" fill-rule="evenodd" fill-opacity="1"/>
<defs>
  <clipPath id="clip791">
    <rect x="480" y="0" width="1681" height="1600"/>
  </clipPath>
</defs>
<path clip-path="url(#clip790)" d="M232.389 1486.45 L2352.76 1486.45 L2352.76 123.472 L232.389 123.472  Z" fill="#ffffff" fill-rule="evenodd" fill-opacity="1"/>
<defs>
  <clipPath id="clip792">
    <rect x="232" y="123" width="2121" height="1364"/>
  </clipPath>
</defs>
<polyline clip-path="url(#clip792)" style="stroke:#000000; stroke-linecap:round; stroke-linejoin:round; stroke-width:2; stroke-opacity:0.1; fill:none" points="292.4,1486.45 292.4,123.472 "/>
<polyline clip-path="url(#clip792)" style="stroke:#000000; stroke-linecap:round; stroke-linejoin:round; stroke-width:2; stroke-opacity:0.1; fill:none" points="692.469,1486.45 692.469,123.472 "/>
<polyline clip-path="url(#clip792)" style="stroke:#000000; stroke-linecap:round; stroke-linejoin:round; stroke-width:2; stroke-opacity:0.1; fill:none" points="1092.54,1486.45 1092.54,123.472 "/>
<polyline clip-path="url(#clip792)" style="stroke:#000000; stroke-linecap:round; stroke-linejoin:round; stroke-width:2; stroke-opacity:0.1; fill:none" points="1492.61,1486.45 1492.61,123.472 "/>
<polyline clip-path="url(#clip792)" style="stroke:#000000; stroke-linecap:round; stroke-linejoin:round; stroke-width:2; stroke-opacity:0.1; fill:none" points="1892.68,1486.45 1892.68,123.472 "/>
<polyline clip-path="url(#clip792)" style="stroke:#000000; stroke-linecap:round; stroke-linejoin:round; stroke-width:2; stroke-opacity:0.1; fill:none" points="2292.75,1486.45 2292.75,123.472 "/>
<polyline clip-path="url(#clip792)" style="stroke:#000000; stroke-linecap:round; stroke-linejoin:round; stroke-width:2; stroke-opacity:0.1; fill:none" points="232.389,1486.45 2352.76,1486.45 "/>
<polyline clip-path="url(#clip792)" style="stroke:#000000; stroke-linecap:round; stroke-linejoin:round; stroke-width:2; stroke-opacity:0.1; fill:none" points="232.389,1213.85 2352.76,1213.85 "/>
<polyline clip-path="url(#clip792)" style="stroke:#000000; stroke-linecap:round; stroke-linejoin:round; stroke-width:2; stroke-opacity:0.1; fill:none" points="232.389,941.258 2352.76,941.258 "/>
<polyline clip-path="url(#clip792)" style="stroke:#000000; stroke-linecap:round; stroke-linejoin:round; stroke-width:2; stroke-opacity:0.1; fill:none" points="232.389,668.662 2352.76,668.662 "/>
<polyline clip-path="url(#clip792)" style="stroke:#000000; stroke-linecap:round; stroke-linejoin:round; stroke-width:2; stroke-opacity:0.1; fill:none" points="232.389,396.067 2352.76,396.067 "/>
<polyline clip-path="url(#clip792)" style="stroke:#000000; stroke-linecap:round; stroke-linejoin:round; stroke-width:2; stroke-opacity:0.1; fill:none" points="232.389,123.472 2352.76,123.472 "/>
<polyline clip-path="url(#clip790)" style="stroke:#000000; stroke-linecap:round; stroke-linejoin:round; stroke-width:4; stroke-opacity:1; fill:none" points="232.389,1486.45 2352.76,1486.45 "/>
<polyline clip-path="url(#clip790)" style="stroke:#000000; stroke-linecap:round; stroke-linejoin:round; stroke-width:4; stroke-opacity:1; fill:none" points="292.4,1486.45 292.4,1467.55 "/>
<polyline clip-path="url(#clip790)" style="stroke:#000000; stroke-linecap:round; stroke-linejoin:round; stroke-width:4; stroke-opacity:1; fill:none" points="692.469,1486.45 692.469,1467.55 "/>
<polyline clip-path="url(#clip790)" style="stroke:#000000; stroke-linecap:round; stroke-linejoin:round; stroke-width:4; stroke-opacity:1; fill:none" points="1092.54,1486.45 1092.54,1467.55 "/>
<polyline clip-path="url(#clip790)" style="stroke:#000000; stroke-linecap:round; stroke-linejoin:round; stroke-width:4; stroke-opacity:1; fill:none" points="1492.61,1486.45 1492.61,1467.55 "/>
<polyline clip-path="url(#clip790)" style="stroke:#000000; stroke-linecap:round; stroke-linejoin:round; stroke-width:4; stroke-opacity:1; fill:none" points="1892.68,1486.45 1892.68,1467.55 "/>
<polyline clip-path="url(#clip790)" style="stroke:#000000; stroke-linecap:round; stroke-linejoin:round; stroke-width:4; stroke-opacity:1; fill:none" points="2292.75,1486.45 2292.75,1467.55 "/>
<path clip-path="url(#clip790)" d="M241.011 1544.91 L257.33 1544.91 L257.33 1548.85 L235.386 1548.85 L235.386 1544.91 Q238.048 1542.16 242.631 1537.53 Q247.238 1532.88 248.418 1531.53 Q250.664 1529.01 251.543 1527.27 Q252.446 1525.51 252.446 1523.82 Q252.446 1521.07 250.502 1519.33 Q248.581 1517.6 245.479 1517.6 Q243.28 1517.6 240.826 1518.36 Q238.395 1519.13 235.618 1520.68 L235.618 1515.95 Q238.442 1514.82 240.895 1514.24 Q243.349 1513.66 245.386 1513.66 Q250.756 1513.66 253.951 1516.35 Q257.145 1519.03 257.145 1523.52 Q257.145 1525.65 256.335 1527.57 Q255.548 1529.47 253.442 1532.07 Q252.863 1532.74 249.761 1535.95 Q246.659 1539.15 241.011 1544.91 Z" fill="#000000" fill-rule="nonzero" fill-opacity="1" /><path clip-path="url(#clip790)" d="M277.145 1517.37 Q273.534 1517.37 271.705 1520.93 Q269.9 1524.47 269.9 1531.6 Q269.9 1538.71 271.705 1542.27 Q273.534 1545.82 277.145 1545.82 Q280.779 1545.82 282.585 1542.27 Q284.414 1538.71 284.414 1531.6 Q284.414 1524.47 282.585 1520.93 Q280.779 1517.37 277.145 1517.37 M277.145 1513.66 Q282.955 1513.66 286.011 1518.27 Q289.09 1522.85 289.09 1531.6 Q289.09 1540.33 286.011 1544.94 Q282.955 1549.52 277.145 1549.52 Q271.335 1549.52 268.256 1544.94 Q265.201 1540.33 265.201 1531.6 Q265.201 1522.85 268.256 1518.27 Q271.335 1513.66 277.145 1513.66 Z" fill="#000000" fill-rule="nonzero" fill-opacity="1" /><path clip-path="url(#clip790)" d="M301.335 1544.91 L317.654 1544.91 L317.654 1548.85 L295.71 1548.85 L295.71 1544.91 Q298.372 1542.16 302.955 1537.53 Q307.562 1532.88 308.742 1531.53 Q310.988 1529.01 311.867 1527.27 Q312.77 1525.51 312.77 1523.82 Q312.77 1521.07 310.826 1519.33 Q308.904 1517.6 305.802 1517.6 Q303.603 1517.6 301.15 1518.36 Q298.719 1519.13 295.941 1520.68 L295.941 1515.95 Q298.765 1514.82 301.219 1514.24 Q303.673 1513.66 305.71 1513.66 Q311.08 1513.66 314.275 1516.35 Q317.469 1519.03 317.469 1523.52 Q317.469 1525.65 316.659 1527.57 Q315.872 1529.47 313.765 1532.07 Q313.187 1532.74 310.085 1535.95 Q306.983 1539.15 301.335 1544.91 Z" fill="#000000" fill-rule="nonzero" fill-opacity="1" /><path clip-path="url(#clip790)" d="M337.469 1517.37 Q333.858 1517.37 332.029 1520.93 Q330.224 1524.47 330.224 1531.6 Q330.224 1538.71 332.029 1542.27 Q333.858 1545.82 337.469 1545.82 Q341.103 1545.82 342.909 1542.27 Q344.737 1538.71 344.737 1531.6 Q344.737 1524.47 342.909 1520.93 Q341.103 1517.37 337.469 1517.37 M337.469 1513.66 Q343.279 1513.66 346.335 1518.27 Q349.413 1522.85 349.413 1531.6 Q349.413 1540.33 346.335 1544.94 Q343.279 1549.52 337.469 1549.52 Q331.659 1549.52 328.58 1544.94 Q325.525 1540.33 325.525 1531.6 Q325.525 1522.85 328.58 1518.27 Q331.659 1513.66 337.469 1513.66 Z" fill="#000000" fill-rule="nonzero" fill-opacity="1" /><path clip-path="url(#clip790)" d="M641.08 1544.91 L657.4 1544.91 L657.4 1548.85 L635.455 1548.85 L635.455 1544.91 Q638.117 1542.16 642.701 1537.53 Q647.307 1532.88 648.488 1531.53 Q650.733 1529.01 651.613 1527.27 Q652.515 1525.51 652.515 1523.82 Q652.515 1521.07 650.571 1519.33 Q648.65 1517.6 645.548 1517.6 Q643.349 1517.6 640.895 1518.36 Q638.465 1519.13 635.687 1520.68 L635.687 1515.95 Q638.511 1514.82 640.965 1514.24 Q643.418 1513.66 645.455 1513.66 Q650.826 1513.66 654.02 1516.35 Q657.214 1519.03 657.214 1523.52 Q657.214 1525.65 656.404 1527.57 Q655.617 1529.47 653.511 1532.07 Q652.932 1532.74 649.83 1535.95 Q646.728 1539.15 641.08 1544.91 Z" fill="#000000" fill-rule="nonzero" fill-opacity="1" /><path clip-path="url(#clip790)" d="M677.214 1517.37 Q673.603 1517.37 671.775 1520.93 Q669.969 1524.47 669.969 1531.6 Q669.969 1538.71 671.775 1542.27 Q673.603 1545.82 677.214 1545.82 Q680.849 1545.82 682.654 1542.27 Q684.483 1538.71 684.483 1531.6 Q684.483 1524.47 682.654 1520.93 Q680.849 1517.37 677.214 1517.37 M677.214 1513.66 Q683.024 1513.66 686.08 1518.27 Q689.159 1522.85 689.159 1531.6 Q689.159 1540.33 686.08 1544.94 Q683.024 1549.52 677.214 1549.52 Q671.404 1549.52 668.325 1544.94 Q665.27 1540.33 665.27 1531.6 Q665.27 1522.85 668.325 1518.27 Q671.404 1513.66 677.214 1513.66 Z" fill="#000000" fill-rule="nonzero" fill-opacity="1" /><path clip-path="url(#clip790)" d="M711.543 1530.21 Q714.899 1530.93 716.774 1533.2 Q718.672 1535.47 718.672 1538.8 Q718.672 1543.92 715.154 1546.72 Q711.635 1549.52 705.154 1549.52 Q702.978 1549.52 700.663 1549.08 Q698.372 1548.66 695.918 1547.81 L695.918 1543.29 Q697.862 1544.43 700.177 1545.01 Q702.492 1545.58 705.015 1545.58 Q709.413 1545.58 711.705 1543.85 Q714.02 1542.11 714.02 1538.8 Q714.02 1535.75 711.867 1534.03 Q709.737 1532.3 705.918 1532.3 L701.89 1532.3 L701.89 1528.45 L706.103 1528.45 Q709.552 1528.45 711.381 1527.09 Q713.21 1525.7 713.21 1523.11 Q713.21 1520.45 711.311 1519.03 Q709.436 1517.6 705.918 1517.6 Q703.997 1517.6 701.798 1518.01 Q699.598 1518.43 696.96 1519.31 L696.96 1515.14 Q699.622 1514.4 701.936 1514.03 Q704.274 1513.66 706.335 1513.66 Q711.659 1513.66 714.76 1516.09 Q717.862 1518.5 717.862 1522.62 Q717.862 1525.49 716.219 1527.48 Q714.575 1529.45 711.543 1530.21 Z" fill="#000000" fill-rule="nonzero" fill-opacity="1" /><path clip-path="url(#clip790)" d="M737.538 1517.37 Q733.927 1517.37 732.098 1520.93 Q730.293 1524.47 730.293 1531.6 Q730.293 1538.71 732.098 1542.27 Q733.927 1545.82 737.538 1545.82 Q741.172 1545.82 742.978 1542.27 Q744.807 1538.71 744.807 1531.6 Q744.807 1524.47 742.978 1520.93 Q741.172 1517.37 737.538 1517.37 M737.538 1513.66 Q743.348 1513.66 746.404 1518.27 Q749.482 1522.85 749.482 1531.6 Q749.482 1540.33 746.404 1544.94 Q743.348 1549.52 737.538 1549.52 Q731.728 1549.52 728.649 1544.94 Q725.594 1540.33 725.594 1531.6 Q725.594 1522.85 728.649 1518.27 Q731.728 1513.66 737.538 1513.66 Z" fill="#000000" fill-rule="nonzero" fill-opacity="1" /><path clip-path="url(#clip790)" d="M1041.15 1544.91 L1057.47 1544.91 L1057.47 1548.85 L1035.52 1548.85 L1035.52 1544.91 Q1038.19 1542.16 1042.77 1537.53 Q1047.38 1532.88 1048.56 1531.53 Q1050.8 1529.01 1051.68 1527.27 Q1052.58 1525.51 1052.58 1523.82 Q1052.58 1521.07 1050.64 1519.33 Q1048.72 1517.6 1045.62 1517.6 Q1043.42 1517.6 1040.96 1518.36 Q1038.53 1519.13 1035.76 1520.68 L1035.76 1515.95 Q1038.58 1514.82 1041.03 1514.24 Q1043.49 1513.66 1045.52 1513.66 Q1050.89 1513.66 1054.09 1516.35 Q1057.28 1519.03 1057.28 1523.52 Q1057.28 1525.65 1056.47 1527.57 Q1055.69 1529.47 1053.58 1532.07 Q1053 1532.74 1049.9 1535.95 Q1046.8 1539.15 1041.15 1544.91 Z" fill="#000000" fill-rule="nonzero" fill-opacity="1" /><path clip-path="url(#clip790)" d="M1077.28 1517.37 Q1073.67 1517.37 1071.84 1520.93 Q1070.04 1524.47 1070.04 1531.6 Q1070.04 1538.71 1071.84 1542.27 Q1073.67 1545.82 1077.28 1545.82 Q1080.92 1545.82 1082.72 1542.27 Q1084.55 1538.71 1084.55 1531.6 Q1084.55 1524.47 1082.72 1520.93 Q1080.92 1517.37 1077.28 1517.37 M1077.28 1513.66 Q1083.09 1513.66 1086.15 1518.27 Q1089.23 1522.85 1089.23 1531.6 Q1089.23 1540.33 1086.15 1544.94 Q1083.09 1549.52 1077.28 1549.52 Q1071.47 1549.52 1068.39 1544.94 Q1065.34 1540.33 1065.34 1531.6 Q1065.34 1522.85 1068.39 1518.27 Q1071.47 1513.66 1077.28 1513.66 Z" fill="#000000" fill-rule="nonzero" fill-opacity="1" /><path clip-path="url(#clip790)" d="M1110.29 1518.36 L1098.49 1536.81 L1110.29 1536.81 L1110.29 1518.36 M1109.07 1514.29 L1114.95 1514.29 L1114.95 1536.81 L1119.88 1536.81 L1119.88 1540.7 L1114.95 1540.7 L1114.95 1548.85 L1110.29 1548.85 L1110.29 1540.7 L1094.69 1540.7 L1094.69 1536.19 L1109.07 1514.29 Z" fill="#000000" fill-rule="nonzero" fill-opacity="1" /><path clip-path="url(#clip790)" d="M1137.61 1517.37 Q1134 1517.37 1132.17 1520.93 Q1130.36 1524.47 1130.36 1531.6 Q1130.36 1538.71 1132.17 1542.27 Q1134 1545.82 1137.61 1545.82 Q1141.24 1545.82 1143.05 1542.27 Q1144.88 1538.71 1144.88 1531.6 Q1144.88 1524.47 1143.05 1520.93 Q1141.24 1517.37 1137.61 1517.37 M1137.61 1513.66 Q1143.42 1513.66 1146.47 1518.27 Q1149.55 1522.85 1149.55 1531.6 Q1149.55 1540.33 1146.47 1544.94 Q1143.42 1549.52 1137.61 1549.52 Q1131.8 1549.52 1128.72 1544.94 Q1125.66 1540.33 1125.66 1531.6 Q1125.66 1522.85 1128.72 1518.27 Q1131.8 1513.66 1137.61 1513.66 Z" fill="#000000" fill-rule="nonzero" fill-opacity="1" /><path clip-path="url(#clip790)" d="M1441.22 1544.91 L1457.54 1544.91 L1457.54 1548.85 L1435.59 1548.85 L1435.59 1544.91 Q1438.26 1542.16 1442.84 1537.53 Q1447.45 1532.88 1448.63 1531.53 Q1450.87 1529.01 1451.75 1527.27 Q1452.65 1525.51 1452.65 1523.82 Q1452.65 1521.07 1450.71 1519.33 Q1448.79 1517.6 1445.69 1517.6 Q1443.49 1517.6 1441.03 1518.36 Q1438.6 1519.13 1435.83 1520.68 L1435.83 1515.95 Q1438.65 1514.82 1441.1 1514.24 Q1443.56 1513.66 1445.59 1513.66 Q1450.96 1513.66 1454.16 1516.35 Q1457.35 1519.03 1457.35 1523.52 Q1457.35 1525.65 1456.54 1527.57 Q1455.76 1529.47 1453.65 1532.07 Q1453.07 1532.74 1449.97 1535.95 Q1446.87 1539.15 1441.22 1544.91 Z" fill="#000000" fill-rule="nonzero" fill-opacity="1" /><path clip-path="url(#clip790)" d="M1477.35 1517.37 Q1473.74 1517.37 1471.91 1520.93 Q1470.11 1524.47 1470.11 1531.6 Q1470.11 1538.71 1471.91 1542.27 Q1473.74 1545.82 1477.35 1545.82 Q1480.99 1545.82 1482.79 1542.27 Q1484.62 1538.71 1484.62 1531.6 Q1484.62 1524.47 1482.79 1520.93 Q1480.99 1517.37 1477.35 1517.37 M1477.35 1513.66 Q1483.16 1513.66 1486.22 1518.27 Q1489.3 1522.85 1489.3 1531.6 Q1489.3 1540.33 1486.22 1544.94 Q1483.16 1549.52 1477.35 1549.52 Q1471.54 1549.52 1468.46 1544.94 Q1465.41 1540.33 1465.41 1531.6 Q1465.41 1522.85 1468.46 1518.27 Q1471.54 1513.66 1477.35 1513.66 Z" fill="#000000" fill-rule="nonzero" fill-opacity="1" /><path clip-path="url(#clip790)" d="M1497.56 1514.29 L1515.92 1514.29 L1515.92 1518.22 L1501.84 1518.22 L1501.84 1526.7 Q1502.86 1526.35 1503.88 1526.19 Q1504.9 1526 1505.92 1526 Q1511.7 1526 1515.08 1529.17 Q1518.46 1532.34 1518.46 1537.76 Q1518.46 1543.34 1514.99 1546.44 Q1511.52 1549.52 1505.2 1549.52 Q1503.02 1549.52 1500.76 1549.15 Q1498.51 1548.78 1496.1 1548.04 L1496.1 1543.34 Q1498.19 1544.47 1500.41 1545.03 Q1502.63 1545.58 1505.11 1545.58 Q1509.11 1545.58 1511.45 1543.48 Q1513.79 1541.37 1513.79 1537.76 Q1513.79 1534.15 1511.45 1532.04 Q1509.11 1529.94 1505.11 1529.94 Q1503.23 1529.94 1501.36 1530.35 Q1499.51 1530.77 1497.56 1531.65 L1497.56 1514.29 Z" fill="#000000" fill-rule="nonzero" fill-opacity="1" /><path clip-path="url(#clip790)" d="M1537.68 1517.37 Q1534.07 1517.37 1532.24 1520.93 Q1530.43 1524.47 1530.43 1531.6 Q1530.43 1538.71 1532.24 1542.27 Q1534.07 1545.82 1537.68 1545.82 Q1541.31 1545.82 1543.12 1542.27 Q1544.94 1538.71 1544.94 1531.6 Q1544.94 1524.47 1543.12 1520.93 Q1541.31 1517.37 1537.68 1517.37 M1537.68 1513.66 Q1543.49 1513.66 1546.54 1518.27 Q1549.62 1522.85 1549.62 1531.6 Q1549.62 1540.33 1546.54 1544.94 Q1543.49 1549.52 1537.68 1549.52 Q1531.87 1549.52 1528.79 1544.94 Q1525.73 1540.33 1525.73 1531.6 Q1525.73 1522.85 1528.79 1518.27 Q1531.87 1513.66 1537.68 1513.66 Z" fill="#000000" fill-rule="nonzero" fill-opacity="1" /><path clip-path="url(#clip790)" d="M1841.29 1544.91 L1857.61 1544.91 L1857.61 1548.85 L1835.66 1548.85 L1835.66 1544.91 Q1838.32 1542.16 1842.91 1537.53 Q1847.51 1532.88 1848.7 1531.53 Q1850.94 1529.01 1851.82 1527.27 Q1852.72 1525.51 1852.72 1523.82 Q1852.72 1521.07 1850.78 1519.33 Q1848.86 1517.6 1845.76 1517.6 Q1843.56 1517.6 1841.1 1518.36 Q1838.67 1519.13 1835.89 1520.68 L1835.89 1515.95 Q1838.72 1514.82 1841.17 1514.24 Q1843.63 1513.66 1845.66 1513.66 Q1851.03 1513.66 1854.23 1516.35 Q1857.42 1519.03 1857.42 1523.52 Q1857.42 1525.65 1856.61 1527.57 Q1855.82 1529.47 1853.72 1532.07 Q1853.14 1532.74 1850.04 1535.95 Q1846.94 1539.15 1841.29 1544.91 Z" fill="#000000" fill-rule="nonzero" fill-opacity="1" /><path clip-path="url(#clip790)" d="M1877.42 1517.37 Q1873.81 1517.37 1871.98 1520.93 Q1870.18 1524.47 1870.18 1531.6 Q1870.18 1538.71 1871.98 1542.27 Q1873.81 1545.82 1877.42 1545.82 Q1881.06 1545.82 1882.86 1542.27 Q1884.69 1538.71 1884.69 1531.6 Q1884.69 1524.47 1882.86 1520.93 Q1881.06 1517.37 1877.42 1517.37 M1877.42 1513.66 Q1883.23 1513.66 1886.29 1518.27 Q1889.37 1522.85 1889.37 1531.6 Q1889.37 1540.33 1886.29 1544.94 Q1883.23 1549.52 1877.42 1549.52 Q1871.61 1549.52 1868.53 1544.94 Q1865.48 1540.33 1865.48 1531.6 Q1865.48 1522.85 1868.53 1518.27 Q1871.61 1513.66 1877.42 1513.66 Z" fill="#000000" fill-rule="nonzero" fill-opacity="1" /><path clip-path="url(#clip790)" d="M1908.16 1529.7 Q1905.01 1529.7 1903.16 1531.86 Q1901.33 1534.01 1901.33 1537.76 Q1901.33 1541.49 1903.16 1543.66 Q1905.01 1545.82 1908.16 1545.82 Q1911.31 1545.82 1913.14 1543.66 Q1914.99 1541.49 1914.99 1537.76 Q1914.99 1534.01 1913.14 1531.86 Q1911.31 1529.7 1908.16 1529.7 M1917.44 1515.05 L1917.44 1519.31 Q1915.69 1518.48 1913.88 1518.04 Q1912.1 1517.6 1910.34 1517.6 Q1905.71 1517.6 1903.26 1520.72 Q1900.82 1523.85 1900.48 1530.17 Q1901.84 1528.15 1903.9 1527.09 Q1905.96 1526 1908.44 1526 Q1913.65 1526 1916.66 1529.17 Q1919.69 1532.32 1919.69 1537.76 Q1919.69 1543.08 1916.54 1546.3 Q1913.39 1549.52 1908.16 1549.52 Q1902.17 1549.52 1899 1544.94 Q1895.82 1540.33 1895.82 1531.6 Q1895.82 1523.41 1899.71 1518.55 Q1903.6 1513.66 1910.15 1513.66 Q1911.91 1513.66 1913.69 1514.01 Q1915.5 1514.36 1917.44 1515.05 Z" fill="#000000" fill-rule="nonzero" fill-opacity="1" /><path clip-path="url(#clip790)" d="M1937.75 1517.37 Q1934.13 1517.37 1932.31 1520.93 Q1930.5 1524.47 1930.5 1531.6 Q1930.5 1538.71 1932.31 1542.27 Q1934.13 1545.82 1937.75 1545.82 Q1941.38 1545.82 1943.19 1542.27 Q1945.01 1538.71 1945.01 1531.6 Q1945.01 1524.47 1943.19 1520.93 Q1941.38 1517.37 1937.75 1517.37 M1937.75 1513.66 Q1943.56 1513.66 1946.61 1518.27 Q1949.69 1522.85 1949.69 1531.6 Q1949.69 1540.33 1946.61 1544.94 Q1943.56 1549.52 1937.75 1549.52 Q1931.94 1549.52 1928.86 1544.94 Q1925.8 1540.33 1925.8 1531.6 Q1925.8 1522.85 1928.86 1518.27 Q1931.94 1513.66 1937.75 1513.66 Z" fill="#000000" fill-rule="nonzero" fill-opacity="1" /><path clip-path="url(#clip790)" d="M2241.36 1544.91 L2257.68 1544.91 L2257.68 1548.85 L2235.73 1548.85 L2235.73 1544.91 Q2238.39 1542.16 2242.98 1537.53 Q2247.58 1532.88 2248.76 1531.53 Q2251.01 1529.01 2251.89 1527.27 Q2252.79 1525.51 2252.79 1523.82 Q2252.79 1521.07 2250.85 1519.33 Q2248.93 1517.6 2245.82 1517.6 Q2243.63 1517.6 2241.17 1518.36 Q2238.74 1519.13 2235.96 1520.68 L2235.96 1515.95 Q2238.79 1514.82 2241.24 1514.24 Q2243.69 1513.66 2245.73 1513.66 Q2251.1 1513.66 2254.3 1516.35 Q2257.49 1519.03 2257.49 1523.52 Q2257.49 1525.65 2256.68 1527.57 Q2255.89 1529.47 2253.79 1532.07 Q2253.21 1532.74 2250.11 1535.95 Q2247.01 1539.15 2241.36 1544.91 Z" fill="#000000" fill-rule="nonzero" fill-opacity="1" /><path clip-path="url(#clip790)" d="M2277.49 1517.37 Q2273.88 1517.37 2272.05 1520.93 Q2270.25 1524.47 2270.25 1531.6 Q2270.25 1538.71 2272.05 1542.27 Q2273.88 1545.82 2277.49 1545.82 Q2281.13 1545.82 2282.93 1542.27 Q2284.76 1538.71 2284.76 1531.6 Q2284.76 1524.47 2282.93 1520.93 Q2281.13 1517.37 2277.49 1517.37 M2277.49 1513.66 Q2283.3 1513.66 2286.36 1518.27 Q2289.44 1522.85 2289.44 1531.6 Q2289.44 1540.33 2286.36 1544.94 Q2283.3 1549.52 2277.49 1549.52 Q2271.68 1549.52 2268.6 1544.94 Q2265.55 1540.33 2265.55 1531.6 Q2265.55 1522.85 2268.6 1518.27 Q2271.68 1513.66 2277.49 1513.66 Z" fill="#000000" fill-rule="nonzero" fill-opacity="1" /><path clip-path="url(#clip790)" d="M2296.47 1514.29 L2318.69 1514.29 L2318.69 1516.28 L2306.15 1548.85 L2301.26 1548.85 L2313.07 1518.22 L2296.47 1518.22 L2296.47 1514.29 Z" fill="#000000" fill-rule="nonzero" fill-opacity="1" /><path clip-path="url(#clip790)" d="M2337.81 1517.37 Q2334.2 1517.37 2332.37 1520.93 Q2330.57 1524.47 2330.57 1531.6 Q2330.57 1538.71 2332.37 1542.27 Q2334.2 1545.82 2337.81 1545.82 Q2341.45 1545.82 2343.25 1542.27 Q2345.08 1538.71 2345.08 1531.6 Q2345.08 1524.47 2343.25 1520.93 Q2341.45 1517.37 2337.81 1517.37 M2337.81 1513.66 Q2343.62 1513.66 2346.68 1518.27 Q2349.76 1522.85 2349.76 1531.6 Q2349.76 1540.33 2346.68 1544.94 Q2343.62 1549.52 2337.81 1549.52 Q2332 1549.52 2328.93 1544.94 Q2325.87 1540.33 2325.87 1531.6 Q2325.87 1522.85 2328.93 1518.27 Q2332 1513.66 2337.81 1513.66 Z" fill="#000000" fill-rule="nonzero" fill-opacity="1" /><polyline clip-path="url(#clip790)" style="stroke:#000000; stroke-linecap:round; stroke-linejoin:round; stroke-width:4; stroke-opacity:1; fill:none" points="232.389,1486.45 232.389,123.472 "/>
<polyline clip-path="url(#clip790)" style="stroke:#000000; stroke-linecap:round; stroke-linejoin:round; stroke-width:4; stroke-opacity:1; fill:none" points="232.389,1486.45 251.287,1486.45 "/>
<polyline clip-path="url(#clip790)" style="stroke:#000000; stroke-linecap:round; stroke-linejoin:round; stroke-width:4; stroke-opacity:1; fill:none" points="232.389,1213.85 251.287,1213.85 "/>
<polyline clip-path="url(#clip790)" style="stroke:#000000; stroke-linecap:round; stroke-linejoin:round; stroke-width:4; stroke-opacity:1; fill:none" points="232.389,941.258 251.287,941.258 "/>
<polyline clip-path="url(#clip790)" style="stroke:#000000; stroke-linecap:round; stroke-linejoin:round; stroke-width:4; stroke-opacity:1; fill:none" points="232.389,668.662 251.287,668.662 "/>
<polyline clip-path="url(#clip790)" style="stroke:#000000; stroke-linecap:round; stroke-linejoin:round; stroke-width:4; stroke-opacity:1; fill:none" points="232.389,396.067 251.287,396.067 "/>
<polyline clip-path="url(#clip790)" style="stroke:#000000; stroke-linecap:round; stroke-linejoin:round; stroke-width:4; stroke-opacity:1; fill:none" points="232.389,123.472 251.287,123.472 "/>
<path clip-path="url(#clip790)" d="M184.445 1472.25 Q180.834 1472.25 179.005 1475.81 Q177.2 1479.35 177.2 1486.48 Q177.2 1493.59 179.005 1497.15 Q180.834 1500.7 184.445 1500.7 Q188.079 1500.7 189.885 1497.15 Q191.713 1493.59 191.713 1486.48 Q191.713 1479.35 189.885 1475.81 Q188.079 1472.25 184.445 1472.25 M184.445 1468.54 Q190.255 1468.54 193.311 1473.15 Q196.389 1477.73 196.389 1486.48 Q196.389 1495.21 193.311 1499.82 Q190.255 1504.4 184.445 1504.4 Q178.635 1504.4 175.556 1499.82 Q172.501 1495.21 172.501 1486.48 Q172.501 1477.73 175.556 1473.15 Q178.635 1468.54 184.445 1468.54 Z" fill="#000000" fill-rule="nonzero" fill-opacity="1" /><path clip-path="url(#clip790)" d="M148.311 1227.2 L164.63 1227.2 L164.63 1231.13 L142.686 1231.13 L142.686 1227.2 Q145.348 1224.44 149.931 1219.81 Q154.538 1215.16 155.718 1213.82 Q157.964 1211.29 158.843 1209.56 Q159.746 1207.8 159.746 1206.11 Q159.746 1203.36 157.802 1201.62 Q155.88 1199.88 152.778 1199.88 Q150.579 1199.88 148.126 1200.65 Q145.695 1201.41 142.917 1202.96 L142.917 1198.24 Q145.741 1197.11 148.195 1196.53 Q150.649 1195.95 152.686 1195.95 Q158.056 1195.95 161.251 1198.63 Q164.445 1201.32 164.445 1205.81 Q164.445 1207.94 163.635 1209.86 Q162.848 1211.76 160.741 1214.35 Q160.163 1215.02 157.061 1218.24 Q153.959 1221.43 148.311 1227.2 Z" fill="#000000" fill-rule="nonzero" fill-opacity="1" /><path clip-path="url(#clip790)" d="M184.445 1199.65 Q180.834 1199.65 179.005 1203.22 Q177.2 1206.76 177.2 1213.89 Q177.2 1220.99 179.005 1224.56 Q180.834 1228.1 184.445 1228.1 Q188.079 1228.1 189.885 1224.56 Q191.713 1220.99 191.713 1213.89 Q191.713 1206.76 189.885 1203.22 Q188.079 1199.65 184.445 1199.65 M184.445 1195.95 Q190.255 1195.95 193.311 1200.55 Q196.389 1205.14 196.389 1213.89 Q196.389 1222.61 193.311 1227.22 Q190.255 1231.8 184.445 1231.8 Q178.635 1231.8 175.556 1227.22 Q172.501 1222.61 172.501 1213.89 Q172.501 1205.14 175.556 1200.55 Q178.635 1195.95 184.445 1195.95 Z" fill="#000000" fill-rule="nonzero" fill-opacity="1" /><path clip-path="url(#clip790)" d="M157.13 928.052 L145.325 946.501 L157.13 946.501 L157.13 928.052 M155.903 923.978 L161.783 923.978 L161.783 946.501 L166.714 946.501 L166.714 950.389 L161.783 950.389 L161.783 958.538 L157.13 958.538 L157.13 950.389 L141.529 950.389 L141.529 945.876 L155.903 923.978 Z" fill="#000000" fill-rule="nonzero" fill-opacity="1" /><path clip-path="url(#clip790)" d="M184.445 927.056 Q180.834 927.056 179.005 930.621 Q177.2 934.163 177.2 941.292 Q177.2 948.399 179.005 951.964 Q180.834 955.505 184.445 955.505 Q188.079 955.505 189.885 951.964 Q191.713 948.399 191.713 941.292 Q191.713 934.163 189.885 930.621 Q188.079 927.056 184.445 927.056 M184.445 923.353 Q190.255 923.353 193.311 927.959 Q196.389 932.542 196.389 941.292 Q196.389 950.019 193.311 954.626 Q190.255 959.209 184.445 959.209 Q178.635 959.209 175.556 954.626 Q172.501 950.019 172.501 941.292 Q172.501 932.542 175.556 927.959 Q178.635 923.353 184.445 923.353 Z" fill="#000000" fill-rule="nonzero" fill-opacity="1" /><path clip-path="url(#clip790)" d="M154.862 666.799 Q151.714 666.799 149.862 668.952 Q148.033 671.105 148.033 674.855 Q148.033 678.581 149.862 680.757 Q151.714 682.91 154.862 682.91 Q158.01 682.91 159.839 680.757 Q161.69 678.581 161.69 674.855 Q161.69 671.105 159.839 668.952 Q158.01 666.799 154.862 666.799 M164.144 652.146 L164.144 656.406 Q162.385 655.572 160.579 655.132 Q158.797 654.693 157.038 654.693 Q152.408 654.693 149.954 657.818 Q147.524 660.943 147.177 667.262 Q148.542 665.248 150.603 664.183 Q152.663 663.095 155.14 663.095 Q160.348 663.095 163.357 666.267 Q166.39 669.415 166.39 674.855 Q166.39 680.179 163.241 683.396 Q160.093 686.614 154.862 686.614 Q148.866 686.614 145.695 682.03 Q142.524 677.424 142.524 668.697 Q142.524 660.503 146.413 655.642 Q150.302 650.757 156.853 650.757 Q158.612 650.757 160.394 651.105 Q162.2 651.452 164.144 652.146 Z" fill="#000000" fill-rule="nonzero" fill-opacity="1" /><path clip-path="url(#clip790)" d="M184.445 654.461 Q180.834 654.461 179.005 658.026 Q177.2 661.568 177.2 668.697 Q177.2 675.804 179.005 679.368 Q180.834 682.91 184.445 682.91 Q188.079 682.91 189.885 679.368 Q191.713 675.804 191.713 668.697 Q191.713 661.568 189.885 658.026 Q188.079 654.461 184.445 654.461 M184.445 650.757 Q190.255 650.757 193.311 655.364 Q196.389 659.947 196.389 668.697 Q196.389 677.424 193.311 682.03 Q190.255 686.614 184.445 686.614 Q178.635 686.614 175.556 682.03 Q172.501 677.424 172.501 668.697 Q172.501 659.947 175.556 655.364 Q178.635 650.757 184.445 650.757 Z" fill="#000000" fill-rule="nonzero" fill-opacity="1" /><path clip-path="url(#clip790)" d="M154.283 396.935 Q150.95 396.935 149.028 398.718 Q147.13 400.5 147.13 403.625 Q147.13 406.75 149.028 408.532 Q150.95 410.315 154.283 410.315 Q157.616 410.315 159.538 408.532 Q161.459 406.727 161.459 403.625 Q161.459 400.5 159.538 398.718 Q157.64 396.935 154.283 396.935 M149.607 394.945 Q146.598 394.204 144.908 392.144 Q143.241 390.084 143.241 387.121 Q143.241 382.977 146.181 380.57 Q149.144 378.162 154.283 378.162 Q159.445 378.162 162.385 380.57 Q165.325 382.977 165.325 387.121 Q165.325 390.084 163.635 392.144 Q161.968 394.204 158.982 394.945 Q162.362 395.732 164.237 398.023 Q166.135 400.315 166.135 403.625 Q166.135 408.648 163.056 411.333 Q160.001 414.019 154.283 414.019 Q148.566 414.019 145.487 411.333 Q142.431 408.648 142.431 403.625 Q142.431 400.315 144.329 398.023 Q146.228 395.732 149.607 394.945 M147.894 387.56 Q147.894 390.246 149.561 391.75 Q151.251 393.255 154.283 393.255 Q157.292 393.255 158.982 391.75 Q160.695 390.246 160.695 387.56 Q160.695 384.875 158.982 383.371 Q157.292 381.866 154.283 381.866 Q151.251 381.866 149.561 383.371 Q147.894 384.875 147.894 387.56 Z" fill="#000000" fill-rule="nonzero" fill-opacity="1" /><path clip-path="url(#clip790)" d="M184.445 381.866 Q180.834 381.866 179.005 385.431 Q177.2 388.972 177.2 396.102 Q177.2 403.208 179.005 406.773 Q180.834 410.315 184.445 410.315 Q188.079 410.315 189.885 406.773 Q191.713 403.208 191.713 396.102 Q191.713 388.972 189.885 385.431 Q188.079 381.866 184.445 381.866 M184.445 378.162 Q190.255 378.162 193.311 382.769 Q196.389 387.352 196.389 396.102 Q196.389 404.829 193.311 409.435 Q190.255 414.019 184.445 414.019 Q178.635 414.019 175.556 409.435 Q172.501 404.829 172.501 396.102 Q172.501 387.352 175.556 382.769 Q178.635 378.162 184.445 378.162 Z" fill="#000000" fill-rule="nonzero" fill-opacity="1" /><path clip-path="url(#clip790)" d="M114.931 136.817 L122.57 136.817 L122.57 110.451 L114.26 112.118 L114.26 107.859 L122.524 106.192 L127.2 106.192 L127.2 136.817 L134.839 136.817 L134.839 140.752 L114.931 140.752 L114.931 136.817 Z" fill="#000000" fill-rule="nonzero" fill-opacity="1" /><path clip-path="url(#clip790)" d="M154.283 109.271 Q150.672 109.271 148.843 112.836 Q147.038 116.377 147.038 123.507 Q147.038 130.613 148.843 134.178 Q150.672 137.72 154.283 137.72 Q157.917 137.72 159.723 134.178 Q161.552 130.613 161.552 123.507 Q161.552 116.377 159.723 112.836 Q157.917 109.271 154.283 109.271 M154.283 105.567 Q160.093 105.567 163.149 110.174 Q166.227 114.757 166.227 123.507 Q166.227 132.234 163.149 136.84 Q160.093 141.423 154.283 141.423 Q148.473 141.423 145.394 136.84 Q142.339 132.234 142.339 123.507 Q142.339 114.757 145.394 110.174 Q148.473 105.567 154.283 105.567 Z" fill="#000000" fill-rule="nonzero" fill-opacity="1" /><path clip-path="url(#clip790)" d="M184.445 109.271 Q180.834 109.271 179.005 112.836 Q177.2 116.377 177.2 123.507 Q177.2 130.613 179.005 134.178 Q180.834 137.72 184.445 137.72 Q188.079 137.72 189.885 134.178 Q191.713 130.613 191.713 123.507 Q191.713 116.377 189.885 112.836 Q188.079 109.271 184.445 109.271 M184.445 105.567 Q190.255 105.567 193.311 110.174 Q196.389 114.757 196.389 123.507 Q196.389 132.234 193.311 136.84 Q190.255 141.423 184.445 141.423 Q178.635 141.423 175.556 136.84 Q172.501 132.234 172.501 123.507 Q172.501 114.757 175.556 110.174 Q178.635 105.567 184.445 105.567 Z" fill="#000000" fill-rule="nonzero" fill-opacity="1" /><path clip-path="url(#clip790)" d="M57.2247 911.172 L44.4614 911.172 L44.4614 921.675 L39.1779 921.675 L39.1779 904.806 L59.58 904.806 Q62.2218 908.53 63.5904 913.018 Q64.9272 917.506 64.9272 922.598 Q64.9272 933.738 58.4342 940.04 Q51.9093 946.311 40.2919 946.311 Q28.6427 946.311 22.1496 940.04 Q15.6248 933.738 15.6248 922.598 Q15.6248 917.951 16.7706 913.782 Q17.9164 909.58 20.1444 906.047 L26.9876 906.047 Q23.9639 909.612 22.4361 913.623 Q20.9083 917.633 20.9083 922.057 Q20.9083 930.778 25.7781 935.171 Q30.6479 939.531 40.2919 939.531 Q49.9041 939.531 54.7739 935.171 Q59.6436 930.778 59.6436 922.057 Q59.6436 918.652 59.0707 915.978 Q58.466 913.304 57.2247 911.172 Z" fill="#000000" fill-rule="nonzero" fill-opacity="1" /><path clip-path="url(#clip790)" d="M18.2347 887.523 L28.3562 887.523 L28.3562 875.46 L32.9077 875.46 L32.9077 887.523 L52.2594 887.523 Q56.6199 887.523 57.8613 886.346 Q59.1026 885.136 59.1026 881.476 L59.1026 875.46 L64.0042 875.46 L64.0042 881.476 Q64.0042 888.255 61.4897 890.833 Q58.9434 893.411 52.2594 893.411 L32.9077 893.411 L32.9077 897.708 L28.3562 897.708 L28.3562 893.411 L18.2347 893.411 L18.2347 887.523 Z" fill="#000000" fill-rule="nonzero" fill-opacity="1" /><path clip-path="url(#clip790)" d="M20.1444 831.919 L26.9239 831.919 Q23.9002 835.165 22.4043 838.857 Q20.9083 842.518 20.9083 846.655 Q20.9083 854.803 25.9054 859.132 Q30.8707 863.461 40.2919 863.461 Q49.6813 863.461 54.6784 859.132 Q59.6436 854.803 59.6436 846.655 Q59.6436 842.518 58.1477 838.857 Q56.6518 835.165 53.6281 831.919 L60.3439 831.919 Q62.6355 835.293 63.7814 839.08 Q64.9272 842.836 64.9272 847.037 Q64.9272 857.827 58.3387 864.034 Q51.7183 870.24 40.2919 870.24 Q28.8336 870.24 22.2451 864.034 Q15.6248 857.827 15.6248 847.037 Q15.6248 842.772 16.7706 839.017 Q17.8846 835.229 20.1444 831.919 Z" fill="#000000" fill-rule="nonzero" fill-opacity="1" /><path clip-path="url(#clip790)" d="M20.8447 802.7 Q20.8447 809.702 26.0645 813.84 Q31.2844 817.946 40.2919 817.946 Q49.2675 817.946 54.4874 813.84 Q59.7073 809.702 59.7073 802.7 Q59.7073 795.698 54.4874 791.624 Q49.2675 787.518 40.2919 787.518 Q31.2844 787.518 26.0645 791.624 Q20.8447 795.698 20.8447 802.7 M15.6248 802.7 Q15.6248 792.706 22.3406 786.722 Q29.0246 780.738 40.2919 780.738 Q51.5274 780.738 58.2432 786.722 Q64.9272 792.706 64.9272 802.7 Q64.9272 812.726 58.2432 818.742 Q51.5592 824.726 40.2919 824.726 Q29.0246 824.726 22.3406 818.742 Q15.6248 812.726 15.6248 802.7 Z" fill="#000000" fill-rule="nonzero" fill-opacity="1" /><path clip-path="url(#clip790)" d="M60.3757 768.548 L60.3757 755.053 L64.0042 755.053 L64.0042 774.086 L60.503 774.086 Q59.5163 773.004 57.7339 770.999 Q48.0262 760.05 45.0344 760.05 Q42.9337 760.05 41.6605 761.705 Q40.3556 763.36 40.3556 766.066 Q40.3556 767.721 40.9285 769.662 Q41.4696 771.604 42.5836 773.895 L38.6686 773.895 Q37.7774 771.445 37.3318 769.344 Q36.8862 767.211 36.8862 765.397 Q36.8862 760.782 38.9869 758.013 Q41.0876 755.244 44.5251 755.244 Q48.9493 755.244 57.9886 765.779 Q59.5163 767.561 60.3757 768.548 Z" fill="#000000" fill-rule="nonzero" fill-opacity="1" /><path clip-path="url(#clip790)" d="M16.4842 734.396 L16.4842 728.985 L70.0516 745.536 L70.0516 750.947 L16.4842 734.396 Z" fill="#000000" fill-rule="nonzero" fill-opacity="1" /><path clip-path="url(#clip790)" d="M67.3143 708.01 Q73.68 710.493 75.6216 712.848 Q77.5631 715.204 77.5631 719.15 L77.5631 723.829 L72.6615 723.829 L72.6615 720.392 Q72.6615 717.973 71.5157 716.636 Q70.3699 715.299 66.1048 713.676 L63.4312 712.625 L28.3562 727.044 L28.3562 720.837 L56.238 709.697 L28.3562 698.557 L28.3562 692.351 L67.3143 708.01 Z" fill="#000000" fill-rule="nonzero" fill-opacity="1" /><path clip-path="url(#clip790)" d="M33.8307 663.609 Q33.2578 664.596 33.0032 665.774 Q32.7167 666.92 32.7167 668.32 Q32.7167 673.285 35.9632 675.959 Q39.1779 678.601 45.2253 678.601 L64.0042 678.601 L64.0042 684.489 L28.3562 684.489 L28.3562 678.601 L33.8944 678.601 Q30.6479 676.755 29.0883 673.795 Q27.4968 670.835 27.4968 666.601 Q27.4968 665.997 27.5923 665.265 Q27.656 664.533 27.8151 663.641 L33.8307 663.609 Z" fill="#000000" fill-rule="nonzero" fill-opacity="1" /><path clip-path="url(#clip790)" d="M1048.79 16.7545 L1048.79 25.383 Q1044.66 21.5346 1039.96 19.6307 Q1035.3 17.7268 1030.03 17.7268 Q1019.66 17.7268 1014.15 24.0867 Q1008.64 30.4061 1008.64 42.3968 Q1008.64 54.3469 1014.15 60.7069 Q1019.66 67.0263 1030.03 67.0263 Q1035.3 67.0263 1039.96 65.1223 Q1044.66 63.2184 1048.79 59.3701 L1048.79 67.9175 Q1044.5 70.8341 1039.67 72.2924 Q1034.89 73.7508 1029.55 73.7508 Q1015.81 73.7508 1007.92 65.3654 Q1000.02 56.9395 1000.02 42.3968 Q1000.02 27.8135 1007.92 19.4281 Q1015.81 11.0023 1029.55 11.0023 Q1034.98 11.0023 1039.76 12.4606 Q1044.58 13.8784 1048.79 16.7545 Z" fill="#000000" fill-rule="nonzero" fill-opacity="1" /><path clip-path="url(#clip790)" d="M1085.98 17.6457 Q1077.06 17.6457 1071.8 24.2892 Q1066.57 30.9327 1066.57 42.3968 Q1066.57 53.8203 1071.8 60.4638 Q1077.06 67.1073 1085.98 67.1073 Q1094.89 67.1073 1100.07 60.4638 Q1105.3 53.8203 1105.3 42.3968 Q1105.3 30.9327 1100.07 24.2892 Q1094.89 17.6457 1085.98 17.6457 M1085.98 11.0023 Q1098.7 11.0023 1106.31 19.5497 Q1113.93 28.0566 1113.93 42.3968 Q1113.93 56.6965 1106.31 65.2439 Q1098.7 73.7508 1085.98 73.7508 Q1073.22 73.7508 1065.56 65.2439 Q1057.94 56.737 1057.94 42.3968 Q1057.94 28.0566 1065.56 19.5497 Q1073.22 11.0023 1085.98 11.0023 Z" fill="#000000" fill-rule="nonzero" fill-opacity="1" /><path clip-path="url(#clip790)" d="M1129.44 67.958 L1146.62 67.958 L1146.62 72.576 L1122.39 72.576 L1122.39 68.12 Q1123.77 66.8642 1126.32 64.5957 Q1140.26 52.2405 1140.26 48.4326 Q1140.26 45.759 1138.15 44.1387 Q1136.05 42.4778 1132.6 42.4778 Q1130.5 42.4778 1128.02 43.2069 Q1125.55 43.8956 1122.64 45.3134 L1122.64 40.3308 Q1125.76 39.1965 1128.43 38.6294 Q1131.14 38.0623 1133.45 38.0623 Q1139.33 38.0623 1142.85 40.7359 Q1146.38 43.4095 1146.38 47.7845 Q1146.38 53.4152 1132.97 64.9198 Q1130.7 66.8642 1129.44 67.958 Z" fill="#000000" fill-rule="nonzero" fill-opacity="1" /><path clip-path="url(#clip790)" d="M1224.84 48.0275 L1224.84 51.6733 L1190.57 51.6733 Q1191.06 59.3701 1195.19 63.421 Q1199.36 67.4314 1206.77 67.4314 Q1211.07 67.4314 1215.08 66.3781 Q1219.13 65.3249 1223.1 63.2184 L1223.1 70.267 Q1219.09 71.9684 1214.88 72.8596 Q1210.66 73.7508 1206.33 73.7508 Q1195.47 73.7508 1189.11 67.4314 Q1182.79 61.1119 1182.79 50.3365 Q1182.79 39.1965 1188.79 32.6746 Q1194.82 26.1121 1205.03 26.1121 Q1214.19 26.1121 1219.49 32.0264 Q1224.84 37.9003 1224.84 48.0275 M1217.39 45.84 Q1217.31 39.7232 1213.94 36.0774 Q1210.62 32.4315 1205.11 32.4315 Q1198.88 32.4315 1195.11 35.9558 Q1191.38 39.4801 1190.81 45.8805 L1217.39 45.84 Z" fill="#000000" fill-rule="nonzero" fill-opacity="1" /><path clip-path="url(#clip790)" d="M1272.4 35.9153 Q1275.19 30.8922 1279.08 28.5022 Q1282.97 26.1121 1288.24 26.1121 Q1295.33 26.1121 1299.18 31.0947 Q1303.02 36.0368 1303.02 45.1919 L1303.02 72.576 L1295.53 72.576 L1295.53 45.4349 Q1295.53 38.913 1293.22 35.7533 Q1290.91 32.5936 1286.17 32.5936 Q1280.38 32.5936 1277.02 36.4419 Q1273.65 40.2903 1273.65 46.9338 L1273.65 72.576 L1266.16 72.576 L1266.16 45.4349 Q1266.16 38.8725 1263.85 35.7533 Q1261.54 32.5936 1256.72 32.5936 Q1251.01 32.5936 1247.65 36.4824 Q1244.29 40.3308 1244.29 46.9338 L1244.29 72.576 L1236.79 72.576 L1236.79 27.2059 L1244.29 27.2059 L1244.29 34.2544 Q1246.84 30.082 1250.4 28.0971 Q1253.97 26.1121 1258.87 26.1121 Q1263.81 26.1121 1267.25 28.6237 Q1270.74 31.1352 1272.4 35.9153 Z" fill="#000000" fill-rule="nonzero" fill-opacity="1" /><path clip-path="url(#clip790)" d="M1317.89 27.2059 L1325.34 27.2059 L1325.34 72.576 L1317.89 72.576 L1317.89 27.2059 M1317.89 9.54393 L1325.34 9.54393 L1325.34 18.9825 L1317.89 18.9825 L1317.89 9.54393 Z" fill="#000000" fill-rule="nonzero" fill-opacity="1" /><path clip-path="url(#clip790)" d="M1369.86 28.5427 L1369.86 35.5912 Q1366.7 33.9709 1363.3 33.1607 Q1359.9 32.3505 1356.25 32.3505 Q1350.7 32.3505 1347.91 34.0519 Q1345.15 35.7533 1345.15 39.156 Q1345.15 41.7486 1347.14 43.2475 Q1349.12 44.7058 1355.12 46.0426 L1357.67 46.6097 Q1365.61 48.3111 1368.93 51.4303 Q1372.29 54.509 1372.29 60.0587 Q1372.29 66.3781 1367.27 70.0644 Q1362.29 73.7508 1353.54 73.7508 Q1349.89 73.7508 1345.92 73.0216 Q1341.99 72.3329 1337.62 70.9151 L1337.62 63.2184 Q1341.75 65.3654 1345.76 66.4591 Q1349.77 67.5124 1353.7 67.5124 Q1358.97 67.5124 1361.8 65.73 Q1364.64 63.9071 1364.64 60.6258 Q1364.64 57.5877 1362.57 55.9673 Q1360.55 54.3469 1353.62 52.8481 L1351.03 52.2405 Q1344.1 50.7821 1341.02 47.7845 Q1337.94 44.7463 1337.94 39.4801 Q1337.94 33.0797 1342.48 29.5959 Q1347.02 26.1121 1355.36 26.1121 Q1359.49 26.1121 1363.14 26.7198 Q1366.79 27.3274 1369.86 28.5427 Z" fill="#000000" fill-rule="nonzero" fill-opacity="1" /><path clip-path="url(#clip790)" d="M1413.09 28.5427 L1413.09 35.5912 Q1409.93 33.9709 1406.52 33.1607 Q1403.12 32.3505 1399.48 32.3505 Q1393.93 32.3505 1391.13 34.0519 Q1388.38 35.7533 1388.38 39.156 Q1388.38 41.7486 1390.36 43.2475 Q1392.35 44.7058 1398.34 46.0426 L1400.89 46.6097 Q1408.83 48.3111 1412.16 51.4303 Q1415.52 54.509 1415.52 60.0587 Q1415.52 66.3781 1410.49 70.0644 Q1405.51 73.7508 1396.76 73.7508 Q1393.12 73.7508 1389.15 73.0216 Q1385.22 72.3329 1380.84 70.9151 L1380.84 63.2184 Q1384.97 65.3654 1388.98 66.4591 Q1392.99 67.5124 1396.92 67.5124 Q1402.19 67.5124 1405.03 65.73 Q1407.86 63.9071 1407.86 60.6258 Q1407.86 57.5877 1405.8 55.9673 Q1403.77 54.3469 1396.84 52.8481 L1394.25 52.2405 Q1387.32 50.7821 1384.24 47.7845 Q1381.17 44.7463 1381.17 39.4801 Q1381.17 33.0797 1385.7 29.5959 Q1390.24 26.1121 1398.58 26.1121 Q1402.72 26.1121 1406.36 26.7198 Q1410.01 27.3274 1413.09 28.5427 Z" fill="#000000" fill-rule="nonzero" fill-opacity="1" /><path clip-path="url(#clip790)" d="M1427.39 27.2059 L1434.84 27.2059 L1434.84 72.576 L1427.39 72.576 L1427.39 27.2059 M1427.39 9.54393 L1434.84 9.54393 L1434.84 18.9825 L1427.39 18.9825 L1427.39 9.54393 Z" fill="#000000" fill-rule="nonzero" fill-opacity="1" /><path clip-path="url(#clip790)" d="M1468.02 32.4315 Q1462.02 32.4315 1458.54 37.1306 Q1455.05 41.7891 1455.05 49.9314 Q1455.05 58.0738 1458.5 62.7728 Q1461.98 67.4314 1468.02 67.4314 Q1473.97 67.4314 1477.46 62.7323 Q1480.94 58.0333 1480.94 49.9314 Q1480.94 41.8701 1477.46 37.1711 Q1473.97 32.4315 1468.02 32.4315 M1468.02 26.1121 Q1477.74 26.1121 1483.29 32.4315 Q1488.84 38.7509 1488.84 49.9314 Q1488.84 61.0714 1483.29 67.4314 Q1477.74 73.7508 1468.02 73.7508 Q1458.25 73.7508 1452.7 67.4314 Q1447.2 61.0714 1447.2 49.9314 Q1447.2 38.7509 1452.7 32.4315 Q1458.25 26.1121 1468.02 26.1121 Z" fill="#000000" fill-rule="nonzero" fill-opacity="1" /><path clip-path="url(#clip790)" d="M1538.91 45.1919 L1538.91 72.576 L1531.45 72.576 L1531.45 45.4349 Q1531.45 38.994 1528.94 35.7938 Q1526.43 32.5936 1521.41 32.5936 Q1515.37 32.5936 1511.89 36.4419 Q1508.4 40.2903 1508.4 46.9338 L1508.4 72.576 L1500.91 72.576 L1500.91 27.2059 L1508.4 27.2059 L1508.4 34.2544 Q1511.08 30.163 1514.68 28.1376 Q1518.33 26.1121 1523.07 26.1121 Q1530.89 26.1121 1534.9 30.9732 Q1538.91 35.7938 1538.91 45.1919 Z" fill="#000000" fill-rule="nonzero" fill-opacity="1" /><path clip-path="url(#clip790)" d="M1582.7 28.5427 L1582.7 35.5912 Q1579.54 33.9709 1576.14 33.1607 Q1572.73 32.3505 1569.09 32.3505 Q1563.54 32.3505 1560.74 34.0519 Q1557.99 35.7533 1557.99 39.156 Q1557.99 41.7486 1559.97 43.2475 Q1561.96 44.7058 1567.95 46.0426 L1570.51 46.6097 Q1578.44 48.3111 1581.77 51.4303 Q1585.13 54.509 1585.13 60.0587 Q1585.13 66.3781 1580.11 70.0644 Q1575.12 73.7508 1566.37 73.7508 Q1562.73 73.7508 1558.76 73.0216 Q1554.83 72.3329 1550.45 70.9151 L1550.45 63.2184 Q1554.59 65.3654 1558.6 66.4591 Q1562.61 67.5124 1566.54 67.5124 Q1571.8 67.5124 1574.64 65.73 Q1577.47 63.9071 1577.47 60.6258 Q1577.47 57.5877 1575.41 55.9673 Q1573.38 54.3469 1566.45 52.8481 L1563.86 52.2405 Q1556.93 50.7821 1553.86 47.7845 Q1550.78 44.7463 1550.78 39.4801 Q1550.78 33.0797 1555.31 29.5959 Q1559.85 26.1121 1568.2 26.1121 Q1572.33 26.1121 1575.97 26.7198 Q1579.62 27.3274 1582.7 28.5427 Z" fill="#000000" fill-rule="nonzero" fill-opacity="1" /><polyline clip-path="url(#clip792)" style="stroke:#cd0000; stroke-linecap:round; stroke-linejoin:round; stroke-width:8; stroke-opacity:1; fill:none" points="292.4,901.17 492.434,901.591 692.469,966.51 892.503,965.043 1092.54,965.628 1292.57,970.838 1492.61,981.385 1692.64,987.468 1892.68,997.298 2092.71,1011.27 2292.75,1029.82 "/>
<polyline clip-path="url(#clip792)" style="stroke:#00cd00; stroke-linecap:round; stroke-linejoin:round; stroke-width:8; stroke-opacity:1; fill:none" stroke-dasharray="32, 20" points="292.4,337.614 492.434,125.914 692.469,174.462 892.503,273.994 1092.54,426.214 1292.57,613.64 1492.61,723.51 1692.64,812.67 1892.68,919.177 2092.71,1044.46 2292.75,1190.43 "/>
<polyline clip-path="url(#clip792)" style="stroke:#0000cd; stroke-linecap:round; stroke-linejoin:round; stroke-width:8; stroke-opacity:1; fill:none" stroke-dasharray="4, 8" points="292.4,448 492.434,281.66 692.469,333.068 892.503,423.946 1092.54,559.173 1292.57,717.713 1492.61,847.77 1692.64,932.241 1892.68,1027.67 2092.71,1138.85 2292.75,1267.29 "/>
<path clip-path="url(#clip790)" d="M1692.61 376.265 L2282.08 376.265 L2282.08 168.905 L1692.61 168.905  Z" fill="#ffffff" fill-rule="evenodd" fill-opacity="1"/>
<polyline clip-path="url(#clip790)" style="stroke:#000000; stroke-linecap:round; stroke-linejoin:round; stroke-width:4; stroke-opacity:1; fill:none" points="1692.61,376.265 2282.08,376.265 2282.08,168.905 1692.61,168.905 1692.61,376.265 "/>
<polyline clip-path="url(#clip790)" style="stroke:#cd0000; stroke-linecap:round; stroke-linejoin:round; stroke-width:8; stroke-opacity:1; fill:none" points="1716.17,220.745 1857.53,220.745 "/>
<path clip-path="url(#clip790)" d="M1885.76 207.307 L1885.76 234.182 L1891.41 234.182 Q1898.57 234.182 1901.88 230.941 Q1905.21 227.701 1905.21 220.71 Q1905.21 213.766 1901.88 210.548 Q1898.57 207.307 1891.41 207.307 L1885.76 207.307 M1881.09 203.465 L1890.7 203.465 Q1900.74 203.465 1905.44 207.654 Q1910.14 211.821 1910.14 220.71 Q1910.14 229.645 1905.42 233.835 Q1900.7 238.025 1890.7 238.025 L1881.09 238.025 L1881.09 203.465 Z" fill="#000000" fill-rule="nonzero" fill-opacity="1" /><path clip-path="url(#clip790)" d="M1917.59 203.465 L1922.27 203.465 L1922.27 238.025 L1917.59 238.025 L1917.59 203.465 Z" fill="#000000" fill-rule="nonzero" fill-opacity="1" /><path clip-path="url(#clip790)" d="M1957.45 206.127 L1957.45 211.057 Q1955.09 208.858 1952.41 207.77 Q1949.75 206.682 1946.74 206.682 Q1940.81 206.682 1937.66 210.316 Q1934.51 213.928 1934.51 220.779 Q1934.51 227.608 1937.66 231.242 Q1940.81 234.853 1946.74 234.853 Q1949.75 234.853 1952.41 233.765 Q1955.09 232.677 1957.45 230.478 L1957.45 235.363 Q1955 237.029 1952.25 237.863 Q1949.51 238.696 1946.46 238.696 Q1938.61 238.696 1934.1 233.904 Q1929.58 229.09 1929.58 220.779 Q1929.58 212.446 1934.1 207.654 Q1938.61 202.84 1946.46 202.84 Q1949.56 202.84 1952.29 203.673 Q1955.05 204.483 1957.45 206.127 Z" fill="#000000" fill-rule="nonzero" fill-opacity="1" /><path clip-path="url(#clip790)" d="M1964.68 203.465 L1986.53 203.465 L1986.53 207.4 L1969.35 207.4 L1969.35 217.631 L1985.81 217.631 L1985.81 221.566 L1969.35 221.566 L1969.35 234.089 L1986.94 234.089 L1986.94 238.025 L1964.68 238.025 L1964.68 203.465 Z" fill="#000000" fill-rule="nonzero" fill-opacity="1" /><polyline clip-path="url(#clip790)" style="stroke:#00cd00; stroke-linecap:round; stroke-linejoin:round; stroke-width:8; stroke-opacity:1; fill:none" stroke-dasharray="32, 20" points="1716.17,272.585 1857.53,272.585 "/>
<path clip-path="url(#clip790)" d="M1885.76 259.147 L1885.76 286.022 L1891.41 286.022 Q1898.57 286.022 1901.88 282.781 Q1905.21 279.541 1905.21 272.55 Q1905.21 265.606 1901.88 262.388 Q1898.57 259.147 1891.41 259.147 L1885.76 259.147 M1881.09 255.305 L1890.7 255.305 Q1900.74 255.305 1905.44 259.494 Q1910.14 263.661 1910.14 272.55 Q1910.14 281.485 1905.42 285.675 Q1900.7 289.865 1890.7 289.865 L1881.09 289.865 L1881.09 255.305 Z" fill="#000000" fill-rule="nonzero" fill-opacity="1" /><path clip-path="url(#clip790)" d="M1917.59 255.305 L1922.27 255.305 L1922.27 289.865 L1917.59 289.865 L1917.59 255.305 Z" fill="#000000" fill-rule="nonzero" fill-opacity="1" /><path clip-path="url(#clip790)" d="M1957.45 257.967 L1957.45 262.897 Q1955.09 260.698 1952.41 259.61 Q1949.75 258.522 1946.74 258.522 Q1940.81 258.522 1937.66 262.156 Q1934.51 265.768 1934.51 272.619 Q1934.51 279.448 1937.66 283.082 Q1940.81 286.693 1946.74 286.693 Q1949.75 286.693 1952.41 285.605 Q1955.09 284.517 1957.45 282.318 L1957.45 287.203 Q1955 288.869 1952.25 289.703 Q1949.51 290.536 1946.46 290.536 Q1938.61 290.536 1934.1 285.744 Q1929.58 280.93 1929.58 272.619 Q1929.58 264.286 1934.1 259.494 Q1938.61 254.68 1946.46 254.68 Q1949.56 254.68 1952.29 255.513 Q1955.05 256.323 1957.45 257.967 Z" fill="#000000" fill-rule="nonzero" fill-opacity="1" /><path clip-path="url(#clip790)" d="M1964.68 255.305 L1986.53 255.305 L1986.53 259.24 L1969.35 259.24 L1969.35 269.471 L1985.81 269.471 L1985.81 273.406 L1969.35 273.406 L1969.35 285.929 L1986.94 285.929 L1986.94 289.865 L1964.68 289.865 L1964.68 255.305 Z" fill="#000000" fill-rule="nonzero" fill-opacity="1" /><path clip-path="url(#clip790)" d="M2010.93 285.929 L2018.56 285.929 L2018.56 259.564 L2010.25 261.231 L2010.25 256.971 L2018.52 255.305 L2023.19 255.305 L2023.19 285.929 L2030.83 285.929 L2030.83 289.865 L2010.93 289.865 L2010.93 285.929 Z" fill="#000000" fill-rule="nonzero" fill-opacity="1" /><path clip-path="url(#clip790)" d="M2044.31 285.929 L2060.62 285.929 L2060.62 289.865 L2038.68 289.865 L2038.68 285.929 Q2041.34 283.175 2045.93 278.545 Q2050.53 273.893 2051.71 272.55 Q2053.96 270.027 2054.84 268.291 Q2055.74 266.531 2055.74 264.842 Q2055.74 262.087 2053.8 260.351 Q2051.87 258.615 2048.77 258.615 Q2046.57 258.615 2044.12 259.379 Q2041.69 260.143 2038.91 261.694 L2038.91 256.971 Q2041.74 255.837 2044.19 255.258 Q2046.64 254.68 2048.68 254.68 Q2054.05 254.68 2057.25 257.365 Q2060.44 260.05 2060.44 264.541 Q2060.44 266.67 2059.63 268.592 Q2058.84 270.49 2056.74 273.082 Q2056.16 273.754 2053.06 276.971 Q2049.95 280.166 2044.31 285.929 Z" fill="#000000" fill-rule="nonzero" fill-opacity="1" /><path clip-path="url(#clip790)" d="M2085.09 255.305 L2106.94 255.305 L2106.94 259.24 L2089.77 259.24 L2089.77 269.471 L2106.23 269.471 L2106.23 273.406 L2089.77 273.406 L2089.77 285.929 L2107.36 285.929 L2107.36 289.865 L2085.09 289.865 L2085.09 255.305 Z" fill="#000000" fill-rule="nonzero" fill-opacity="1" /><path clip-path="url(#clip790)" d="M2129.07 258.476 Q2123.98 258.476 2120.97 262.272 Q2117.99 266.068 2117.99 272.619 Q2117.99 279.147 2120.97 282.943 Q2123.98 286.74 2129.07 286.74 Q2134.17 286.74 2137.13 282.943 Q2140.12 279.147 2140.12 272.619 Q2140.12 266.068 2137.13 262.272 Q2134.17 258.476 2129.07 258.476 M2135.62 289.24 L2141.78 295.976 L2136.13 295.976 L2131.02 290.443 Q2130.25 290.49 2129.84 290.513 Q2129.44 290.536 2129.07 290.536 Q2121.78 290.536 2117.41 285.675 Q2113.06 280.791 2113.06 272.619 Q2113.06 264.425 2117.41 259.564 Q2121.78 254.68 2129.07 254.68 Q2136.34 254.68 2140.69 259.564 Q2145.05 264.425 2145.05 272.619 Q2145.05 278.638 2142.62 282.92 Q2140.21 287.203 2135.62 289.24 Z" fill="#000000" fill-rule="nonzero" fill-opacity="1" /><path clip-path="url(#clip790)" d="M2183.82 273.661 Q2185.32 274.17 2186.74 275.837 Q2188.17 277.504 2189.61 280.42 L2194.35 289.865 L2189.33 289.865 L2184.91 280.999 Q2183.19 277.527 2181.57 276.393 Q2179.98 275.258 2177.2 275.258 L2172.11 275.258 L2172.11 289.865 L2167.43 289.865 L2167.43 255.305 L2177.99 255.305 Q2183.91 255.305 2186.83 257.781 Q2189.74 260.258 2189.74 265.258 Q2189.74 268.522 2188.22 270.675 Q2186.71 272.828 2183.82 273.661 M2172.11 259.147 L2172.11 271.416 L2177.99 271.416 Q2181.37 271.416 2183.08 269.865 Q2184.81 268.291 2184.81 265.258 Q2184.81 262.226 2183.08 260.698 Q2181.37 259.147 2177.99 259.147 L2172.11 259.147 Z" fill="#000000" fill-rule="nonzero" fill-opacity="1" /><path clip-path="url(#clip790)" d="M2200.37 255.305 L2222.22 255.305 L2222.22 259.24 L2205.05 259.24 L2205.05 269.471 L2221.5 269.471 L2221.5 273.406 L2205.05 273.406 L2205.05 285.929 L2222.64 285.929 L2222.64 289.865 L2200.37 289.865 L2200.37 255.305 Z" fill="#000000" fill-rule="nonzero" fill-opacity="1" /><path clip-path="url(#clip790)" d="M2253.89 284.934 L2253.89 275.652 L2246.25 275.652 L2246.25 271.809 L2258.52 271.809 L2258.52 286.647 Q2255.81 288.568 2252.55 289.564 Q2249.28 290.536 2245.58 290.536 Q2237.48 290.536 2232.89 285.814 Q2228.33 281.068 2228.33 272.619 Q2228.33 264.147 2232.89 259.425 Q2237.48 254.68 2245.58 254.68 Q2248.96 254.68 2251.99 255.513 Q2255.05 256.346 2257.61 257.967 L2257.61 262.943 Q2255.02 260.744 2252.11 259.633 Q2249.19 258.522 2245.97 258.522 Q2239.63 258.522 2236.43 262.064 Q2233.26 265.606 2233.26 272.619 Q2233.26 279.61 2236.43 283.152 Q2239.63 286.693 2245.97 286.693 Q2248.45 286.693 2250.39 286.277 Q2252.34 285.837 2253.89 284.934 Z" fill="#000000" fill-rule="nonzero" fill-opacity="1" /><polyline clip-path="url(#clip790)" style="stroke:#0000cd; stroke-linecap:round; stroke-linejoin:round; stroke-width:8; stroke-opacity:1; fill:none" stroke-dasharray="4, 8" points="1716.17,324.425 1857.53,324.425 "/>
<path clip-path="url(#clip790)" d="M1897.48 325.501 Q1898.98 326.01 1900.39 327.677 Q1901.83 329.344 1903.26 332.26 L1908.01 341.705 L1902.99 341.705 L1898.57 332.839 Q1896.85 329.367 1895.23 328.233 Q1893.64 327.098 1890.86 327.098 L1885.76 327.098 L1885.76 341.705 L1881.09 341.705 L1881.09 307.145 L1891.64 307.145 Q1897.57 307.145 1900.49 309.621 Q1903.4 312.098 1903.4 317.098 Q1903.4 320.362 1901.88 322.515 Q1900.37 324.668 1897.48 325.501 M1885.76 310.987 L1885.76 323.256 L1891.64 323.256 Q1895.02 323.256 1896.74 321.705 Q1898.47 320.131 1898.47 317.098 Q1898.47 314.066 1896.74 312.538 Q1895.02 310.987 1891.64 310.987 L1885.76 310.987 Z" fill="#000000" fill-rule="nonzero" fill-opacity="1" /><path clip-path="url(#clip790)" d="M1914.03 307.145 L1918.7 307.145 L1918.7 341.705 L1914.03 341.705 L1914.03 307.145 Z" fill="#000000" fill-rule="nonzero" fill-opacity="1" /><path clip-path="url(#clip790)" d="M1953.89 309.807 L1953.89 314.737 Q1951.53 312.538 1948.84 311.45 Q1946.18 310.362 1943.17 310.362 Q1937.25 310.362 1934.1 313.996 Q1930.95 317.608 1930.95 324.459 Q1930.95 331.288 1934.1 334.922 Q1937.25 338.533 1943.17 338.533 Q1946.18 338.533 1948.84 337.445 Q1951.53 336.357 1953.89 334.158 L1953.89 339.043 Q1951.44 340.709 1948.68 341.543 Q1945.95 342.376 1942.89 342.376 Q1935.05 342.376 1930.53 337.584 Q1926.02 332.77 1926.02 324.459 Q1926.02 316.126 1930.53 311.334 Q1935.05 306.52 1942.89 306.52 Q1946 306.52 1948.73 307.353 Q1951.48 308.163 1953.89 309.807 Z" fill="#000000" fill-rule="nonzero" fill-opacity="1" /><path clip-path="url(#clip790)" d="M1961.11 307.145 L1982.96 307.145 L1982.96 311.08 L1965.79 311.08 L1965.79 321.311 L1982.25 321.311 L1982.25 325.246 L1965.79 325.246 L1965.79 337.769 L1983.38 337.769 L1983.38 341.705 L1961.11 341.705 L1961.11 307.145 Z" fill="#000000" fill-rule="nonzero" fill-opacity="1" /><path clip-path="url(#clip790)" d="M2007.36 337.769 L2015 337.769 L2015 311.404 L2006.69 313.071 L2006.69 308.811 L2014.95 307.145 L2019.63 307.145 L2019.63 337.769 L2027.27 337.769 L2027.27 341.705 L2007.36 341.705 L2007.36 337.769 Z" fill="#000000" fill-rule="nonzero" fill-opacity="1" /><path clip-path="url(#clip790)" d="M2040.74 337.769 L2057.06 337.769 L2057.06 341.705 L2035.12 341.705 L2035.12 337.769 Q2037.78 335.015 2042.36 330.385 Q2046.97 325.733 2048.15 324.39 Q2050.39 321.867 2051.27 320.131 Q2052.18 318.371 2052.18 316.682 Q2052.18 313.927 2050.23 312.191 Q2048.31 310.455 2045.21 310.455 Q2043.01 310.455 2040.56 311.219 Q2038.13 311.983 2035.35 313.534 L2035.35 308.811 Q2038.17 307.677 2040.63 307.098 Q2043.08 306.52 2045.12 306.52 Q2050.49 306.52 2053.68 309.205 Q2056.87 311.89 2056.87 316.381 Q2056.87 318.51 2056.06 320.432 Q2055.28 322.33 2053.17 324.922 Q2052.59 325.594 2049.49 328.811 Q2046.39 332.006 2040.74 337.769 Z" fill="#000000" fill-rule="nonzero" fill-opacity="1" /><path clip-path="url(#clip790)" d="M2097.92 325.501 Q2099.42 326.01 2100.83 327.677 Q2102.27 329.344 2103.7 332.26 L2108.45 341.705 L2103.43 341.705 L2099 332.839 Q2097.29 329.367 2095.67 328.233 Q2094.07 327.098 2091.3 327.098 L2086.2 327.098 L2086.2 341.705 L2081.53 341.705 L2081.53 307.145 L2092.08 307.145 Q2098.01 307.145 2100.93 309.621 Q2103.84 312.098 2103.84 317.098 Q2103.84 320.362 2102.31 322.515 Q2100.81 324.668 2097.92 325.501 M2086.2 310.987 L2086.2 323.256 L2092.08 323.256 Q2095.46 323.256 2097.18 321.705 Q2098.91 320.131 2098.91 317.098 Q2098.91 314.066 2097.18 312.538 Q2095.46 310.987 2092.08 310.987 L2086.2 310.987 Z" fill="#000000" fill-rule="nonzero" fill-opacity="1" /><path clip-path="url(#clip790)" d="M2114.47 307.145 L2136.32 307.145 L2136.32 311.08 L2119.14 311.08 L2119.14 321.311 L2135.6 321.311 L2135.6 325.246 L2119.14 325.246 L2119.14 337.769 L2136.74 337.769 L2136.74 341.705 L2114.47 341.705 L2114.47 307.145 Z" fill="#000000" fill-rule="nonzero" fill-opacity="1" /><path clip-path="url(#clip790)" d="M2167.99 336.774 L2167.99 327.492 L2160.35 327.492 L2160.35 323.649 L2172.62 323.649 L2172.62 338.487 Q2169.91 340.408 2166.64 341.404 Q2163.38 342.376 2159.68 342.376 Q2151.57 342.376 2146.99 337.654 Q2142.43 332.908 2142.43 324.459 Q2142.43 315.987 2146.99 311.265 Q2151.57 306.52 2159.68 306.52 Q2163.05 306.52 2166.09 307.353 Q2169.14 308.186 2171.71 309.807 L2171.71 314.783 Q2169.12 312.584 2166.2 311.473 Q2163.29 310.362 2160.07 310.362 Q2153.73 310.362 2150.53 313.904 Q2147.36 317.446 2147.36 324.459 Q2147.36 331.45 2150.53 334.992 Q2153.73 338.533 2160.07 338.533 Q2162.55 338.533 2164.49 338.117 Q2166.43 337.677 2167.99 336.774 Z" fill="#000000" fill-rule="nonzero" fill-opacity="1" /></svg>
