<?xml version="1.0" encoding="utf-8"?>
<svg xmlns="http://www.w3.org/2000/svg" xmlns:xlink="http://www.w3.org/1999/xlink" width="600" height="400" viewBox="0 0 2400 1600">
<defs>
  <clipPath id="clip550">
    <rect x="0" y="0" width="2400" height="1600"/>
  </clipPath>
</defs>
<path clip-path="url(#clip550)" d="M0 1600 L2400 1600 L2400 0 L0 0  Z" fill="#ffffff" fill-rule="evenodd" fill-opacity="1"/>
<defs>
  <clipPath id="clip551">
    <rect x="480" y="0" width="1681" height="1600"/>
  </clipPath>
</defs>
<path clip-path="url(#clip550)" d="M175.445 1486.45 L2352.76 1486.45 L2352.76 123.472 L175.445 123.472  Z" fill="#ffffff" fill-rule="evenodd" fill-opacity="1"/>
<defs>
  <clipPath id="clip552">
    <rect x="175" y="123" width="2178" height="1364"/>
  </clipPath>
</defs>
<polyline clip-path="url(#clip552)" style="stroke:#000000; stroke-linecap:round; stroke-linejoin:round; stroke-width:2; stroke-opacity:0.1; fill:none" points="237.067,1486.45 237.067,123.472 "/>
<polyline clip-path="url(#clip552)" style="stroke:#000000; stroke-linecap:round; stroke-linejoin:round; stroke-width:2; stroke-opacity:0.1; fill:none" points="750.584,1486.45 750.584,123.472 "/>
<polyline clip-path="url(#clip552)" style="stroke:#000000; stroke-linecap:round; stroke-linejoin:round; stroke-width:2; stroke-opacity:0.1; fill:none" points="1264.1,1486.45 1264.1,123.472 "/>
<polyline clip-path="url(#clip552)" style="stroke:#000000; stroke-linecap:round; stroke-linejoin:round; stroke-width:2; stroke-opacity:0.1; fill:none" points="1777.62,1486.45 1777.62,123.472 "/>
<polyline clip-path="url(#clip552)" style="stroke:#000000; stroke-linecap:round; stroke-linejoin:round; stroke-width:2; stroke-opacity:0.1; fill:none" points="2291.13,1486.45 2291.13,123.472 "/>
<polyline clip-path="url(#clip552)" style="stroke:#000000; stroke-linecap:round; stroke-linejoin:round; stroke-width:2; stroke-opacity:0.1; fill:none" points="175.445,1486.45 2352.76,1486.45 "/>
<polyline clip-path="url(#clip552)" style="stroke:#000000; stroke-linecap:round; stroke-linejoin:round; stroke-width:2; stroke-opacity:0.1; fill:none" points="175.445,1145.7 2352.76,1145.7 "/>
<polyline clip-path="url(#clip552)" style="stroke:#000000; stroke-linecap:round; stroke-linejoin:round; stroke-width:2; stroke-opacity:0.1; fill:none" points="175.445,804.96 2352.76,804.96 "/>
<polyline clip-path="url(#clip552)" style="stroke:#000000; stroke-linecap:round; stroke-linejoin:round; stroke-width:2; stroke-opacity:0.1; fill:none" points="175.445,464.216 2352.76,464.216 "/>
<polyline clip-path="url(#clip552)" style="stroke:#000000; stroke-linecap:round; stroke-linejoin:round; stroke-width:2; stroke-opacity:0.1; fill:none" points="175.445,123.472 2352.76,123.472 "/>
<polyline clip-path="url(#clip550)" style="stroke:#000000; stroke-linecap:round; stroke-linejoin:round; stroke-width:4; stroke-opacity:1; fill:none" points="175.445,1486.45 2352.76,1486.45 "/>
<polyline clip-path="url(#clip550)" style="stroke:#000000; stroke-linecap:round; stroke-linejoin:round; stroke-width:4; stroke-opacity:1; fill:none" points="237.067,1486.45 237.067,1467.55 "/>
<polyline clip-path="url(#clip550)" style="stroke:#000000; stroke-linecap:round; stroke-linejoin:round; stroke-width:4; stroke-opacity:1; fill:none" points="750.584,1486.45 750.584,1467.55 "/>
<polyline clip-path="url(#clip550)" style="stroke:#000000; stroke-linecap:round; stroke-linejoin:round; stroke-width:4; stroke-opacity:1; fill:none" points="1264.1,1486.45 1264.1,1467.55 "/>
<polyline clip-path="url(#clip550)" style="stroke:#000000; stroke-linecap:round; stroke-linejoin:round; stroke-width:4; stroke-opacity:1; fill:none" points="1777.62,1486.45 1777.62,1467.55 "/>
<polyline clip-path="url(#clip550)" style="stroke:#000000; stroke-linecap:round; stroke-linejoin:round; stroke-width:4; stroke-opacity:1; fill:none" points="2291.13,1486.45 2291.13,1467.55 "/>
<path clip-path="url(#clip550)" d="M185.679 1544.91 L201.998 1544.91 L201.998 1548.85 L180.054 1548.85 L180.054 1544.91 Q182.716 1542.16 187.299 1537.53 Q191.905 1532.88 193.086 1531.53 Q195.331 1529.01 196.211 1527.27 Q197.114 1525.51 197.114 1523.82 Q197.114 1521.07 195.169 1519.33 Q193.248 1517.6 190.146 1517.6 Q187.947 1517.6 185.493 1518.36 Q183.063 1519.13 180.285 1520.68 L180.285 1515.95 Q183.109 1514.82 185.563 1514.24 Q188.017 1513.66 190.054 1513.66 Q195.424 1513.66 198.618 1516.35 Q201.813 1519.03 201.813 1523.52 Q201.813 1525.65 201.003 1527.57 Q200.216 1529.47 198.109 1532.07 Q197.53 1532.74 194.429 1535.95 Q191.327 1539.15 185.679 1544.91 Z" fill="#000000" fill-rule="nonzero" fill-opacity="1" /><path clip-path="url(#clip550)" d="M221.813 1517.37 Q218.202 1517.37 216.373 1520.93 Q214.567 1524.47 214.567 1531.6 Q214.567 1538.71 216.373 1542.27 Q218.202 1545.82 221.813 1545.82 Q225.447 1545.82 227.252 1542.27 Q229.081 1538.71 229.081 1531.6 Q229.081 1524.47 227.252 1520.93 Q225.447 1517.37 221.813 1517.37 M221.813 1513.66 Q227.623 1513.66 230.678 1518.27 Q233.757 1522.85 233.757 1531.6 Q233.757 1540.33 230.678 1544.94 Q227.623 1549.52 221.813 1549.52 Q216.003 1549.52 212.924 1544.94 Q209.868 1540.33 209.868 1531.6 Q209.868 1522.85 212.924 1518.27 Q216.003 1513.66 221.813 1513.66 Z" fill="#000000" fill-rule="nonzero" fill-opacity="1" /><path clip-path="url(#clip550)" d="M246.002 1544.91 L262.322 1544.91 L262.322 1548.85 L240.377 1548.85 L240.377 1544.91 Q243.039 1542.16 247.623 1537.53 Q252.229 1532.88 253.41 1531.53 Q255.655 1529.01 256.535 1527.27 Q257.437 1525.51 257.437 1523.82 Q257.437 1521.07 255.493 1519.33 Q253.572 1517.6 250.47 1517.6 Q248.271 1517.6 245.817 1518.36 Q243.387 1519.13 240.609 1520.68 L240.609 1515.95 Q243.433 1514.82 245.887 1514.24 Q248.34 1513.66 250.377 1513.66 Q255.748 1513.66 258.942 1516.35 Q262.137 1519.03 262.137 1523.52 Q262.137 1525.65 261.326 1527.57 Q260.539 1529.47 258.433 1532.07 Q257.854 1532.74 254.752 1535.95 Q251.65 1539.15 246.002 1544.91 Z" fill="#000000" fill-rule="nonzero" fill-opacity="1" /><path clip-path="url(#clip550)" d="M282.136 1517.37 Q278.525 1517.37 276.697 1520.93 Q274.891 1524.47 274.891 1531.6 Q274.891 1538.71 276.697 1542.27 Q278.525 1545.82 282.136 1545.82 Q285.771 1545.82 287.576 1542.27 Q289.405 1538.71 289.405 1531.6 Q289.405 1524.47 287.576 1520.93 Q285.771 1517.37 282.136 1517.37 M282.136 1513.66 Q287.947 1513.66 291.002 1518.27 Q294.081 1522.85 294.081 1531.6 Q294.081 1540.33 291.002 1544.94 Q287.947 1549.52 282.136 1549.52 Q276.326 1549.52 273.248 1544.94 Q270.192 1540.33 270.192 1531.6 Q270.192 1522.85 273.248 1518.27 Q276.326 1513.66 282.136 1513.66 Z" fill="#000000" fill-rule="nonzero" fill-opacity="1" /><path clip-path="url(#clip550)" d="M699.195 1544.91 L715.515 1544.91 L715.515 1548.85 L693.57 1548.85 L693.57 1544.91 Q696.232 1542.16 700.816 1537.53 Q705.422 1532.88 706.603 1531.53 Q708.848 1529.01 709.728 1527.27 Q710.63 1525.51 710.63 1523.82 Q710.63 1521.07 708.686 1519.33 Q706.765 1517.6 703.663 1517.6 Q701.464 1517.6 699.01 1518.36 Q696.58 1519.13 693.802 1520.68 L693.802 1515.95 Q696.626 1514.82 699.08 1514.24 Q701.533 1513.66 703.57 1513.66 Q708.941 1513.66 712.135 1516.35 Q715.329 1519.03 715.329 1523.52 Q715.329 1525.65 714.519 1527.57 Q713.732 1529.47 711.626 1532.07 Q711.047 1532.74 707.945 1535.95 Q704.843 1539.15 699.195 1544.91 Z" fill="#000000" fill-rule="nonzero" fill-opacity="1" /><path clip-path="url(#clip550)" d="M735.329 1517.37 Q731.718 1517.37 729.89 1520.93 Q728.084 1524.47 728.084 1531.6 Q728.084 1538.71 729.89 1542.27 Q731.718 1545.82 735.329 1545.82 Q738.964 1545.82 740.769 1542.27 Q742.598 1538.71 742.598 1531.6 Q742.598 1524.47 740.769 1520.93 Q738.964 1517.37 735.329 1517.37 M735.329 1513.66 Q741.139 1513.66 744.195 1518.27 Q747.274 1522.85 747.274 1531.6 Q747.274 1540.33 744.195 1544.94 Q741.139 1549.52 735.329 1549.52 Q729.519 1549.52 726.44 1544.94 Q723.385 1540.33 723.385 1531.6 Q723.385 1522.85 726.44 1518.27 Q729.519 1513.66 735.329 1513.66 Z" fill="#000000" fill-rule="nonzero" fill-opacity="1" /><path clip-path="url(#clip550)" d="M768.338 1518.36 L756.533 1536.81 L768.338 1536.81 L768.338 1518.36 M767.112 1514.29 L772.991 1514.29 L772.991 1536.81 L777.922 1536.81 L777.922 1540.7 L772.991 1540.7 L772.991 1548.85 L768.338 1548.85 L768.338 1540.7 L752.737 1540.7 L752.737 1536.19 L767.112 1514.29 Z" fill="#000000" fill-rule="nonzero" fill-opacity="1" /><path clip-path="url(#clip550)" d="M795.653 1517.37 Q792.042 1517.37 790.213 1520.93 Q788.408 1524.47 788.408 1531.6 Q788.408 1538.71 790.213 1542.27 Q792.042 1545.82 795.653 1545.82 Q799.287 1545.82 801.093 1542.27 Q802.922 1538.71 802.922 1531.6 Q802.922 1524.47 801.093 1520.93 Q799.287 1517.37 795.653 1517.37 M795.653 1513.66 Q801.463 1513.66 804.519 1518.27 Q807.597 1522.85 807.597 1531.6 Q807.597 1540.33 804.519 1544.94 Q801.463 1549.52 795.653 1549.52 Q789.843 1549.52 786.764 1544.94 Q783.709 1540.33 783.709 1531.6 Q783.709 1522.85 786.764 1518.27 Q789.843 1513.66 795.653 1513.66 Z" fill="#000000" fill-rule="nonzero" fill-opacity="1" /><path clip-path="url(#clip550)" d="M1212.71 1544.91 L1229.03 1544.91 L1229.03 1548.85 L1207.09 1548.85 L1207.09 1544.91 Q1209.75 1542.16 1214.33 1537.53 Q1218.94 1532.88 1220.12 1531.53 Q1222.36 1529.01 1223.24 1527.27 Q1224.15 1525.51 1224.15 1523.82 Q1224.15 1521.07 1222.2 1519.33 Q1220.28 1517.6 1217.18 1517.6 Q1214.98 1517.6 1212.53 1518.36 Q1210.1 1519.13 1207.32 1520.68 L1207.32 1515.95 Q1210.14 1514.82 1212.6 1514.24 Q1215.05 1513.66 1217.09 1513.66 Q1222.46 1513.66 1225.65 1516.35 Q1228.85 1519.03 1228.85 1523.52 Q1228.85 1525.65 1228.04 1527.57 Q1227.25 1529.47 1225.14 1532.07 Q1224.56 1532.74 1221.46 1535.95 Q1218.36 1539.15 1212.71 1544.91 Z" fill="#000000" fill-rule="nonzero" fill-opacity="1" /><path clip-path="url(#clip550)" d="M1248.85 1517.37 Q1245.23 1517.37 1243.41 1520.93 Q1241.6 1524.47 1241.6 1531.6 Q1241.6 1538.71 1243.41 1542.27 Q1245.23 1545.82 1248.85 1545.82 Q1252.48 1545.82 1254.29 1542.27 Q1256.11 1538.71 1256.11 1531.6 Q1256.11 1524.47 1254.29 1520.93 Q1252.48 1517.37 1248.85 1517.37 M1248.85 1513.66 Q1254.66 1513.66 1257.71 1518.27 Q1260.79 1522.85 1260.79 1531.6 Q1260.79 1540.33 1257.71 1544.94 Q1254.66 1549.52 1248.85 1549.52 Q1243.04 1549.52 1239.96 1544.94 Q1236.9 1540.33 1236.9 1531.6 Q1236.9 1522.85 1239.96 1518.27 Q1243.04 1513.66 1248.85 1513.66 Z" fill="#000000" fill-rule="nonzero" fill-opacity="1" /><path clip-path="url(#clip550)" d="M1279.59 1529.7 Q1276.44 1529.7 1274.59 1531.86 Q1272.76 1534.01 1272.76 1537.76 Q1272.76 1541.49 1274.59 1543.66 Q1276.44 1545.82 1279.59 1545.82 Q1282.73 1545.82 1284.56 1543.66 Q1286.42 1541.49 1286.42 1537.76 Q1286.42 1534.01 1284.56 1531.86 Q1282.73 1529.7 1279.59 1529.7 M1288.87 1515.05 L1288.87 1519.31 Q1287.11 1518.48 1285.3 1518.04 Q1283.52 1517.6 1281.76 1517.6 Q1277.13 1517.6 1274.68 1520.72 Q1272.25 1523.85 1271.9 1530.17 Q1273.27 1528.15 1275.33 1527.09 Q1277.39 1526 1279.86 1526 Q1285.07 1526 1288.08 1529.17 Q1291.11 1532.32 1291.11 1537.76 Q1291.11 1543.08 1287.97 1546.3 Q1284.82 1549.52 1279.59 1549.52 Q1273.59 1549.52 1270.42 1544.94 Q1267.25 1540.33 1267.25 1531.6 Q1267.25 1523.41 1271.14 1518.55 Q1275.03 1513.66 1281.58 1513.66 Q1283.34 1513.66 1285.12 1514.01 Q1286.92 1514.36 1288.87 1515.05 Z" fill="#000000" fill-rule="nonzero" fill-opacity="1" /><path clip-path="url(#clip550)" d="M1309.17 1517.37 Q1305.56 1517.37 1303.73 1520.93 Q1301.92 1524.47 1301.92 1531.6 Q1301.92 1538.71 1303.73 1542.27 Q1305.56 1545.82 1309.17 1545.82 Q1312.8 1545.82 1314.61 1542.27 Q1316.44 1538.71 1316.44 1531.6 Q1316.44 1524.47 1314.61 1520.93 Q1312.8 1517.37 1309.17 1517.37 M1309.17 1513.66 Q1314.98 1513.66 1318.04 1518.27 Q1321.11 1522.85 1321.11 1531.6 Q1321.11 1540.33 1318.04 1544.94 Q1314.98 1549.52 1309.17 1549.52 Q1303.36 1549.52 1300.28 1544.94 Q1297.23 1540.33 1297.23 1531.6 Q1297.23 1522.85 1300.28 1518.27 Q1303.36 1513.66 1309.17 1513.66 Z" fill="#000000" fill-rule="nonzero" fill-opacity="1" /><path clip-path="url(#clip550)" d="M1726.23 1544.91 L1742.55 1544.91 L1742.55 1548.85 L1720.6 1548.85 L1720.6 1544.91 Q1723.27 1542.16 1727.85 1537.53 Q1732.46 1532.88 1733.64 1531.53 Q1735.88 1529.01 1736.76 1527.27 Q1737.66 1525.51 1737.66 1523.82 Q1737.66 1521.07 1735.72 1519.33 Q1733.8 1517.6 1730.7 1517.6 Q1728.5 1517.6 1726.04 1518.36 Q1723.61 1519.13 1720.84 1520.68 L1720.84 1515.95 Q1723.66 1514.82 1726.11 1514.24 Q1728.57 1513.66 1730.6 1513.66 Q1735.97 1513.66 1739.17 1516.35 Q1742.36 1519.03 1742.36 1523.52 Q1742.36 1525.65 1741.55 1527.57 Q1740.77 1529.47 1738.66 1532.07 Q1738.08 1532.74 1734.98 1535.95 Q1731.88 1539.15 1726.23 1544.91 Z" fill="#000000" fill-rule="nonzero" fill-opacity="1" /><path clip-path="url(#clip550)" d="M1762.36 1517.37 Q1758.75 1517.37 1756.92 1520.93 Q1755.12 1524.47 1755.12 1531.6 Q1755.12 1538.71 1756.92 1542.27 Q1758.75 1545.82 1762.36 1545.82 Q1766 1545.82 1767.8 1542.27 Q1769.63 1538.71 1769.63 1531.6 Q1769.63 1524.47 1767.8 1520.93 Q1766 1517.37 1762.36 1517.37 M1762.36 1513.66 Q1768.17 1513.66 1771.23 1518.27 Q1774.31 1522.85 1774.31 1531.6 Q1774.31 1540.33 1771.23 1544.94 Q1768.17 1549.52 1762.36 1549.52 Q1756.55 1549.52 1753.47 1544.94 Q1750.42 1540.33 1750.42 1531.6 Q1750.42 1522.85 1753.47 1518.27 Q1756.55 1513.66 1762.36 1513.66 Z" fill="#000000" fill-rule="nonzero" fill-opacity="1" /><path clip-path="url(#clip550)" d="M1792.52 1532.44 Q1789.19 1532.44 1787.27 1534.22 Q1785.37 1536 1785.37 1539.13 Q1785.37 1542.25 1787.27 1544.03 Q1789.19 1545.82 1792.52 1545.82 Q1795.86 1545.82 1797.78 1544.03 Q1799.7 1542.23 1799.7 1539.13 Q1799.7 1536 1797.78 1534.22 Q1795.88 1532.44 1792.52 1532.44 M1787.85 1530.45 Q1784.84 1529.7 1783.15 1527.64 Q1781.48 1525.58 1781.48 1522.62 Q1781.48 1518.48 1784.42 1516.07 Q1787.39 1513.66 1792.52 1513.66 Q1797.69 1513.66 1800.63 1516.07 Q1803.57 1518.48 1803.57 1522.62 Q1803.57 1525.58 1801.88 1527.64 Q1800.21 1529.7 1797.22 1530.45 Q1800.6 1531.23 1802.48 1533.52 Q1804.38 1535.82 1804.38 1539.13 Q1804.38 1544.15 1801.3 1546.83 Q1798.24 1549.52 1792.52 1549.52 Q1786.81 1549.52 1783.73 1546.83 Q1780.67 1544.15 1780.67 1539.13 Q1780.67 1535.82 1782.57 1533.52 Q1784.47 1531.23 1787.85 1530.45 M1786.14 1523.06 Q1786.14 1525.75 1787.8 1527.25 Q1789.49 1528.76 1792.52 1528.76 Q1795.53 1528.76 1797.22 1527.25 Q1798.94 1525.75 1798.94 1523.06 Q1798.94 1520.38 1797.22 1518.87 Q1795.53 1517.37 1792.52 1517.37 Q1789.49 1517.37 1787.8 1518.87 Q1786.14 1520.38 1786.14 1523.06 Z" fill="#000000" fill-rule="nonzero" fill-opacity="1" /><path clip-path="url(#clip550)" d="M1822.69 1517.37 Q1819.08 1517.37 1817.25 1520.93 Q1815.44 1524.47 1815.44 1531.6 Q1815.44 1538.71 1817.25 1542.27 Q1819.08 1545.82 1822.69 1545.82 Q1826.32 1545.82 1828.13 1542.27 Q1829.95 1538.71 1829.95 1531.6 Q1829.95 1524.47 1828.13 1520.93 Q1826.32 1517.37 1822.69 1517.37 M1822.69 1513.66 Q1828.5 1513.66 1831.55 1518.27 Q1834.63 1522.85 1834.63 1531.6 Q1834.63 1540.33 1831.55 1544.94 Q1828.5 1549.52 1822.69 1549.52 Q1816.88 1549.52 1813.8 1544.94 Q1810.74 1540.33 1810.74 1531.6 Q1810.74 1522.85 1813.8 1518.27 Q1816.88 1513.66 1822.69 1513.66 Z" fill="#000000" fill-rule="nonzero" fill-opacity="1" /><path clip-path="url(#clip550)" d="M2239.75 1544.91 L2256.06 1544.91 L2256.06 1548.85 L2234.12 1548.85 L2234.12 1544.91 Q2236.78 1542.16 2241.37 1537.53 Q2245.97 1532.88 2247.15 1531.53 Q2249.4 1529.01 2250.28 1527.27 Q2251.18 1525.51 2251.18 1523.82 Q2251.18 1521.07 2249.24 1519.33 Q2247.31 1517.6 2244.21 1517.6 Q2242.01 1517.6 2239.56 1518.36 Q2237.13 1519.13 2234.35 1520.68 L2234.35 1515.95 Q2237.18 1514.82 2239.63 1514.24 Q2242.08 1513.66 2244.12 1513.66 Q2249.49 1513.66 2252.69 1516.35 Q2255.88 1519.03 2255.88 1523.52 Q2255.88 1525.65 2255.07 1527.57 Q2254.28 1529.47 2252.18 1532.07 Q2251.6 1532.74 2248.5 1535.95 Q2245.39 1539.15 2239.75 1544.91 Z" fill="#000000" fill-rule="nonzero" fill-opacity="1" /><path clip-path="url(#clip550)" d="M2266.69 1544.91 L2274.33 1544.91 L2274.33 1518.55 L2266.02 1520.21 L2266.02 1515.95 L2274.28 1514.29 L2278.96 1514.29 L2278.96 1544.91 L2286.6 1544.91 L2286.6 1548.85 L2266.69 1548.85 L2266.69 1544.91 Z" fill="#000000" fill-rule="nonzero" fill-opacity="1" /><path clip-path="url(#clip550)" d="M2306.04 1517.37 Q2302.43 1517.37 2300.6 1520.93 Q2298.8 1524.47 2298.8 1531.6 Q2298.8 1538.71 2300.6 1542.27 Q2302.43 1545.82 2306.04 1545.82 Q2309.68 1545.82 2311.48 1542.27 Q2313.31 1538.71 2313.31 1531.6 Q2313.31 1524.47 2311.48 1520.93 Q2309.68 1517.37 2306.04 1517.37 M2306.04 1513.66 Q2311.85 1513.66 2314.91 1518.27 Q2317.99 1522.85 2317.99 1531.6 Q2317.99 1540.33 2314.91 1544.94 Q2311.85 1549.52 2306.04 1549.52 Q2300.23 1549.52 2297.15 1544.94 Q2294.1 1540.33 2294.1 1531.6 Q2294.1 1522.85 2297.15 1518.27 Q2300.23 1513.66 2306.04 1513.66 Z" fill="#000000" fill-rule="nonzero" fill-opacity="1" /><path clip-path="url(#clip550)" d="M2336.2 1517.37 Q2332.59 1517.37 2330.76 1520.93 Q2328.96 1524.47 2328.96 1531.6 Q2328.96 1538.71 2330.76 1542.27 Q2332.59 1545.82 2336.2 1545.82 Q2339.84 1545.82 2341.64 1542.27 Q2343.47 1538.71 2343.47 1531.6 Q2343.47 1524.47 2341.64 1520.93 Q2339.84 1517.37 2336.2 1517.37 M2336.2 1513.66 Q2342.01 1513.66 2345.07 1518.27 Q2348.15 1522.85 2348.15 1531.6 Q2348.15 1540.33 2345.07 1544.94 Q2342.01 1549.52 2336.2 1549.52 Q2330.39 1549.52 2327.31 1544.94 Q2324.26 1540.33 2324.26 1531.6 Q2324.26 1522.85 2327.31 1518.27 Q2330.39 1513.66 2336.2 1513.66 Z" fill="#000000" fill-rule="nonzero" fill-opacity="1" /><polyline clip-path="url(#clip550)" style="stroke:#000000; stroke-linecap:round; stroke-linejoin:round; stroke-width:4; stroke-opacity:1; fill:none" points="175.445,1486.45 175.445,123.472 "/>
<polyline clip-path="url(#clip550)" style="stroke:#000000; stroke-linecap:round; stroke-linejoin:round; stroke-width:4; stroke-opacity:1; fill:none" points="175.445,1486.45 194.343,1486.45 "/>
<polyline clip-path="url(#clip550)" style="stroke:#000000; stroke-linecap:round; stroke-linejoin:round; stroke-width:4; stroke-opacity:1; fill:none" points="175.445,1145.7 194.343,1145.7 "/>
<polyline clip-path="url(#clip550)" style="stroke:#000000; stroke-linecap:round; stroke-linejoin:round; stroke-width:4; stroke-opacity:1; fill:none" points="175.445,804.96 194.343,804.96 "/>
<polyline clip-path="url(#clip550)" style="stroke:#000000; stroke-linecap:round; stroke-linejoin:round; stroke-width:4; stroke-opacity:1; fill:none" points="175.445,464.216 194.343,464.216 "/>
<polyline clip-path="url(#clip550)" style="stroke:#000000; stroke-linecap:round; stroke-linejoin:round; stroke-width:4; stroke-opacity:1; fill:none" points="175.445,123.472 194.343,123.472 "/>
<path clip-path="url(#clip550)" d="M127.501 1472.25 Q123.89 1472.25 122.061 1475.81 Q120.255 1479.35 120.255 1486.48 Q120.255 1493.59 122.061 1497.15 Q123.89 1500.7 127.501 1500.7 Q131.135 1500.7 132.941 1497.15 Q134.769 1493.59 134.769 1486.48 Q134.769 1479.35 132.941 1475.81 Q131.135 1472.25 127.501 1472.25 M127.501 1468.54 Q133.311 1468.54 136.367 1473.15 Q139.445 1477.73 139.445 1486.48 Q139.445 1495.21 136.367 1499.82 Q133.311 1504.4 127.501 1504.4 Q121.691 1504.4 118.612 1499.82 Q115.556 1495.21 115.556 1486.48 Q115.556 1477.73 118.612 1473.15 Q121.691 1468.54 127.501 1468.54 Z" fill="#000000" fill-rule="nonzero" fill-opacity="1" /><path clip-path="url(#clip550)" d="M119.538 1159.05 L127.177 1159.05 L127.177 1132.68 L118.867 1134.35 L118.867 1130.09 L127.13 1128.42 L131.806 1128.42 L131.806 1159.05 L139.445 1159.05 L139.445 1162.98 L119.538 1162.98 L119.538 1159.05 Z" fill="#000000" fill-rule="nonzero" fill-opacity="1" /><path clip-path="url(#clip550)" d="M123.126 818.305 L139.445 818.305 L139.445 822.24 L117.501 822.24 L117.501 818.305 Q120.163 815.55 124.746 810.921 Q129.353 806.268 130.533 804.925 Q132.779 802.402 133.658 800.666 Q134.561 798.907 134.561 797.217 Q134.561 794.462 132.617 792.726 Q130.695 790.99 127.593 790.99 Q125.394 790.99 122.941 791.754 Q120.51 792.518 117.732 794.069 L117.732 789.347 Q120.556 788.212 123.01 787.634 Q125.464 787.055 127.501 787.055 Q132.871 787.055 136.066 789.74 Q139.26 792.425 139.26 796.916 Q139.26 799.046 138.45 800.967 Q137.663 802.865 135.556 805.458 Q134.978 806.129 131.876 809.347 Q128.774 812.541 123.126 818.305 Z" fill="#000000" fill-rule="nonzero" fill-opacity="1" /><path clip-path="url(#clip550)" d="M132.316 462.862 Q135.672 463.579 137.547 465.848 Q139.445 468.117 139.445 471.45 Q139.445 476.566 135.927 479.366 Q132.408 482.167 125.927 482.167 Q123.751 482.167 121.436 481.728 Q119.144 481.311 116.691 480.454 L116.691 475.941 Q118.635 477.075 120.95 477.653 Q123.265 478.232 125.788 478.232 Q130.186 478.232 132.478 476.496 Q134.792 474.76 134.792 471.45 Q134.792 468.394 132.64 466.681 Q130.51 464.945 126.691 464.945 L122.663 464.945 L122.663 461.103 L126.876 461.103 Q130.325 461.103 132.154 459.737 Q133.982 458.348 133.982 455.755 Q133.982 453.093 132.084 451.681 Q130.209 450.246 126.691 450.246 Q124.769 450.246 122.57 450.663 Q120.371 451.08 117.732 451.959 L117.732 447.793 Q120.394 447.052 122.709 446.681 Q125.047 446.311 127.107 446.311 Q132.431 446.311 135.533 448.742 Q138.635 451.149 138.635 455.269 Q138.635 458.14 136.992 460.13 Q135.348 462.098 132.316 462.862 Z" fill="#000000" fill-rule="nonzero" fill-opacity="1" /><path clip-path="url(#clip550)" d="M129.862 110.266 L118.056 128.715 L129.862 128.715 L129.862 110.266 M128.635 106.192 L134.515 106.192 L134.515 128.715 L139.445 128.715 L139.445 132.604 L134.515 132.604 L134.515 140.752 L129.862 140.752 L129.862 132.604 L114.26 132.604 L114.26 128.09 L128.635 106.192 Z" fill="#000000" fill-rule="nonzero" fill-opacity="1" /><path clip-path="url(#clip550)" d="M19.7307 1007.48 Q19.7307 1010.03 21.5131 1011.78 Q23.2636 1013.53 25.8099 1013.53 Q28.3244 1013.53 30.0749 1011.78 Q31.7937 1010.03 31.7937 1007.48 Q31.7937 1004.94 30.0749 1003.19 Q28.3244 1001.44 25.8099 1001.44 Q23.2955 1001.44 21.5131 1003.22 Q19.7307 1004.97 19.7307 1007.48 M15.6248 1007.48 Q15.6248 1005.45 16.4205 1003.57 Q17.1844 1001.69 18.6485 1000.32 Q20.0808 998.859 21.895 998.127 Q23.7092 997.395 25.8099 997.395 Q30.0113 997.395 32.9395 1000.36 Q35.8359 1003.28 35.8359 1007.55 Q35.8359 1011.85 32.9713 1014.71 Q30.1068 1017.57 25.8099 1017.57 Q21.5449 1017.57 18.5848 1014.65 Q15.6248 1011.72 15.6248 1007.48 Z" fill="#000000" fill-rule="nonzero" fill-opacity="1" /><path clip-path="url(#clip550)" d="M20.1444 949.207 L26.9239 949.207 Q23.9002 952.453 22.4043 956.146 Q20.9083 959.806 20.9083 963.944 Q20.9083 972.092 25.9054 976.42 Q30.8707 980.749 40.2919 980.749 Q49.6813 980.749 54.6784 976.42 Q59.6436 972.092 59.6436 963.944 Q59.6436 959.806 58.1477 956.146 Q56.6518 952.453 53.6281 949.207 L60.3439 949.207 Q62.6355 952.581 63.7814 956.368 Q64.9272 960.124 64.9272 964.325 Q64.9272 975.115 58.3387 981.322 Q51.7183 987.528 40.2919 987.528 Q28.8336 987.528 22.2451 981.322 Q15.6248 975.115 15.6248 964.325 Q15.6248 960.06 16.7706 956.305 Q17.8846 952.517 20.1444 949.207 Z" fill="#000000" fill-rule="nonzero" fill-opacity="1" /><path clip-path="url(#clip550)" d="M14.479 900.764 L19.3487 900.764 L19.3487 906.366 Q19.3487 909.517 20.6219 910.758 Q21.895 911.968 25.2052 911.968 L28.3562 911.968 L28.3562 902.323 L32.9077 902.323 L32.9077 911.968 L64.0042 911.968 L64.0042 917.856 L32.9077 917.856 L32.9077 923.458 L28.3562 923.458 L28.3562 917.856 L25.8736 917.856 Q19.9216 917.856 17.2162 915.087 Q14.479 912.318 14.479 906.302 L14.479 900.764 Z" fill="#000000" fill-rule="nonzero" fill-opacity="1" /><path clip-path="url(#clip550)" d="M33.8307 875.206 Q33.2578 876.192 33.0032 877.37 Q32.7167 878.516 32.7167 879.916 Q32.7167 884.881 35.9632 887.555 Q39.1779 890.197 45.2253 890.197 L64.0042 890.197 L64.0042 896.085 L28.3562 896.085 L28.3562 890.197 L33.8944 890.197 Q30.6479 888.351 29.0883 885.391 Q27.4968 882.431 27.4968 878.197 Q27.4968 877.593 27.5923 876.861 Q27.656 876.129 27.8151 875.237 L33.8307 875.206 Z" fill="#000000" fill-rule="nonzero" fill-opacity="1" /><path clip-path="url(#clip550)" d="M32.4621 856.681 Q32.4621 861.392 36.1542 864.129 Q39.8145 866.866 46.212 866.866 Q52.6095 866.866 56.3017 864.161 Q59.9619 861.424 59.9619 856.681 Q59.9619 852.003 56.2698 849.265 Q52.5777 846.528 46.212 846.528 Q39.8781 846.528 36.186 849.265 Q32.4621 852.003 32.4621 856.681 M27.4968 856.681 Q27.4968 849.043 32.4621 844.682 Q37.4273 840.322 46.212 840.322 Q54.9649 840.322 59.9619 844.682 Q64.9272 849.043 64.9272 856.681 Q64.9272 864.352 59.9619 868.713 Q54.9649 873.041 46.212 873.041 Q37.4273 873.041 32.4621 868.713 Q27.4968 864.352 27.4968 856.681 Z" fill="#000000" fill-rule="nonzero" fill-opacity="1" /><path clip-path="url(#clip550)" d="M35.1993 802.859 Q31.2526 800.663 29.3747 797.608 Q27.4968 794.552 27.4968 790.414 Q27.4968 784.844 31.4117 781.821 Q35.2948 778.797 42.4881 778.797 L64.0042 778.797 L64.0042 784.685 L42.679 784.685 Q37.5546 784.685 35.072 786.499 Q32.5894 788.314 32.5894 792.038 Q32.5894 796.589 35.6131 799.231 Q38.6368 801.873 43.8567 801.873 L64.0042 801.873 L64.0042 807.761 L42.679 807.761 Q37.5228 807.761 35.072 809.575 Q32.5894 811.389 32.5894 815.177 Q32.5894 819.665 35.6449 822.307 Q38.6686 824.948 43.8567 824.948 L64.0042 824.948 L64.0042 830.837 L28.3562 830.837 L28.3562 824.948 L33.8944 824.948 Q30.616 822.943 29.0564 820.142 Q27.4968 817.341 27.4968 813.49 Q27.4968 809.607 29.4702 806.902 Q31.4436 804.164 35.1993 802.859 Z" fill="#000000" fill-rule="nonzero" fill-opacity="1" /><path clip-path="url(#clip550)" d="M58.5933 744.454 L58.5933 733.951 L22.3406 733.951 L24.6323 745.377 L18.7758 745.377 L16.4842 734.014 L16.4842 727.585 L58.5933 727.585 L58.5933 717.081 L64.0042 717.081 L64.0042 744.454 L58.5933 744.454 Z" fill="#000000" fill-rule="nonzero" fill-opacity="1" /><path clip-path="url(#clip550)" d="M16.4842 705.719 L16.4842 675.163 L19.2214 675.163 L64.0042 692.414 L64.0042 699.13 L21.895 682.898 L21.895 705.719 L16.4842 705.719 Z" fill="#000000" fill-rule="nonzero" fill-opacity="1" /><path clip-path="url(#clip550)" d="M37.682 648.077 Q37.682 652.406 40.642 654.952 Q43.6021 657.467 48.7583 657.467 Q53.8827 657.467 56.8746 654.952 Q59.8346 652.406 59.8346 648.077 Q59.8346 643.748 56.8746 641.234 Q53.8827 638.688 48.7583 638.688 Q43.6021 638.688 40.642 641.234 Q37.682 643.748 37.682 648.077 M17.5345 635.314 L23.3909 635.314 Q22.2451 637.733 21.6404 640.216 Q21.0356 642.666 21.0356 645.085 Q21.0356 651.451 25.3325 654.825 Q29.6293 658.167 38.3185 658.644 Q35.5494 656.766 34.0853 653.934 Q32.5894 651.101 32.5894 647.695 Q32.5894 640.534 36.9499 636.396 Q41.2786 632.227 48.7583 632.227 Q56.0789 632.227 60.503 636.555 Q64.9272 640.884 64.9272 648.077 Q64.9272 656.321 58.6251 660.681 Q52.2913 665.042 40.2919 665.042 Q29.0246 665.042 22.3406 659.695 Q15.6248 654.347 15.6248 645.34 Q15.6248 642.921 16.1022 640.47 Q16.5796 637.988 17.5345 635.314 Z" fill="#000000" fill-rule="nonzero" fill-opacity="1" /><path clip-path="url(#clip550)" d="M16.4842 621.087 L16.4842 595.847 L21.895 595.847 L21.895 615.198 L33.5443 615.198 Q33.0668 613.798 32.844 612.397 Q32.5894 610.997 32.5894 609.596 Q32.5894 601.639 36.9499 596.992 Q41.3104 592.345 48.7583 592.345 Q56.429 592.345 60.694 597.12 Q64.9272 601.894 64.9272 610.583 Q64.9272 613.575 64.4179 616.694 Q63.9087 619.782 62.8902 623.092 L56.429 623.092 Q57.9886 620.227 58.7524 617.172 Q59.5163 614.116 59.5163 610.71 Q59.5163 605.204 56.6199 601.989 Q53.7235 598.775 48.7583 598.775 Q43.793 598.775 40.8966 601.989 Q38.0002 605.204 38.0002 610.71 Q38.0002 613.289 38.5732 615.867 Q39.1461 618.413 40.3556 621.087 L16.4842 621.087 Z" fill="#000000" fill-rule="nonzero" fill-opacity="1" /><path clip-path="url(#clip550)" d="M883.295 63.9476 L883.295 47.7034 L869.927 47.7034 L869.927 40.9789 L891.397 40.9789 L891.397 66.9452 Q886.658 70.3075 880.946 72.0494 Q875.234 73.7508 868.753 73.7508 Q854.574 73.7508 846.554 65.4869 Q838.573 57.1826 838.573 42.3968 Q838.573 27.5705 846.554 19.3066 Q854.574 11.0023 868.753 11.0023 Q874.667 11.0023 879.974 12.4606 Q885.321 13.9189 889.817 16.7545 L889.817 25.464 Q885.28 21.6156 880.176 19.6712 Q875.072 17.7268 869.441 17.7268 Q858.342 17.7268 852.751 23.9246 Q847.202 30.1225 847.202 42.3968 Q847.202 54.6305 852.751 60.8284 Q858.342 67.0263 869.441 67.0263 Q873.776 67.0263 877.178 66.2971 Q880.581 65.5274 883.295 63.9476 Z" fill="#000000" fill-rule="nonzero" fill-opacity="1" /><path clip-path="url(#clip550)" d="M906.021 9.54393 L913.475 9.54393 L913.475 72.576 L906.021 72.576 L906.021 9.54393 Z" fill="#000000" fill-rule="nonzero" fill-opacity="1" /><path clip-path="url(#clip550)" d="M946.651 32.4315 Q940.656 32.4315 937.172 37.1306 Q933.689 41.7891 933.689 49.9314 Q933.689 58.0738 937.132 62.7728 Q940.616 67.4314 946.651 67.4314 Q952.606 67.4314 956.09 62.7323 Q959.574 58.0333 959.574 49.9314 Q959.574 41.8701 956.09 37.1711 Q952.606 32.4315 946.651 32.4315 M946.651 26.1121 Q956.374 26.1121 961.923 32.4315 Q967.473 38.7509 967.473 49.9314 Q967.473 61.0714 961.923 67.4314 Q956.374 73.7508 946.651 73.7508 Q936.889 73.7508 931.339 67.4314 Q925.83 61.0714 925.83 49.9314 Q925.83 38.7509 931.339 32.4315 Q936.889 26.1121 946.651 26.1121 Z" fill="#000000" fill-rule="nonzero" fill-opacity="1" /><path clip-path="url(#clip550)" d="M1012.4 49.9314 Q1012.4 41.7081 1008.99 37.0496 Q1005.63 32.3505 999.718 32.3505 Q993.804 32.3505 990.401 37.0496 Q987.039 41.7081 987.039 49.9314 Q987.039 58.1548 990.401 62.8538 Q993.804 67.5124 999.718 67.5124 Q1005.63 67.5124 1008.99 62.8538 Q1012.4 58.1548 1012.4 49.9314 M987.039 34.0924 Q989.388 30.0415 992.953 28.0971 Q996.559 26.1121 1001.54 26.1121 Q1009.81 26.1121 1014.95 32.6746 Q1020.13 39.2371 1020.13 49.9314 Q1020.13 60.6258 1014.95 67.1883 Q1009.81 73.7508 1001.54 73.7508 Q996.559 73.7508 992.953 71.8063 Q989.388 69.8214 987.039 65.7705 L987.039 72.576 L979.545 72.576 L979.545 9.54393 L987.039 9.54393 L987.039 34.0924 Z" fill="#000000" fill-rule="nonzero" fill-opacity="1" /><path clip-path="url(#clip550)" d="M1053.11 49.7694 Q1044.08 49.7694 1040.59 51.8354 Q1037.11 53.9013 1037.11 58.8839 Q1037.11 62.8538 1039.7 65.2034 Q1042.33 67.5124 1046.83 67.5124 Q1053.03 67.5124 1056.76 63.1374 Q1060.52 58.7219 1060.52 51.4303 L1060.52 49.7694 L1053.11 49.7694 M1067.98 46.6907 L1067.98 72.576 L1060.52 72.576 L1060.52 65.6895 Q1057.97 69.8214 1054.16 71.8063 Q1050.35 73.7508 1044.85 73.7508 Q1037.88 73.7508 1033.75 69.8619 Q1029.65 65.9325 1029.65 59.3701 Q1029.65 51.7138 1034.76 47.825 Q1039.9 43.9361 1050.07 43.9361 L1060.52 43.9361 L1060.52 43.2069 Q1060.52 38.0623 1057.12 35.2672 Q1053.76 32.4315 1047.64 32.4315 Q1043.75 32.4315 1040.07 33.3632 Q1036.38 34.295 1032.98 36.1584 L1032.98 29.2718 Q1037.07 27.692 1040.92 26.9223 Q1044.76 26.1121 1048.41 26.1121 Q1058.25 26.1121 1063.11 31.2163 Q1067.98 36.3204 1067.98 46.6907 Z" fill="#000000" fill-rule="nonzero" fill-opacity="1" /><path clip-path="url(#clip550)" d="M1083.33 9.54393 L1090.78 9.54393 L1090.78 72.576 L1083.33 72.576 L1083.33 9.54393 Z" fill="#000000" fill-rule="nonzero" fill-opacity="1" /><path clip-path="url(#clip550)" d="M1124.69 12.096 L1175.85 12.096 L1175.85 18.9825 L1154.38 18.9825 L1154.38 72.576 L1146.16 72.576 L1146.16 18.9825 L1124.69 18.9825 L1124.69 12.096 Z" fill="#000000" fill-rule="nonzero" fill-opacity="1" /><path clip-path="url(#clip550)" d="M1208.14 48.0275 L1208.14 51.6733 L1173.87 51.6733 Q1174.35 59.3701 1178.48 63.421 Q1182.66 67.4314 1190.07 67.4314 Q1194.36 67.4314 1198.37 66.3781 Q1202.43 65.3249 1206.4 63.2184 L1206.4 70.267 Q1202.39 71.9684 1198.17 72.8596 Q1193.96 73.7508 1189.62 73.7508 Q1178.77 73.7508 1172.41 67.4314 Q1166.09 61.1119 1166.09 50.3365 Q1166.09 39.1965 1172.08 32.6746 Q1178.12 26.1121 1188.33 26.1121 Q1197.48 26.1121 1202.79 32.0264 Q1208.14 37.9003 1208.14 48.0275 M1200.68 45.84 Q1200.6 39.7232 1197.24 36.0774 Q1193.92 32.4315 1188.41 32.4315 Q1182.17 32.4315 1178.4 35.9558 Q1174.68 39.4801 1174.11 45.8805 L1200.68 45.84 Z" fill="#000000" fill-rule="nonzero" fill-opacity="1" /><path clip-path="url(#clip550)" d="M1255.69 35.9153 Q1258.49 30.8922 1262.38 28.5022 Q1266.27 26.1121 1271.53 26.1121 Q1278.62 26.1121 1282.47 31.0947 Q1286.32 36.0368 1286.32 45.1919 L1286.32 72.576 L1278.83 72.576 L1278.83 45.4349 Q1278.83 38.913 1276.52 35.7533 Q1274.21 32.5936 1269.47 32.5936 Q1263.68 32.5936 1260.31 36.4419 Q1256.95 40.2903 1256.95 46.9338 L1256.95 72.576 L1249.46 72.576 L1249.46 45.4349 Q1249.46 38.8725 1247.15 35.7533 Q1244.84 32.5936 1240.02 32.5936 Q1234.31 32.5936 1230.94 36.4824 Q1227.58 40.3308 1227.58 46.9338 L1227.58 72.576 L1220.09 72.576 L1220.09 27.2059 L1227.58 27.2059 L1227.58 34.2544 Q1230.13 30.082 1233.7 28.0971 Q1237.26 26.1121 1242.16 26.1121 Q1247.11 26.1121 1250.55 28.6237 Q1254.03 31.1352 1255.69 35.9153 Z" fill="#000000" fill-rule="nonzero" fill-opacity="1" /><path clip-path="url(#clip550)" d="M1308.4 65.7705 L1308.4 89.8329 L1300.9 89.8329 L1300.9 27.2059 L1308.4 27.2059 L1308.4 34.0924 Q1310.75 30.0415 1314.31 28.0971 Q1317.92 26.1121 1322.9 26.1121 Q1331.16 26.1121 1336.31 32.6746 Q1341.49 39.2371 1341.49 49.9314 Q1341.49 60.6258 1336.31 67.1883 Q1331.16 73.7508 1322.9 73.7508 Q1317.92 73.7508 1314.31 71.8063 Q1310.75 69.8214 1308.4 65.7705 M1333.76 49.9314 Q1333.76 41.7081 1330.35 37.0496 Q1326.99 32.3505 1321.08 32.3505 Q1315.16 32.3505 1311.76 37.0496 Q1308.4 41.7081 1308.4 49.9314 Q1308.4 58.1548 1311.76 62.8538 Q1315.16 67.5124 1321.08 67.5124 Q1326.99 67.5124 1330.35 62.8538 Q1333.76 58.1548 1333.76 49.9314 Z" fill="#000000" fill-rule="nonzero" fill-opacity="1" /><path clip-path="url(#clip550)" d="M1392.66 48.0275 L1392.66 51.6733 L1358.39 51.6733 Q1358.87 59.3701 1363 63.421 Q1367.18 67.4314 1374.59 67.4314 Q1378.88 67.4314 1382.89 66.3781 Q1386.94 65.3249 1390.91 63.2184 L1390.91 70.267 Q1386.9 71.9684 1382.69 72.8596 Q1378.48 73.7508 1374.14 73.7508 Q1363.29 73.7508 1356.93 67.4314 Q1350.61 61.1119 1350.61 50.3365 Q1350.61 39.1965 1356.6 32.6746 Q1362.64 26.1121 1372.85 26.1121 Q1382 26.1121 1387.31 32.0264 Q1392.66 37.9003 1392.66 48.0275 M1385.2 45.84 Q1385.12 39.7232 1381.76 36.0774 Q1378.44 32.4315 1372.93 32.4315 Q1366.69 32.4315 1362.92 35.9558 Q1359.2 39.4801 1358.63 45.8805 L1385.2 45.84 Z" fill="#000000" fill-rule="nonzero" fill-opacity="1" /><path clip-path="url(#clip550)" d="M1431.18 34.1734 Q1429.92 33.4443 1428.43 33.1202 Q1426.97 32.7556 1425.18 32.7556 Q1418.87 32.7556 1415.46 36.8875 Q1412.1 40.9789 1412.1 48.6757 L1412.1 72.576 L1404.61 72.576 L1404.61 27.2059 L1412.1 27.2059 L1412.1 34.2544 Q1414.45 30.1225 1418.22 28.1376 Q1421.98 26.1121 1427.37 26.1121 Q1428.14 26.1121 1429.07 26.2337 Q1430.01 26.3147 1431.14 26.5172 L1431.18 34.1734 Z" fill="#000000" fill-rule="nonzero" fill-opacity="1" /><path clip-path="url(#clip550)" d="M1459.62 49.7694 Q1450.58 49.7694 1447.1 51.8354 Q1443.62 53.9013 1443.62 58.8839 Q1443.62 62.8538 1446.21 65.2034 Q1448.84 67.5124 1453.34 67.5124 Q1459.54 67.5124 1463.26 63.1374 Q1467.03 58.7219 1467.03 51.4303 L1467.03 49.7694 L1459.62 49.7694 M1474.48 46.6907 L1474.48 72.576 L1467.03 72.576 L1467.03 65.6895 Q1464.48 69.8214 1460.67 71.8063 Q1456.86 73.7508 1451.35 73.7508 Q1444.39 73.7508 1440.25 69.8619 Q1436.16 65.9325 1436.16 59.3701 Q1436.16 51.7138 1441.27 47.825 Q1446.41 43.9361 1456.58 43.9361 L1467.03 43.9361 L1467.03 43.2069 Q1467.03 38.0623 1463.63 35.2672 Q1460.27 32.4315 1454.15 32.4315 Q1450.26 32.4315 1446.57 33.3632 Q1442.89 34.295 1439.48 36.1584 L1439.48 29.2718 Q1443.58 27.692 1447.42 26.9223 Q1451.27 26.1121 1454.92 26.1121 Q1464.76 26.1121 1469.62 31.2163 Q1474.48 36.3204 1474.48 46.6907 Z" fill="#000000" fill-rule="nonzero" fill-opacity="1" /><path clip-path="url(#clip550)" d="M1497.21 14.324 L1497.21 27.2059 L1512.56 27.2059 L1512.56 32.9987 L1497.21 32.9987 L1497.21 57.6282 Q1497.21 63.1779 1498.71 64.7578 Q1500.25 66.3376 1504.91 66.3376 L1512.56 66.3376 L1512.56 72.576 L1504.91 72.576 Q1496.28 72.576 1493 69.3758 Q1489.72 66.1351 1489.72 57.6282 L1489.72 32.9987 L1484.25 32.9987 L1484.25 27.2059 L1489.72 27.2059 L1489.72 14.324 L1497.21 14.324 Z" fill="#000000" fill-rule="nonzero" fill-opacity="1" /><path clip-path="url(#clip550)" d="M1521.6 54.671 L1521.6 27.2059 L1529.05 27.2059 L1529.05 54.3874 Q1529.05 60.8284 1531.56 64.0691 Q1534.07 67.2693 1539.1 67.2693 Q1545.13 67.2693 1548.62 63.421 Q1552.14 59.5726 1552.14 52.9291 L1552.14 27.2059 L1559.59 27.2059 L1559.59 72.576 L1552.14 72.576 L1552.14 65.6084 Q1549.43 69.7404 1545.82 71.7658 Q1542.26 73.7508 1537.52 73.7508 Q1529.7 73.7508 1525.65 68.8897 Q1521.6 64.0286 1521.6 54.671 M1540.35 26.1121 L1540.35 26.1121 Z" fill="#000000" fill-rule="nonzero" fill-opacity="1" /><path clip-path="url(#clip550)" d="M1601.24 34.1734 Q1599.98 33.4443 1598.48 33.1202 Q1597.02 32.7556 1595.24 32.7556 Q1588.92 32.7556 1585.52 36.8875 Q1582.16 40.9789 1582.16 48.6757 L1582.16 72.576 L1574.66 72.576 L1574.66 27.2059 L1582.16 27.2059 L1582.16 34.2544 Q1584.51 30.1225 1588.27 28.1376 Q1592.04 26.1121 1597.43 26.1121 Q1598.2 26.1121 1599.13 26.2337 Q1600.06 26.3147 1601.2 26.5172 L1601.24 34.1734 Z" fill="#000000" fill-rule="nonzero" fill-opacity="1" /><path clip-path="url(#clip550)" d="M1646.04 48.0275 L1646.04 51.6733 L1611.77 51.6733 Q1612.26 59.3701 1616.39 63.421 Q1620.56 67.4314 1627.97 67.4314 Q1632.27 67.4314 1636.28 66.3781 Q1640.33 65.3249 1644.3 63.2184 L1644.3 70.267 Q1640.29 71.9684 1636.07 72.8596 Q1631.86 73.7508 1627.53 73.7508 Q1616.67 73.7508 1610.31 67.4314 Q1603.99 61.1119 1603.99 50.3365 Q1603.99 39.1965 1609.99 32.6746 Q1616.02 26.1121 1626.23 26.1121 Q1635.39 26.1121 1640.69 32.0264 Q1646.04 37.9003 1646.04 48.0275 M1638.59 45.84 Q1638.51 39.7232 1635.14 36.0774 Q1631.82 32.4315 1626.31 32.4315 Q1620.07 32.4315 1616.31 35.9558 Q1612.58 39.4801 1612.01 45.8805 L1638.59 45.84 Z" fill="#000000" fill-rule="nonzero" fill-opacity="1" /><path clip-path="url(#clip550)" d="M1687.2 28.5427 L1687.2 35.5912 Q1684.04 33.9709 1680.63 33.1607 Q1677.23 32.3505 1673.59 32.3505 Q1668.04 32.3505 1665.24 34.0519 Q1662.49 35.7533 1662.49 39.156 Q1662.49 41.7486 1664.47 43.2475 Q1666.46 44.7058 1672.45 46.0426 L1675 46.6097 Q1682.94 48.3111 1686.27 51.4303 Q1689.63 54.509 1689.63 60.0587 Q1689.63 66.3781 1684.6 70.0644 Q1679.62 73.7508 1670.87 73.7508 Q1667.23 73.7508 1663.26 73.0216 Q1659.33 72.3329 1654.95 70.9151 L1654.95 63.2184 Q1659.08 65.3654 1663.09 66.4591 Q1667.1 67.5124 1671.03 67.5124 Q1676.3 67.5124 1679.14 65.73 Q1681.97 63.9071 1681.97 60.6258 Q1681.97 57.5877 1679.91 55.9673 Q1677.88 54.3469 1670.95 52.8481 L1668.36 52.2405 Q1661.43 50.7821 1658.35 47.7845 Q1655.28 44.7463 1655.28 39.4801 Q1655.28 33.0797 1659.81 29.5959 Q1664.35 26.1121 1672.7 26.1121 Q1676.83 26.1121 1680.47 26.7198 Q1684.12 27.3274 1687.2 28.5427 Z" fill="#000000" fill-rule="nonzero" fill-opacity="1" /><polyline clip-path="url(#clip552)" style="stroke:#cd0000; stroke-linecap:round; stroke-linejoin:round; stroke-width:8; stroke-opacity:1; fill:none" points="237.067,1061.49 365.446,1000.94 493.826,959.55 622.205,924.853 750.584,892.349 878.963,860.984 1007.34,830.717 1135.72,801.308 1264.1,772.768 1392.48,745.292 1520.86,719.13 1649.24,694.558 1777.62,671.878 1906,651.415 2034.38,633.528 2162.75,618.619 2291.13,607.144 "/>
<polyline clip-path="url(#clip552)" style="stroke:#000080; stroke-linecap:round; stroke-linejoin:round; stroke-width:12; stroke-opacity:1; fill:none" points="237.067,1061.49 365.446,992.897 493.826,942.65 622.205,900.906 750.584,862.644 878.963,826.435 1007.34,792.228 1135.72,759.623 1264.1,728.625 1392.48,699.477 1520.86,672.502 1649.24,648.059 1777.62,626.546 1906,608.408 2034.38,594.149 2162.75,584.353 2291.13,579.71 "/>
<polyline clip-path="url(#clip552)" style="stroke:#191970; stroke-linecap:round; stroke-linejoin:round; stroke-width:12; stroke-opacity:1; fill:none" stroke-dasharray="48, 30" points="237.067,1061.49 365.446,982.597 493.826,920.958 622.205,870.749 750.584,826.312 878.963,785.474 1007.34,748.038 1135.72,713.333 1264.1,681.336 1392.48,652.361 1520.86,626.835 1649.24,605.26 1777.62,588.208 1906,576.356 2034.38,570.52 2162.75,571.375 2291.13,573.557 "/>
<polyline clip-path="url(#clip552)" style="stroke:#4b0082; stroke-linecap:round; stroke-linejoin:round; stroke-width:12; stroke-opacity:1; fill:none" stroke-dasharray="6, 12" points="237.067,1061.49 365.446,975.301 493.826,905.585 622.205,847.958 750.584,799.368 878.963,756.211 1007.34,717.678 1135.72,682.765 1264.1,651.405 1392.48,623.968 1520.86,600.982 1649.24,583.082 1777.62,571.029 1906,565.758 2034.38,566.894 2162.75,569.089 2291.13,570.47 "/>
<polyline clip-path="url(#clip552)" style="stroke:#0000cd; stroke-linecap:round; stroke-linejoin:round; stroke-width:4; stroke-opacity:1; fill:none" points="237.067,1061.49 365.446,966.063 493.826,884.798 622.205,816 750.584,759.302 878.963,714.255 1007.34,679.766 1135.72,654.58 1264.1,633.063 1392.48,611.885 1520.86,589.599 1649.24,564.964 1777.62,537.733 1906,508.194 2034.38,476.79 2162.75,443.972 2291.13,410.173 "/>
<polyline clip-path="url(#clip552)" style="stroke:#436eee; stroke-linecap:round; stroke-linejoin:round; stroke-width:4; stroke-opacity:1; fill:none" stroke-dasharray="2, 4" points="237.067,1061.49 365.446,960.199 493.826,873.814 622.205,800.98 750.584,741.277 878.963,694.619 1007.34,656.719 1135.72,624.755 1264.1,598.366 1392.48,578.091 1520.86,564.817 1649.24,559.716 1777.62,561.401 1906,564.005 2034.38,565.674 2162.75,566.194 2291.13,565.712 "/>
<path clip-path="url(#clip550)" d="M248.022 531.785 L817.233 531.785 L817.233 168.905 L248.022 168.905  Z" fill="#ffffff" fill-rule="evenodd" fill-opacity="1"/>
<polyline clip-path="url(#clip550)" style="stroke:#000000; stroke-linecap:round; stroke-linejoin:round; stroke-width:4; stroke-opacity:1; fill:none" points="248.022,531.785 817.233,531.785 817.233,168.905 248.022,168.905 248.022,531.785 "/>
<polyline clip-path="url(#clip550)" style="stroke:#cd0000; stroke-linecap:round; stroke-linejoin:round; stroke-width:8; stroke-opacity:1; fill:none" points="272.215,220.745 417.369,220.745 "/>
<path clip-path="url(#clip550)" d="M442.232 234.089 L449.871 234.089 L449.871 207.724 L441.561 209.391 L441.561 205.131 L449.825 203.465 L454.501 203.465 L454.501 234.089 L462.14 234.089 L462.14 238.025 L442.232 238.025 L442.232 234.089 Z" fill="#000000" fill-rule="nonzero" fill-opacity="1" /><path clip-path="url(#clip550)" d="M501.075 216.08 Q500.357 215.664 499.5 215.478 Q498.667 215.27 497.649 215.27 Q494.038 215.27 492.093 217.631 Q490.172 219.969 490.172 224.367 L490.172 238.025 L485.889 238.025 L485.889 212.099 L490.172 212.099 L490.172 216.127 Q491.514 213.766 493.667 212.631 Q495.82 211.474 498.899 211.474 Q499.338 211.474 499.871 211.543 Q500.403 211.59 501.051 211.705 L501.075 216.08 Z" fill="#000000" fill-rule="nonzero" fill-opacity="1" /><path clip-path="url(#clip550)" d="M526.676 223.997 L526.676 226.08 L507.093 226.08 Q507.371 230.478 509.732 232.793 Q512.116 235.085 516.352 235.085 Q518.806 235.085 521.098 234.483 Q523.412 233.881 525.681 232.677 L525.681 236.705 Q523.389 237.677 520.982 238.187 Q518.574 238.696 516.098 238.696 Q509.894 238.696 506.26 235.085 Q502.649 231.474 502.649 225.316 Q502.649 218.951 506.075 215.224 Q509.524 211.474 515.357 211.474 Q520.588 211.474 523.621 214.853 Q526.676 218.21 526.676 223.997 M522.417 222.747 Q522.371 219.252 520.449 217.168 Q518.551 215.085 515.403 215.085 Q511.838 215.085 509.686 217.099 Q507.556 219.113 507.232 222.77 L522.417 222.747 Z" fill="#000000" fill-rule="nonzero" fill-opacity="1" /><path clip-path="url(#clip550)" d="M550.727 224.761 Q550.727 220.131 548.806 217.585 Q546.908 215.039 543.459 215.039 Q540.033 215.039 538.111 217.585 Q536.213 220.131 536.213 224.761 Q536.213 229.367 538.111 231.914 Q540.033 234.46 543.459 234.46 Q546.908 234.46 548.806 231.914 Q550.727 229.367 550.727 224.761 M554.986 234.807 Q554.986 241.427 552.046 244.645 Q549.107 247.886 543.042 247.886 Q540.797 247.886 538.806 247.538 Q536.815 247.214 534.94 246.52 L534.94 242.376 Q536.815 243.395 538.644 243.881 Q540.472 244.367 542.371 244.367 Q546.56 244.367 548.644 242.168 Q550.727 239.992 550.727 235.571 L550.727 233.464 Q549.408 235.756 547.347 236.89 Q545.287 238.025 542.417 238.025 Q537.648 238.025 534.732 234.39 Q531.815 230.756 531.815 224.761 Q531.815 218.742 534.732 215.108 Q537.648 211.474 542.417 211.474 Q545.287 211.474 547.347 212.608 Q549.408 213.742 550.727 216.034 L550.727 212.099 L554.986 212.099 L554.986 234.807 Z" fill="#000000" fill-rule="nonzero" fill-opacity="1" /><path clip-path="url(#clip550)" d="M563.759 212.099 L568.019 212.099 L568.019 238.025 L563.759 238.025 L563.759 212.099 M563.759 202.006 L568.019 202.006 L568.019 207.4 L563.759 207.4 L563.759 202.006 Z" fill="#000000" fill-rule="nonzero" fill-opacity="1" /><path clip-path="url(#clip550)" d="M586.977 215.085 Q583.551 215.085 581.56 217.77 Q579.569 220.432 579.569 225.085 Q579.569 229.738 581.537 232.423 Q583.528 235.085 586.977 235.085 Q590.38 235.085 592.37 232.4 Q594.361 229.715 594.361 225.085 Q594.361 220.478 592.37 217.793 Q590.38 215.085 586.977 215.085 M586.977 211.474 Q592.532 211.474 595.704 215.085 Q598.875 218.696 598.875 225.085 Q598.875 231.451 595.704 235.085 Q592.532 238.696 586.977 238.696 Q581.398 238.696 578.227 235.085 Q575.079 231.451 575.079 225.085 Q575.079 218.696 578.227 215.085 Q581.398 211.474 586.977 211.474 Z" fill="#000000" fill-rule="nonzero" fill-opacity="1" /><path clip-path="url(#clip550)" d="M627.486 222.377 L627.486 238.025 L623.227 238.025 L623.227 222.515 Q623.227 218.835 621.791 217.006 Q620.356 215.178 617.486 215.178 Q614.037 215.178 612.046 217.377 Q610.055 219.576 610.055 223.372 L610.055 238.025 L605.773 238.025 L605.773 212.099 L610.055 212.099 L610.055 216.127 Q611.583 213.789 613.643 212.631 Q615.727 211.474 618.435 211.474 Q622.903 211.474 625.194 214.252 Q627.486 217.006 627.486 222.377 Z" fill="#000000" fill-rule="nonzero" fill-opacity="1" /><path clip-path="url(#clip550)" d="M661.282 202.053 Q658.18 207.377 656.676 212.585 Q655.171 217.793 655.171 223.14 Q655.171 228.488 656.676 233.742 Q658.203 238.974 661.282 244.275 L657.578 244.275 Q654.106 238.835 652.37 233.58 Q650.657 228.326 650.657 223.14 Q650.657 217.978 652.37 212.747 Q654.083 207.516 657.578 202.053 L661.282 202.053 Z" fill="#000000" fill-rule="nonzero" fill-opacity="1" /><path clip-path="url(#clip550)" d="M674.407 207.307 L674.407 234.182 L680.055 234.182 Q687.208 234.182 690.518 230.941 Q693.851 227.701 693.851 220.71 Q693.851 213.766 690.518 210.548 Q687.208 207.307 680.055 207.307 L674.407 207.307 M669.731 203.465 L679.337 203.465 Q689.384 203.465 694.083 207.654 Q698.782 211.821 698.782 220.71 Q698.782 229.645 694.06 233.835 Q689.337 238.025 679.337 238.025 L669.731 238.025 L669.731 203.465 Z" fill="#000000" fill-rule="nonzero" fill-opacity="1" /><path clip-path="url(#clip550)" d="M706.235 203.465 L710.911 203.465 L710.911 238.025 L706.235 238.025 L706.235 203.465 Z" fill="#000000" fill-rule="nonzero" fill-opacity="1" /><path clip-path="url(#clip550)" d="M746.096 206.127 L746.096 211.057 Q743.735 208.858 741.05 207.77 Q738.388 206.682 735.379 206.682 Q729.453 206.682 726.305 210.316 Q723.157 213.928 723.157 220.779 Q723.157 227.608 726.305 231.242 Q729.453 234.853 735.379 234.853 Q738.388 234.853 741.05 233.765 Q743.735 232.677 746.096 230.478 L746.096 235.363 Q743.643 237.029 740.888 237.863 Q738.157 238.696 735.101 238.696 Q727.254 238.696 722.74 233.904 Q718.226 229.09 718.226 220.779 Q718.226 212.446 722.74 207.654 Q727.254 202.84 735.101 202.84 Q738.203 202.84 740.934 203.673 Q743.689 204.483 746.096 206.127 Z" fill="#000000" fill-rule="nonzero" fill-opacity="1" /><path clip-path="url(#clip550)" d="M753.319 203.465 L775.17 203.465 L775.17 207.4 L757.994 207.4 L757.994 217.631 L774.453 217.631 L774.453 221.566 L757.994 221.566 L757.994 234.089 L775.587 234.089 L775.587 238.025 L753.319 238.025 L753.319 203.465 Z" fill="#000000" fill-rule="nonzero" fill-opacity="1" /><path clip-path="url(#clip550)" d="M782.416 202.053 L786.119 202.053 Q789.592 207.516 791.304 212.747 Q793.041 217.978 793.041 223.14 Q793.041 228.326 791.304 233.58 Q789.592 238.835 786.119 244.275 L782.416 244.275 Q785.494 238.974 786.999 233.742 Q788.527 228.488 788.527 223.14 Q788.527 217.793 786.999 212.585 Q785.494 207.377 782.416 202.053 Z" fill="#000000" fill-rule="nonzero" fill-opacity="1" /><polyline clip-path="url(#clip550)" style="stroke:#000080; stroke-linecap:round; stroke-linejoin:round; stroke-width:12; stroke-opacity:1; fill:none" points="272.215,272.585 417.369,272.585 "/>
<path clip-path="url(#clip550)" d="M447.186 285.929 L463.505 285.929 L463.505 289.865 L441.561 289.865 L441.561 285.929 Q444.223 283.175 448.806 278.545 Q453.413 273.893 454.593 272.55 Q456.839 270.027 457.718 268.291 Q458.621 266.531 458.621 264.842 Q458.621 262.087 456.677 260.351 Q454.755 258.615 451.653 258.615 Q449.454 258.615 447.001 259.379 Q444.57 260.143 441.792 261.694 L441.792 256.971 Q444.616 255.837 447.07 255.258 Q449.524 254.68 451.561 254.68 Q456.931 254.68 460.126 257.365 Q463.32 260.05 463.32 264.541 Q463.32 266.67 462.51 268.592 Q461.723 270.49 459.616 273.082 Q459.038 273.754 455.936 276.971 Q452.834 280.166 447.186 285.929 Z" fill="#000000" fill-rule="nonzero" fill-opacity="1" /><path clip-path="url(#clip550)" d="M502.811 267.92 Q502.093 267.504 501.237 267.318 Q500.403 267.11 499.385 267.11 Q495.774 267.11 493.829 269.471 Q491.908 271.809 491.908 276.207 L491.908 289.865 L487.626 289.865 L487.626 263.939 L491.908 263.939 L491.908 267.967 Q493.25 265.606 495.403 264.471 Q497.556 263.314 500.635 263.314 Q501.075 263.314 501.607 263.383 Q502.139 263.43 502.787 263.545 L502.811 267.92 Z" fill="#000000" fill-rule="nonzero" fill-opacity="1" /><path clip-path="url(#clip550)" d="M528.412 275.837 L528.412 277.92 L508.829 277.92 Q509.107 282.318 511.468 284.633 Q513.852 286.925 518.088 286.925 Q520.542 286.925 522.834 286.323 Q525.148 285.721 527.417 284.517 L527.417 288.545 Q525.125 289.517 522.718 290.027 Q520.311 290.536 517.834 290.536 Q511.63 290.536 507.996 286.925 Q504.385 283.314 504.385 277.156 Q504.385 270.791 507.811 267.064 Q511.26 263.314 517.093 263.314 Q522.324 263.314 525.357 266.693 Q528.412 270.05 528.412 275.837 M524.153 274.587 Q524.107 271.092 522.186 269.008 Q520.287 266.925 517.139 266.925 Q513.574 266.925 511.422 268.939 Q509.292 270.953 508.968 274.61 L524.153 274.587 Z" fill="#000000" fill-rule="nonzero" fill-opacity="1" /><path clip-path="url(#clip550)" d="M552.463 276.601 Q552.463 271.971 550.542 269.425 Q548.644 266.879 545.195 266.879 Q541.769 266.879 539.847 269.425 Q537.949 271.971 537.949 276.601 Q537.949 281.207 539.847 283.754 Q541.769 286.3 545.195 286.3 Q548.644 286.3 550.542 283.754 Q552.463 281.207 552.463 276.601 M556.722 286.647 Q556.722 293.267 553.783 296.485 Q550.843 299.726 544.778 299.726 Q542.533 299.726 540.542 299.378 Q538.551 299.054 536.676 298.36 L536.676 294.216 Q538.551 295.235 540.38 295.721 Q542.209 296.207 544.107 296.207 Q548.296 296.207 550.38 294.008 Q552.463 291.832 552.463 287.411 L552.463 285.304 Q551.144 287.596 549.084 288.73 Q547.023 289.865 544.153 289.865 Q539.385 289.865 536.468 286.23 Q533.551 282.596 533.551 276.601 Q533.551 270.582 536.468 266.948 Q539.385 263.314 544.153 263.314 Q547.023 263.314 549.084 264.448 Q551.144 265.582 552.463 267.874 L552.463 263.939 L556.722 263.939 L556.722 286.647 Z" fill="#000000" fill-rule="nonzero" fill-opacity="1" /><path clip-path="url(#clip550)" d="M565.495 263.939 L569.755 263.939 L569.755 289.865 L565.495 289.865 L565.495 263.939 M565.495 253.846 L569.755 253.846 L569.755 259.24 L565.495 259.24 L565.495 253.846 Z" fill="#000000" fill-rule="nonzero" fill-opacity="1" /><path clip-path="url(#clip550)" d="M588.713 266.925 Q585.287 266.925 583.296 269.61 Q581.306 272.272 581.306 276.925 Q581.306 281.578 583.273 284.263 Q585.264 286.925 588.713 286.925 Q592.116 286.925 594.106 284.24 Q596.097 281.555 596.097 276.925 Q596.097 272.318 594.106 269.633 Q592.116 266.925 588.713 266.925 M588.713 263.314 Q594.268 263.314 597.44 266.925 Q600.611 270.536 600.611 276.925 Q600.611 283.291 597.44 286.925 Q594.268 290.536 588.713 290.536 Q583.134 290.536 579.963 286.925 Q576.815 283.291 576.815 276.925 Q576.815 270.536 579.963 266.925 Q583.134 263.314 588.713 263.314 Z" fill="#000000" fill-rule="nonzero" fill-opacity="1" /><path clip-path="url(#clip550)" d="M629.222 274.217 L629.222 289.865 L624.963 289.865 L624.963 274.355 Q624.963 270.675 623.528 268.846 Q622.092 267.018 619.222 267.018 Q615.773 267.018 613.782 269.217 Q611.792 271.416 611.792 275.212 L611.792 289.865 L607.509 289.865 L607.509 263.939 L611.792 263.939 L611.792 267.967 Q613.319 265.629 615.379 264.471 Q617.463 263.314 620.171 263.314 Q624.639 263.314 626.93 266.092 Q629.222 268.846 629.222 274.217 Z" fill="#000000" fill-rule="nonzero" fill-opacity="1" /><path clip-path="url(#clip550)" d="M654.245 264.703 L654.245 268.731 Q652.439 267.805 650.495 267.342 Q648.551 266.879 646.467 266.879 Q643.296 266.879 641.699 267.851 Q640.125 268.823 640.125 270.768 Q640.125 272.249 641.259 273.105 Q642.393 273.939 645.819 274.703 L647.277 275.027 Q651.814 275.999 653.713 277.781 Q655.634 279.541 655.634 282.712 Q655.634 286.323 652.764 288.429 Q649.916 290.536 644.916 290.536 Q642.833 290.536 640.565 290.119 Q638.319 289.726 635.819 288.916 L635.819 284.517 Q638.18 285.744 640.472 286.369 Q642.764 286.971 645.009 286.971 Q648.018 286.971 649.639 285.953 Q651.259 284.911 651.259 283.036 Q651.259 281.3 650.078 280.374 Q648.921 279.448 644.963 278.592 L643.481 278.244 Q639.523 277.411 637.764 275.698 Q636.004 273.962 636.004 270.953 Q636.004 267.295 638.597 265.305 Q641.19 263.314 645.958 263.314 Q648.319 263.314 650.402 263.661 Q652.486 264.008 654.245 264.703 Z" fill="#000000" fill-rule="nonzero" fill-opacity="1" /><polyline clip-path="url(#clip550)" style="stroke:#191970; stroke-linecap:round; stroke-linejoin:round; stroke-width:12; stroke-opacity:1; fill:none" stroke-dasharray="48, 30" points="272.215,324.425 417.369,324.425 "/>
<path clip-path="url(#clip550)" d="M457.163 311.219 L445.357 329.668 L457.163 329.668 L457.163 311.219 M455.936 307.145 L461.815 307.145 L461.815 329.668 L466.746 329.668 L466.746 333.557 L461.815 333.557 L461.815 341.705 L457.163 341.705 L457.163 333.557 L441.561 333.557 L441.561 329.043 L455.936 307.145 Z" fill="#000000" fill-rule="nonzero" fill-opacity="1" /><path clip-path="url(#clip550)" d="M503.968 319.76 Q503.25 319.344 502.394 319.158 Q501.561 318.95 500.542 318.95 Q496.931 318.95 494.987 321.311 Q493.065 323.649 493.065 328.047 L493.065 341.705 L488.783 341.705 L488.783 315.779 L493.065 315.779 L493.065 319.807 Q494.408 317.446 496.561 316.311 Q498.713 315.154 501.792 315.154 Q502.232 315.154 502.764 315.223 Q503.297 315.27 503.945 315.385 L503.968 319.76 Z" fill="#000000" fill-rule="nonzero" fill-opacity="1" /><path clip-path="url(#clip550)" d="M529.57 327.677 L529.57 329.76 L509.987 329.76 Q510.264 334.158 512.625 336.473 Q515.01 338.765 519.246 338.765 Q521.699 338.765 523.991 338.163 Q526.306 337.561 528.574 336.357 L528.574 340.385 Q526.283 341.357 523.875 341.867 Q521.468 342.376 518.991 342.376 Q512.787 342.376 509.153 338.765 Q505.542 335.154 505.542 328.996 Q505.542 322.631 508.968 318.904 Q512.417 315.154 518.25 315.154 Q523.482 315.154 526.514 318.533 Q529.57 321.89 529.57 327.677 M525.311 326.427 Q525.264 322.932 523.343 320.848 Q521.445 318.765 518.297 318.765 Q514.732 318.765 512.579 320.779 Q510.449 322.793 510.125 326.45 L525.311 326.427 Z" fill="#000000" fill-rule="nonzero" fill-opacity="1" /><path clip-path="url(#clip550)" d="M553.621 328.441 Q553.621 323.811 551.699 321.265 Q549.801 318.719 546.352 318.719 Q542.926 318.719 541.005 321.265 Q539.107 323.811 539.107 328.441 Q539.107 333.047 541.005 335.594 Q542.926 338.14 546.352 338.14 Q549.801 338.14 551.699 335.594 Q553.621 333.047 553.621 328.441 M557.88 338.487 Q557.88 345.107 554.94 348.325 Q552 351.566 545.935 351.566 Q543.69 351.566 541.699 351.218 Q539.709 350.894 537.834 350.2 L537.834 346.056 Q539.709 347.075 541.537 347.561 Q543.366 348.047 545.264 348.047 Q549.454 348.047 551.537 345.848 Q553.621 343.672 553.621 339.251 L553.621 337.144 Q552.301 339.436 550.241 340.57 Q548.181 341.705 545.31 341.705 Q540.542 341.705 537.625 338.07 Q534.709 334.436 534.709 328.441 Q534.709 322.422 537.625 318.788 Q540.542 315.154 545.31 315.154 Q548.181 315.154 550.241 316.288 Q552.301 317.422 553.621 319.714 L553.621 315.779 L557.88 315.779 L557.88 338.487 Z" fill="#000000" fill-rule="nonzero" fill-opacity="1" /><path clip-path="url(#clip550)" d="M566.653 315.779 L570.912 315.779 L570.912 341.705 L566.653 341.705 L566.653 315.779 M566.653 305.686 L570.912 305.686 L570.912 311.08 L566.653 311.08 L566.653 305.686 Z" fill="#000000" fill-rule="nonzero" fill-opacity="1" /><path clip-path="url(#clip550)" d="M589.87 318.765 Q586.444 318.765 584.454 321.45 Q582.463 324.112 582.463 328.765 Q582.463 333.418 584.431 336.103 Q586.421 338.765 589.87 338.765 Q593.273 338.765 595.264 336.08 Q597.255 333.395 597.255 328.765 Q597.255 324.158 595.264 321.473 Q593.273 318.765 589.87 318.765 M589.87 315.154 Q595.426 315.154 598.597 318.765 Q601.768 322.376 601.768 328.765 Q601.768 335.131 598.597 338.765 Q595.426 342.376 589.87 342.376 Q584.292 342.376 581.12 338.765 Q577.972 335.131 577.972 328.765 Q577.972 322.376 581.12 318.765 Q584.292 315.154 589.87 315.154 Z" fill="#000000" fill-rule="nonzero" fill-opacity="1" /><path clip-path="url(#clip550)" d="M630.379 326.057 L630.379 341.705 L626.12 341.705 L626.12 326.195 Q626.12 322.515 624.685 320.686 Q623.25 318.858 620.379 318.858 Q616.93 318.858 614.94 321.057 Q612.949 323.256 612.949 327.052 L612.949 341.705 L608.667 341.705 L608.667 315.779 L612.949 315.779 L612.949 319.807 Q614.477 317.469 616.537 316.311 Q618.62 315.154 621.329 315.154 Q625.796 315.154 628.088 317.932 Q630.379 320.686 630.379 326.057 Z" fill="#000000" fill-rule="nonzero" fill-opacity="1" /><path clip-path="url(#clip550)" d="M655.402 316.543 L655.402 320.571 Q653.597 319.645 651.652 319.182 Q649.708 318.719 647.625 318.719 Q644.453 318.719 642.856 319.691 Q641.282 320.663 641.282 322.608 Q641.282 324.089 642.416 324.945 Q643.551 325.779 646.977 326.543 L648.435 326.867 Q652.972 327.839 654.87 329.621 Q656.791 331.381 656.791 334.552 Q656.791 338.163 653.921 340.269 Q651.074 342.376 646.074 342.376 Q643.99 342.376 641.722 341.959 Q639.477 341.566 636.977 340.756 L636.977 336.357 Q639.338 337.584 641.629 338.209 Q643.921 338.811 646.166 338.811 Q649.176 338.811 650.796 337.793 Q652.416 336.751 652.416 334.876 Q652.416 333.14 651.236 332.214 Q650.078 331.288 646.12 330.432 L644.639 330.084 Q640.68 329.251 638.921 327.538 Q637.162 325.802 637.162 322.793 Q637.162 319.135 639.754 317.145 Q642.347 315.154 647.115 315.154 Q649.477 315.154 651.56 315.501 Q653.643 315.848 655.402 316.543 Z" fill="#000000" fill-rule="nonzero" fill-opacity="1" /><polyline clip-path="url(#clip550)" style="stroke:#4b0082; stroke-linecap:round; stroke-linejoin:round; stroke-width:12; stroke-opacity:1; fill:none" stroke-dasharray="6, 12" points="272.215,376.265 417.369,376.265 "/>
<path clip-path="url(#clip550)" d="M453.899 374.401 Q450.751 374.401 448.899 376.554 Q447.07 378.707 447.07 382.457 Q447.07 386.184 448.899 388.359 Q450.751 390.512 453.899 390.512 Q457.047 390.512 458.876 388.359 Q460.728 386.184 460.728 382.457 Q460.728 378.707 458.876 376.554 Q457.047 374.401 453.899 374.401 M463.181 359.749 L463.181 364.008 Q461.422 363.174 459.616 362.735 Q457.834 362.295 456.075 362.295 Q451.445 362.295 448.991 365.42 Q446.561 368.545 446.214 374.864 Q447.579 372.85 449.64 371.786 Q451.7 370.698 454.177 370.698 Q459.385 370.698 462.394 373.869 Q465.427 377.017 465.427 382.457 Q465.427 387.781 462.278 390.998 Q459.13 394.216 453.899 394.216 Q447.904 394.216 444.732 389.633 Q441.561 385.026 441.561 376.299 Q441.561 368.105 445.45 363.244 Q449.339 358.36 455.89 358.36 Q457.649 358.36 459.431 358.707 Q461.237 359.054 463.181 359.749 Z" fill="#000000" fill-rule="nonzero" fill-opacity="1" /><path clip-path="url(#clip550)" d="M502.973 371.6 Q502.255 371.184 501.399 370.998 Q500.565 370.79 499.547 370.79 Q495.936 370.79 493.991 373.151 Q492.07 375.489 492.07 379.887 L492.07 393.545 L487.788 393.545 L487.788 367.619 L492.07 367.619 L492.07 371.647 Q493.413 369.286 495.565 368.151 Q497.718 366.994 500.797 366.994 Q501.237 366.994 501.769 367.063 Q502.301 367.11 502.95 367.225 L502.973 371.6 Z" fill="#000000" fill-rule="nonzero" fill-opacity="1" /><path clip-path="url(#clip550)" d="M528.574 379.517 L528.574 381.6 L508.991 381.6 Q509.269 385.998 511.63 388.313 Q514.014 390.605 518.25 390.605 Q520.704 390.605 522.996 390.003 Q525.311 389.401 527.579 388.197 L527.579 392.225 Q525.287 393.197 522.88 393.707 Q520.473 394.216 517.996 394.216 Q511.792 394.216 508.158 390.605 Q504.547 386.994 504.547 380.836 Q504.547 374.471 507.973 370.744 Q511.422 366.994 517.255 366.994 Q522.486 366.994 525.519 370.373 Q528.574 373.73 528.574 379.517 M524.315 378.267 Q524.269 374.772 522.348 372.688 Q520.449 370.605 517.301 370.605 Q513.736 370.605 511.584 372.619 Q509.454 374.633 509.13 378.29 L524.315 378.267 Z" fill="#000000" fill-rule="nonzero" fill-opacity="1" /><path clip-path="url(#clip550)" d="M552.625 380.281 Q552.625 375.651 550.704 373.105 Q548.806 370.559 545.357 370.559 Q541.931 370.559 540.01 373.105 Q538.111 375.651 538.111 380.281 Q538.111 384.887 540.01 387.434 Q541.931 389.98 545.357 389.98 Q548.806 389.98 550.704 387.434 Q552.625 384.887 552.625 380.281 M556.884 390.327 Q556.884 396.947 553.945 400.165 Q551.005 403.406 544.94 403.406 Q542.695 403.406 540.704 403.058 Q538.713 402.734 536.838 402.04 L536.838 397.896 Q538.713 398.915 540.542 399.401 Q542.371 399.887 544.269 399.887 Q548.459 399.887 550.542 397.688 Q552.625 395.512 552.625 391.091 L552.625 388.984 Q551.306 391.276 549.246 392.41 Q547.185 393.545 544.315 393.545 Q539.547 393.545 536.63 389.91 Q533.713 386.276 533.713 380.281 Q533.713 374.262 536.63 370.628 Q539.547 366.994 544.315 366.994 Q547.185 366.994 549.246 368.128 Q551.306 369.262 552.625 371.554 L552.625 367.619 L556.884 367.619 L556.884 390.327 Z" fill="#000000" fill-rule="nonzero" fill-opacity="1" /><path clip-path="url(#clip550)" d="M565.658 367.619 L569.917 367.619 L569.917 393.545 L565.658 393.545 L565.658 367.619 M565.658 357.526 L569.917 357.526 L569.917 362.92 L565.658 362.92 L565.658 357.526 Z" fill="#000000" fill-rule="nonzero" fill-opacity="1" /><path clip-path="url(#clip550)" d="M588.875 370.605 Q585.449 370.605 583.458 373.29 Q581.468 375.952 581.468 380.605 Q581.468 385.258 583.435 387.943 Q585.426 390.605 588.875 390.605 Q592.278 390.605 594.268 387.92 Q596.259 385.235 596.259 380.605 Q596.259 375.998 594.268 373.313 Q592.278 370.605 588.875 370.605 M588.875 366.994 Q594.431 366.994 597.602 370.605 Q600.773 374.216 600.773 380.605 Q600.773 386.971 597.602 390.605 Q594.431 394.216 588.875 394.216 Q583.296 394.216 580.125 390.605 Q576.977 386.971 576.977 380.605 Q576.977 374.216 580.125 370.605 Q583.296 366.994 588.875 366.994 Z" fill="#000000" fill-rule="nonzero" fill-opacity="1" /><path clip-path="url(#clip550)" d="M629.384 377.897 L629.384 393.545 L625.125 393.545 L625.125 378.035 Q625.125 374.355 623.69 372.526 Q622.254 370.698 619.384 370.698 Q615.935 370.698 613.944 372.897 Q611.954 375.096 611.954 378.892 L611.954 393.545 L607.671 393.545 L607.671 367.619 L611.954 367.619 L611.954 371.647 Q613.481 369.309 615.542 368.151 Q617.625 366.994 620.333 366.994 Q624.801 366.994 627.092 369.772 Q629.384 372.526 629.384 377.897 Z" fill="#000000" fill-rule="nonzero" fill-opacity="1" /><path clip-path="url(#clip550)" d="M654.407 368.383 L654.407 372.411 Q652.601 371.485 650.657 371.022 Q648.713 370.559 646.629 370.559 Q643.458 370.559 641.861 371.531 Q640.287 372.503 640.287 374.448 Q640.287 375.929 641.421 376.785 Q642.555 377.619 645.981 378.383 L647.439 378.707 Q651.976 379.679 653.875 381.461 Q655.796 383.221 655.796 386.392 Q655.796 390.003 652.926 392.109 Q650.078 394.216 645.078 394.216 Q642.995 394.216 640.727 393.799 Q638.481 393.406 635.981 392.596 L635.981 388.197 Q638.342 389.424 640.634 390.049 Q642.926 390.651 645.171 390.651 Q648.18 390.651 649.801 389.633 Q651.421 388.591 651.421 386.716 Q651.421 384.98 650.24 384.054 Q649.083 383.128 645.125 382.272 L643.643 381.924 Q639.685 381.091 637.926 379.378 Q636.166 377.642 636.166 374.633 Q636.166 370.975 638.759 368.985 Q641.352 366.994 646.12 366.994 Q648.481 366.994 650.564 367.341 Q652.648 367.688 654.407 368.383 Z" fill="#000000" fill-rule="nonzero" fill-opacity="1" /><polyline clip-path="url(#clip550)" style="stroke:#0000cd; stroke-linecap:round; stroke-linejoin:round; stroke-width:4; stroke-opacity:1; fill:none" points="272.215,428.105 417.369,428.105 "/>
<path clip-path="url(#clip550)" d="M453.413 428.973 Q450.079 428.973 448.158 430.755 Q446.26 432.537 446.26 435.662 Q446.26 438.787 448.158 440.57 Q450.079 442.352 453.413 442.352 Q456.746 442.352 458.667 440.57 Q460.589 438.764 460.589 435.662 Q460.589 432.537 458.667 430.755 Q456.769 428.973 453.413 428.973 M448.737 426.982 Q445.728 426.241 444.038 424.181 Q442.371 422.121 442.371 419.158 Q442.371 415.014 445.311 412.607 Q448.274 410.2 453.413 410.2 Q458.575 410.2 461.515 412.607 Q464.454 415.014 464.454 419.158 Q464.454 422.121 462.765 424.181 Q461.098 426.241 458.112 426.982 Q461.491 427.769 463.366 430.061 Q465.265 432.352 465.265 435.662 Q465.265 440.686 462.186 443.371 Q459.13 446.056 453.413 446.056 Q447.695 446.056 444.616 443.371 Q441.561 440.686 441.561 435.662 Q441.561 432.352 443.459 430.061 Q445.357 427.769 448.737 426.982 M447.024 419.598 Q447.024 422.283 448.691 423.788 Q450.38 425.292 453.413 425.292 Q456.422 425.292 458.112 423.788 Q459.825 422.283 459.825 419.598 Q459.825 416.913 458.112 415.408 Q456.422 413.903 453.413 413.903 Q450.38 413.903 448.691 415.408 Q447.024 416.913 447.024 419.598 Z" fill="#000000" fill-rule="nonzero" fill-opacity="1" /><path clip-path="url(#clip550)" d="M503.065 423.44 Q502.348 423.024 501.491 422.838 Q500.658 422.63 499.639 422.63 Q496.028 422.63 494.084 424.991 Q492.163 427.329 492.163 431.727 L492.163 445.385 L487.88 445.385 L487.88 419.459 L492.163 419.459 L492.163 423.487 Q493.505 421.126 495.658 419.991 Q497.811 418.834 500.889 418.834 Q501.329 418.834 501.862 418.903 Q502.394 418.95 503.042 419.065 L503.065 423.44 Z" fill="#000000" fill-rule="nonzero" fill-opacity="1" /><path clip-path="url(#clip550)" d="M528.667 431.357 L528.667 433.44 L509.084 433.44 Q509.362 437.838 511.723 440.153 Q514.107 442.445 518.343 442.445 Q520.797 442.445 523.088 441.843 Q525.403 441.241 527.672 440.037 L527.672 444.065 Q525.38 445.037 522.973 445.547 Q520.565 446.056 518.088 446.056 Q511.885 446.056 508.25 442.445 Q504.639 438.834 504.639 432.676 Q504.639 426.311 508.065 422.584 Q511.514 418.834 517.348 418.834 Q522.579 418.834 525.611 422.213 Q528.667 425.57 528.667 431.357 M524.408 430.107 Q524.361 426.612 522.44 424.528 Q520.542 422.445 517.394 422.445 Q513.829 422.445 511.676 424.459 Q509.547 426.473 509.223 430.13 L524.408 430.107 Z" fill="#000000" fill-rule="nonzero" fill-opacity="1" /><path clip-path="url(#clip550)" d="M552.718 432.121 Q552.718 427.491 550.796 424.945 Q548.898 422.399 545.449 422.399 Q542.023 422.399 540.102 424.945 Q538.204 427.491 538.204 432.121 Q538.204 436.727 540.102 439.274 Q542.023 441.82 545.449 441.82 Q548.898 441.82 550.796 439.274 Q552.718 436.727 552.718 432.121 M556.977 442.167 Q556.977 448.787 554.037 452.005 Q551.097 455.246 545.033 455.246 Q542.787 455.246 540.797 454.898 Q538.806 454.574 536.931 453.88 L536.931 449.736 Q538.806 450.755 540.635 451.241 Q542.463 451.727 544.361 451.727 Q548.551 451.727 550.634 449.528 Q552.718 447.352 552.718 442.931 L552.718 440.824 Q551.398 443.116 549.338 444.25 Q547.278 445.385 544.408 445.385 Q539.639 445.385 536.722 441.75 Q533.806 438.116 533.806 432.121 Q533.806 426.102 536.722 422.468 Q539.639 418.834 544.408 418.834 Q547.278 418.834 549.338 419.968 Q551.398 421.102 552.718 423.394 L552.718 419.459 L556.977 419.459 L556.977 442.167 Z" fill="#000000" fill-rule="nonzero" fill-opacity="1" /><path clip-path="url(#clip550)" d="M565.75 419.459 L570.009 419.459 L570.009 445.385 L565.75 445.385 L565.75 419.459 M565.75 409.366 L570.009 409.366 L570.009 414.76 L565.75 414.76 L565.75 409.366 Z" fill="#000000" fill-rule="nonzero" fill-opacity="1" /><path clip-path="url(#clip550)" d="M588.968 422.445 Q585.542 422.445 583.551 425.13 Q581.56 427.792 581.56 432.445 Q581.56 437.098 583.528 439.783 Q585.519 442.445 588.968 442.445 Q592.37 442.445 594.361 439.76 Q596.352 437.075 596.352 432.445 Q596.352 427.838 594.361 425.153 Q592.37 422.445 588.968 422.445 M588.968 418.834 Q594.523 418.834 597.694 422.445 Q600.866 426.056 600.866 432.445 Q600.866 438.811 597.694 442.445 Q594.523 446.056 588.968 446.056 Q583.389 446.056 580.218 442.445 Q577.069 438.811 577.069 432.445 Q577.069 426.056 580.218 422.445 Q583.389 418.834 588.968 418.834 Z" fill="#000000" fill-rule="nonzero" fill-opacity="1" /><path clip-path="url(#clip550)" d="M629.477 429.737 L629.477 445.385 L625.217 445.385 L625.217 429.875 Q625.217 426.195 623.782 424.366 Q622.347 422.538 619.477 422.538 Q616.028 422.538 614.037 424.737 Q612.046 426.936 612.046 430.732 L612.046 445.385 L607.764 445.385 L607.764 419.459 L612.046 419.459 L612.046 423.487 Q613.574 421.149 615.634 419.991 Q617.717 418.834 620.426 418.834 Q624.893 418.834 627.185 421.612 Q629.477 424.366 629.477 429.737 Z" fill="#000000" fill-rule="nonzero" fill-opacity="1" /><path clip-path="url(#clip550)" d="M654.5 420.223 L654.5 424.251 Q652.694 423.325 650.75 422.862 Q648.805 422.399 646.722 422.399 Q643.551 422.399 641.953 423.371 Q640.379 424.343 640.379 426.288 Q640.379 427.769 641.514 428.625 Q642.648 429.459 646.074 430.223 L647.532 430.547 Q652.069 431.519 653.967 433.301 Q655.889 435.061 655.889 438.232 Q655.889 441.843 653.018 443.949 Q650.171 446.056 645.171 446.056 Q643.088 446.056 640.819 445.639 Q638.574 445.246 636.074 444.436 L636.074 440.037 Q638.435 441.264 640.727 441.889 Q643.018 442.491 645.264 442.491 Q648.273 442.491 649.893 441.473 Q651.514 440.431 651.514 438.556 Q651.514 436.82 650.333 435.894 Q649.176 434.968 645.217 434.112 L643.736 433.764 Q639.777 432.931 638.018 431.218 Q636.259 429.482 636.259 426.473 Q636.259 422.815 638.852 420.825 Q641.444 418.834 646.213 418.834 Q648.574 418.834 650.657 419.181 Q652.74 419.528 654.5 420.223 Z" fill="#000000" fill-rule="nonzero" fill-opacity="1" /><polyline clip-path="url(#clip550)" style="stroke:#436eee; stroke-linecap:round; stroke-linejoin:round; stroke-width:4; stroke-opacity:1; fill:none" stroke-dasharray="2, 4" points="272.215,479.945 417.369,479.945 "/>
<path clip-path="url(#clip550)" d="M442.232 493.289 L449.871 493.289 L449.871 466.924 L441.561 468.591 L441.561 464.331 L449.825 462.665 L454.501 462.665 L454.501 493.289 L462.14 493.289 L462.14 497.225 L442.232 497.225 L442.232 493.289 Z" fill="#000000" fill-rule="nonzero" fill-opacity="1" /><path clip-path="url(#clip550)" d="M475.612 493.289 L491.931 493.289 L491.931 497.225 L469.987 497.225 L469.987 493.289 Q472.649 490.535 477.232 485.905 Q481.839 481.253 483.019 479.91 Q485.264 477.387 486.144 475.651 Q487.047 473.891 487.047 472.202 Q487.047 469.447 485.102 467.711 Q483.181 465.975 480.079 465.975 Q477.88 465.975 475.427 466.739 Q472.996 467.503 470.218 469.054 L470.218 464.331 Q473.042 463.197 475.496 462.618 Q477.95 462.04 479.987 462.04 Q485.357 462.04 488.551 464.725 Q491.746 467.41 491.746 471.901 Q491.746 474.03 490.936 475.952 Q490.149 477.85 488.042 480.442 Q487.463 481.114 484.362 484.331 Q481.26 487.526 475.612 493.289 Z" fill="#000000" fill-rule="nonzero" fill-opacity="1" /><path clip-path="url(#clip550)" d="M531.236 475.28 Q530.519 474.864 529.662 474.678 Q528.829 474.47 527.81 474.47 Q524.199 474.47 522.255 476.831 Q520.334 479.169 520.334 483.567 L520.334 497.225 L516.051 497.225 L516.051 471.299 L520.334 471.299 L520.334 475.327 Q521.676 472.966 523.829 471.831 Q525.982 470.674 529.06 470.674 Q529.5 470.674 530.033 470.743 Q530.565 470.79 531.213 470.905 L531.236 475.28 Z" fill="#000000" fill-rule="nonzero" fill-opacity="1" /><path clip-path="url(#clip550)" d="M556.838 483.197 L556.838 485.28 L537.255 485.28 Q537.533 489.678 539.894 491.993 Q542.278 494.285 546.514 494.285 Q548.968 494.285 551.259 493.683 Q553.574 493.081 555.843 491.877 L555.843 495.905 Q553.551 496.877 551.144 497.387 Q548.736 497.896 546.259 497.896 Q540.056 497.896 536.422 494.285 Q532.81 490.674 532.81 484.516 Q532.81 478.151 536.236 474.424 Q539.685 470.674 545.519 470.674 Q550.75 470.674 553.783 474.053 Q556.838 477.41 556.838 483.197 M552.579 481.947 Q552.533 478.452 550.611 476.368 Q548.713 474.285 545.565 474.285 Q542 474.285 539.847 476.299 Q537.718 478.313 537.394 481.97 L552.579 481.947 Z" fill="#000000" fill-rule="nonzero" fill-opacity="1" /><path clip-path="url(#clip550)" d="M580.889 483.961 Q580.889 479.331 578.968 476.785 Q577.069 474.239 573.62 474.239 Q570.195 474.239 568.273 476.785 Q566.375 479.331 566.375 483.961 Q566.375 488.567 568.273 491.114 Q570.195 493.66 573.62 493.66 Q577.069 493.66 578.968 491.114 Q580.889 488.567 580.889 483.961 M585.148 494.007 Q585.148 500.627 582.208 503.845 Q579.269 507.086 573.204 507.086 Q570.958 507.086 568.968 506.738 Q566.977 506.414 565.102 505.72 L565.102 501.576 Q566.977 502.595 568.806 503.081 Q570.634 503.567 572.532 503.567 Q576.722 503.567 578.806 501.368 Q580.889 499.192 580.889 494.771 L580.889 492.664 Q579.569 494.956 577.509 496.09 Q575.449 497.225 572.579 497.225 Q567.81 497.225 564.894 493.59 Q561.977 489.956 561.977 483.961 Q561.977 477.942 564.894 474.308 Q567.81 470.674 572.579 470.674 Q575.449 470.674 577.509 471.808 Q579.569 472.942 580.889 475.234 L580.889 471.299 L585.148 471.299 L585.148 494.007 Z" fill="#000000" fill-rule="nonzero" fill-opacity="1" /><path clip-path="url(#clip550)" d="M593.921 471.299 L598.18 471.299 L598.18 497.225 L593.921 497.225 L593.921 471.299 M593.921 461.206 L598.18 461.206 L598.18 466.6 L593.921 466.6 L593.921 461.206 Z" fill="#000000" fill-rule="nonzero" fill-opacity="1" /><path clip-path="url(#clip550)" d="M617.139 474.285 Q613.713 474.285 611.722 476.97 Q609.731 479.632 609.731 484.285 Q609.731 488.938 611.699 491.623 Q613.69 494.285 617.139 494.285 Q620.541 494.285 622.532 491.6 Q624.523 488.915 624.523 484.285 Q624.523 479.678 622.532 476.993 Q620.541 474.285 617.139 474.285 M617.139 470.674 Q622.694 470.674 625.866 474.285 Q629.037 477.896 629.037 484.285 Q629.037 490.651 625.866 494.285 Q622.694 497.896 617.139 497.896 Q611.56 497.896 608.389 494.285 Q605.241 490.651 605.241 484.285 Q605.241 477.896 608.389 474.285 Q611.56 470.674 617.139 470.674 Z" fill="#000000" fill-rule="nonzero" fill-opacity="1" /><path clip-path="url(#clip550)" d="M657.648 481.577 L657.648 497.225 L653.389 497.225 L653.389 481.715 Q653.389 478.035 651.953 476.206 Q650.518 474.378 647.648 474.378 Q644.199 474.378 642.208 476.577 Q640.217 478.776 640.217 482.572 L640.217 497.225 L635.935 497.225 L635.935 471.299 L640.217 471.299 L640.217 475.327 Q641.745 472.989 643.805 471.831 Q645.889 470.674 648.597 470.674 Q653.064 470.674 655.356 473.452 Q657.648 476.206 657.648 481.577 Z" fill="#000000" fill-rule="nonzero" fill-opacity="1" /><path clip-path="url(#clip550)" d="M682.671 472.063 L682.671 476.091 Q680.865 475.165 678.921 474.702 Q676.976 474.239 674.893 474.239 Q671.722 474.239 670.125 475.211 Q668.55 476.183 668.55 478.128 Q668.55 479.609 669.685 480.465 Q670.819 481.299 674.245 482.063 L675.703 482.387 Q680.24 483.359 682.138 485.141 Q684.06 486.901 684.06 490.072 Q684.06 493.683 681.189 495.789 Q678.342 497.896 673.342 497.896 Q671.259 497.896 668.99 497.479 Q666.745 497.086 664.245 496.276 L664.245 491.877 Q666.606 493.104 668.898 493.729 Q671.189 494.331 673.435 494.331 Q676.444 494.331 678.064 493.313 Q679.685 492.271 679.685 490.396 Q679.685 488.66 678.504 487.734 Q677.347 486.808 673.388 485.952 L671.907 485.604 Q667.949 484.771 666.189 483.058 Q664.43 481.322 664.43 478.313 Q664.43 474.655 667.023 472.665 Q669.615 470.674 674.384 470.674 Q676.745 470.674 678.828 471.021 Q680.912 471.368 682.671 472.063 Z" fill="#000000" fill-rule="nonzero" fill-opacity="1" /></svg>
