<?xml version="1.0" encoding="utf-8"?>
<svg xmlns="http://www.w3.org/2000/svg" xmlns:xlink="http://www.w3.org/1999/xlink" width="600" height="400" viewBox="0 0 2400 1600">
<defs>
  <clipPath id="clip490">
    <rect x="0" y="0" width="2400" height="1600"/>
  </clipPath>
</defs>
<path clip-path="url(#clip490)" d="M0 1600 L2400 1600 L2400 0 L0 0  Z" fill="#ffffff" fill-rule="evenodd" fill-opacity="1"/>
<defs>
  <clipPath id="clip491">
    <rect x="480" y="0" width="1681" height="1600"/>
  </clipPath>
</defs>
<path clip-path="url(#clip490)" d="M232.389 1486.45 L2352.76 1486.45 L2352.76 123.472 L232.389 123.472  Z" fill="#ffffff" fill-rule="evenodd" fill-opacity="1"/>
<defs>
  <clipPath id="clip492">
    <rect x="232" y="123" width="2121" height="1364"/>
  </clipPath>
</defs>
<polyline clip-path="url(#clip492)" style="stroke:#000000; stroke-linecap:round; stroke-linejoin:round; stroke-width:2; stroke-opacity:0.1; fill:none" points="292.4,1486.45 292.4,123.472 "/>
<polyline clip-path="url(#clip492)" style="stroke:#000000; stroke-linecap:round; stroke-linejoin:round; stroke-width:2; stroke-opacity:0.1; fill:none" points="692.469,1486.45 692.469,123.472 "/>
<polyline clip-path="url(#clip492)" style="stroke:#000000; stroke-linecap:round; stroke-linejoin:round; stroke-width:2; stroke-opacity:0.1; fill:none" points="1092.54,1486.45 1092.54,123.472 "/>
<polyline clip-path="url(#clip492)" style="stroke:#000000; stroke-linecap:round; stroke-linejoin:round; stroke-width:2; stroke-opacity:0.1; fill:none" points="1492.61,1486.45 1492.61,123.472 "/>
<polyline clip-path="url(#clip492)" style="stroke:#000000; stroke-linecap:round; stroke-linejoin:round; stroke-width:2; stroke-opacity:0.1; fill:none" points="1892.68,1486.45 1892.68,123.472 "/>
<polyline clip-path="url(#clip492)" style="stroke:#000000; stroke-linecap:round; stroke-linejoin:round; stroke-width:2; stroke-opacity:0.1; fill:none" points="2292.75,1486.45 2292.75,123.472 "/>
<polyline clip-path="url(#clip492)" style="stroke:#000000; stroke-linecap:round; stroke-linejoin:round; stroke-width:2; stroke-opacity:0.1; fill:none" points="232.389,1486.45 2352.76,1486.45 "/>
<polyline clip-path="url(#clip492)" style="stroke:#000000; stroke-linecap:round; stroke-linejoin:round; stroke-width:2; stroke-opacity:0.1; fill:none" points="232.389,1259.29 2352.76,1259.29 "/>
<polyline clip-path="url(#clip492)" style="stroke:#000000; stroke-linecap:round; stroke-linejoin:round; stroke-width:2; stroke-opacity:0.1; fill:none" points="232.389,1032.12 2352.76,1032.12 "/>
<polyline clip-path="url(#clip492)" style="stroke:#000000; stroke-linecap:round; stroke-linejoin:round; stroke-width:2; stroke-opacity:0.1; fill:none" points="232.389,804.96 2352.76,804.96 "/>
<polyline clip-path="url(#clip492)" style="stroke:#000000; stroke-linecap:round; stroke-linejoin:round; stroke-width:2; stroke-opacity:0.1; fill:none" points="232.389,577.797 2352.76,577.797 "/>
<polyline clip-path="url(#clip492)" style="stroke:#000000; stroke-linecap:round; stroke-linejoin:round; stroke-width:2; stroke-opacity:0.1; fill:none" points="232.389,350.635 2352.76,350.635 "/>
<polyline clip-path="url(#clip492)" style="stroke:#000000; stroke-linecap:round; stroke-linejoin:round; stroke-width:2; stroke-opacity:0.1; fill:none" points="232.389,123.472 2352.76,123.472 "/>
<polyline clip-path="url(#clip490)" style="stroke:#000000; stroke-linecap:round; stroke-linejoin:round; stroke-width:4; stroke-opacity:1; fill:none" points="232.389,1486.45 2352.76,1486.45 "/>
<polyline clip-path="url(#clip490)" style="stroke:#000000; stroke-linecap:round; stroke-linejoin:round; stroke-width:4; stroke-opacity:1; fill:none" points="292.4,1486.45 292.4,1467.55 "/>
<polyline clip-path="url(#clip490)" style="stroke:#000000; stroke-linecap:round; stroke-linejoin:round; stroke-width:4; stroke-opacity:1; fill:none" points="692.469,1486.45 692.469,1467.55 "/>
<polyline clip-path="url(#clip490)" style="stroke:#000000; stroke-linecap:round; stroke-linejoin:round; stroke-width:4; stroke-opacity:1; fill:none" points="1092.54,1486.45 1092.54,1467.55 "/>
<polyline clip-path="url(#clip490)" style="stroke:#000000; stroke-linecap:round; stroke-linejoin:round; stroke-width:4; stroke-opacity:1; fill:none" points="1492.61,1486.45 1492.61,1467.55 "/>
<polyline clip-path="url(#clip490)" style="stroke:#000000; stroke-linecap:round; stroke-linejoin:round; stroke-width:4; stroke-opacity:1; fill:none" points="1892.68,1486.45 1892.68,1467.55 "/>
<polyline clip-path="url(#clip490)" style="stroke:#000000; stroke-linecap:round; stroke-linejoin:round; stroke-width:4; stroke-opacity:1; fill:none" points="2292.75,1486.45 2292.75,1467.55 "/>
<path clip-path="url(#clip490)" d="M241.011 1544.91 L257.33 1544.91 L257.33 1548.85 L235.386 1548.85 L235.386 1544.91 Q238.048 1542.16 242.631 1537.53 Q247.238 1532.88 248.418 1531.53 Q250.664 1529.01 251.543 1527.27 Q252.446 1525.51 252.446 1523.82 Q252.446 1521.07 250.502 1519.33 Q248.581 1517.6 245.479 1517.6 Q243.28 1517.6 240.826 1518.36 Q238.395 1519.13 235.618 1520.68 L235.618 1515.95 Q238.442 1514.82 240.895 1514.24 Q243.349 1513.66 245.386 1513.66 Q250.756 1513.66 253.951 1516.35 Q257.145 1519.03 257.145 1523.52 Q257.145 1525.65 256.335 1527.57 Q255.548 1529.47 253.442 1532.07 Q252.863 1532.74 249.761 1535.95 Q246.659 1539.15 241.011 1544.91 Z" fill="#000000" fill-rule="nonzero" fill-opacity="1" /><path clip-path="url(#clip490)" d="M277.145 1517.37 Q273.534 1517.37 271.705 1520.93 Q269.9 1524.47 269.9 1531.6 Q269.9 1538.71 271.705 1542.27 Q273.534 1545.82 277.145 1545.82 Q280.779 1545.82 282.585 1542.27 Q284.414 1538.71 284.414 1531.6 Q284.414 1524.47 282.585 1520.93 Q280.779 1517.37 277.145 1517.37 M277.145 1513.66 Q282.955 1513.66 286.011 1518.27 Q289.09 1522.85 289.09 1531.6 Q289.09 1540.33 286.011 1544.94 Q282.955 1549.52 277.145 1549.52 Q271.335 1549.52 268.256 1544.94 Q265.201 1540.33 265.201 1531.6 Q265.201 1522.85 268.256 1518.27 Q271.335 1513.66 277.145 1513.66 Z" fill="#000000" fill-rule="nonzero" fill-opacity="1" /><path clip-path="url(#clip490)" d="M301.335 1544.91 L317.654 1544.91 L317.654 1548.85 L295.71 1548.85 L295.71 1544.91 Q298.372 1542.16 302.955 1537.53 Q307.562 1532.88 308.742 1531.53 Q310.988 1529.01 311.867 1527.27 Q312.77 1525.51 312.77 1523.82 Q312.77 1521.07 310.826 1519.33 Q308.904 1517.6 305.802 1517.6 Q303.603 1517.6 301.15 1518.36 Q298.719 1519.13 295.941 1520.68 L295.941 1515.95 Q298.765 1514.82 301.219 1514.24 Q303.673 1513.66 305.71 1513.66 Q311.08 1513.66 314.275 1516.35 Q317.469 1519.03 317.469 1523.52 Q317.469 1525.65 316.659 1527.57 Q315.872 1529.47 313.765 1532.07 Q313.187 1532.74 310.085 1535.95 Q306.983 1539.15 301.335 1544.91 Z" fill="#000000" fill-rule="nonzero" fill-opacity="1" /><path clip-path="url(#clip490)" d="M337.469 1517.37 Q333.858 1517.37 332.029 1520.93 Q330.224 1524.47 330.224 1531.6 Q330.224 1538.71 332.029 1542.27 Q333.858 1545.82 337.469 1545.82 Q341.103 1545.82 342.909 1542.27 Q344.737 1538.71 344.737 1531.6 Q344.737 1524.47 342.909 1520.93 Q341.103 1517.37 337.469 1517.37 M337.469 1513.66 Q343.279 1513.66 346.335 1518.27 Q349.413 1522.85 349.413 1531.6 Q349.413 1540.33 346.335 1544.94 Q343.279 1549.52 337.469 1549.52 Q331.659 1549.52 328.58 1544.94 Q325.525 1540.33 325.525 1531.6 Q325.525 1522.85 328.58 1518.27 Q331.659 1513.66 337.469 1513.66 Z" fill="#000000" fill-rule="nonzero" fill-opacity="1" /><path clip-path="url(#clip490)" d="M641.08 1544.91 L657.4 1544.91 L657.4 1548.85 L635.455 1548.85 L635.455 1544.91 Q638.117 1542.16 642.701 1537.53 Q647.307 1532.88 648.488 1531.53 Q650.733 1529.01 651.613 1527.27 Q652.515 1525.51 652.515 1523.82 Q652.515 1521.07 650.571 1519.33 Q648.65 1517.6 645.548 1517.6 Q643.349 1517.6 640.895 1518.36 Q638.465 1519.13 635.687 1520.68 L635.687 1515.95 Q638.511 1514.82 640.965 1514.24 Q643.418 1513.66 645.455 1513.66 Q650.826 1513.66 654.02 1516.35 Q657.214 1519.03 657.214 1523.52 Q657.214 1525.65 656.404 1527.57 Q655.617 1529.47 653.511 1532.07 Q652.932 1532.74 649.83 1535.95 Q646.728 1539.15 641.08 1544.91 Z" fill="#000000" fill-rule="nonzero" fill-opacity="1" /><path clip-path="url(#clip490)" d="M677.214 1517.37 Q673.603 1517.37 671.775 1520.93 Q669.969 1524.47 669.969 1531.6 Q669.969 1538.71 671.775 1542.27 Q673.603 1545.82 677.214 1545.82 Q680.849 1545.82 682.654 1542.27 Q684.483 1538.71 684.483 1531.6 Q684.483 1524.47 682.654 1520.93 Q680.849 1517.37 677.214 1517.37 M677.214 1513.66 Q683.024 1513.66 686.08 1518.27 Q689.159 1522.85 689.159 1531.6 Q689.159 1540.33 686.08 1544.94 Q683.024 1549.52 677.214 1549.52 Q671.404 1549.52 668.325 1544.94 Q665.27 1540.33 665.27 1531.6 Q665.27 1522.85 668.325 1518.27 Q671.404 1513.66 677.214 1513.66 Z" fill="#000000" fill-rule="nonzero" fill-opacity="1" /><path clip-path="url(#clip490)" d="M711.543 1530.21 Q714.899 1530.93 716.774 1533.2 Q718.672 1535.47 718.672 1538.8 Q718.672 1543.92 715.154 1546.72 Q711.635 1549.52 705.154 1549.52 Q702.978 1549.52 700.663 1549.08 Q698.372 1548.66 695.918 1547.81 L695.918 1543.29 Q697.862 1544.43 700.177 1545.01 Q702.492 1545.58 705.015 1545.58 Q709.413 1545.58 711.705 1543.85 Q714.02 1542.11 714.02 1538.8 Q714.02 1535.75 711.867 1534.03 Q709.737 1532.3 705.918 1532.3 L701.89 1532.3 L701.89 1528.45 L706.103 1528.45 Q709.552 1528.45 711.381 1527.09 Q713.21 1525.7 713.21 1523.11 Q713.21 1520.45 711.311 1519.03 Q709.436 1517.6 705.918 1517.6 Q703.997 1517.6 701.798 1518.01 Q699.598 1518.43 696.96 1519.31 L696.96 1515.14 Q699.622 1514.4 701.936 1514.03 Q704.274 1513.66 706.335 1513.66 Q711.659 1513.66 714.76 1516.09 Q717.862 1518.5 717.862 1522.62 Q717.862 1525.49 716.219 1527.48 Q714.575 1529.45 711.543 1530.21 Z" fill="#000000" fill-rule="nonzero" fill-opacity="1" /><path clip-path="url(#clip490)" d="M737.538 1517.37 Q733.927 1517.37 732.098 1520.93 Q730.293 1524.47 730.293 1531.6 Q730.293 1538.71 732.098 1542.27 Q733.927 1545.82 737.538 1545.82 Q741.172 1545.82 742.978 1542.27 Q744.807 1538.71 744.807 1531.6 Q744.807 1524.47 742.978 1520.93 Q741.172 1517.37 737.538 1517.37 M737.538 1513.66 Q743.348 1513.66 746.404 1518.27 Q749.482 1522.85 749.482 1531.6 Q749.482 1540.33 746.404 1544.94 Q743.348 1549.52 737.538 1549.52 Q731.728 1549.52 728.649 1544.94 Q725.594 1540.33 725.594 1531.6 Q725.594 1522.85 728.649 1518.27 Q731.728 1513.66 737.538 1513.66 Z" fill="#000000" fill-rule="nonzero" fill-opacity="1" /><path clip-path="url(#clip490)" d="M1041.15 1544.91 L1057.47 1544.91 L1057.47 1548.85 L1035.52 1548.85 L1035.52 1544.91 Q1038.19 1542.16 1042.77 1537.53 Q1047.38 1532.88 1048.56 1531.53 Q1050.8 1529.01 1051.68 1527.27 Q1052.58 1525.51 1052.58 1523.82 Q1052.58 1521.07 1050.64 1519.33 Q1048.72 1517.6 1045.62 1517.6 Q1043.42 1517.6 1040.96 1518.36 Q1038.53 1519.13 1035.76 1520.68 L1035.76 1515.95 Q1038.58 1514.82 1041.03 1514.24 Q1043.49 1513.66 1045.52 1513.66 Q1050.89 1513.66 1054.09 1516.35 Q1057.28 1519.03 1057.28 1523.52 Q1057.28 1525.65 1056.47 1527.57 Q1055.69 1529.47 1053.58 1532.07 Q1053 1532.74 1049.9 1535.95 Q1046.8 1539.15 1041.15 1544.91 Z" fill="#000000" fill-rule="nonzero" fill-opacity="1" /><path clip-path="url(#clip490)" d="M1077.28 1517.37 Q1073.67 1517.37 1071.84 1520.93 Q1070.04 1524.47 1070.04 1531.6 Q1070.04 1538.71 1071.84 1542.27 Q1073.67 1545.82 1077.28 1545.82 Q1080.92 1545.82 1082.72 1542.27 Q1084.55 1538.71 1084.55 1531.6 Q1084.55 1524.47 1082.72 1520.93 Q1080.92 1517.37 1077.28 1517.37 M1077.28 1513.66 Q1083.09 1513.66 1086.15 1518.27 Q1089.23 1522.85 1089.23 1531.6 Q1089.23 1540.33 1086.15 1544.94 Q1083.09 1549.52 1077.28 1549.52 Q1071.47 1549.52 1068.39 1544.94 Q1065.34 1540.33 1065.34 1531.6 Q1065.34 1522.85 1068.39 1518.27 Q1071.47 1513.66 1077.28 1513.66 Z" fill="#000000" fill-rule="nonzero" fill-opacity="1" /><path clip-path="url(#clip490)" d="M1110.29 1518.36 L1098.49 1536.81 L1110.29 1536.81 L1110.29 1518.36 M1109.07 1514.29 L1114.95 1514.29 L1114.95 1536.81 L1119.88 1536.81 L1119.88 1540.7 L1114.95 1540.7 L1114.95 1548.85 L1110.29 1548.85 L1110.29 1540.7 L1094.69 1540.7 L1094.69 1536.19 L1109.07 1514.29 Z" fill="#000000" fill-rule="nonzero" fill-opacity="1" /><path clip-path="url(#clip490)" d="M1137.61 1517.37 Q1134 1517.37 1132.17 1520.93 Q1130.36 1524.47 1130.36 1531.6 Q1130.36 1538.71 1132.17 1542.27 Q1134 1545.82 1137.61 1545.82 Q1141.24 1545.82 1143.05 1542.27 Q1144.88 1538.71 1144.88 1531.6 Q1144.88 1524.47 1143.05 1520.93 Q1141.24 1517.37 1137.61 1517.37 M1137.61 1513.66 Q1143.42 1513.66 1146.47 1518.27 Q1149.55 1522.85 1149.55 1531.6 Q1149.55 1540.33 1146.47 1544.94 Q1143.42 1549.52 1137.61 1549.52 Q1131.8 1549.52 1128.72 1544.94 Q1125.66 1540.33 1125.66 1531.6 Q1125.66 1522.85 1128.72 1518.27 Q1131.8 1513.66 1137.61 1513.66 Z" fill="#000000" fill-rule="nonzero" fill-opacity="1" /><path clip-path="url(#clip490)" d="M1441.22 1544.91 L1457.54 1544.91 L1457.54 1548.85 L1435.59 1548.85 L1435.59 1544.91 Q1438.26 1542.16 1442.84 1537.53 Q1447.45 1532.88 1448.63 1531.53 Q1450.87 1529.01 1451.75 1527.27 Q1452.65 1525.51 1452.65 1523.82 Q1452.65 1521.07 1450.71 1519.33 Q1448.79 1517.6 1445.69 1517.6 Q1443.49 1517.6 1441.03 1518.36 Q1438.6 1519.13 1435.83 1520.68 L1435.83 1515.95 Q1438.65 1514.82 1441.1 1514.24 Q1443.56 1513.66 1445.59 1513.66 Q1450.96 1513.66 1454.16 1516.35 Q1457.35 1519.03 1457.35 1523.52 Q1457.35 1525.65 1456.54 1527.57 Q1455.76 1529.47 1453.65 1532.07 Q1453.07 1532.74 1449.97 1535.95 Q1446.87 1539.15 1441.22 1544.91 Z" fill="#000000" fill-rule="nonzero" fill-opacity="1" /><path clip-path="url(#clip490)" d="M1477.35 1517.37 Q1473.74 1517.37 1471.91 1520.93 Q1470.11 1524.47 1470.11 1531.6 Q1470.11 1538.71 1471.91 1542.27 Q1473.74 1545.82 1477.35 1545.82 Q1480.99 1545.82 1482.79 1542.27 Q1484.62 1538.71 1484.62 1531.6 Q1484.62 1524.47 1482.79 1520.93 Q1480.99 1517.37 1477.35 1517.37 M1477.35 1513.66 Q1483.16 1513.66 1486.22 1518.27 Q1489.3 1522.85 1489.3 1531.6 Q1489.3 1540.33 1486.22 1544.94 Q1483.16 1549.52 1477.35 1549.52 Q1471.54 1549.52 1468.46 1544.94 Q1465.41 1540.33 1465.41 1531.6 Q1465.41 1522.85 1468.46 1518.27 Q1471.54 1513.66 1477.35 1513.66 Z" fill="#000000" fill-rule="nonzero" fill-opacity="1" /><path clip-path="url(#clip490)" d="M1497.56 1514.29 L1515.92 1514.29 L1515.92 1518.22 L1501.84 1518.22 L1501.84 1526.7 Q1502.86 1526.35 1503.88 1526.19 Q1504.9 1526 1505.92 1526 Q1511.7 1526 1515.08 1529.17 Q1518.46 1532.34 1518.46 1537.76 Q1518.46 1543.34 1514.99 1546.44 Q1511.52 1549.52 1505.2 1549.52 Q1503.02 1549.52 1500.76 1549.15 Q1498.51 1548.78 1496.1 1548.04 L1496.1 1543.34 Q1498.19 1544.47 1500.41 1545.03 Q1502.63 1545.58 1505.11 1545.58 Q1509.11 1545.58 1511.45 1543.48 Q1513.79 1541.37 1513.79 1537.76 Q1513.79 1534.15 1511.45 1532.04 Q1509.11 1529.94 1505.11 1529.94 Q1503.23 1529.94 1501.36 1530.35 Q1499.51 1530.77 1497.56 1531.65 L1497.56 1514.29 Z" fill="#000000" fill-rule="nonzero" fill-opacity="1" /><path clip-path="url(#clip490)" d="M1537.68 1517.37 Q1534.07 1517.37 1532.24 1520.93 Q1530.43 1524.47 1530.43 1531.6 Q1530.43 1538.71 1532.24 1542.27 Q1534.07 1545.82 1537.68 1545.82 Q1541.31 1545.82 1543.12 1542.27 Q1544.94 1538.71 1544.94 1531.6 Q1544.94 1524.47 1543.12 1520.93 Q1541.31 1517.37 1537.68 1517.37 M1537.68 1513.66 Q1543.49 1513.66 1546.54 1518.27 Q1549.62 1522.85 1549.62 1531.6 Q1549.62 1540.33 1546.54 1544.94 Q1543.49 1549.52 1537.68 1549.52 Q1531.87 1549.52 1528.79 1544.94 Q1525.73 1540.33 1525.73 1531.6 Q1525.73 1522.85 1528.79 1518.27 Q1531.87 1513.66 1537.68 1513.66 Z" fill="#000000" fill-rule="nonzero" fill-opacity="1" /><path clip-path="url(#clip490)" d="M1841.29 1544.91 L1857.61 1544.91 L1857.61 1548.85 L1835.66 1548.85 L1835.66 1544.91 Q1838.32 1542.16 1842.91 1537.53 Q1847.51 1532.88 1848.7 1531.53 Q1850.94 1529.01 1851.82 1527.27 Q1852.72 1525.51 1852.72 1523.82 Q1852.72 1521.07 1850.78 1519.33 Q1848.86 1517.6 1845.76 1517.6 Q1843.56 1517.6 1841.1 1518.36 Q1838.67 1519.13 1835.89 1520.68 L1835.89 1515.95 Q1838.72 1514.82 1841.17 1514.24 Q1843.63 1513.66 1845.66 1513.66 Q1851.03 1513.66 1854.23 1516.35 Q1857.42 1519.03 1857.42 1523.52 Q1857.42 1525.65 1856.61 1527.57 Q1855.82 1529.47 1853.72 1532.07 Q1853.14 1532.74 1850.04 1535.95 Q1846.94 1539.15 1841.29 1544.91 Z" fill="#000000" fill-rule="nonzero" fill-opacity="1" /><path clip-path="url(#clip490)" d="M1877.42 1517.37 Q1873.81 1517.37 1871.98 1520.93 Q1870.18 1524.47 1870.18 1531.6 Q1870.18 1538.71 1871.98 1542.27 Q1873.81 1545.82 1877.42 1545.82 Q1881.06 1545.82 1882.86 1542.27 Q1884.69 1538.71 1884.69 1531.6 Q1884.69 1524.47 1882.86 1520.93 Q1881.06 1517.37 1877.42 1517.37 M1877.42 1513.66 Q1883.23 1513.66 1886.29 1518.27 Q1889.37 1522.85 1889.37 1531.6 Q1889.37 1540.33 1886.29 1544.94 Q1883.23 1549.52 1877.42 1549.52 Q1871.61 1549.52 1868.53 1544.94 Q1865.48 1540.33 1865.48 1531.6 Q1865.48 1522.85 1868.53 1518.27 Q1871.61 1513.66 1877.42 1513.66 Z" fill="#000000" fill-rule="nonzero" fill-opacity="1" /><path clip-path="url(#clip490)" d="M1908.16 1529.7 Q1905.01 1529.7 1903.16 1531.86 Q1901.33 1534.01 1901.33 1537.76 Q1901.33 1541.49 1903.16 1543.66 Q1905.01 1545.82 1908.16 1545.82 Q1911.31 1545.82 1913.14 1543.66 Q1914.99 1541.49 1914.99 1537.76 Q1914.99 1534.01 1913.14 1531.86 Q1911.31 1529.7 1908.16 1529.7 M1917.44 1515.05 L1917.44 1519.31 Q1915.69 1518.48 1913.88 1518.04 Q1912.1 1517.6 1910.34 1517.6 Q1905.71 1517.6 1903.26 1520.72 Q1900.82 1523.85 1900.48 1530.17 Q1901.84 1528.15 1903.9 1527.09 Q1905.96 1526 1908.44 1526 Q1913.65 1526 1916.66 1529.17 Q1919.69 1532.32 1919.69 1537.76 Q1919.69 1543.08 1916.54 1546.3 Q1913.39 1549.52 1908.16 1549.52 Q1902.17 1549.52 1899 1544.94 Q1895.82 1540.33 1895.82 1531.6 Q1895.82 1523.41 1899.71 1518.55 Q1903.6 1513.66 1910.15 1513.66 Q1911.91 1513.66 1913.69 1514.01 Q1915.5 1514.36 1917.44 1515.05 Z" fill="#000000" fill-rule="nonzero" fill-opacity="1" /><path clip-path="url(#clip490)" d="M1937.75 1517.37 Q1934.13 1517.37 1932.31 1520.93 Q1930.5 1524.47 1930.5 1531.6 Q1930.5 1538.71 1932.31 1542.27 Q1934.13 1545.82 1937.75 1545.82 Q1941.38 1545.82 1943.19 1542.27 Q1945.01 1538.71 1945.01 1531.6 Q1945.01 1524.47 1943.19 1520.93 Q1941.38 1517.37 1937.75 1517.37 M1937.75 1513.66 Q1943.56 1513.66 1946.61 1518.27 Q1949.69 1522.85 1949.69 1531.6 Q1949.69 1540.33 1946.61 1544.94 Q1943.56 1549.52 1937.75 1549.52 Q1931.94 1549.52 1928.86 1544.94 Q1925.8 1540.33 1925.8 1531.6 Q1925.8 1522.85 1928.86 1518.27 Q1931.94 1513.66 1937.75 1513.66 Z" fill="#000000" fill-rule="nonzero" fill-opacity="1" /><path clip-path="url(#clip490)" d="M2241.36 1544.91 L2257.68 1544.91 L2257.68 1548.85 L2235.73 1548.85 L2235.73 1544.91 Q2238.39 1542.16 2242.98 1537.53 Q2247.58 1532.88 2248.76 1531.53 Q2251.01 1529.01 2251.89 1527.27 Q2252.79 1525.51 2252.79 1523.82 Q2252.79 1521.07 2250.85 1519.33 Q2248.93 1517.6 2245.82 1517.6 Q2243.63 1517.6 2241.17 1518.36 Q2238.74 1519.13 2235.96 1520.68 L2235.96 1515.95 Q2238.79 1514.82 2241.24 1514.24 Q2243.69 1513.66 2245.73 1513.66 Q2251.1 1513.66 2254.3 1516.35 Q2257.49 1519.03 2257.49 1523.52 Q2257.49 1525.65 2256.68 1527.57 Q2255.89 1529.47 2253.79 1532.07 Q2253.21 1532.74 2250.11 1535.95 Q2247.01 1539.15 2241.36 1544.91 Z" fill="#000000" fill-rule="nonzero" fill-opacity="1" /><path clip-path="url(#clip490)" d="M2277.49 1517.37 Q2273.88 1517.37 2272.05 1520.93 Q2270.25 1524.47 2270.25 1531.6 Q2270.25 1538.71 2272.05 1542.27 Q2273.88 1545.82 2277.49 1545.82 Q2281.13 1545.82 2282.93 1542.27 Q2284.76 1538.71 2284.76 1531.6 Q2284.76 1524.47 2282.93 1520.93 Q2281.13 1517.37 2277.49 1517.37 M2277.49 1513.66 Q2283.3 1513.66 2286.36 1518.27 Q2289.44 1522.85 2289.44 1531.6 Q2289.44 1540.33 2286.36 1544.94 Q2283.3 1549.52 2277.49 1549.52 Q2271.68 1549.52 2268.6 1544.94 Q2265.55 1540.33 2265.55 1531.6 Q2265.55 1522.85 2268.6 1518.27 Q2271.68 1513.66 2277.49 1513.66 Z" fill="#000000" fill-rule="nonzero" fill-opacity="1" /><path clip-path="url(#clip490)" d="M2296.47 1514.29 L2318.69 1514.29 L2318.69 1516.28 L2306.15 1548.85 L2301.26 1548.85 L2313.07 1518.22 L2296.47 1518.22 L2296.47 1514.29 Z" fill="#000000" fill-rule="nonzero" fill-opacity="1" /><path clip-path="url(#clip490)" d="M2337.81 1517.37 Q2334.2 1517.37 2332.37 1520.93 Q2330.57 1524.47 2330.57 1531.6 Q2330.57 1538.71 2332.37 1542.27 Q2334.2 1545.82 2337.81 1545.82 Q2341.45 1545.82 2343.25 1542.27 Q2345.08 1538.71 2345.08 1531.6 Q2345.08 1524.47 2343.25 1520.93 Q2341.45 1517.37 2337.81 1517.37 M2337.81 1513.66 Q2343.62 1513.66 2346.68 1518.27 Q2349.76 1522.85 2349.76 1531.6 Q2349.76 1540.33 2346.68 1544.94 Q2343.62 1549.52 2337.81 1549.52 Q2332 1549.52 2328.93 1544.94 Q2325.87 1540.33 2325.87 1531.6 Q2325.87 1522.85 2328.93 1518.27 Q2332 1513.66 2337.81 1513.66 Z" fill="#000000" fill-rule="nonzero" fill-opacity="1" /><polyline clip-path="url(#clip490)" style="stroke:#000000; stroke-linecap:round; stroke-linejoin:round; stroke-width:4; stroke-opacity:1; fill:none" points="232.389,1486.45 232.389,123.472 "/>
<polyline clip-path="url(#clip490)" style="stroke:#000000; stroke-linecap:round; stroke-linejoin:round; stroke-width:4; stroke-opacity:1; fill:none" points="232.389,1486.45 251.287,1486.45 "/>
<polyline clip-path="url(#clip490)" style="stroke:#000000; stroke-linecap:round; stroke-linejoin:round; stroke-width:4; stroke-opacity:1; fill:none" points="232.389,1259.29 251.287,1259.29 "/>
<polyline clip-path="url(#clip490)" style="stroke:#000000; stroke-linecap:round; stroke-linejoin:round; stroke-width:4; stroke-opacity:1; fill:none" points="232.389,1032.12 251.287,1032.12 "/>
<polyline clip-path="url(#clip490)" style="stroke:#000000; stroke-linecap:round; stroke-linejoin:round; stroke-width:4; stroke-opacity:1; fill:none" points="232.389,804.96 251.287,804.96 "/>
<polyline clip-path="url(#clip490)" style="stroke:#000000; stroke-linecap:round; stroke-linejoin:round; stroke-width:4; stroke-opacity:1; fill:none" points="232.389,577.797 251.287,577.797 "/>
<polyline clip-path="url(#clip490)" style="stroke:#000000; stroke-linecap:round; stroke-linejoin:round; stroke-width:4; stroke-opacity:1; fill:none" points="232.389,350.635 251.287,350.635 "/>
<polyline clip-path="url(#clip490)" style="stroke:#000000; stroke-linecap:round; stroke-linejoin:round; stroke-width:4; stroke-opacity:1; fill:none" points="232.389,123.472 251.287,123.472 "/>
<path clip-path="url(#clip490)" d="M184.445 1472.25 Q180.834 1472.25 179.005 1475.81 Q177.2 1479.35 177.2 1486.48 Q177.2 1493.59 179.005 1497.15 Q180.834 1500.7 184.445 1500.7 Q188.079 1500.7 189.885 1497.15 Q191.713 1493.59 191.713 1486.48 Q191.713 1479.35 189.885 1475.81 Q188.079 1472.25 184.445 1472.25 M184.445 1468.54 Q190.255 1468.54 193.311 1473.15 Q196.389 1477.73 196.389 1486.48 Q196.389 1495.21 193.311 1499.82 Q190.255 1504.4 184.445 1504.4 Q178.635 1504.4 175.556 1499.82 Q172.501 1495.21 172.501 1486.48 Q172.501 1477.73 175.556 1473.15 Q178.635 1468.54 184.445 1468.54 Z" fill="#000000" fill-rule="nonzero" fill-opacity="1" /><path clip-path="url(#clip490)" d="M148.311 1272.63 L164.63 1272.63 L164.63 1276.57 L142.686 1276.57 L142.686 1272.63 Q145.348 1269.88 149.931 1265.25 Q154.538 1260.59 155.718 1259.25 Q157.964 1256.73 158.843 1254.99 Q159.746 1253.23 159.746 1251.54 Q159.746 1248.79 157.802 1247.05 Q155.88 1245.32 152.778 1245.32 Q150.579 1245.32 148.126 1246.08 Q145.695 1246.84 142.917 1248.39 L142.917 1243.67 Q145.741 1242.54 148.195 1241.96 Q150.649 1241.38 152.686 1241.38 Q158.056 1241.38 161.251 1244.07 Q164.445 1246.75 164.445 1251.24 Q164.445 1253.37 163.635 1255.29 Q162.848 1257.19 160.741 1259.78 Q160.163 1260.45 157.061 1263.67 Q153.959 1266.87 148.311 1272.63 Z" fill="#000000" fill-rule="nonzero" fill-opacity="1" /><path clip-path="url(#clip490)" d="M184.445 1245.08 Q180.834 1245.08 179.005 1248.65 Q177.2 1252.19 177.2 1259.32 Q177.2 1266.43 179.005 1269.99 Q180.834 1273.53 184.445 1273.53 Q188.079 1273.53 189.885 1269.99 Q191.713 1266.43 191.713 1259.32 Q191.713 1252.19 189.885 1248.65 Q188.079 1245.08 184.445 1245.08 M184.445 1241.38 Q190.255 1241.38 193.311 1245.99 Q196.389 1250.57 196.389 1259.32 Q196.389 1268.05 193.311 1272.65 Q190.255 1277.24 184.445 1277.24 Q178.635 1277.24 175.556 1272.65 Q172.501 1268.05 172.501 1259.32 Q172.501 1250.57 175.556 1245.99 Q178.635 1241.38 184.445 1241.38 Z" fill="#000000" fill-rule="nonzero" fill-opacity="1" /><path clip-path="url(#clip490)" d="M157.13 1018.92 L145.325 1037.37 L157.13 1037.37 L157.13 1018.92 M155.903 1014.84 L161.783 1014.84 L161.783 1037.37 L166.714 1037.37 L166.714 1041.25 L161.783 1041.25 L161.783 1049.4 L157.13 1049.4 L157.13 1041.25 L141.529 1041.25 L141.529 1036.74 L155.903 1014.84 Z" fill="#000000" fill-rule="nonzero" fill-opacity="1" /><path clip-path="url(#clip490)" d="M184.445 1017.92 Q180.834 1017.92 179.005 1021.49 Q177.2 1025.03 177.2 1032.16 Q177.2 1039.26 179.005 1042.83 Q180.834 1046.37 184.445 1046.37 Q188.079 1046.37 189.885 1042.83 Q191.713 1039.26 191.713 1032.16 Q191.713 1025.03 189.885 1021.49 Q188.079 1017.92 184.445 1017.92 M184.445 1014.22 Q190.255 1014.22 193.311 1018.82 Q196.389 1023.41 196.389 1032.16 Q196.389 1040.88 193.311 1045.49 Q190.255 1050.07 184.445 1050.07 Q178.635 1050.07 175.556 1045.49 Q172.501 1040.88 172.501 1032.16 Q172.501 1023.41 175.556 1018.82 Q178.635 1014.22 184.445 1014.22 Z" fill="#000000" fill-rule="nonzero" fill-opacity="1" /><path clip-path="url(#clip490)" d="M154.862 803.097 Q151.714 803.097 149.862 805.249 Q148.033 807.402 148.033 811.152 Q148.033 814.879 149.862 817.055 Q151.714 819.208 154.862 819.208 Q158.01 819.208 159.839 817.055 Q161.69 814.879 161.69 811.152 Q161.69 807.402 159.839 805.249 Q158.01 803.097 154.862 803.097 M164.144 788.444 L164.144 792.703 Q162.385 791.87 160.579 791.43 Q158.797 790.99 157.038 790.99 Q152.408 790.99 149.954 794.115 Q147.524 797.24 147.177 803.56 Q148.542 801.546 150.603 800.481 Q152.663 799.393 155.14 799.393 Q160.348 799.393 163.357 802.564 Q166.39 805.712 166.39 811.152 Q166.39 816.476 163.241 819.694 Q160.093 822.911 154.862 822.911 Q148.866 822.911 145.695 818.328 Q142.524 813.722 142.524 804.995 Q142.524 796.8 146.413 791.939 Q150.302 787.055 156.853 787.055 Q158.612 787.055 160.394 787.402 Q162.2 787.749 164.144 788.444 Z" fill="#000000" fill-rule="nonzero" fill-opacity="1" /><path clip-path="url(#clip490)" d="M184.445 790.759 Q180.834 790.759 179.005 794.323 Q177.2 797.865 177.2 804.995 Q177.2 812.101 179.005 815.666 Q180.834 819.208 184.445 819.208 Q188.079 819.208 189.885 815.666 Q191.713 812.101 191.713 804.995 Q191.713 797.865 189.885 794.323 Q188.079 790.759 184.445 790.759 M184.445 787.055 Q190.255 787.055 193.311 791.661 Q196.389 796.245 196.389 804.995 Q196.389 813.722 193.311 818.328 Q190.255 822.911 184.445 822.911 Q178.635 822.911 175.556 818.328 Q172.501 813.722 172.501 804.995 Q172.501 796.245 175.556 791.661 Q178.635 787.055 184.445 787.055 Z" fill="#000000" fill-rule="nonzero" fill-opacity="1" /><path clip-path="url(#clip490)" d="M154.283 578.665 Q150.95 578.665 149.028 580.448 Q147.13 582.23 147.13 585.355 Q147.13 588.48 149.028 590.263 Q150.95 592.045 154.283 592.045 Q157.616 592.045 159.538 590.263 Q161.459 588.457 161.459 585.355 Q161.459 582.23 159.538 580.448 Q157.64 578.665 154.283 578.665 M149.607 576.675 Q146.598 575.934 144.908 573.874 Q143.241 571.814 143.241 568.851 Q143.241 564.707 146.181 562.3 Q149.144 559.892 154.283 559.892 Q159.445 559.892 162.385 562.3 Q165.325 564.707 165.325 568.851 Q165.325 571.814 163.635 573.874 Q161.968 575.934 158.982 576.675 Q162.362 577.462 164.237 579.753 Q166.135 582.045 166.135 585.355 Q166.135 590.378 163.056 593.063 Q160.001 595.749 154.283 595.749 Q148.566 595.749 145.487 593.063 Q142.431 590.378 142.431 585.355 Q142.431 582.045 144.329 579.753 Q146.228 577.462 149.607 576.675 M147.894 569.29 Q147.894 571.976 149.561 573.48 Q151.251 574.985 154.283 574.985 Q157.292 574.985 158.982 573.48 Q160.695 571.976 160.695 569.29 Q160.695 566.605 158.982 565.101 Q157.292 563.596 154.283 563.596 Q151.251 563.596 149.561 565.101 Q147.894 566.605 147.894 569.29 Z" fill="#000000" fill-rule="nonzero" fill-opacity="1" /><path clip-path="url(#clip490)" d="M184.445 563.596 Q180.834 563.596 179.005 567.161 Q177.2 570.703 177.2 577.832 Q177.2 584.939 179.005 588.503 Q180.834 592.045 184.445 592.045 Q188.079 592.045 189.885 588.503 Q191.713 584.939 191.713 577.832 Q191.713 570.703 189.885 567.161 Q188.079 563.596 184.445 563.596 M184.445 559.892 Q190.255 559.892 193.311 564.499 Q196.389 569.082 196.389 577.832 Q196.389 586.559 193.311 591.165 Q190.255 595.749 184.445 595.749 Q178.635 595.749 175.556 591.165 Q172.501 586.559 172.501 577.832 Q172.501 569.082 175.556 564.499 Q178.635 559.892 184.445 559.892 Z" fill="#000000" fill-rule="nonzero" fill-opacity="1" /><path clip-path="url(#clip490)" d="M114.931 363.98 L122.57 363.98 L122.57 337.614 L114.26 339.281 L114.26 335.021 L122.524 333.355 L127.2 333.355 L127.2 363.98 L134.839 363.98 L134.839 367.915 L114.931 367.915 L114.931 363.98 Z" fill="#000000" fill-rule="nonzero" fill-opacity="1" /><path clip-path="url(#clip490)" d="M154.283 336.433 Q150.672 336.433 148.843 339.998 Q147.038 343.54 147.038 350.669 Q147.038 357.776 148.843 361.341 Q150.672 364.882 154.283 364.882 Q157.917 364.882 159.723 361.341 Q161.552 357.776 161.552 350.669 Q161.552 343.54 159.723 339.998 Q157.917 336.433 154.283 336.433 M154.283 332.73 Q160.093 332.73 163.149 337.336 Q166.227 341.92 166.227 350.669 Q166.227 359.396 163.149 364.003 Q160.093 368.586 154.283 368.586 Q148.473 368.586 145.394 364.003 Q142.339 359.396 142.339 350.669 Q142.339 341.92 145.394 337.336 Q148.473 332.73 154.283 332.73 Z" fill="#000000" fill-rule="nonzero" fill-opacity="1" /><path clip-path="url(#clip490)" d="M184.445 336.433 Q180.834 336.433 179.005 339.998 Q177.2 343.54 177.2 350.669 Q177.2 357.776 179.005 361.341 Q180.834 364.882 184.445 364.882 Q188.079 364.882 189.885 361.341 Q191.713 357.776 191.713 350.669 Q191.713 343.54 189.885 339.998 Q188.079 336.433 184.445 336.433 M184.445 332.73 Q190.255 332.73 193.311 337.336 Q196.389 341.92 196.389 350.669 Q196.389 359.396 193.311 364.003 Q190.255 368.586 184.445 368.586 Q178.635 368.586 175.556 364.003 Q172.501 359.396 172.501 350.669 Q172.501 341.92 175.556 337.336 Q178.635 332.73 184.445 332.73 Z" fill="#000000" fill-rule="nonzero" fill-opacity="1" /><path clip-path="url(#clip490)" d="M114.931 136.817 L122.57 136.817 L122.57 110.451 L114.26 112.118 L114.26 107.859 L122.524 106.192 L127.2 106.192 L127.2 136.817 L134.839 136.817 L134.839 140.752 L114.931 140.752 L114.931 136.817 Z" fill="#000000" fill-rule="nonzero" fill-opacity="1" /><path clip-path="url(#clip490)" d="M148.311 136.817 L164.63 136.817 L164.63 140.752 L142.686 140.752 L142.686 136.817 Q145.348 134.062 149.931 129.433 Q154.538 124.78 155.718 123.437 Q157.964 120.914 158.843 119.178 Q159.746 117.419 159.746 115.729 Q159.746 112.974 157.802 111.238 Q155.88 109.502 152.778 109.502 Q150.579 109.502 148.126 110.266 Q145.695 111.03 142.917 112.581 L142.917 107.859 Q145.741 106.725 148.195 106.146 Q150.649 105.567 152.686 105.567 Q158.056 105.567 161.251 108.252 Q164.445 110.937 164.445 115.428 Q164.445 117.558 163.635 119.479 Q162.848 121.377 160.741 123.97 Q160.163 124.641 157.061 127.859 Q153.959 131.053 148.311 136.817 Z" fill="#000000" fill-rule="nonzero" fill-opacity="1" /><path clip-path="url(#clip490)" d="M184.445 109.271 Q180.834 109.271 179.005 112.836 Q177.2 116.377 177.2 123.507 Q177.2 130.613 179.005 134.178 Q180.834 137.72 184.445 137.72 Q188.079 137.72 189.885 134.178 Q191.713 130.613 191.713 123.507 Q191.713 116.377 189.885 112.836 Q188.079 109.271 184.445 109.271 M184.445 105.567 Q190.255 105.567 193.311 110.174 Q196.389 114.757 196.389 123.507 Q196.389 132.234 193.311 136.84 Q190.255 141.423 184.445 141.423 Q178.635 141.423 175.556 136.84 Q172.501 132.234 172.501 123.507 Q172.501 114.757 175.556 110.174 Q178.635 105.567 184.445 105.567 Z" fill="#000000" fill-rule="nonzero" fill-opacity="1" /><path clip-path="url(#clip490)" d="M57.2247 911.172 L44.4614 911.172 L44.4614 921.675 L39.1779 921.675 L39.1779 904.806 L59.58 904.806 Q62.2218 908.53 63.5904 913.018 Q64.9272 917.506 64.9272 922.598 Q64.9272 933.738 58.4342 940.04 Q51.9093 946.311 40.2919 946.311 Q28.6427 946.311 22.1496 940.04 Q15.6248 933.738 15.6248 922.598 Q15.6248 917.951 16.7706 913.782 Q17.9164 909.58 20.1444 906.047 L26.9876 906.047 Q23.9639 909.612 22.4361 913.623 Q20.9083 917.633 20.9083 922.057 Q20.9083 930.778 25.7781 935.171 Q30.6479 939.531 40.2919 939.531 Q49.9041 939.531 54.7739 935.171 Q59.6436 930.778 59.6436 922.057 Q59.6436 918.652 59.0707 915.978 Q58.466 913.304 57.2247 911.172 Z" fill="#000000" fill-rule="nonzero" fill-opacity="1" /><path clip-path="url(#clip490)" d="M18.2347 887.523 L28.3562 887.523 L28.3562 875.46 L32.9077 875.46 L32.9077 887.523 L52.2594 887.523 Q56.6199 887.523 57.8613 886.346 Q59.1026 885.136 59.1026 881.476 L59.1026 875.46 L64.0042 875.46 L64.0042 881.476 Q64.0042 888.255 61.4897 890.833 Q58.9434 893.411 52.2594 893.411 L32.9077 893.411 L32.9077 897.708 L28.3562 897.708 L28.3562 893.411 L18.2347 893.411 L18.2347 887.523 Z" fill="#000000" fill-rule="nonzero" fill-opacity="1" /><path clip-path="url(#clip490)" d="M20.1444 831.919 L26.9239 831.919 Q23.9002 835.165 22.4043 838.857 Q20.9083 842.518 20.9083 846.655 Q20.9083 854.803 25.9054 859.132 Q30.8707 863.461 40.2919 863.461 Q49.6813 863.461 54.6784 859.132 Q59.6436 854.803 59.6436 846.655 Q59.6436 842.518 58.1477 838.857 Q56.6518 835.165 53.6281 831.919 L60.3439 831.919 Q62.6355 835.293 63.7814 839.08 Q64.9272 842.836 64.9272 847.037 Q64.9272 857.827 58.3387 864.034 Q51.7183 870.24 40.2919 870.24 Q28.8336 870.24 22.2451 864.034 Q15.6248 857.827 15.6248 847.037 Q15.6248 842.772 16.7706 839.017 Q17.8846 835.229 20.1444 831.919 Z" fill="#000000" fill-rule="nonzero" fill-opacity="1" /><path clip-path="url(#clip490)" d="M20.8447 802.7 Q20.8447 809.702 26.0645 813.84 Q31.2844 817.946 40.2919 817.946 Q49.2675 817.946 54.4874 813.84 Q59.7073 809.702 59.7073 802.7 Q59.7073 795.698 54.4874 791.624 Q49.2675 787.518 40.2919 787.518 Q31.2844 787.518 26.0645 791.624 Q20.8447 795.698 20.8447 802.7 M15.6248 802.7 Q15.6248 792.706 22.3406 786.722 Q29.0246 780.738 40.2919 780.738 Q51.5274 780.738 58.2432 786.722 Q64.9272 792.706 64.9272 802.7 Q64.9272 812.726 58.2432 818.742 Q51.5592 824.726 40.2919 824.726 Q29.0246 824.726 22.3406 818.742 Q15.6248 812.726 15.6248 802.7 Z" fill="#000000" fill-rule="nonzero" fill-opacity="1" /><path clip-path="url(#clip490)" d="M60.3757 768.548 L60.3757 755.053 L64.0042 755.053 L64.0042 774.086 L60.503 774.086 Q59.5163 773.004 57.7339 770.999 Q48.0262 760.05 45.0344 760.05 Q42.9337 760.05 41.6605 761.705 Q40.3556 763.36 40.3556 766.066 Q40.3556 767.721 40.9285 769.662 Q41.4696 771.604 42.5836 773.895 L38.6686 773.895 Q37.7774 771.445 37.3318 769.344 Q36.8862 767.211 36.8862 765.397 Q36.8862 760.782 38.9869 758.013 Q41.0876 755.244 44.5251 755.244 Q48.9493 755.244 57.9886 765.779 Q59.5163 767.561 60.3757 768.548 Z" fill="#000000" fill-rule="nonzero" fill-opacity="1" /><path clip-path="url(#clip490)" d="M16.4842 734.396 L16.4842 728.985 L70.0516 745.536 L70.0516 750.947 L16.4842 734.396 Z" fill="#000000" fill-rule="nonzero" fill-opacity="1" /><path clip-path="url(#clip490)" d="M67.3143 708.01 Q73.68 710.493 75.6216 712.848 Q77.5631 715.204 77.5631 719.15 L77.5631 723.829 L72.6615 723.829 L72.6615 720.392 Q72.6615 717.973 71.5157 716.636 Q70.3699 715.299 66.1048 713.676 L63.4312 712.625 L28.3562 727.044 L28.3562 720.837 L56.238 709.697 L28.3562 698.557 L28.3562 692.351 L67.3143 708.01 Z" fill="#000000" fill-rule="nonzero" fill-opacity="1" /><path clip-path="url(#clip490)" d="M33.8307 663.609 Q33.2578 664.596 33.0032 665.774 Q32.7167 666.92 32.7167 668.32 Q32.7167 673.285 35.9632 675.959 Q39.1779 678.601 45.2253 678.601 L64.0042 678.601 L64.0042 684.489 L28.3562 684.489 L28.3562 678.601 L33.8944 678.601 Q30.6479 676.755 29.0883 673.795 Q27.4968 670.835 27.4968 666.601 Q27.4968 665.997 27.5923 665.265 Q27.656 664.533 27.8151 663.641 L33.8307 663.609 Z" fill="#000000" fill-rule="nonzero" fill-opacity="1" /><path clip-path="url(#clip490)" d="M1048.79 16.7545 L1048.79 25.383 Q1044.66 21.5346 1039.96 19.6307 Q1035.3 17.7268 1030.03 17.7268 Q1019.66 17.7268 1014.15 24.0867 Q1008.64 30.4061 1008.64 42.3968 Q1008.64 54.3469 1014.15 60.7069 Q1019.66 67.0263 1030.03 67.0263 Q1035.3 67.0263 1039.96 65.1223 Q1044.66 63.2184 1048.79 59.3701 L1048.79 67.9175 Q1044.5 70.8341 1039.67 72.2924 Q1034.89 73.7508 1029.55 73.7508 Q1015.81 73.7508 1007.92 65.3654 Q1000.02 56.9395 1000.02 42.3968 Q1000.02 27.8135 1007.92 19.4281 Q1015.81 11.0023 1029.55 11.0023 Q1034.98 11.0023 1039.76 12.4606 Q1044.58 13.8784 1048.79 16.7545 Z" fill="#000000" fill-rule="nonzero" fill-opacity="1" /><path clip-path="url(#clip490)" d="M1085.98 17.6457 Q1077.06 17.6457 1071.8 24.2892 Q1066.57 30.9327 1066.57 42.3968 Q1066.57 53.8203 1071.8 60.4638 Q1077.06 67.1073 1085.98 67.1073 Q1094.89 67.1073 1100.07 60.4638 Q1105.3 53.8203 1105.3 42.3968 Q1105.3 30.9327 1100.07 24.2892 Q1094.89 17.6457 1085.98 17.6457 M1085.98 11.0023 Q1098.7 11.0023 1106.31 19.5497 Q1113.93 28.0566 1113.93 42.3968 Q1113.93 56.6965 1106.31 65.2439 Q1098.7 73.7508 1085.98 73.7508 Q1073.22 73.7508 1065.56 65.2439 Q1057.94 56.737 1057.94 42.3968 Q1057.94 28.0566 1065.56 19.5497 Q1073.22 11.0023 1085.98 11.0023 Z" fill="#000000" fill-rule="nonzero" fill-opacity="1" /><path clip-path="url(#clip490)" d="M1129.44 67.958 L1146.62 67.958 L1146.62 72.576 L1122.39 72.576 L1122.39 68.12 Q1123.77 66.8642 1126.32 64.5957 Q1140.26 52.2405 1140.26 48.4326 Q1140.26 45.759 1138.15 44.1387 Q1136.05 42.4778 1132.6 42.4778 Q1130.5 42.4778 1128.02 43.2069 Q1125.55 43.8956 1122.64 45.3134 L1122.64 40.3308 Q1125.76 39.1965 1128.43 38.6294 Q1131.14 38.0623 1133.45 38.0623 Q1139.33 38.0623 1142.85 40.7359 Q1146.38 43.4095 1146.38 47.7845 Q1146.38 53.4152 1132.97 64.9198 Q1130.7 66.8642 1129.44 67.958 Z" fill="#000000" fill-rule="nonzero" fill-opacity="1" /><path clip-path="url(#clip490)" d="M1224.84 48.0275 L1224.84 51.6733 L1190.57 51.6733 Q1191.06 59.3701 1195.19 63.421 Q1199.36 67.4314 1206.77 67.4314 Q1211.07 67.4314 1215.08 66.3781 Q1219.13 65.3249 1223.1 63.2184 L1223.1 70.267 Q1219.09 71.9684 1214.88 72.8596 Q1210.66 73.7508 1206.33 73.7508 Q1195.47 73.7508 1189.11 67.4314 Q1182.79 61.1119 1182.79 50.3365 Q1182.79 39.1965 1188.79 32.6746 Q1194.82 26.1121 1205.03 26.1121 Q1214.19 26.1121 1219.49 32.0264 Q1224.84 37.9003 1224.84 48.0275 M1217.39 45.84 Q1217.31 39.7232 1213.94 36.0774 Q1210.62 32.4315 1205.11 32.4315 Q1198.88 32.4315 1195.11 35.9558 Q1191.38 39.4801 1190.81 45.8805 L1217.39 45.84 Z" fill="#000000" fill-rule="nonzero" fill-opacity="1" /><path clip-path="url(#clip490)" d="M1272.4 35.9153 Q1275.19 30.8922 1279.08 28.5022 Q1282.97 26.1121 1288.24 26.1121 Q1295.33 26.1121 1299.18 31.0947 Q1303.02 36.0368 1303.02 45.1919 L1303.02 72.576 L1295.53 72.576 L1295.53 45.4349 Q1295.53 38.913 1293.22 35.7533 Q1290.91 32.5936 1286.17 32.5936 Q1280.38 32.5936 1277.02 36.4419 Q1273.65 40.2903 1273.65 46.9338 L1273.65 72.576 L1266.16 72.576 L1266.16 45.4349 Q1266.16 38.8725 1263.85 35.7533 Q1261.54 32.5936 1256.72 32.5936 Q1251.01 32.5936 1247.65 36.4824 Q1244.29 40.3308 1244.29 46.9338 L1244.29 72.576 L1236.79 72.576 L1236.79 27.2059 L1244.29 27.2059 L1244.29 34.2544 Q1246.84 30.082 1250.4 28.0971 Q1253.97 26.1121 1258.87 26.1121 Q1263.81 26.1121 1267.25 28.6237 Q1270.74 31.1352 1272.4 35.9153 Z" fill="#000000" fill-rule="nonzero" fill-opacity="1" /><path clip-path="url(#clip490)" d="M1317.89 27.2059 L1325.34 27.2059 L1325.34 72.576 L1317.89 72.576 L1317.89 27.2059 M1317.89 9.54393 L1325.34 9.54393 L1325.34 18.9825 L1317.89 18.9825 L1317.89 9.54393 Z" fill="#000000" fill-rule="nonzero" fill-opacity="1" /><path clip-path="url(#clip490)" d="M1369.86 28.5427 L1369.86 35.5912 Q1366.7 33.9709 1363.3 33.1607 Q1359.9 32.3505 1356.25 32.3505 Q1350.7 32.3505 1347.91 34.0519 Q1345.15 35.7533 1345.15 39.156 Q1345.15 41.7486 1347.14 43.2475 Q1349.12 44.7058 1355.12 46.0426 L1357.67 46.6097 Q1365.61 48.3111 1368.93 51.4303 Q1372.29 54.509 1372.29 60.0587 Q1372.29 66.3781 1367.27 70.0644 Q1362.29 73.7508 1353.54 73.7508 Q1349.89 73.7508 1345.92 73.0216 Q1341.99 72.3329 1337.62 70.9151 L1337.62 63.2184 Q1341.75 65.3654 1345.76 66.4591 Q1349.77 67.5124 1353.7 67.5124 Q1358.97 67.5124 1361.8 65.73 Q1364.64 63.9071 1364.64 60.6258 Q1364.64 57.5877 1362.57 55.9673 Q1360.55 54.3469 1353.62 52.8481 L1351.03 52.2405 Q1344.1 50.7821 1341.02 47.7845 Q1337.94 44.7463 1337.94 39.4801 Q1337.94 33.0797 1342.48 29.5959 Q1347.02 26.1121 1355.36 26.1121 Q1359.49 26.1121 1363.14 26.7198 Q1366.79 27.3274 1369.86 28.5427 Z" fill="#000000" fill-rule="nonzero" fill-opacity="1" /><path clip-path="url(#clip490)" d="M1413.09 28.5427 L1413.09 35.5912 Q1409.93 33.9709 1406.52 33.1607 Q1403.12 32.3505 1399.48 32.3505 Q1393.93 32.3505 1391.13 34.0519 Q1388.38 35.7533 1388.38 39.156 Q1388.38 41.7486 1390.36 43.2475 Q1392.35 44.7058 1398.34 46.0426 L1400.89 46.6097 Q1408.83 48.3111 1412.16 51.4303 Q1415.52 54.509 1415.52 60.0587 Q1415.52 66.3781 1410.49 70.0644 Q1405.51 73.7508 1396.76 73.7508 Q1393.12 73.7508 1389.15 73.0216 Q1385.22 72.3329 1380.84 70.9151 L1380.84 63.2184 Q1384.97 65.3654 1388.98 66.4591 Q1392.99 67.5124 1396.92 67.5124 Q1402.19 67.5124 1405.03 65.73 Q1407.86 63.9071 1407.86 60.6258 Q1407.86 57.5877 1405.8 55.9673 Q1403.77 54.3469 1396.84 52.8481 L1394.25 52.2405 Q1387.32 50.7821 1384.24 47.7845 Q1381.17 44.7463 1381.17 39.4801 Q1381.17 33.0797 1385.7 29.5959 Q1390.24 26.1121 1398.58 26.1121 Q1402.72 26.1121 1406.36 26.7198 Q1410.01 27.3274 1413.09 28.5427 Z" fill="#000000" fill-rule="nonzero" fill-opacity="1" /><path clip-path="url(#clip490)" d="M1427.39 27.2059 L1434.84 27.2059 L1434.84 72.576 L1427.39 72.576 L1427.39 27.2059 M1427.39 9.54393 L1434.84 9.54393 L1434.84 18.9825 L1427.39 18.9825 L1427.39 9.54393 Z" fill="#000000" fill-rule="nonzero" fill-opacity="1" /><path clip-path="url(#clip490)" d="M1468.02 32.4315 Q1462.02 32.4315 1458.54 37.1306 Q1455.05 41.7891 1455.05 49.9314 Q1455.05 58.0738 1458.5 62.7728 Q1461.98 67.4314 1468.02 67.4314 Q1473.97 67.4314 1477.46 62.7323 Q1480.94 58.0333 1480.94 49.9314 Q1480.94 41.8701 1477.46 37.1711 Q1473.97 32.4315 1468.02 32.4315 M1468.02 26.1121 Q1477.74 26.1121 1483.29 32.4315 Q1488.84 38.7509 1488.84 49.9314 Q1488.84 61.0714 1483.29 67.4314 Q1477.74 73.7508 1468.02 73.7508 Q1458.25 73.7508 1452.7 67.4314 Q1447.2 61.0714 1447.2 49.9314 Q1447.2 38.7509 1452.7 32.4315 Q1458.25 26.1121 1468.02 26.1121 Z" fill="#000000" fill-rule="nonzero" fill-opacity="1" /><path clip-path="url(#clip490)" d="M1538.91 45.1919 L1538.91 72.576 L1531.45 72.576 L1531.45 45.4349 Q1531.45 38.994 1528.94 35.7938 Q1526.43 32.5936 1521.41 32.5936 Q1515.37 32.5936 1511.89 36.4419 Q1508.4 40.2903 1508.4 46.9338 L1508.4 72.576 L1500.91 72.576 L1500.91 27.2059 L1508.4 27.2059 L1508.4 34.2544 Q1511.08 30.163 1514.68 28.1376 Q1518.33 26.1121 1523.07 26.1121 Q1530.89 26.1121 1534.9 30.9732 Q1538.91 35.7938 1538.91 45.1919 Z" fill="#000000" fill-rule="nonzero" fill-opacity="1" /><path clip-path="url(#clip490)" d="M1582.7 28.5427 L1582.7 35.5912 Q1579.54 33.9709 1576.14 33.1607 Q1572.73 32.3505 1569.09 32.3505 Q1563.54 32.3505 1560.74 34.0519 Q1557.99 35.7533 1557.99 39.156 Q1557.99 41.7486 1559.97 43.2475 Q1561.96 44.7058 1567.95 46.0426 L1570.51 46.6097 Q1578.44 48.3111 1581.77 51.4303 Q1585.13 54.509 1585.13 60.0587 Q1585.13 66.3781 1580.11 70.0644 Q1575.12 73.7508 1566.37 73.7508 Q1562.73 73.7508 1558.76 73.0216 Q1554.83 72.3329 1550.45 70.9151 L1550.45 63.2184 Q1554.59 65.3654 1558.6 66.4591 Q1562.61 67.5124 1566.54 67.5124 Q1571.8 67.5124 1574.64 65.73 Q1577.47 63.9071 1577.47 60.6258 Q1577.47 57.5877 1575.41 55.9673 Q1573.38 54.3469 1566.45 52.8481 L1563.86 52.2405 Q1556.93 50.7821 1553.86 47.7845 Q1550.78 44.7463 1550.78 39.4801 Q1550.78 33.0797 1555.31 29.5959 Q1559.85 26.1121 1568.2 26.1121 Q1572.33 26.1121 1575.97 26.7198 Q1579.62 27.3274 1582.7 28.5427 Z" fill="#000000" fill-rule="nonzero" fill-opacity="1" /><polyline clip-path="url(#clip492)" style="stroke:#cd0000; stroke-linecap:round; stroke-linejoin:round; stroke-width:8; stroke-opacity:1; fill:none" points="292.4,998.716 492.434,999.067 692.469,1053.17 892.503,1051.94 1092.54,1052.43 1292.57,1056.77 1492.61,1065.56 1692.64,1070.63 1892.68,1078.82 2092.71,1090.47 2292.75,1105.93 "/>
<polyline clip-path="url(#clip492)" style="stroke:#000080; stroke-linecap:round; stroke-linejoin:round; stroke-width:12; stroke-opacity:1; fill:none" points="292.4,900.695 492.434,874.713 692.469,929.635 892.503,953.176 1092.54,956.678 1292.57,967.363 1492.61,985.589 1692.64,998.516 1892.68,1016.43 2092.71,1039.72 2292.75,1068.86 "/>
<polyline clip-path="url(#clip492)" style="stroke:#191970; stroke-linecap:round; stroke-linejoin:round; stroke-width:12; stroke-opacity:1; fill:none" stroke-dasharray="48, 30" points="292.4,780.016 492.434,713.185 692.469,766.239 892.503,832.484 1092.54,850.955 1292.57,874.352 1492.61,909.77 1692.64,937.132 1892.68,972.143 2092.71,1015.32 2292.75,1067.3 "/>
<polyline clip-path="url(#clip492)" style="stroke:#4b0082; stroke-linecap:round; stroke-linejoin:round; stroke-width:12; stroke-opacity:1; fill:none" stroke-dasharray="6, 12" points="292.4,696.876 492.434,597.147 692.469,647.259 892.503,719.272 1092.54,787.621 1292.57,822.987 1492.61,873.762 1692.64,913.969 1892.68,963.838 2092.71,1024.01 2292.75,1095.3 "/>
<polyline clip-path="url(#clip492)" style="stroke:#0000cd; stroke-linecap:round; stroke-linejoin:round; stroke-width:4; stroke-opacity:1; fill:none" points="292.4,609.478 492.434,451.639 692.469,472.793 892.503,549.961 1092.54,669.313 1292.57,806.816 1492.61,941.595 1692.64,1066.87 1892.68,1094.81 2092.71,1098.36 2292.75,1090.51 "/>
<polyline clip-path="url(#clip492)" style="stroke:#436eee; stroke-linecap:round; stroke-linejoin:round; stroke-width:4; stroke-opacity:1; fill:none" stroke-dasharray="2, 4" points="292.4,529.086 492.434,352.67 692.469,393.126 892.503,476.07 1092.54,602.92 1292.57,759.108 1492.61,850.666 1692.64,924.966 1892.68,1013.72 2092.71,1118.12 2292.75,1239.76 "/>
<path clip-path="url(#clip490)" d="M1718.56 531.785 L2282.08 531.785 L2282.08 168.905 L1718.56 168.905  Z" fill="#ffffff" fill-rule="evenodd" fill-opacity="1"/>
<polyline clip-path="url(#clip490)" style="stroke:#000000; stroke-linecap:round; stroke-linejoin:round; stroke-width:4; stroke-opacity:1; fill:none" points="1718.56,531.785 2282.08,531.785 2282.08,168.905 1718.56,168.905 1718.56,531.785 "/>
<polyline clip-path="url(#clip490)" style="stroke:#cd0000; stroke-linecap:round; stroke-linejoin:round; stroke-width:8; stroke-opacity:1; fill:none" points="1742.12,220.745 1883.48,220.745 "/>
<path clip-path="url(#clip490)" d="M1907.71 234.089 L1915.35 234.089 L1915.35 207.724 L1907.04 209.391 L1907.04 205.131 L1915.3 203.465 L1919.98 203.465 L1919.98 234.089 L1927.62 234.089 L1927.62 238.025 L1907.71 238.025 L1907.71 234.089 Z" fill="#000000" fill-rule="nonzero" fill-opacity="1" /><path clip-path="url(#clip490)" d="M1966.55 216.08 Q1965.83 215.664 1964.98 215.478 Q1964.14 215.27 1963.13 215.27 Q1959.51 215.27 1957.57 217.631 Q1955.65 219.969 1955.65 224.367 L1955.65 238.025 L1951.37 238.025 L1951.37 212.099 L1955.65 212.099 L1955.65 216.127 Q1956.99 213.766 1959.14 212.631 Q1961.3 211.474 1964.38 211.474 Q1964.82 211.474 1965.35 211.543 Q1965.88 211.59 1966.53 211.705 L1966.55 216.08 Z" fill="#000000" fill-rule="nonzero" fill-opacity="1" /><path clip-path="url(#clip490)" d="M1992.15 223.997 L1992.15 226.08 L1972.57 226.08 Q1972.85 230.478 1975.21 232.793 Q1977.59 235.085 1981.83 235.085 Q1984.28 235.085 1986.57 234.483 Q1988.89 233.881 1991.16 232.677 L1991.16 236.705 Q1988.87 237.677 1986.46 238.187 Q1984.05 238.696 1981.57 238.696 Q1975.37 238.696 1971.74 235.085 Q1968.13 231.474 1968.13 225.316 Q1968.13 218.951 1971.55 215.224 Q1975 211.474 1980.83 211.474 Q1986.07 211.474 1989.1 214.853 Q1992.15 218.21 1992.15 223.997 M1987.89 222.747 Q1987.85 219.252 1985.93 217.168 Q1984.03 215.085 1980.88 215.085 Q1977.32 215.085 1975.16 217.099 Q1973.03 219.113 1972.71 222.77 L1987.89 222.747 Z" fill="#000000" fill-rule="nonzero" fill-opacity="1" /><path clip-path="url(#clip490)" d="M2016.2 224.761 Q2016.2 220.131 2014.28 217.585 Q2012.38 215.039 2008.94 215.039 Q2005.51 215.039 2003.59 217.585 Q2001.69 220.131 2001.69 224.761 Q2001.69 229.367 2003.59 231.914 Q2005.51 234.46 2008.94 234.46 Q2012.38 234.46 2014.28 231.914 Q2016.2 229.367 2016.2 224.761 M2020.46 234.807 Q2020.46 241.427 2017.52 244.645 Q2014.58 247.886 2008.52 247.886 Q2006.27 247.886 2004.28 247.538 Q2002.29 247.214 2000.42 246.52 L2000.42 242.376 Q2002.29 243.395 2004.12 243.881 Q2005.95 244.367 2007.85 244.367 Q2012.04 244.367 2014.12 242.168 Q2016.2 239.992 2016.2 235.571 L2016.2 233.464 Q2014.88 235.756 2012.82 236.89 Q2010.76 238.025 2007.89 238.025 Q2003.13 238.025 2000.21 234.39 Q1997.29 230.756 1997.29 224.761 Q1997.29 218.742 2000.21 215.108 Q2003.13 211.474 2007.89 211.474 Q2010.76 211.474 2012.82 212.608 Q2014.88 213.742 2016.2 216.034 L2016.2 212.099 L2020.46 212.099 L2020.46 234.807 Z" fill="#000000" fill-rule="nonzero" fill-opacity="1" /><path clip-path="url(#clip490)" d="M2029.24 212.099 L2033.5 212.099 L2033.5 238.025 L2029.24 238.025 L2029.24 212.099 M2029.24 202.006 L2033.5 202.006 L2033.5 207.4 L2029.24 207.4 L2029.24 202.006 Z" fill="#000000" fill-rule="nonzero" fill-opacity="1" /><path clip-path="url(#clip490)" d="M2052.45 215.085 Q2049.03 215.085 2047.04 217.77 Q2045.05 220.432 2045.05 225.085 Q2045.05 229.738 2047.01 232.423 Q2049 235.085 2052.45 235.085 Q2055.86 235.085 2057.85 232.4 Q2059.84 229.715 2059.84 225.085 Q2059.84 220.478 2057.85 217.793 Q2055.86 215.085 2052.45 215.085 M2052.45 211.474 Q2058.01 211.474 2061.18 215.085 Q2064.35 218.696 2064.35 225.085 Q2064.35 231.451 2061.18 235.085 Q2058.01 238.696 2052.45 238.696 Q2046.88 238.696 2043.7 235.085 Q2040.56 231.451 2040.56 225.085 Q2040.56 218.696 2043.7 215.085 Q2046.88 211.474 2052.45 211.474 Z" fill="#000000" fill-rule="nonzero" fill-opacity="1" /><path clip-path="url(#clip490)" d="M2092.96 222.377 L2092.96 238.025 L2088.7 238.025 L2088.7 222.515 Q2088.7 218.835 2087.27 217.006 Q2085.83 215.178 2082.96 215.178 Q2079.51 215.178 2077.52 217.377 Q2075.53 219.576 2075.53 223.372 L2075.53 238.025 L2071.25 238.025 L2071.25 212.099 L2075.53 212.099 L2075.53 216.127 Q2077.06 213.789 2079.12 212.631 Q2081.2 211.474 2083.91 211.474 Q2088.38 211.474 2090.67 214.252 Q2092.96 217.006 2092.96 222.377 Z" fill="#000000" fill-rule="nonzero" fill-opacity="1" /><path clip-path="url(#clip490)" d="M2126.76 202.053 Q2123.66 207.377 2122.15 212.585 Q2120.65 217.793 2120.65 223.14 Q2120.65 228.488 2122.15 233.742 Q2123.68 238.974 2126.76 244.275 L2123.06 244.275 Q2119.58 238.835 2117.85 233.58 Q2116.13 228.326 2116.13 223.14 Q2116.13 217.978 2117.85 212.747 Q2119.56 207.516 2123.06 202.053 L2126.76 202.053 Z" fill="#000000" fill-rule="nonzero" fill-opacity="1" /><path clip-path="url(#clip490)" d="M2139.88 207.307 L2139.88 234.182 L2145.53 234.182 Q2152.68 234.182 2155.99 230.941 Q2159.33 227.701 2159.33 220.71 Q2159.33 213.766 2155.99 210.548 Q2152.68 207.307 2145.53 207.307 L2139.88 207.307 M2135.21 203.465 L2144.81 203.465 Q2154.86 203.465 2159.56 207.654 Q2164.26 211.821 2164.26 220.71 Q2164.26 229.645 2159.54 233.835 Q2154.81 238.025 2144.81 238.025 L2135.21 238.025 L2135.21 203.465 Z" fill="#000000" fill-rule="nonzero" fill-opacity="1" /><path clip-path="url(#clip490)" d="M2171.71 203.465 L2176.39 203.465 L2176.39 238.025 L2171.71 238.025 L2171.71 203.465 Z" fill="#000000" fill-rule="nonzero" fill-opacity="1" /><path clip-path="url(#clip490)" d="M2211.57 206.127 L2211.57 211.057 Q2209.21 208.858 2206.53 207.77 Q2203.86 206.682 2200.86 206.682 Q2194.93 206.682 2191.78 210.316 Q2188.63 213.928 2188.63 220.779 Q2188.63 227.608 2191.78 231.242 Q2194.93 234.853 2200.86 234.853 Q2203.86 234.853 2206.53 233.765 Q2209.21 232.677 2211.57 230.478 L2211.57 235.363 Q2209.12 237.029 2206.36 237.863 Q2203.63 238.696 2200.58 238.696 Q2192.73 238.696 2188.22 233.904 Q2183.7 229.09 2183.7 220.779 Q2183.7 212.446 2188.22 207.654 Q2192.73 202.84 2200.58 202.84 Q2203.68 202.84 2206.41 203.673 Q2209.17 204.483 2211.57 206.127 Z" fill="#000000" fill-rule="nonzero" fill-opacity="1" /><path clip-path="url(#clip490)" d="M2218.8 203.465 L2240.65 203.465 L2240.65 207.4 L2223.47 207.4 L2223.47 217.631 L2239.93 217.631 L2239.93 221.566 L2223.47 221.566 L2223.47 234.089 L2241.06 234.089 L2241.06 238.025 L2218.8 238.025 L2218.8 203.465 Z" fill="#000000" fill-rule="nonzero" fill-opacity="1" /><path clip-path="url(#clip490)" d="M2247.89 202.053 L2251.6 202.053 Q2255.07 207.516 2256.78 212.747 Q2258.52 217.978 2258.52 223.14 Q2258.52 228.326 2256.78 233.58 Q2255.07 238.835 2251.6 244.275 L2247.89 244.275 Q2250.97 238.974 2252.48 233.742 Q2254 228.488 2254 223.14 Q2254 217.793 2252.48 212.585 Q2250.97 207.377 2247.89 202.053 Z" fill="#000000" fill-rule="nonzero" fill-opacity="1" /><polyline clip-path="url(#clip490)" style="stroke:#000080; stroke-linecap:round; stroke-linejoin:round; stroke-width:12; stroke-opacity:1; fill:none" points="1742.12,272.585 1883.48,272.585 "/>
<path clip-path="url(#clip490)" d="M1912.66 285.929 L1928.98 285.929 L1928.98 289.865 L1907.04 289.865 L1907.04 285.929 Q1909.7 283.175 1914.28 278.545 Q1918.89 273.893 1920.07 272.55 Q1922.32 270.027 1923.2 268.291 Q1924.1 266.531 1924.1 264.842 Q1924.1 262.087 1922.15 260.351 Q1920.23 258.615 1917.13 258.615 Q1914.93 258.615 1912.48 259.379 Q1910.05 260.143 1907.27 261.694 L1907.27 256.971 Q1910.09 255.837 1912.55 255.258 Q1915 254.68 1917.04 254.68 Q1922.41 254.68 1925.6 257.365 Q1928.8 260.05 1928.8 264.541 Q1928.8 266.67 1927.99 268.592 Q1927.2 270.49 1925.09 273.082 Q1924.51 273.754 1921.41 276.971 Q1918.31 280.166 1912.66 285.929 Z" fill="#000000" fill-rule="nonzero" fill-opacity="1" /><path clip-path="url(#clip490)" d="M1968.29 267.92 Q1967.57 267.504 1966.71 267.318 Q1965.88 267.11 1964.86 267.11 Q1961.25 267.11 1959.31 269.471 Q1957.38 271.809 1957.38 276.207 L1957.38 289.865 L1953.1 289.865 L1953.1 263.939 L1957.38 263.939 L1957.38 267.967 Q1958.73 265.606 1960.88 264.471 Q1963.03 263.314 1966.11 263.314 Q1966.55 263.314 1967.08 263.383 Q1967.62 263.43 1968.26 263.545 L1968.29 267.92 Z" fill="#000000" fill-rule="nonzero" fill-opacity="1" /><path clip-path="url(#clip490)" d="M1993.89 275.837 L1993.89 277.92 L1974.31 277.92 Q1974.58 282.318 1976.94 284.633 Q1979.33 286.925 1983.57 286.925 Q1986.02 286.925 1988.31 286.323 Q1990.63 285.721 1992.89 284.517 L1992.89 288.545 Q1990.6 289.517 1988.19 290.027 Q1985.79 290.536 1983.31 290.536 Q1977.11 290.536 1973.47 286.925 Q1969.86 283.314 1969.86 277.156 Q1969.86 270.791 1973.29 267.064 Q1976.74 263.314 1982.57 263.314 Q1987.8 263.314 1990.83 266.693 Q1993.89 270.05 1993.89 275.837 M1989.63 274.587 Q1989.58 271.092 1987.66 269.008 Q1985.76 266.925 1982.62 266.925 Q1979.05 266.925 1976.9 268.939 Q1974.77 270.953 1974.44 274.61 L1989.63 274.587 Z" fill="#000000" fill-rule="nonzero" fill-opacity="1" /><path clip-path="url(#clip490)" d="M2017.94 276.601 Q2017.94 271.971 2016.02 269.425 Q2014.12 266.879 2010.67 266.879 Q2007.25 266.879 2005.32 269.425 Q2003.43 271.971 2003.43 276.601 Q2003.43 281.207 2005.32 283.754 Q2007.25 286.3 2010.67 286.3 Q2014.12 286.3 2016.02 283.754 Q2017.94 281.207 2017.94 276.601 M2022.2 286.647 Q2022.2 293.267 2019.26 296.485 Q2016.32 299.726 2010.25 299.726 Q2008.01 299.726 2006.02 299.378 Q2004.03 299.054 2002.15 298.36 L2002.15 294.216 Q2004.03 295.235 2005.86 295.721 Q2007.69 296.207 2009.58 296.207 Q2013.77 296.207 2015.86 294.008 Q2017.94 291.832 2017.94 287.411 L2017.94 285.304 Q2016.62 287.596 2014.56 288.73 Q2012.5 289.865 2009.63 289.865 Q2004.86 289.865 2001.94 286.23 Q1999.03 282.596 1999.03 276.601 Q1999.03 270.582 2001.94 266.948 Q2004.86 263.314 2009.63 263.314 Q2012.5 263.314 2014.56 264.448 Q2016.62 265.582 2017.94 267.874 L2017.94 263.939 L2022.2 263.939 L2022.2 286.647 Z" fill="#000000" fill-rule="nonzero" fill-opacity="1" /><path clip-path="url(#clip490)" d="M2030.97 263.939 L2035.23 263.939 L2035.23 289.865 L2030.97 289.865 L2030.97 263.939 M2030.97 253.846 L2035.23 253.846 L2035.23 259.24 L2030.97 259.24 L2030.97 253.846 Z" fill="#000000" fill-rule="nonzero" fill-opacity="1" /><path clip-path="url(#clip490)" d="M2054.19 266.925 Q2050.76 266.925 2048.77 269.61 Q2046.78 272.272 2046.78 276.925 Q2046.78 281.578 2048.75 284.263 Q2050.74 286.925 2054.19 286.925 Q2057.59 286.925 2059.58 284.24 Q2061.57 281.555 2061.57 276.925 Q2061.57 272.318 2059.58 269.633 Q2057.59 266.925 2054.19 266.925 M2054.19 263.314 Q2059.75 263.314 2062.92 266.925 Q2066.09 270.536 2066.09 276.925 Q2066.09 283.291 2062.92 286.925 Q2059.75 290.536 2054.19 290.536 Q2048.61 290.536 2045.44 286.925 Q2042.29 283.291 2042.29 276.925 Q2042.29 270.536 2045.44 266.925 Q2048.61 263.314 2054.19 263.314 Z" fill="#000000" fill-rule="nonzero" fill-opacity="1" /><path clip-path="url(#clip490)" d="M2094.7 274.217 L2094.7 289.865 L2090.44 289.865 L2090.44 274.355 Q2090.44 270.675 2089 268.846 Q2087.57 267.018 2084.7 267.018 Q2081.25 267.018 2079.26 269.217 Q2077.27 271.416 2077.27 275.212 L2077.27 289.865 L2072.99 289.865 L2072.99 263.939 L2077.27 263.939 L2077.27 267.967 Q2078.8 265.629 2080.86 264.471 Q2082.94 263.314 2085.65 263.314 Q2090.12 263.314 2092.41 266.092 Q2094.7 268.846 2094.7 274.217 Z" fill="#000000" fill-rule="nonzero" fill-opacity="1" /><path clip-path="url(#clip490)" d="M2119.72 264.703 L2119.72 268.731 Q2117.92 267.805 2115.97 267.342 Q2114.03 266.879 2111.94 266.879 Q2108.77 266.879 2107.18 267.851 Q2105.6 268.823 2105.6 270.768 Q2105.6 272.249 2106.74 273.105 Q2107.87 273.939 2111.3 274.703 L2112.75 275.027 Q2117.29 275.999 2119.19 277.781 Q2121.11 279.541 2121.11 282.712 Q2121.11 286.323 2118.24 288.429 Q2115.39 290.536 2110.39 290.536 Q2108.31 290.536 2106.04 290.119 Q2103.8 289.726 2101.3 288.916 L2101.3 284.517 Q2103.66 285.744 2105.95 286.369 Q2108.24 286.971 2110.49 286.971 Q2113.5 286.971 2115.12 285.953 Q2116.74 284.911 2116.74 283.036 Q2116.74 281.3 2115.56 280.374 Q2114.4 279.448 2110.44 278.592 L2108.96 278.244 Q2105 277.411 2103.24 275.698 Q2101.48 273.962 2101.48 270.953 Q2101.48 267.295 2104.07 265.305 Q2106.67 263.314 2111.43 263.314 Q2113.8 263.314 2115.88 263.661 Q2117.96 264.008 2119.72 264.703 Z" fill="#000000" fill-rule="nonzero" fill-opacity="1" /><polyline clip-path="url(#clip490)" style="stroke:#191970; stroke-linecap:round; stroke-linejoin:round; stroke-width:12; stroke-opacity:1; fill:none" stroke-dasharray="48, 30" points="1742.12,324.425 1883.48,324.425 "/>
<path clip-path="url(#clip490)" d="M1922.64 311.219 L1910.83 329.668 L1922.64 329.668 L1922.64 311.219 M1921.41 307.145 L1927.29 307.145 L1927.29 329.668 L1932.22 329.668 L1932.22 333.557 L1927.29 333.557 L1927.29 341.705 L1922.64 341.705 L1922.64 333.557 L1907.04 333.557 L1907.04 329.043 L1921.41 307.145 Z" fill="#000000" fill-rule="nonzero" fill-opacity="1" /><path clip-path="url(#clip490)" d="M1969.44 319.76 Q1968.73 319.344 1967.87 319.158 Q1967.04 318.95 1966.02 318.95 Q1962.41 318.95 1960.46 321.311 Q1958.54 323.649 1958.54 328.047 L1958.54 341.705 L1954.26 341.705 L1954.26 315.779 L1958.54 315.779 L1958.54 319.807 Q1959.88 317.446 1962.04 316.311 Q1964.19 315.154 1967.27 315.154 Q1967.71 315.154 1968.24 315.223 Q1968.77 315.27 1969.42 315.385 L1969.44 319.76 Z" fill="#000000" fill-rule="nonzero" fill-opacity="1" /><path clip-path="url(#clip490)" d="M1995.05 327.677 L1995.05 329.76 L1975.46 329.76 Q1975.74 334.158 1978.1 336.473 Q1980.49 338.765 1984.72 338.765 Q1987.18 338.765 1989.47 338.163 Q1991.78 337.561 1994.05 336.357 L1994.05 340.385 Q1991.76 341.357 1989.35 341.867 Q1986.94 342.376 1984.47 342.376 Q1978.26 342.376 1974.63 338.765 Q1971.02 335.154 1971.02 328.996 Q1971.02 322.631 1974.44 318.904 Q1977.89 315.154 1983.73 315.154 Q1988.96 315.154 1991.99 318.533 Q1995.05 321.89 1995.05 327.677 M1990.79 326.427 Q1990.74 322.932 1988.82 320.848 Q1986.92 318.765 1983.77 318.765 Q1980.21 318.765 1978.06 320.779 Q1975.93 322.793 1975.6 326.45 L1990.79 326.427 Z" fill="#000000" fill-rule="nonzero" fill-opacity="1" /><path clip-path="url(#clip490)" d="M2019.1 328.441 Q2019.1 323.811 2017.18 321.265 Q2015.28 318.719 2011.83 318.719 Q2008.4 318.719 2006.48 321.265 Q2004.58 323.811 2004.58 328.441 Q2004.58 333.047 2006.48 335.594 Q2008.4 338.14 2011.83 338.14 Q2015.28 338.14 2017.18 335.594 Q2019.1 333.047 2019.1 328.441 M2023.36 338.487 Q2023.36 345.107 2020.42 348.325 Q2017.48 351.566 2011.41 351.566 Q2009.17 351.566 2007.18 351.218 Q2005.19 350.894 2003.31 350.2 L2003.31 346.056 Q2005.19 347.075 2007.01 347.561 Q2008.84 348.047 2010.74 348.047 Q2014.93 348.047 2017.01 345.848 Q2019.1 343.672 2019.1 339.251 L2019.1 337.144 Q2017.78 339.436 2015.72 340.57 Q2013.66 341.705 2010.79 341.705 Q2006.02 341.705 2003.1 338.07 Q2000.19 334.436 2000.19 328.441 Q2000.19 322.422 2003.1 318.788 Q2006.02 315.154 2010.79 315.154 Q2013.66 315.154 2015.72 316.288 Q2017.78 317.422 2019.1 319.714 L2019.1 315.779 L2023.36 315.779 L2023.36 338.487 Z" fill="#000000" fill-rule="nonzero" fill-opacity="1" /><path clip-path="url(#clip490)" d="M2032.13 315.779 L2036.39 315.779 L2036.39 341.705 L2032.13 341.705 L2032.13 315.779 M2032.13 305.686 L2036.39 305.686 L2036.39 311.08 L2032.13 311.08 L2032.13 305.686 Z" fill="#000000" fill-rule="nonzero" fill-opacity="1" /><path clip-path="url(#clip490)" d="M2055.35 318.765 Q2051.92 318.765 2049.93 321.45 Q2047.94 324.112 2047.94 328.765 Q2047.94 333.418 2049.91 336.103 Q2051.9 338.765 2055.35 338.765 Q2058.75 338.765 2060.74 336.08 Q2062.73 333.395 2062.73 328.765 Q2062.73 324.158 2060.74 321.473 Q2058.75 318.765 2055.35 318.765 M2055.35 315.154 Q2060.9 315.154 2064.07 318.765 Q2067.25 322.376 2067.25 328.765 Q2067.25 335.131 2064.07 338.765 Q2060.9 342.376 2055.35 342.376 Q2049.77 342.376 2046.6 338.765 Q2043.45 335.131 2043.45 328.765 Q2043.45 322.376 2046.6 318.765 Q2049.77 315.154 2055.35 315.154 Z" fill="#000000" fill-rule="nonzero" fill-opacity="1" /><path clip-path="url(#clip490)" d="M2095.86 326.057 L2095.86 341.705 L2091.6 341.705 L2091.6 326.195 Q2091.6 322.515 2090.16 320.686 Q2088.73 318.858 2085.86 318.858 Q2082.41 318.858 2080.42 321.057 Q2078.43 323.256 2078.43 327.052 L2078.43 341.705 L2074.14 341.705 L2074.14 315.779 L2078.43 315.779 L2078.43 319.807 Q2079.95 317.469 2082.01 316.311 Q2084.1 315.154 2086.81 315.154 Q2091.27 315.154 2093.56 317.932 Q2095.86 320.686 2095.86 326.057 Z" fill="#000000" fill-rule="nonzero" fill-opacity="1" /><path clip-path="url(#clip490)" d="M2120.88 316.543 L2120.88 320.571 Q2119.07 319.645 2117.13 319.182 Q2115.18 318.719 2113.1 318.719 Q2109.93 318.719 2108.33 319.691 Q2106.76 320.663 2106.76 322.608 Q2106.76 324.089 2107.89 324.945 Q2109.03 325.779 2112.45 326.543 L2113.91 326.867 Q2118.45 327.839 2120.35 329.621 Q2122.27 331.381 2122.27 334.552 Q2122.27 338.163 2119.4 340.269 Q2116.55 342.376 2111.55 342.376 Q2109.47 342.376 2107.2 341.959 Q2104.95 341.566 2102.45 340.756 L2102.45 336.357 Q2104.81 337.584 2107.11 338.209 Q2109.4 338.811 2111.64 338.811 Q2114.65 338.811 2116.27 337.793 Q2117.89 336.751 2117.89 334.876 Q2117.89 333.14 2116.71 332.214 Q2115.56 331.288 2111.6 330.432 L2110.12 330.084 Q2106.16 329.251 2104.4 327.538 Q2102.64 325.802 2102.64 322.793 Q2102.64 319.135 2105.23 317.145 Q2107.82 315.154 2112.59 315.154 Q2114.95 315.154 2117.04 315.501 Q2119.12 315.848 2120.88 316.543 Z" fill="#000000" fill-rule="nonzero" fill-opacity="1" /><polyline clip-path="url(#clip490)" style="stroke:#4b0082; stroke-linecap:round; stroke-linejoin:round; stroke-width:12; stroke-opacity:1; fill:none" stroke-dasharray="6, 12" points="1742.12,376.265 1883.48,376.265 "/>
<path clip-path="url(#clip490)" d="M1919.38 374.401 Q1916.23 374.401 1914.38 376.554 Q1912.55 378.707 1912.55 382.457 Q1912.55 386.184 1914.38 388.359 Q1916.23 390.512 1919.38 390.512 Q1922.52 390.512 1924.35 388.359 Q1926.2 386.184 1926.2 382.457 Q1926.2 378.707 1924.35 376.554 Q1922.52 374.401 1919.38 374.401 M1928.66 359.749 L1928.66 364.008 Q1926.9 363.174 1925.09 362.735 Q1923.31 362.295 1921.55 362.295 Q1916.92 362.295 1914.47 365.42 Q1912.04 368.545 1911.69 374.864 Q1913.06 372.85 1915.12 371.786 Q1917.18 370.698 1919.65 370.698 Q1924.86 370.698 1927.87 373.869 Q1930.9 377.017 1930.9 382.457 Q1930.9 387.781 1927.76 390.998 Q1924.61 394.216 1919.38 394.216 Q1913.38 394.216 1910.21 389.633 Q1907.04 385.026 1907.04 376.299 Q1907.04 368.105 1910.93 363.244 Q1914.82 358.36 1921.37 358.36 Q1923.13 358.36 1924.91 358.707 Q1926.71 359.054 1928.66 359.749 Z" fill="#000000" fill-rule="nonzero" fill-opacity="1" /><path clip-path="url(#clip490)" d="M1968.45 371.6 Q1967.73 371.184 1966.88 370.998 Q1966.04 370.79 1965.02 370.79 Q1961.41 370.79 1959.47 373.151 Q1957.55 375.489 1957.55 379.887 L1957.55 393.545 L1953.26 393.545 L1953.26 367.619 L1957.55 367.619 L1957.55 371.647 Q1958.89 369.286 1961.04 368.151 Q1963.19 366.994 1966.27 366.994 Q1966.71 366.994 1967.25 367.063 Q1967.78 367.11 1968.43 367.225 L1968.45 371.6 Z" fill="#000000" fill-rule="nonzero" fill-opacity="1" /><path clip-path="url(#clip490)" d="M1994.05 379.517 L1994.05 381.6 L1974.47 381.6 Q1974.75 385.998 1977.11 388.313 Q1979.49 390.605 1983.73 390.605 Q1986.18 390.605 1988.47 390.003 Q1990.79 389.401 1993.06 388.197 L1993.06 392.225 Q1990.76 393.197 1988.36 393.707 Q1985.95 394.216 1983.47 394.216 Q1977.27 394.216 1973.63 390.605 Q1970.02 386.994 1970.02 380.836 Q1970.02 374.471 1973.45 370.744 Q1976.9 366.994 1982.73 366.994 Q1987.96 366.994 1991 370.373 Q1994.05 373.73 1994.05 379.517 M1989.79 378.267 Q1989.75 374.772 1987.82 372.688 Q1985.93 370.605 1982.78 370.605 Q1979.21 370.605 1977.06 372.619 Q1974.93 374.633 1974.61 378.29 L1989.79 378.267 Z" fill="#000000" fill-rule="nonzero" fill-opacity="1" /><path clip-path="url(#clip490)" d="M2018.1 380.281 Q2018.1 375.651 2016.18 373.105 Q2014.28 370.559 2010.83 370.559 Q2007.41 370.559 2005.49 373.105 Q2003.59 375.651 2003.59 380.281 Q2003.59 384.887 2005.49 387.434 Q2007.41 389.98 2010.83 389.98 Q2014.28 389.98 2016.18 387.434 Q2018.1 384.887 2018.1 380.281 M2022.36 390.327 Q2022.36 396.947 2019.42 400.165 Q2016.48 403.406 2010.42 403.406 Q2008.17 403.406 2006.18 403.058 Q2004.19 402.734 2002.32 402.04 L2002.32 397.896 Q2004.19 398.915 2006.02 399.401 Q2007.85 399.887 2009.75 399.887 Q2013.94 399.887 2016.02 397.688 Q2018.1 395.512 2018.1 391.091 L2018.1 388.984 Q2016.78 391.276 2014.72 392.41 Q2012.66 393.545 2009.79 393.545 Q2005.02 393.545 2002.11 389.91 Q1999.19 386.276 1999.19 380.281 Q1999.19 374.262 2002.11 370.628 Q2005.02 366.994 2009.79 366.994 Q2012.66 366.994 2014.72 368.128 Q2016.78 369.262 2018.1 371.554 L2018.1 367.619 L2022.36 367.619 L2022.36 390.327 Z" fill="#000000" fill-rule="nonzero" fill-opacity="1" /><path clip-path="url(#clip490)" d="M2031.13 367.619 L2035.39 367.619 L2035.39 393.545 L2031.13 393.545 L2031.13 367.619 M2031.13 357.526 L2035.39 357.526 L2035.39 362.92 L2031.13 362.92 L2031.13 357.526 Z" fill="#000000" fill-rule="nonzero" fill-opacity="1" /><path clip-path="url(#clip490)" d="M2054.35 370.605 Q2050.93 370.605 2048.94 373.29 Q2046.94 375.952 2046.94 380.605 Q2046.94 385.258 2048.91 387.943 Q2050.9 390.605 2054.35 390.605 Q2057.75 390.605 2059.75 387.92 Q2061.74 385.235 2061.74 380.605 Q2061.74 375.998 2059.75 373.313 Q2057.75 370.605 2054.35 370.605 M2054.35 366.994 Q2059.91 366.994 2063.08 370.605 Q2066.25 374.216 2066.25 380.605 Q2066.25 386.971 2063.08 390.605 Q2059.91 394.216 2054.35 394.216 Q2048.77 394.216 2045.6 390.605 Q2042.45 386.971 2042.45 380.605 Q2042.45 374.216 2045.6 370.605 Q2048.77 366.994 2054.35 366.994 Z" fill="#000000" fill-rule="nonzero" fill-opacity="1" /><path clip-path="url(#clip490)" d="M2094.86 377.897 L2094.86 393.545 L2090.6 393.545 L2090.6 378.035 Q2090.6 374.355 2089.17 372.526 Q2087.73 370.698 2084.86 370.698 Q2081.41 370.698 2079.42 372.897 Q2077.43 375.096 2077.43 378.892 L2077.43 393.545 L2073.15 393.545 L2073.15 367.619 L2077.43 367.619 L2077.43 371.647 Q2078.96 369.309 2081.02 368.151 Q2083.1 366.994 2085.81 366.994 Q2090.28 366.994 2092.57 369.772 Q2094.86 372.526 2094.86 377.897 Z" fill="#000000" fill-rule="nonzero" fill-opacity="1" /><path clip-path="url(#clip490)" d="M2119.88 368.383 L2119.88 372.411 Q2118.08 371.485 2116.13 371.022 Q2114.19 370.559 2112.11 370.559 Q2108.93 370.559 2107.34 371.531 Q2105.76 372.503 2105.76 374.448 Q2105.76 375.929 2106.9 376.785 Q2108.03 377.619 2111.46 378.383 L2112.92 378.707 Q2117.45 379.679 2119.35 381.461 Q2121.27 383.221 2121.27 386.392 Q2121.27 390.003 2118.4 392.109 Q2115.56 394.216 2110.56 394.216 Q2108.47 394.216 2106.2 393.799 Q2103.96 393.406 2101.46 392.596 L2101.46 388.197 Q2103.82 389.424 2106.11 390.049 Q2108.4 390.651 2110.65 390.651 Q2113.66 390.651 2115.28 389.633 Q2116.9 388.591 2116.9 386.716 Q2116.9 384.98 2115.72 384.054 Q2114.56 383.128 2110.6 382.272 L2109.12 381.924 Q2105.16 381.091 2103.4 379.378 Q2101.64 377.642 2101.64 374.633 Q2101.64 370.975 2104.24 368.985 Q2106.83 366.994 2111.6 366.994 Q2113.96 366.994 2116.04 367.341 Q2118.12 367.688 2119.88 368.383 Z" fill="#000000" fill-rule="nonzero" fill-opacity="1" /><polyline clip-path="url(#clip490)" style="stroke:#0000cd; stroke-linecap:round; stroke-linejoin:round; stroke-width:4; stroke-opacity:1; fill:none" points="1742.12,428.105 1883.48,428.105 "/>
<path clip-path="url(#clip490)" d="M1918.89 428.973 Q1915.56 428.973 1913.63 430.755 Q1911.74 432.537 1911.74 435.662 Q1911.74 438.787 1913.63 440.57 Q1915.56 442.352 1918.89 442.352 Q1922.22 442.352 1924.14 440.57 Q1926.07 438.764 1926.07 435.662 Q1926.07 432.537 1924.14 430.755 Q1922.25 428.973 1918.89 428.973 M1914.21 426.982 Q1911.2 426.241 1909.51 424.181 Q1907.85 422.121 1907.85 419.158 Q1907.85 415.014 1910.79 412.607 Q1913.75 410.2 1918.89 410.2 Q1924.05 410.2 1926.99 412.607 Q1929.93 415.014 1929.93 419.158 Q1929.93 422.121 1928.24 424.181 Q1926.57 426.241 1923.59 426.982 Q1926.97 427.769 1928.84 430.061 Q1930.74 432.352 1930.74 435.662 Q1930.74 440.686 1927.66 443.371 Q1924.61 446.056 1918.89 446.056 Q1913.17 446.056 1910.09 443.371 Q1907.04 440.686 1907.04 435.662 Q1907.04 432.352 1908.94 430.061 Q1910.83 427.769 1914.21 426.982 M1912.5 419.598 Q1912.5 422.283 1914.17 423.788 Q1915.86 425.292 1918.89 425.292 Q1921.9 425.292 1923.59 423.788 Q1925.3 422.283 1925.3 419.598 Q1925.3 416.913 1923.59 415.408 Q1921.9 413.903 1918.89 413.903 Q1915.86 413.903 1914.17 415.408 Q1912.5 416.913 1912.5 419.598 Z" fill="#000000" fill-rule="nonzero" fill-opacity="1" /><path clip-path="url(#clip490)" d="M1968.54 423.44 Q1967.82 423.024 1966.97 422.838 Q1966.13 422.63 1965.12 422.63 Q1961.51 422.63 1959.56 424.991 Q1957.64 427.329 1957.64 431.727 L1957.64 445.385 L1953.36 445.385 L1953.36 419.459 L1957.64 419.459 L1957.64 423.487 Q1958.98 421.126 1961.13 419.991 Q1963.29 418.834 1966.37 418.834 Q1966.81 418.834 1967.34 418.903 Q1967.87 418.95 1968.52 419.065 L1968.54 423.44 Z" fill="#000000" fill-rule="nonzero" fill-opacity="1" /><path clip-path="url(#clip490)" d="M1994.14 431.357 L1994.14 433.44 L1974.56 433.44 Q1974.84 437.838 1977.2 440.153 Q1979.58 442.445 1983.82 442.445 Q1986.27 442.445 1988.57 441.843 Q1990.88 441.241 1993.15 440.037 L1993.15 444.065 Q1990.86 445.037 1988.45 445.547 Q1986.04 446.056 1983.57 446.056 Q1977.36 446.056 1973.73 442.445 Q1970.12 438.834 1970.12 432.676 Q1970.12 426.311 1973.54 422.584 Q1976.99 418.834 1982.82 418.834 Q1988.06 418.834 1991.09 422.213 Q1994.14 425.57 1994.14 431.357 M1989.88 430.107 Q1989.84 426.612 1987.92 424.528 Q1986.02 422.445 1982.87 422.445 Q1979.31 422.445 1977.15 424.459 Q1975.02 426.473 1974.7 430.13 L1989.88 430.107 Z" fill="#000000" fill-rule="nonzero" fill-opacity="1" /><path clip-path="url(#clip490)" d="M2018.19 432.121 Q2018.19 427.491 2016.27 424.945 Q2014.38 422.399 2010.93 422.399 Q2007.5 422.399 2005.58 424.945 Q2003.68 427.491 2003.68 432.121 Q2003.68 436.727 2005.58 439.274 Q2007.5 441.82 2010.93 441.82 Q2014.38 441.82 2016.27 439.274 Q2018.19 436.727 2018.19 432.121 M2022.45 442.167 Q2022.45 448.787 2019.51 452.005 Q2016.57 455.246 2010.51 455.246 Q2008.26 455.246 2006.27 454.898 Q2004.28 454.574 2002.41 453.88 L2002.41 449.736 Q2004.28 450.755 2006.11 451.241 Q2007.94 451.727 2009.84 451.727 Q2014.03 451.727 2016.11 449.528 Q2018.19 447.352 2018.19 442.931 L2018.19 440.824 Q2016.88 443.116 2014.81 444.25 Q2012.75 445.385 2009.88 445.385 Q2005.12 445.385 2002.2 441.75 Q1999.28 438.116 1999.28 432.121 Q1999.28 426.102 2002.2 422.468 Q2005.12 418.834 2009.88 418.834 Q2012.75 418.834 2014.81 419.968 Q2016.88 421.102 2018.19 423.394 L2018.19 419.459 L2022.45 419.459 L2022.45 442.167 Z" fill="#000000" fill-rule="nonzero" fill-opacity="1" /><path clip-path="url(#clip490)" d="M2031.23 419.459 L2035.49 419.459 L2035.49 445.385 L2031.23 445.385 L2031.23 419.459 M2031.23 409.366 L2035.49 409.366 L2035.49 414.76 L2031.23 414.76 L2031.23 409.366 Z" fill="#000000" fill-rule="nonzero" fill-opacity="1" /><path clip-path="url(#clip490)" d="M2054.44 422.445 Q2051.02 422.445 2049.03 425.13 Q2047.04 427.792 2047.04 432.445 Q2047.04 437.098 2049 439.783 Q2051 442.445 2054.44 442.445 Q2057.85 442.445 2059.84 439.76 Q2061.83 437.075 2061.83 432.445 Q2061.83 427.838 2059.84 425.153 Q2057.85 422.445 2054.44 422.445 M2054.44 418.834 Q2060 418.834 2063.17 422.445 Q2066.34 426.056 2066.34 432.445 Q2066.34 438.811 2063.17 442.445 Q2060 446.056 2054.44 446.056 Q2048.87 446.056 2045.69 442.445 Q2042.55 438.811 2042.55 432.445 Q2042.55 426.056 2045.69 422.445 Q2048.87 418.834 2054.44 418.834 Z" fill="#000000" fill-rule="nonzero" fill-opacity="1" /><path clip-path="url(#clip490)" d="M2094.95 429.737 L2094.95 445.385 L2090.69 445.385 L2090.69 429.875 Q2090.69 426.195 2089.26 424.366 Q2087.82 422.538 2084.95 422.538 Q2081.5 422.538 2079.51 424.737 Q2077.52 426.936 2077.52 430.732 L2077.52 445.385 L2073.24 445.385 L2073.24 419.459 L2077.52 419.459 L2077.52 423.487 Q2079.05 421.149 2081.11 419.991 Q2083.19 418.834 2085.9 418.834 Q2090.37 418.834 2092.66 421.612 Q2094.95 424.366 2094.95 429.737 Z" fill="#000000" fill-rule="nonzero" fill-opacity="1" /><path clip-path="url(#clip490)" d="M2119.98 420.223 L2119.98 424.251 Q2118.17 423.325 2116.23 422.862 Q2114.28 422.399 2112.2 422.399 Q2109.03 422.399 2107.43 423.371 Q2105.86 424.343 2105.86 426.288 Q2105.86 427.769 2106.99 428.625 Q2108.12 429.459 2111.55 430.223 L2113.01 430.547 Q2117.55 431.519 2119.44 433.301 Q2121.37 435.061 2121.37 438.232 Q2121.37 441.843 2118.49 443.949 Q2115.65 446.056 2110.65 446.056 Q2108.56 446.056 2106.3 445.639 Q2104.05 445.246 2101.55 444.436 L2101.55 440.037 Q2103.91 441.264 2106.2 441.889 Q2108.5 442.491 2110.74 442.491 Q2113.75 442.491 2115.37 441.473 Q2116.99 440.431 2116.99 438.556 Q2116.99 436.82 2115.81 435.894 Q2114.65 434.968 2110.69 434.112 L2109.21 433.764 Q2105.25 432.931 2103.5 431.218 Q2101.74 429.482 2101.74 426.473 Q2101.74 422.815 2104.33 420.825 Q2106.92 418.834 2111.69 418.834 Q2114.05 418.834 2116.13 419.181 Q2118.22 419.528 2119.98 420.223 Z" fill="#000000" fill-rule="nonzero" fill-opacity="1" /><polyline clip-path="url(#clip490)" style="stroke:#436eee; stroke-linecap:round; stroke-linejoin:round; stroke-width:4; stroke-opacity:1; fill:none" stroke-dasharray="2, 4" points="1742.12,479.945 1883.48,479.945 "/>
<path clip-path="url(#clip490)" d="M1907.71 493.289 L1915.35 493.289 L1915.35 466.924 L1907.04 468.591 L1907.04 464.331 L1915.3 462.665 L1919.98 462.665 L1919.98 493.289 L1927.62 493.289 L1927.62 497.225 L1907.71 497.225 L1907.71 493.289 Z" fill="#000000" fill-rule="nonzero" fill-opacity="1" /><path clip-path="url(#clip490)" d="M1941.09 493.289 L1957.41 493.289 L1957.41 497.225 L1935.46 497.225 L1935.46 493.289 Q1938.13 490.535 1942.71 485.905 Q1947.32 481.253 1948.5 479.91 Q1950.74 477.387 1951.62 475.651 Q1952.52 473.891 1952.52 472.202 Q1952.52 469.447 1950.58 467.711 Q1948.66 465.975 1945.56 465.975 Q1943.36 465.975 1940.9 466.739 Q1938.47 467.503 1935.7 469.054 L1935.7 464.331 Q1938.52 463.197 1940.97 462.618 Q1943.43 462.04 1945.46 462.04 Q1950.83 462.04 1954.03 464.725 Q1957.22 467.41 1957.22 471.901 Q1957.22 474.03 1956.41 475.952 Q1955.63 477.85 1953.52 480.442 Q1952.94 481.114 1949.84 484.331 Q1946.74 487.526 1941.09 493.289 Z" fill="#000000" fill-rule="nonzero" fill-opacity="1" /><path clip-path="url(#clip490)" d="M1996.71 475.28 Q1996 474.864 1995.14 474.678 Q1994.31 474.47 1993.29 474.47 Q1989.68 474.47 1987.73 476.831 Q1985.81 479.169 1985.81 483.567 L1985.81 497.225 L1981.53 497.225 L1981.53 471.299 L1985.81 471.299 L1985.81 475.327 Q1987.15 472.966 1989.31 471.831 Q1991.46 470.674 1994.54 470.674 Q1994.98 470.674 1995.51 470.743 Q1996.04 470.79 1996.69 470.905 L1996.71 475.28 Z" fill="#000000" fill-rule="nonzero" fill-opacity="1" /><path clip-path="url(#clip490)" d="M2022.31 483.197 L2022.31 485.28 L2002.73 485.28 Q2003.01 489.678 2005.37 491.993 Q2007.75 494.285 2011.99 494.285 Q2014.44 494.285 2016.74 493.683 Q2019.05 493.081 2021.32 491.877 L2021.32 495.905 Q2019.03 496.877 2016.62 497.387 Q2014.21 497.896 2011.74 497.896 Q2005.53 497.896 2001.9 494.285 Q1998.29 490.674 1998.29 484.516 Q1998.29 478.151 2001.71 474.424 Q2005.16 470.674 2011 470.674 Q2016.23 470.674 2019.26 474.053 Q2022.31 477.41 2022.31 483.197 M2018.06 481.947 Q2018.01 478.452 2016.09 476.368 Q2014.19 474.285 2011.04 474.285 Q2007.48 474.285 2005.32 476.299 Q2003.19 478.313 2002.87 481.97 L2018.06 481.947 Z" fill="#000000" fill-rule="nonzero" fill-opacity="1" /><path clip-path="url(#clip490)" d="M2046.37 483.961 Q2046.37 479.331 2044.44 476.785 Q2042.55 474.239 2039.1 474.239 Q2035.67 474.239 2033.75 476.785 Q2031.85 479.331 2031.85 483.961 Q2031.85 488.567 2033.75 491.114 Q2035.67 493.66 2039.1 493.66 Q2042.55 493.66 2044.44 491.114 Q2046.37 488.567 2046.37 483.961 M2050.62 494.007 Q2050.62 500.627 2047.69 503.845 Q2044.75 507.086 2038.68 507.086 Q2036.44 507.086 2034.44 506.738 Q2032.45 506.414 2030.58 505.72 L2030.58 501.576 Q2032.45 502.595 2034.28 503.081 Q2036.11 503.567 2038.01 503.567 Q2042.2 503.567 2044.28 501.368 Q2046.37 499.192 2046.37 494.771 L2046.37 492.664 Q2045.05 494.956 2042.99 496.09 Q2040.93 497.225 2038.06 497.225 Q2033.29 497.225 2030.37 493.59 Q2027.45 489.956 2027.45 483.961 Q2027.45 477.942 2030.37 474.308 Q2033.29 470.674 2038.06 470.674 Q2040.93 470.674 2042.99 471.808 Q2045.05 472.942 2046.37 475.234 L2046.37 471.299 L2050.62 471.299 L2050.62 494.007 Z" fill="#000000" fill-rule="nonzero" fill-opacity="1" /><path clip-path="url(#clip490)" d="M2059.4 471.299 L2063.66 471.299 L2063.66 497.225 L2059.4 497.225 L2059.4 471.299 M2059.4 461.206 L2063.66 461.206 L2063.66 466.6 L2059.4 466.6 L2059.4 461.206 Z" fill="#000000" fill-rule="nonzero" fill-opacity="1" /><path clip-path="url(#clip490)" d="M2082.62 474.285 Q2079.19 474.285 2077.2 476.97 Q2075.21 479.632 2075.21 484.285 Q2075.21 488.938 2077.18 491.623 Q2079.17 494.285 2082.62 494.285 Q2086.02 494.285 2088.01 491.6 Q2090 488.915 2090 484.285 Q2090 479.678 2088.01 476.993 Q2086.02 474.285 2082.62 474.285 M2082.62 470.674 Q2088.17 470.674 2091.34 474.285 Q2094.51 477.896 2094.51 484.285 Q2094.51 490.651 2091.34 494.285 Q2088.17 497.896 2082.62 497.896 Q2077.04 497.896 2073.87 494.285 Q2070.72 490.651 2070.72 484.285 Q2070.72 477.896 2073.87 474.285 Q2077.04 470.674 2082.62 470.674 Z" fill="#000000" fill-rule="nonzero" fill-opacity="1" /><path clip-path="url(#clip490)" d="M2123.12 481.577 L2123.12 497.225 L2118.87 497.225 L2118.87 481.715 Q2118.87 478.035 2117.43 476.206 Q2116 474.378 2113.12 474.378 Q2109.68 474.378 2107.68 476.577 Q2105.69 478.776 2105.69 482.572 L2105.69 497.225 L2101.41 497.225 L2101.41 471.299 L2105.69 471.299 L2105.69 475.327 Q2107.22 472.989 2109.28 471.831 Q2111.37 470.674 2114.07 470.674 Q2118.54 470.674 2120.83 473.452 Q2123.12 476.206 2123.12 481.577 Z" fill="#000000" fill-rule="nonzero" fill-opacity="1" /><path clip-path="url(#clip490)" d="M2148.15 472.063 L2148.15 476.091 Q2146.34 475.165 2144.4 474.702 Q2142.45 474.239 2140.37 474.239 Q2137.2 474.239 2135.6 475.211 Q2134.03 476.183 2134.03 478.128 Q2134.03 479.609 2135.16 480.465 Q2136.3 481.299 2139.72 482.063 L2141.18 482.387 Q2145.72 483.359 2147.62 485.141 Q2149.54 486.901 2149.54 490.072 Q2149.54 493.683 2146.67 495.789 Q2143.82 497.896 2138.82 497.896 Q2136.74 497.896 2134.47 497.479 Q2132.22 497.086 2129.72 496.276 L2129.72 491.877 Q2132.08 493.104 2134.37 493.729 Q2136.67 494.331 2138.91 494.331 Q2141.92 494.331 2143.54 493.313 Q2145.16 492.271 2145.16 490.396 Q2145.16 488.66 2143.98 487.734 Q2142.82 486.808 2138.87 485.952 L2137.38 485.604 Q2133.43 484.771 2131.67 483.058 Q2129.91 481.322 2129.91 478.313 Q2129.91 474.655 2132.5 472.665 Q2135.09 470.674 2139.86 470.674 Q2142.22 470.674 2144.31 471.021 Q2146.39 471.368 2148.15 472.063 Z" fill="#000000" fill-rule="nonzero" fill-opacity="1" /></svg>
